<svg width="399" height="128" viewBox="0 0 399 128" fill="none" xmlns="http://www.w3.org/2000/svg">
<path d="M3.50051 31.6195C5.36628 51.5592 7.02737 71.5263 9.18995 91.4368C9.94573 98.3951 11.2952 105.361 11.7988 112.345L12.3196 119.57C30.7951 113.509 48.7361 116.273 67.7964 118.598C80.4188 120.138 92.4642 122.634 105.065 120.936C131.315 117.397 157.733 115.311 183.951 111.462C206.402 108.166 228.26 103.904 250.967 102.983C277.859 101.892 304.484 99.6061 331.234 96.9199C342.224 95.8164 353.307 95.3183 364.263 93.9191C375.101 92.535 385.873 90.2414 396.655 88.7615M395.118 93.2087C393.652 65.6453 394.356 36.2073 388.497 9.02347C388.195 7.62146 387.634 6.58971 387.531 5.16974C355.423 9.04958 323.648 12.2813 291.393 14.0287C272.387 15.0583 253.401 16.6991 234.416 18.0679C205.777 20.1328 176.95 20.2542 148.268 18.9447C137.397 18.4484 126.866 18.5513 116.035 20.0986C94.7989 23.1324 73.8416 28.9513 52.4327 30.5694C42.3221 31.3335 32.251 31.8086 22.1246 32.1695C15.5486 32.4039 8.96147 33.0842 2.40116 33.5572" stroke="white" stroke-width="3" stroke-linecap="round"/>
<g filter="url(#filter0_b_1_26)">
<path d="M25.1731 85.6514C25.6751 70.6028 24.4318 60.4679 25.2375 44.3646C25.3431 42.2539 24.3751 40.6899 25.5422 38.9618C26.3118 37.8222 27.1402 37.6339 28.5204 37.6264C33.3948 37.6001 38.3063 38.0776 43.1813 38.121C79.3158 38.4422 115.233 34.3596 151.322 33.5709C169.955 33.1637 187.801 31.6578 206.051 27.8723C223.387 24.2763 240.412 25.1543 258.004 24.7298C281.602 24.1604 305.132 22.0798 328.705 20.9827C345.155 20.2172 360.657 18.753 376.644 15.0006C377.717 42.7523 375.104 17.32 377.167 45.9346C378.047 58.1371 379.452 66.1704 381.224 78.2834C373.649 79.8546 366.255 81.8525 358.74 83.6685C348.589 86.1217 338.96 85.5379 328.622 85.1792C317.149 84.7811 305.645 84.729 294.173 85.2206C280.346 85.8131 267.056 88.6535 253.357 90.2035C238.913 91.8379 224.515 91.8951 210.018 92.4662C194.318 93.0848 178.6 92.2279 162.925 92.8734C149.453 93.4281 136.13 97.729 122.763 99.3607C90.2614 103.328 57.5367 104.972 24.8791 107.079C24.3626 99.9147 24.9339 92.8232 25.1731 85.6514Z" fill="#D9D9D9" fill-opacity="0.01"/>
<path d="M376.624 14.482C377.75 43.0675 375.092 17.1438 377.167 45.9346C378.047 58.1371 379.452 66.1704 381.224 78.2834C373.649 79.8546 366.255 81.8525 358.74 83.6685C348.589 86.1217 338.96 85.5379 328.622 85.1792C317.149 84.7811 305.645 84.729 294.173 85.2206C280.346 85.8131 267.056 88.6535 253.357 90.2035C238.913 91.8379 224.515 91.8951 210.018 92.4662C194.318 93.0848 178.6 92.2279 162.925 92.8734C149.453 93.4281 136.13 97.729 122.763 99.3607C90.2614 103.328 57.5367 104.972 24.8791 107.079C24.3626 99.9147 24.9339 92.8232 25.1731 85.6514C25.6751 70.6028 24.4318 60.4679 25.2375 44.3646C25.3431 42.2539 24.3751 40.6899 25.5422 38.9618C26.3118 37.8222 27.1402 37.6339 28.5204 37.6264C33.3948 37.6001 38.3063 38.0776 43.1813 38.121C79.3158 38.4422 115.233 34.3596 151.322 33.5709C169.955 33.1637 187.801 31.6578 206.051 27.8723C223.387 24.2763 240.412 25.1543 258.004 24.7298C281.602 24.1604 305.132 22.0798 328.705 20.9827C345.161 20.2169 360.668 18.752 376.661 14.9966" stroke="white" stroke-width="3" stroke-linecap="round"/>
</g>
<path d="M70.8489 57.3088C71.5592 57.1108 72.4354 56.9742 73.4776 56.899C74.5199 56.8239 75.0897 56.8513 75.1872 56.9814C75.2408 57.046 75.3619 57.0961 75.5505 57.1314C75.7488 57.1661 75.96 57.1753 76.184 57.1592C76.4081 57.143 76.5994 57.1488 76.758 57.1765C76.9264 57.2036 77.0127 57.2463 77.017 57.3047C77.0212 57.3632 77.1367 57.4723 77.3637 57.6322C77.5996 57.7816 77.8749 57.9331 78.1895 58.0867C78.7992 58.3952 79.4727 58.8411 80.2099 59.4243C80.9561 59.9972 81.3356 60.3712 81.3482 60.5466C81.3588 60.6927 81.5398 60.895 81.8913 61.1536C82.1287 61.3225 82.2774 61.5517 82.3374 61.8411C82.4065 62.12 82.464 62.7817 82.5099 63.826L82.5866 66.1116L83.9542 66.7473C84.3286 66.9161 84.6697 67.0971 84.9773 67.2903C85.2843 67.4738 85.4702 67.6073 85.5349 67.6907C85.5892 67.7652 85.6627 67.8333 85.7553 67.8952C85.8479 67.957 85.9234 67.9858 85.9818 67.9816C86.1279 67.9711 86.3684 68.1153 86.7033 68.4143C87.0472 68.7028 87.2244 68.9201 87.2349 69.0662C87.2391 69.1246 87.283 69.19 87.3666 69.2623C87.4494 69.3249 87.5458 69.3718 87.6557 69.403C87.9063 69.4829 88.0371 70.007 88.0482 70.9755C88.0592 71.944 87.9433 72.8483 87.7004 73.6882C87.5275 74.2784 87.1175 75.0423 86.4704 75.9799C85.833 76.9168 85.3925 77.3941 85.149 77.4116C84.9737 77.4243 84.7671 77.5469 84.5293 77.7794C84.2915 78.012 83.7448 78.3059 82.8893 78.6614C82.0337 79.0168 81.4529 79.3132 81.147 79.5507C80.8869 79.7457 80.1345 79.9027 78.8898 80.0218C77.6549 80.1402 76.468 80.1769 75.329 80.1317C74.1906 80.0963 73.6148 79.986 73.6015 79.801C73.5888 79.6256 73.2635 79.5952 72.6256 79.7098C72.1998 79.7796 71.8815 79.7781 71.6706 79.7052C71.4695 79.6316 71.1698 79.4133 70.7716 79.0504C70.1847 78.515 69.8864 78.1792 69.8765 78.0428C69.8723 77.9844 69.8389 77.928 69.7762 77.8738C69.7136 77.8196 69.6374 77.781 69.5476 77.7581C69.4272 77.7178 69.3635 77.649 69.3565 77.5516C69.3487 77.4444 69.3942 77.26 69.4928 76.9984C69.6491 76.5857 69.6577 75.3465 69.5185 73.2808C69.3884 71.2047 69.1985 69.6568 68.9487 68.6369C68.6975 67.5976 68.4194 65.777 68.1143 63.175C67.8085 60.5633 67.6983 59.1026 67.7837 58.7929C67.8628 58.5326 68.1152 58.299 68.5409 58.0921C68.9756 57.8747 69.745 57.6136 70.8489 57.3088ZM76.8791 61.9115C76.4921 61.5674 76.0623 61.3781 75.5898 61.3436C75.1264 61.2987 74.4032 61.3851 73.4203 61.6028L72.7848 61.7514L72.9628 64.2206L73.1408 66.6898L74.0102 66.7299C74.5606 66.7588 75.2308 66.5489 76.0209 66.1003C76.811 65.6517 77.2974 65.2005 77.4801 64.7467C77.7052 64.2018 77.766 63.6883 77.6628 63.2062C77.5588 62.7143 77.2976 62.2828 76.8791 61.9115ZM78.2168 69.2611C77.1547 68.7894 76.3976 68.609 75.9454 68.7199C75.7722 68.7618 75.6905 68.8509 75.7004 68.9873C75.713 69.1626 75.3471 69.2477 74.6026 69.2427L73.4859 69.2351L73.9203 72.8166C74.219 75.1939 74.4119 76.443 74.499 76.564C74.6083 76.7226 75.2456 76.7353 76.411 76.6024C77.5756 76.4597 78.4382 76.2702 78.9989 76.0339C80.1201 75.5615 81.0854 74.8261 81.8946 73.8278C82.7128 72.8191 83.0959 71.8858 83.0439 71.0279C83.0325 70.735 82.9851 70.5524 82.9016 70.4801C82.818 70.4078 82.635 70.3818 82.3525 70.4022C81.9142 70.4338 81.4577 70.3492 80.9831 70.1485C80.5175 69.9373 80.1727 69.8397 79.9486 69.8559C79.7246 69.872 79.1473 69.6738 78.2168 69.2611ZM89.5815 57.2066C89.6733 57.1216 89.787 57.0694 89.9227 57.0498C90.0576 57.0205 90.1853 57.026 90.3057 57.0662C91.1332 57.408 91.7516 57.7012 92.1609 57.9459C92.5694 58.1808 92.953 58.4762 93.3116 58.8322L94.1168 59.6113L93.9907 61.5296L93.8174 64.6262C93.7665 65.4132 93.8687 66.8304 94.124 68.8779C94.4031 71.1195 94.7848 72.7467 95.269 73.7594C95.7532 74.7721 96.3742 75.2365 97.1318 75.1525C97.5597 75.1118 98.5815 74.6857 100.197 73.874C101.813 73.0624 102.898 72.4309 103.453 71.9797C103.916 71.6037 104.306 70.9783 104.625 70.1035C104.953 69.2182 105.152 68.2492 105.223 67.1965C105.303 66.1333 105.239 65.1735 105.03 64.3171L104.367 61.6333C104.134 60.7102 104.008 59.98 103.989 59.4429C103.979 58.9051 104.074 58.3891 104.274 57.895C104.34 57.7238 104.385 57.603 104.409 57.5327C104.442 57.452 104.49 57.3702 104.553 57.2874C104.615 57.2045 104.665 57.152 104.703 57.1297C104.741 57.1074 104.813 57.0875 104.919 57.0701C105.035 57.0519 105.142 57.0442 105.24 57.0469C105.339 57.0496 105.491 57.0582 105.698 57.0727C105.973 57.092 106.155 57.1033 106.243 57.1067C106.342 57.1095 106.471 57.1442 106.633 57.2108C106.803 57.2671 106.904 57.3088 106.936 57.3359C106.977 57.3623 107.067 57.4586 107.206 57.6248C107.355 57.7903 107.463 57.9294 107.53 58.042C107.597 58.1547 107.735 58.3748 107.945 58.7024C108.74 59.957 109.368 61.4734 109.829 63.2515C110.29 65.0296 110.473 66.6172 110.378 68.0144C110.312 68.8612 110.12 70.001 109.802 71.4338C109.484 72.8569 109.246 73.6328 109.089 73.7616C108.978 73.848 108.74 74.2176 108.376 74.8705C108.081 75.3911 107.49 76.0212 106.603 76.7607C105.716 77.5002 105.084 77.8885 104.704 77.9256C104.384 77.9585 103.985 78.1293 103.508 78.4378C102.61 79.0215 101.929 79.423 101.465 79.6425C101.002 79.8717 100.391 80.0969 99.6338 80.3179C98.5702 80.6394 97.8814 80.7282 97.5675 80.5844C97.2543 80.4503 96.9711 80.3924 96.7179 80.4107C96.4549 80.4296 95.8588 80.174 94.9296 79.6437C94.0011 79.1232 93.3262 78.6579 92.905 78.2476L91.5025 76.9242C90.8724 76.3332 90.3865 75.5017 90.0449 74.4298C89.7026 73.3481 89.3332 71.485 88.937 68.8407C88.7384 67.4451 88.6139 66.3966 88.5633 65.6953C88.5121 64.9843 88.528 64.3222 88.6111 63.7092C88.7307 62.653 88.7561 61.579 88.6872 60.4874C88.6379 59.6685 88.6834 59.0092 88.8236 58.5096C88.9631 58.0002 89.2158 57.5658 89.5815 57.2066ZM110.925 53.8025C111.242 53.4468 111.546 53.2438 111.836 53.1935C112.135 53.1327 112.653 53.1835 113.389 53.3458C113.847 53.4499 114.385 53.7195 115.004 54.1546C115.632 54.5793 115.954 54.9037 115.97 55.1277C115.977 55.2251 116.32 55.7046 116.999 56.5662C117.678 57.4279 118.089 58.0346 118.232 58.3866C118.281 58.5299 118.363 58.6513 118.478 58.7507C118.593 58.8501 118.699 58.8963 118.797 58.8893C119.021 58.8731 119.454 58.4943 120.095 57.7529C120.737 57.0115 121.393 56.1271 122.063 55.0997C122.345 54.6681 122.612 54.2964 122.864 53.9845C123.124 53.6622 123.294 53.4982 123.372 53.4926C123.565 53.4591 123.778 53.4241 124.01 53.3878C124.755 53.2558 125.663 53.626 126.734 54.4985C127.265 54.94 127.577 55.2553 127.669 55.4445C127.77 55.6232 127.8 55.9833 127.761 56.5246C127.727 56.9971 127.632 57.3809 127.477 57.676C127.332 57.9704 127.01 58.3901 126.51 58.9353C125.83 59.6795 125.077 60.5758 124.252 61.6242C123.435 62.6621 122.866 63.4522 122.543 63.9944C122.227 64.5067 122.122 65.4885 122.226 66.9398C122.331 68.3912 122.662 70.6045 123.219 73.58C123.391 74.4684 123.397 75.2268 123.236 75.8551C123.086 76.4828 122.793 76.9054 122.358 77.1227C121.905 77.3513 121.348 77.4355 120.688 77.3754C120.038 77.3243 119.511 77.142 119.106 76.8285C118.796 76.6061 118.453 76.1217 118.076 75.3754C117.709 74.6284 117.48 73.9693 117.39 73.3981C117.322 73.0016 117.197 71.7329 117.013 69.5921C116.865 67.9481 116.64 66.4614 116.339 65.132C116.037 63.8026 115.747 63.0402 115.469 62.8449C115.335 62.7469 114.987 62.2726 114.427 61.422C113.865 60.5617 113.398 59.7925 113.026 59.1144C112.948 58.9732 112.861 58.8571 112.766 58.766C112.681 58.6644 112.614 58.6154 112.565 58.619C112.516 58.6225 112.471 58.6013 112.428 58.5554C112.386 58.5095 112.362 58.4525 112.357 58.3843C112.344 58.2089 112.17 57.9669 111.835 57.6582C111.614 57.449 111.326 56.9802 110.97 56.252C110.623 55.523 110.439 55.0027 110.416 54.691C110.411 54.6131 110.456 54.4875 110.551 54.3142C110.656 54.1402 110.781 53.9696 110.925 53.8025ZM148.094 50.917C148.303 50.5495 148.595 50.3277 148.971 50.2516C149.357 50.1651 149.894 50.2145 150.583 50.3998C151.242 50.5775 151.797 50.8801 152.249 51.3077C152.701 51.7353 153.007 52.242 153.167 52.8277C153.367 53.5672 153.558 55.2668 153.74 57.9266C153.931 60.576 153.982 62.3739 153.894 63.3202C153.812 64.3639 153.762 65.7676 153.742 67.5314C153.739 68.8437 153.656 69.9316 153.493 70.7951C153.339 71.6482 153.143 72.1274 152.906 72.2326C152.83 72.2675 152.771 72.3256 152.728 72.407C152.685 72.4885 152.666 72.573 152.673 72.6607C152.701 73.06 152.18 73.2983 151.109 73.3756C150.846 73.3945 150.427 73.2925 149.853 73.0696C149.279 72.8564 148.753 72.6104 148.272 72.3317C147.802 72.0523 147.561 71.8347 147.55 71.6789C147.54 71.5425 147.452 71.4803 147.287 71.4922C147.131 71.5035 146.753 71.2272 146.155 70.6633C145.566 70.0987 145.26 69.7243 145.237 69.5399C145.231 69.462 145.191 69.3816 145.116 69.2989C145.051 69.2057 144.977 69.1376 144.896 69.0945C144.804 69.0424 144.666 68.8956 144.482 68.6543C144.298 68.4033 144.117 68.1324 143.939 67.8417C143.491 67.0516 143.183 66.6576 143.017 66.6598C142.832 66.6732 142.756 67.2514 142.789 68.3945C142.803 68.9908 142.852 69.8685 142.935 71.0276C142.998 71.9042 143.035 72.6115 143.044 73.1493C143.064 73.6961 143.052 74.1425 143.009 74.4883C142.975 74.8334 142.909 75.0732 142.811 75.2075C142.723 75.3509 142.601 75.4282 142.446 75.4395C142.348 75.4465 142.257 75.4775 142.173 75.5325C142.099 75.5869 142.055 75.6537 142.041 75.733C142.009 75.8332 141.896 75.8952 141.702 75.919C141.508 75.9525 141.268 75.9405 140.98 75.883C140.702 75.8344 140.408 75.7626 140.097 75.6675C139.798 75.5814 139.505 75.4654 139.221 75.3195C138.946 75.1826 138.735 75.0412 138.588 74.8952C138.125 74.4488 137.887 74.1428 137.875 73.9772C137.864 73.8116 137.591 70.3065 137.059 63.4619L136.273 53.1792L137.691 53.0917C138.725 53.0367 139.497 53.1475 140.006 53.4241C140.515 53.6909 141.022 54.2761 141.528 55.1795C142.079 56.1679 142.69 57.1078 143.362 57.9993C144.042 58.8804 144.671 59.7995 145.249 60.7565C146.825 63.3256 147.811 64.7819 148.208 65.1253C148.365 65.2609 148.456 65.2445 148.484 65.0761C148.504 64.9474 148.504 64.6781 148.484 64.2683C148.448 63.4974 148.434 62.0739 148.44 59.9977C148.45 58.0878 148.412 56.4162 148.329 54.983C148.244 53.54 148.123 52.6088 147.966 52.1893C147.808 51.7699 147.851 51.3458 148.094 50.917ZM156.889 51.5019C157.417 51.219 157.956 51.0235 158.507 50.9153C159.057 50.8071 160.203 50.6804 161.945 50.5352C163.483 50.4048 164.56 50.3418 165.177 50.3462C165.794 50.3409 166.244 50.4015 166.527 50.528C167.002 50.7287 167.317 50.8235 167.473 50.8122C167.541 50.8073 167.642 50.8539 167.777 50.9519C167.92 51.0395 168.055 51.1521 168.183 51.2898C168.373 51.4817 168.521 51.7648 168.626 52.139C168.741 52.5126 168.785 52.8521 168.758 53.1575C168.74 53.4526 168.653 53.6057 168.497 53.6169C168.4 53.6239 168.31 53.6598 168.226 53.7246C168.152 53.7887 168.099 53.8659 168.067 53.9564C168.012 54.1561 167.123 54.3769 165.397 54.6188C163.671 54.851 162.413 55.0494 161.622 55.2141L160.434 55.4466L160.531 57.5986C160.555 58.0766 160.573 58.4571 160.584 58.7403C160.604 59.0228 160.634 59.236 160.674 59.38C160.713 59.5143 160.758 59.5991 160.81 59.6346C160.861 59.67 160.935 59.6745 161.031 59.648C161.388 59.5733 161.947 59.7288 162.709 60.1144C163.481 60.4896 163.967 60.856 164.169 61.2135C164.46 61.7114 164.537 62.1758 164.402 62.6066C164.266 63.0374 163.954 63.3194 163.464 63.4526C161.786 63.9359 160.937 64.0509 160.919 63.7976C160.906 63.6223 160.846 63.5385 160.739 63.5462C160.595 63.5763 160.478 63.7266 160.39 63.9973C160.373 64.0377 160.362 64.0826 160.356 64.132C160.274 64.4904 160.234 65.2324 160.237 66.3582C160.239 67.4742 160.217 68.1808 160.17 68.4779C160.145 68.6755 160.197 68.7844 160.325 68.8045C160.494 68.8315 161.071 68.7654 162.059 68.6061C163.481 68.3665 164.574 68.2582 165.34 68.2814C166.104 68.2948 166.869 68.4404 167.633 68.7182C168.267 68.9564 168.652 69.144 168.79 69.281C168.936 69.4075 169.023 69.6607 169.05 70.0406C169.089 70.5763 168.943 71.0617 168.612 71.4968L168.13 72.1484L162.808 72.679L157.486 73.2242L156.711 72.4576C156.196 71.9563 155.852 71.5356 155.68 71.1955C155.51 70.8651 155.422 69.6475 155.417 67.5428C155.421 65.4277 155.509 63.3848 155.68 61.4143C155.863 59.3352 155.865 57.4552 155.685 55.7744C155.615 55.0842 155.569 54.4365 155.545 53.8312C155.521 53.2259 155.533 52.848 155.58 52.6977C155.627 52.5279 155.77 52.3365 156.009 52.1234C156.257 51.8999 156.551 51.6927 156.889 51.5019ZM170.321 48.5654C171.117 48.0577 171.806 48.0374 172.388 48.5046C172.709 48.7555 173.011 48.9247 173.291 49.0122C173.611 49.1066 173.842 49.3201 173.983 49.6526C174.252 50.2598 174.515 52.0032 174.772 54.8829C174.887 56.0788 175.04 57.9232 175.229 60.416C175.667 66.0731 175.855 69.4961 175.794 70.6852C175.745 71.5112 175.578 71.9785 175.292 72.0872C175.244 72.1005 175.186 72.1096 175.118 72.1145C175.001 72.1229 174.886 72.1557 174.773 72.2128C174.669 72.2692 174.6 72.3329 174.566 72.4039C174.472 72.587 174.151 72.5465 173.603 72.2825C173.056 72.0282 172.531 71.6744 172.028 71.2211L171.21 70.4577L170.405 61.3366C169.869 55.2559 169.586 52.0159 169.557 51.6166C169.496 50.8965 169.538 50.257 169.684 49.6982C169.829 49.1297 170.041 48.7521 170.321 48.5654ZM181.139 48.0646C182.307 47.8335 183.474 47.8619 184.64 48.1499C185.816 48.4274 186.95 48.9478 188.043 49.711C188.858 50.2984 189.674 51.1502 190.488 52.2663C191.303 53.3825 191.934 54.5266 192.381 55.6987C192.632 56.3366 192.697 57.0907 192.573 57.9612C192.46 58.831 192.188 59.6143 191.759 60.3111C191.478 60.7621 191.328 61.0569 191.308 61.1953C191.298 61.3234 191.391 61.4635 191.588 61.6157C192.418 62.2609 193.316 63.234 194.281 64.5351C195.256 65.8356 195.811 66.8138 195.947 67.4698C196.048 67.9325 196.072 68.2636 196.018 68.4634C195.964 68.6631 195.792 68.93 195.503 69.2642C195.231 69.5677 195.001 69.7655 194.812 69.8574C194.632 69.9487 194.399 69.9753 194.112 69.9372C193.707 69.8881 193.19 69.6366 192.56 69.1827C191.94 68.728 191.62 68.3741 191.602 68.1209C191.597 68.0429 191.567 67.9765 191.514 67.9216C191.461 67.8569 191.405 67.8267 191.346 67.8309C191.288 67.8351 191.217 67.7962 191.132 67.7141C191.058 67.6314 191.002 67.5326 190.964 67.4179C190.916 67.294 190.764 67.0896 190.509 66.8045C190.253 66.5194 189.963 66.2319 189.639 65.942C188.865 65.2537 188.475 64.8706 188.469 64.7926C188.463 64.7147 188.283 64.5221 187.928 64.2148C187.572 63.8978 186.734 63.684 185.414 63.5736C184.104 63.4625 183.298 63.3541 182.997 63.2485C182.797 63.1847 182.686 63.2171 182.666 63.3458C182.637 63.485 182.693 63.9901 182.834 64.8611C183.007 65.8963 183.04 67.1716 182.934 68.6871C182.837 70.1921 182.654 71.1844 182.385 71.664C182.185 72.0113 181.874 72.2491 181.452 72.3774C181.031 72.5155 180.593 72.5422 180.136 72.4576C179.69 72.3723 179.255 72.1882 178.833 71.9053C178.421 71.6217 178.122 71.2761 177.936 70.8685C177.687 70.2697 177.597 69.9041 177.666 69.7718C177.847 69.4259 177.954 68.6055 177.988 67.3107C178.031 66.0054 177.981 64.9026 177.838 64.0024C177.623 62.6569 177.448 61.1764 177.312 59.5609C177.233 58.5973 177.13 57.846 177.003 57.3068C176.885 56.7572 176.679 56.1406 176.385 55.4568L175.644 53.7478L176.139 52.4638C176.413 51.7783 176.787 51.1247 177.261 50.503C177.735 49.8814 178.113 49.5604 178.396 49.54C178.493 49.533 178.57 49.5079 178.625 49.4647C178.691 49.4209 178.721 49.3697 178.717 49.3113C178.707 49.1749 178.995 48.9583 179.581 48.6615C180.176 48.3543 180.695 48.1553 181.139 48.0646ZM184.962 53.0173C184.507 52.8249 184.149 52.7479 183.888 52.7863C183.636 52.8241 183.209 53.0213 182.609 53.3779C181.914 53.7902 181.586 54.137 181.626 54.418C181.666 54.6991 181.756 55.6717 181.895 57.3359L182.12 59.8458L183.611 59.7383C184.322 59.687 184.796 59.6088 185.033 59.5036C185.269 59.3886 185.633 59.0687 186.124 58.5437C186.405 58.2395 186.657 57.9276 186.879 57.6081C187.1 57.2789 187.224 57.0349 187.252 56.8763C187.307 56.559 187.241 56.1182 187.054 55.5541C186.876 54.9892 186.709 54.7124 186.553 54.7237C186.495 54.7279 186.412 54.6653 186.305 54.536C186.207 54.3962 186.106 54.2272 186.004 54.0289C185.911 53.83 185.76 53.6353 185.551 53.4448C185.35 53.2439 185.154 53.1014 184.962 53.0173ZM205.421 49.5742C205.967 49.3978 206.749 49.3806 207.768 49.5225C208.786 49.6547 209.823 49.9226 210.88 50.3261C211.967 50.7276 212.563 50.9244 212.671 50.9167C212.787 50.9083 213.142 51.1422 213.734 51.6184C213.984 51.8158 214.257 52.0066 214.554 52.1908C214.851 52.375 215.081 52.5004 215.242 52.5671C215.614 52.6969 215.983 53.199 216.349 54.0734C216.715 54.938 216.931 55.8232 216.996 56.7291C217.045 57.4012 216.981 58.2869 216.806 59.3863C216.64 60.4851 216.46 61.1785 216.266 61.4667C216.098 61.7236 215.937 62.073 215.783 62.5149C215.638 62.9464 215.079 63.7503 214.107 64.9268C213.144 66.1026 212.456 66.818 212.044 67.0729C211.612 67.3293 211.071 67.7109 210.423 68.2179C210.153 68.4233 209.812 68.6389 209.397 68.8646C208.993 69.0993 208.643 69.2763 208.349 69.3955C207.72 69.6366 206.842 69.8174 205.715 69.9378C204.597 70.0576 203.926 70.0424 203.699 69.8922C203.494 69.7602 203.058 69.6154 202.39 69.4579C202.111 69.3899 201.703 69.2333 201.167 68.988C200.641 68.7518 200.142 68.494 199.672 68.2146C198.905 67.7705 198.39 67.416 198.127 67.1511C197.863 66.8862 197.576 66.4467 197.268 65.8325C197.002 65.274 196.822 64.8121 196.727 64.4469C196.642 64.081 196.604 63.6138 196.611 63.0453C196.622 62.6529 196.65 62.2935 196.695 61.9672C196.749 61.6304 196.808 61.4254 196.871 61.3523C196.944 61.2785 197 61.162 197.037 61.0026C197.084 60.8426 197.103 60.6895 197.092 60.5434C197.081 60.3973 197.131 60.1294 197.24 59.7396C197.358 59.3395 197.5 58.9327 197.666 58.5193C198.073 57.5206 198.271 56.9336 198.258 56.7583C198.238 56.4758 198.509 55.8247 199.072 54.8051C199.644 53.7749 200.182 52.9577 200.687 52.3535C201.013 51.9775 201.701 51.4775 202.753 50.8534C203.814 50.2286 204.704 49.8022 205.421 49.5742ZM210.891 54.746C210.358 54.2851 209.765 54.0096 209.113 53.9196C208.469 53.8191 207.824 53.9097 207.179 54.1912C206.59 54.449 206.114 54.6939 205.749 54.9258C205.383 55.1578 205.039 55.4666 204.714 55.8522C204.389 56.2379 204.103 56.6796 203.855 57.1772C203.616 57.6742 203.336 58.3406 203.015 59.1764L202.357 60.854C202.241 61.1366 202.19 61.3898 202.207 61.6139C202.223 61.8379 202.126 62.1925 201.916 62.6776C201.572 63.4758 201.572 64.0829 201.915 64.4987C202.268 64.9041 202.926 65.0721 203.89 65.0026C204.329 64.9709 204.886 64.8231 205.562 64.5589C206.237 64.285 206.827 63.983 207.332 63.6529C207.837 63.3228 208.083 63.0652 208.07 62.8801C208.063 62.7827 208.086 62.7027 208.141 62.64C208.194 62.5676 208.265 62.5282 208.352 62.5219C208.586 62.5051 209.044 62.0657 209.726 61.2039C210.408 60.3421 210.861 59.6338 211.085 59.0792C211.203 58.8063 211.304 58.4417 211.388 57.9852C211.483 57.528 211.541 57.1126 211.563 56.739C211.595 56.1002 211.58 55.6852 211.517 55.4939C211.454 55.3026 211.246 55.0533 210.891 54.746ZM240.799 44.0421C241.026 43.6635 241.326 43.4166 241.7 43.3016C241.997 43.2116 242.154 43.2786 242.17 43.5027C242.175 43.5709 242.232 43.6254 242.343 43.6664C242.464 43.7067 242.602 43.7212 242.758 43.71C242.962 43.6952 243.121 43.7278 243.235 43.8078C243.357 43.8772 243.444 44.0031 243.497 44.1854C243.601 44.5402 243.798 45.0302 244.087 45.6555C244.365 46.2523 244.531 46.8474 244.583 47.4409C244.635 48.0246 244.556 48.4219 244.346 48.6329C244.254 48.7178 244.175 48.8459 244.109 49.0171C244.053 49.1876 244.031 49.3508 244.042 49.5066C244.069 49.8865 244.011 50.3019 243.867 50.7529C243.659 51.3945 243.38 52.9518 243.029 55.4249C242.924 56.1374 242.81 56.5862 242.686 56.7714C242.553 56.967 242.353 57.5836 242.085 58.6212C241.826 59.6483 241.706 60.2885 241.724 60.5417C241.745 60.8339 241.693 61.0629 241.568 61.2286C241.442 61.3845 241.226 61.9924 240.921 63.0523C240.625 64.1114 240.422 64.6891 240.312 64.7851C240.21 64.8708 240.028 65.1924 239.764 65.7499C239.562 66.205 239.359 66.5134 239.156 66.6749C238.952 66.8462 238.527 67.0629 237.881 67.3249C237.358 67.5389 237.008 67.5739 236.831 67.43C236.664 67.2854 236.434 67.2236 236.142 67.2447C236.025 67.2531 235.92 67.2264 235.828 67.1646C235.745 67.102 235.7 67.022 235.693 66.9246C235.687 66.8369 235.52 66.6384 235.195 66.329C234.869 66.0293 234.479 65.7099 234.024 65.3707C233.568 65.0217 233.131 64.6616 232.712 64.2903C232.304 63.9183 232.039 63.6388 231.918 63.4517L231.458 62.7799L230.984 63.945C230.678 64.7307 230.535 65.2551 230.554 65.5181C230.562 65.6252 230.514 65.7755 230.41 65.969C230.307 66.1625 230.178 66.3431 230.023 66.5109C229.651 66.9196 229.47 67.1824 229.478 67.2993C229.487 67.4161 229.333 67.6573 229.016 68.0228C228.826 68.2421 228.621 68.3842 228.401 68.449C228.18 68.5139 227.801 68.5462 227.262 68.5458C226.537 68.5393 225.938 68.3769 225.465 68.0586C224.991 67.7402 224.66 67.2844 224.47 66.691C224.332 66.2702 224.146 65.8674 223.913 65.4828C223.69 65.0975 223.46 64.6343 223.225 64.0931C222.99 63.5422 222.619 62.8053 222.111 61.8824C221.604 60.9594 221.277 60.2242 221.13 59.6767C220.942 58.9755 220.53 57.8744 219.893 56.3733C219.256 54.8723 218.731 53.7597 218.316 53.0357C217.844 52.1983 217.559 51.4259 217.459 50.7183C217.368 50.0101 217.469 49.4398 217.761 49.0076C218.053 48.5753 218.516 48.3363 219.149 48.2907C219.538 48.2626 219.85 48.3087 220.084 48.4289C220.327 48.5386 220.685 48.8261 221.16 49.2913C221.464 49.5729 221.74 49.876 221.989 50.2008C222.247 50.5248 222.402 50.7683 222.453 50.931C222.579 51.3234 222.706 51.5981 222.835 51.7553C222.973 51.902 223.121 52.2487 223.277 52.7955C223.434 53.3423 223.574 53.6553 223.698 53.7345C223.821 53.8137 224.233 54.7141 224.935 56.4357C225.647 58.1566 226.013 59.1582 226.033 59.4407C226.057 59.7719 226.197 60.0849 226.453 60.3797C226.645 60.6009 226.771 60.7093 226.829 60.7051C226.897 60.7002 227.006 60.5846 227.157 60.3584C227.246 60.2345 227.329 60.0278 227.406 59.7383C227.482 59.4391 227.535 59.1513 227.564 58.8751C227.617 58.1271 227.72 57.5127 227.871 57.0318C228.022 56.5412 228.202 56.2492 228.41 56.1558C228.714 56.0262 228.938 55.9317 229.08 55.8725C229.222 55.8035 229.38 55.7481 229.553 55.7062C229.735 55.6539 229.865 55.625 229.943 55.6194C230.021 55.6137 230.13 55.6352 230.271 55.6838C230.42 55.722 230.542 55.772 230.634 55.8339C230.736 55.8951 230.89 55.9917 231.096 56.1237C231.547 56.4045 231.955 56.7079 232.321 57.034C232.697 57.3496 233.322 57.941 234.197 58.808C234.503 59.1091 234.662 59.3473 234.674 59.5226C234.68 59.6005 234.759 59.7417 234.911 59.9462C235.062 60.1506 235.234 60.3537 235.425 60.5553L236.155 61.3105L236.592 60.0453C236.884 59.2115 237.022 58.6729 237.004 58.4294C236.986 58.1761 237.035 57.9082 237.152 57.6257C237.287 57.3222 237.443 56.7088 237.621 55.7854C237.8 54.862 237.915 54.0802 237.966 53.4401C238.021 52.7116 238.104 52.221 238.213 51.9683C238.322 51.7157 238.508 50.9777 238.773 49.7544C239.007 48.6605 239.232 47.7777 239.448 47.1062C239.663 46.4249 239.834 46.0796 239.961 46.0705C240.01 46.067 240.064 45.9995 240.123 45.8679C240.182 45.7364 240.224 45.5815 240.251 45.4034C240.287 45.2246 240.359 44.9991 240.466 44.727C240.574 44.4549 240.685 44.2266 240.799 44.0421ZM246.15 43.0982C246.946 42.5905 247.634 42.5702 248.216 43.0373C248.538 43.2883 248.839 43.4575 249.12 43.545C249.44 43.6394 249.67 43.8529 249.812 44.1853C250.081 44.7926 250.344 46.536 250.6 49.4156C250.716 50.6116 250.868 52.456 251.058 54.9488C251.495 60.6058 251.683 64.0289 251.622 65.218C251.574 66.0439 251.407 66.5113 251.121 66.62C251.073 66.6332 251.015 66.6423 250.947 66.6472C250.83 66.6557 250.715 66.6884 250.601 66.7456C250.498 66.802 250.429 66.8657 250.395 66.9367C250.3 67.1198 249.979 67.0793 249.431 66.8152C248.884 66.5609 248.36 66.2072 247.857 65.7538L247.038 64.9904L246.234 55.8694C245.697 49.7887 245.415 46.5487 245.386 46.1493C245.324 45.4292 245.366 44.7898 245.512 44.231C245.657 43.6625 245.87 43.2849 246.15 43.0982ZM257.132 45.0822C257.988 44.8736 259.202 44.7419 260.775 44.6873C262.347 44.623 263.251 44.6752 263.488 44.8441C263.695 44.9957 263.827 45.1967 263.884 45.4471C263.942 45.6976 263.926 45.9581 263.838 46.2288C263.749 46.4898 263.592 46.7508 263.366 47.0119C263.149 47.2723 262.886 47.4871 262.575 47.6564C262.339 47.7811 262.133 47.9134 261.957 48.0534C261.781 48.1836 261.694 48.2731 261.698 48.3218C261.701 48.3705 261.443 48.4527 260.922 48.5686C260.401 48.6747 259.773 48.7788 259.036 48.8809C258.298 48.9732 257.65 49.0738 257.09 49.1827C256.53 49.2916 256.227 49.3722 256.182 49.4244C256.137 49.4766 256.143 49.7062 256.202 50.1132C256.27 50.5098 256.376 50.9672 256.521 51.4854C256.846 52.7348 257.031 53.4607 257.075 53.6632C257.092 53.7696 257.283 53.8342 257.647 53.8569C258.02 53.8692 258.635 53.8444 259.492 53.7826C260.427 53.7152 261.156 53.7067 261.678 53.7572C262.211 53.8069 262.621 53.9242 262.908 54.1091C263.196 54.294 263.422 54.5763 263.586 54.9561C263.716 55.2698 263.777 55.5053 263.769 55.6625C263.76 55.81 263.675 55.9924 263.515 56.2096C263.193 56.6342 262.776 56.958 262.263 57.181C261.75 57.404 260.995 57.5906 259.998 57.7409C258.71 57.9414 258.074 58.1488 258.089 58.3631C258.095 58.441 258.12 58.5224 258.166 58.6073C258.221 58.6914 258.279 58.7509 258.34 58.7856C258.451 58.8364 258.597 59.3692 258.778 60.3842C258.969 61.3985 259.122 62.4988 259.237 63.685C259.284 64.2103 259.285 64.6215 259.237 64.9186C259.19 65.2157 259.075 65.5129 258.891 65.8101C258.759 66.0252 258.62 66.1968 258.472 66.3249C258.326 66.4628 258.213 66.5248 258.133 66.5109C257.934 66.4665 257.617 66.4111 257.181 66.3446C256.993 66.319 256.766 66.2179 256.499 66.0413C256.231 65.8648 256.002 65.666 255.809 65.4448C255.469 65.0679 255.247 64.707 255.144 64.362C255.05 64.0162 254.947 63.2551 254.832 62.0786C254.596 59.7556 254.175 57.5733 253.567 55.5316C252.808 53.0113 252.294 51.0461 252.026 49.6359C251.85 48.6891 251.679 48.0846 251.513 47.8224C251.357 47.5498 251.395 47.2043 251.63 46.786C251.769 46.541 251.923 46.3732 252.093 46.2826C252.262 46.1823 252.531 46.1188 252.901 46.0921C253.525 46.0472 254.167 45.9226 254.828 45.7183C255.498 45.5035 256.266 45.2915 257.132 45.0822ZM265.123 43.6836C265.668 43.233 266.326 43.1171 267.095 43.3357C267.865 43.5544 268.472 44.0247 268.915 44.7466C269.126 45.0839 269.356 45.831 269.606 46.9879C269.855 48.1351 270.072 49.4461 270.256 50.921L270.366 51.8237L271.551 51.562C272.341 51.3875 272.966 51.2935 273.425 51.28C273.845 51.2693 274.171 51.1724 274.403 50.9892C274.634 50.7963 274.701 50.5712 274.604 50.3138C274.508 50.0662 274.348 48.9322 274.124 46.9118C274.07 46.436 274.028 46.062 273.999 45.79C273.969 45.5082 273.948 45.2209 273.937 44.928C273.925 44.6351 273.92 44.4201 273.919 44.283C273.928 44.1355 273.957 43.9866 274.005 43.8363C274.053 43.6859 274.104 43.5843 274.159 43.5314C274.224 43.4778 274.318 43.4221 274.441 43.3642C274.563 43.2967 274.683 43.2587 274.8 43.2502C274.926 43.2314 275.1 43.209 275.323 43.1831C275.926 43.1201 276.42 43.2558 276.807 43.5902C276.954 43.7264 277.119 43.8418 277.302 43.9363C277.494 44.0301 277.64 44.0735 277.737 44.0665C277.98 44.0489 278.116 44.2301 278.143 44.61C278.155 44.7658 278.185 44.9105 278.233 45.0441C278.291 45.1672 278.355 45.236 278.425 45.2506C278.495 45.2749 278.59 45.645 278.71 46.3609C278.839 47.0663 278.962 47.9484 279.077 49.0073C279.314 51.203 279.493 52.7371 279.615 53.6095C279.736 54.4722 279.962 55.8413 280.293 57.7169C280.524 59.022 280.648 59.86 280.665 60.2308C280.682 60.6016 280.608 60.935 280.443 61.2308C280.227 61.6282 279.841 61.9155 279.286 62.0926C278.741 62.269 278.266 62.2641 277.861 62.0779C277.244 61.809 276.658 61.0827 276.103 59.8988C275.547 58.715 275.226 57.5192 275.139 56.3114L275.08 55.4932L273.715 55.7091C272.806 55.8628 272.117 56.0104 271.647 56.152L270.944 56.3789L271.289 60.1431C271.486 62.2046 271.558 63.4086 271.505 63.7551C271.474 64.0021 271.349 64.2363 271.13 64.4577C270.776 64.8455 270.34 65.0434 269.821 65.0514C269.304 65.0691 268.894 64.893 268.594 64.5231C268.281 64.1246 267.972 63.7846 267.668 63.503C267.5 63.3487 267.372 63.1278 267.283 62.8405C267.203 62.5525 267.144 62.1358 267.104 61.5904C267.075 61.1813 267.019 60.7496 266.938 60.2953C266.856 59.841 266.768 59.4998 266.673 59.2716C266.589 59.0525 266.451 58.3036 266.261 57.0249C266.08 55.7358 265.904 54.3043 265.731 52.7306C265.329 48.9215 265.039 46.529 264.861 45.5529C264.745 44.8955 264.7 44.468 264.725 44.2704C264.749 44.063 264.882 43.8674 265.123 43.6836ZM288.09 41.2052C288.346 40.9517 288.93 40.8313 289.841 40.8439C290.762 40.8559 291.389 40.9918 291.721 41.2518C291.867 41.3686 291.991 41.5261 292.093 41.7243C292.205 41.9219 292.268 42.1083 292.28 42.2836C292.293 42.4589 292.336 42.6516 292.41 42.8617C292.494 43.0711 292.594 43.2352 292.71 43.3541C292.956 43.6497 293.094 43.9237 293.122 44.1762C293.135 44.3613 293.327 44.7783 293.696 45.4272C294.075 46.0657 294.466 46.6593 294.868 47.2079C295.127 47.5515 295.573 48.5034 296.204 50.0635C297.179 52.441 297.952 54.0645 298.523 54.9338C299.567 56.5132 300.105 57.5221 300.137 57.9604C300.164 58.3305 300.253 58.5541 300.406 58.6313C300.558 58.7084 300.699 59.0311 300.828 59.5995C300.966 60.1574 301.003 60.6051 300.939 60.9426C300.921 61.0908 300.822 61.2791 300.642 61.5074C300.464 61.7455 300.268 61.9505 300.055 62.1225C299.713 62.4018 299.46 62.562 299.297 62.6031C299.144 62.6533 298.946 62.6235 298.703 62.5138C298.257 62.3109 297.649 61.8848 296.878 61.2355C296.116 60.5854 295.728 60.163 295.714 59.9682C295.692 59.6565 295.517 59.067 295.19 58.1995C294.873 57.3314 294.603 56.7096 294.38 56.334C294.17 56.0065 293.98 55.8145 293.81 55.7583C293.648 55.6916 293.29 55.6783 292.735 55.7183C292.404 55.7422 291.983 55.8214 291.474 55.9561C290.974 56.0803 290.524 56.2253 290.125 56.3911C289.726 56.557 289.329 56.6884 288.935 56.7854C288.55 56.8817 288.278 56.9159 288.12 56.8882C287.882 56.8466 287.73 56.8526 287.666 56.9063C287.526 57.0045 287.285 57.5358 286.943 58.5004C286.904 58.6305 286.734 59.1323 286.435 60.0057C286.103 60.9696 285.819 61.6509 285.584 62.0498C285.357 62.4381 285.065 62.7333 284.708 62.9354L283.945 63.3575L282.798 62.324C282.474 62.0341 282.194 61.7507 281.959 61.474C281.732 61.1868 281.615 60.9847 281.607 60.8679C281.586 60.5756 281.702 59.9504 281.956 58.9922C282.219 58.0235 282.394 57.257 282.48 56.6926C282.567 56.1283 282.753 55.5128 283.038 54.846C284.018 52.5528 284.582 51.2736 284.729 51.0084C284.857 50.7544 285.025 50.1549 285.231 49.2099C285.32 48.8118 285.422 48.4618 285.537 48.1597C285.661 47.8473 285.761 47.6736 285.837 47.6387C285.922 47.5935 286.002 47.4751 286.076 47.2837C286.16 47.0917 286.218 46.877 286.25 46.6397C286.315 46.0573 286.446 45.5535 286.64 45.1282C286.706 44.957 286.764 44.7423 286.814 44.4842C286.863 44.2163 286.881 43.9946 286.869 43.8193C286.844 43.4784 286.955 43.0396 287.2 42.503C287.454 41.956 287.751 41.5234 288.09 41.2052ZM291.067 49.2884C290.986 49.118 290.897 48.9726 290.801 48.8523C290.713 48.7216 290.645 48.658 290.596 48.6615C290.469 48.6706 290.217 49.1735 289.838 50.1701C289.469 51.1562 289.331 51.69 289.425 51.7713C289.529 51.8617 289.943 51.827 290.666 51.6672C291.206 51.5597 291.513 51.4641 291.585 51.3806C291.666 51.2866 291.659 51.0521 291.564 50.6772C291.43 50.1777 291.264 49.7148 291.067 49.2884ZM313.026 39.143C314.656 38.9373 315.789 38.8311 316.425 38.8245C317.06 38.808 317.604 38.8863 318.057 39.0592C318.44 39.2079 318.79 39.4421 319.107 39.762C319.423 40.0721 319.591 40.3635 319.61 40.6362C319.64 40.9082 319.753 41.1889 319.95 41.4782C320.08 41.6549 320.136 41.8173 320.117 41.9655C320.108 42.1033 320.015 42.3107 319.839 42.5877C319.551 43.0687 319.054 43.4472 318.35 43.7231C317.645 43.9991 316.589 44.227 315.183 44.4068L312.782 44.7267L312.862 48.4807C312.915 50.9736 312.985 52.6232 313.072 53.4296C313.159 54.2262 313.143 54.8197 313.024 55.2101C312.915 55.5998 312.983 56.2705 313.228 57.2221C313.483 58.1731 313.676 59.2949 313.808 60.5875L314.021 62.5108L313.112 63.3547L312.217 64.1829L311.147 63.8048C310.644 63.6159 310.258 63.4186 309.988 63.2128C309.729 63.0063 309.507 62.7188 309.324 62.3501C309.151 61.9905 308.955 61.4368 308.734 60.689C308.469 59.729 308.203 57.8684 307.935 55.107C307.668 52.3457 307.615 50.871 307.778 50.6831C307.869 50.5884 307.896 49.9402 307.858 48.7387C307.829 47.5267 307.821 46.8615 307.832 46.7432C307.841 46.6054 307.848 46.4924 307.851 46.404C307.855 46.3156 307.844 46.2332 307.819 46.1567C307.803 46.0697 307.779 46.0078 307.747 45.971C307.724 45.9334 307.668 45.8983 307.577 45.8657C307.497 45.8323 307.412 45.8139 307.324 45.8105C307.235 45.8071 307.099 45.8121 306.914 45.8254C306.738 45.8283 306.562 45.8409 306.388 45.8633C306.213 45.8857 305.98 45.9172 305.69 45.9577C305.127 46.0374 304.568 46.0875 304.011 46.1081C303.455 46.1286 303.072 46.1171 302.863 46.0734C302.357 45.9728 301.86 45.6072 301.374 44.9764C300.898 44.345 300.638 43.7322 300.596 43.138C300.547 42.4659 300.686 41.9517 301.013 41.5952C301.349 41.2283 301.916 40.9524 302.716 40.7675C303.622 40.5651 305.096 40.3071 307.139 39.9933C309.182 39.6698 311.144 39.3863 313.026 39.143Z" fill="white"/>
<defs>
<filter id="filter0_b_1_26" x="16.17" y="5.98193" width="373.743" height="109.69" filterUnits="userSpaceOnUse" color-interpolation-filters="sRGB">
<feFlood flood-opacity="0" result="BackgroundImageFix"/>
<feGaussianBlur in="BackgroundImageFix" stdDeviation="3.5"/>
<feComposite in2="SourceAlpha" operator="in" result="effect1_backgroundBlur_1_26"/>
<feBlend mode="normal" in="SourceGraphic" in2="effect1_backgroundBlur_1_26" result="shape"/>
</filter>
</defs>
</svg>
