<svg width="401" height="162" viewBox="0 0 401 162" fill="none" xmlns="http://www.w3.org/2000/svg">
<path d="M16.6588 3.87459C13.8772 23.7072 10.8901 43.5194 8.40404 63.3921C7.53521 70.3372 7.24231 77.4266 6.12205 84.339L4.96334 91.4886C24.3383 89.8512 41.1589 96.6763 59.1696 103.334C71.0968 107.742 82.2423 112.948 94.8953 114.201C121.254 116.81 147.442 120.87 173.84 123.17C196.447 125.139 218.699 126.03 241.005 130.369C267.425 135.507 293.859 139.422 320.508 142.975C331.456 144.435 342.356 146.506 353.34 147.67C364.205 148.822 375.215 149.074 386.048 150.12M383.526 154.092C388.455 126.934 395.927 98.451 396.493 70.6488C396.523 69.2149 396.214 68.0815 396.442 66.6761C364.304 63.0489 332.64 58.8678 300.851 53.1316C282.119 49.7516 263.267 46.971 244.478 43.926C216.134 39.3324 188.056 32.8045 160.449 24.9176C149.985 21.9284 139.714 19.6005 128.818 18.609C107.454 16.6651 85.7201 17.4955 64.5149 14.1341C54.5005 12.5467 44.5912 10.687 34.6543 8.70359C28.2014 7.41556 21.635 6.55882 15.1424 5.50659" stroke="white" stroke-width="3" stroke-linecap="round"/>
<g filter="url(#filter0_b_1_77)">
<path d="M25.2905 61.4474C29.2485 46.9199 30.3752 36.7715 34.8718 21.2877C35.4612 19.2583 34.8799 17.5132 36.4139 16.1007C37.4256 15.1692 38.2751 15.177 39.6198 15.488C44.3689 16.5861 49.0381 18.1832 53.7718 19.3493C88.8587 27.9927 124.749 32.3008 160.048 39.8538C178.273 43.7535 195.985 46.4024 214.616 46.9264C232.314 47.4241 248.678 52.2037 265.894 55.8465C288.988 60.7331 312.364 64.1333 335.555 68.5007C351.738 71.5483 367.16 73.6974 383.581 73.732C378.228 100.984 381.548 75.6339 376.959 103.953C375.002 116.03 374.516 124.171 373.448 136.366C365.715 136.148 358.059 136.388 350.328 136.422C339.885 136.469 330.65 133.681 320.673 130.948C309.601 127.916 298.419 125.213 287.143 123.047C273.552 120.435 259.965 120.135 246.278 118.485C231.846 116.745 217.823 113.481 203.585 110.695C188.165 107.677 173.068 103.219 157.666 100.234C144.43 97.6676 130.474 98.7809 117.091 97.2869C84.5498 93.6542 52.3278 87.709 20.0642 82.23C21.2133 75.1396 23.4042 68.3709 25.2905 61.4474Z" fill="#D9D9D9" fill-opacity="0.01"/>
<path d="M383.681 73.2227C378.187 101.298 381.577 75.4596 376.959 103.953C375.002 116.03 374.516 124.171 373.448 136.366C365.715 136.148 358.059 136.388 350.328 136.422C339.885 136.469 330.65 133.681 320.673 130.948C309.601 127.916 298.419 125.213 287.143 123.047C273.552 120.435 259.965 120.135 246.278 118.485C231.846 116.745 217.823 113.481 203.585 110.695C188.165 107.677 173.068 103.219 157.666 100.234C144.43 97.6676 130.474 98.7809 117.091 97.2869C84.5498 93.6542 52.3278 87.709 20.0642 82.23C21.2133 75.1396 23.4042 68.3709 25.2905 61.4474C29.2485 46.9199 30.3752 36.7715 34.8718 21.2877C35.4612 19.2583 34.8799 17.5132 36.4139 16.1007C37.4256 15.1692 38.2751 15.177 39.6198 15.488C44.3689 16.5861 49.0381 18.1832 53.7718 19.3493C88.8587 27.9927 124.749 32.3008 160.048 39.8538C178.273 43.7535 195.985 46.4024 214.616 46.9264C232.314 47.4241 248.678 52.2037 265.894 55.8465C288.988 60.7331 312.364 64.1333 335.555 68.5007C351.744 71.5494 367.17 73.6989 383.599 73.732" stroke="white" stroke-width="3" stroke-linecap="round"/>
</g>
<path d="M182.069 63.9495C182.379 63.9899 182.997 63.8972 183.924 63.6715C184.853 63.4361 185.696 63.3898 186.455 63.5325C186.945 63.6218 187.274 63.7247 187.443 63.8411C187.612 63.9576 187.768 64.1857 187.911 64.5254C188.232 65.2898 188.283 66.0794 188.061 66.8944C187.989 67.1596 187.335 67.3801 186.099 67.5558C185.047 67.7018 184.083 67.971 183.208 68.3635C182.333 68.7559 181.681 69.2092 181.252 69.7232C180.87 70.1857 180.588 70.4912 180.406 70.6397C179.924 71.0465 179.499 71.7147 179.131 72.6443C178.774 73.5658 178.573 74.5027 178.527 75.455C178.501 76.0443 178.532 76.4303 178.621 76.6129C178.712 76.7859 178.999 77.0302 179.482 77.3459C180.26 77.8578 181.027 78.2541 181.782 78.5349C182.538 78.8157 183.769 79.1586 185.474 79.5636C186.114 79.7068 186.622 79.8337 187 79.9444C187.389 80.0471 187.741 80.1635 188.056 80.2937C188.383 80.4159 188.616 80.5328 188.756 80.6446C188.898 80.7467 189.009 80.8883 189.088 81.0694C189.179 81.2423 189.224 81.4228 189.223 81.6106C189.224 81.7888 189.195 82.0265 189.137 82.3238C189.073 82.719 188.956 82.9821 188.787 83.1129C188.628 83.2356 188.196 83.4029 187.489 83.6148C186.814 83.8121 186.317 83.9146 185.999 83.9225C185.681 83.9303 185.224 83.8513 184.628 83.6854C183.739 83.4325 182.985 83.2312 182.366 83.0814C181.701 82.9142 180.89 82.6096 179.932 82.1676C178.983 81.7367 178.16 81.2917 177.463 80.8324C176.748 80.3604 176.029 79.6404 175.305 78.6723C174.581 77.7042 174.114 76.8322 173.904 76.056C173.546 74.7813 173.698 73.2378 174.357 71.4254C175.019 69.6035 175.976 68.0916 177.229 66.8899C179.419 64.7914 181.033 63.8113 182.069 63.9495ZM200.969 64.1635C201.277 63.9758 201.872 63.9932 202.756 64.2157C203.65 64.4396 204.228 64.7164 204.492 65.0459C204.606 65.1931 204.691 65.375 204.745 65.5915C204.808 65.8095 204.826 66.0053 204.798 66.1788C204.77 66.3524 204.767 66.5498 204.791 66.7713C204.824 66.9943 204.883 67.1771 204.969 67.3196C205.141 67.664 205.211 67.9623 205.18 68.2145C205.15 68.3976 205.241 68.8476 205.451 69.5643C205.673 70.2729 205.916 70.9405 206.18 71.567C206.354 71.9612 206.568 72.9902 206.822 74.6539C207.222 77.192 207.6 78.9499 207.956 79.9276C208.608 81.7052 208.899 82.8108 208.828 83.2446C208.769 83.611 208.805 83.8492 208.935 83.9594C209.066 84.0696 209.128 84.4161 209.123 84.9989C209.129 85.5736 209.062 86.0179 208.922 86.3315C208.869 86.4715 208.73 86.6318 208.502 86.8127C208.274 87.0031 208.036 87.1575 207.789 87.2758C207.392 87.4687 207.109 87.5663 206.941 87.5686C206.78 87.5822 206.594 87.5075 206.383 87.3447C205.997 87.0446 205.503 86.4898 204.902 85.6801C204.311 84.872 204.031 84.3715 204.062 84.1787C204.112 83.8702 204.078 83.2563 203.96 82.3369C203.851 81.419 203.732 80.7517 203.602 80.3349C203.473 79.9678 203.332 79.7372 203.18 79.6432C203.038 79.5411 202.692 79.4455 202.143 79.3564C201.815 79.3033 201.388 79.2835 200.861 79.2971C200.346 79.3027 199.875 79.3401 199.448 79.4094C199.021 79.4788 198.605 79.5152 198.199 79.5186C197.802 79.5236 197.53 79.4943 197.382 79.4307C197.16 79.3354 197.011 79.3064 196.936 79.3436C196.777 79.407 196.421 79.8685 195.866 80.7283C195.797 80.8458 195.517 81.295 195.024 82.0759C194.479 82.9373 194.046 83.5348 193.725 83.8686C193.415 84.1943 193.062 84.4142 192.668 84.5284L191.828 84.7633L190.951 83.4933C190.702 83.1364 190.495 82.7962 190.33 82.4726C190.176 82.141 190.108 81.9173 190.127 81.8016C190.174 81.5124 190.431 80.9309 190.9 80.057C191.379 79.1751 191.726 78.4695 191.94 77.9403C192.154 77.4112 192.477 76.8551 192.908 76.2719C194.39 74.2665 195.234 73.1517 195.438 72.9276C195.622 72.7101 195.923 72.1653 196.341 71.2932C196.52 70.9264 196.699 70.6093 196.881 70.342C197.074 70.0666 197.212 69.9207 197.294 69.9042C197.387 69.8797 197.491 69.7829 197.608 69.6139C197.734 69.4463 197.84 69.2508 197.925 69.0272C198.124 68.4757 198.366 68.0154 198.654 67.6465C198.757 67.4951 198.863 67.2996 198.971 67.0599C199.081 66.8105 199.15 66.5991 199.178 66.4256C199.233 66.0882 199.441 65.6867 199.804 65.2211C200.177 64.7474 200.566 64.3948 200.969 64.1635ZM202.002 72.7152C201.963 72.5308 201.91 72.3688 201.843 72.2295C201.788 72.082 201.737 72.0044 201.688 71.9966C201.563 71.9762 201.201 72.4073 200.603 73.2898C200.016 74.1642 199.759 74.6518 199.832 74.7526C199.913 74.8647 200.323 74.9262 201.063 74.9374C201.614 74.9574 201.934 74.9351 202.024 74.8705C202.125 74.7978 202.172 74.568 202.165 74.1811C202.15 73.6642 202.096 73.1756 202.002 72.7152ZM210.411 98.2961C210.535 98.0788 210.713 97.9889 210.944 98.0264C211.174 98.0735 211.313 98.2198 211.363 98.4652C211.428 98.7925 211.428 99.01 211.361 99.1179C211.294 99.2257 211.14 99.2601 210.899 99.2211C210.629 99.1773 210.445 99.0634 210.346 98.8792C210.255 98.7062 210.277 98.5118 210.411 98.2961ZM210.627 86.8898C210.855 86.64 211.168 86.5125 211.564 86.5076C211.961 86.5026 212.355 86.6011 212.748 86.8033C213.142 86.9958 213.508 87.2727 213.845 87.634C214.19 88.0065 214.427 88.4109 214.554 88.847C214.78 89.5861 214.8 90.1977 214.613 90.6818C214.433 91.1771 214.039 91.5633 213.431 91.8406C212.992 92.0465 212.678 92.149 212.49 92.1483C212.312 92.1491 212.032 92.0443 211.651 91.8341C211.432 91.7195 211.183 91.5456 210.904 91.3125C210.635 91.0809 210.427 90.8691 210.28 90.6771C210.052 90.3731 209.914 90.0984 209.865 89.8529C209.825 89.6091 209.848 89.2221 209.934 88.6919C210.072 87.8436 210.303 87.2429 210.627 86.8898ZM212.654 78.0474C212.805 77.9039 212.983 77.7843 213.187 77.6886C213.39 77.593 213.554 77.5553 213.68 77.5756C213.959 77.621 214.362 77.8247 214.887 78.1867C215.413 78.5392 215.665 78.7829 215.644 78.9179C215.636 78.9661 215.662 79.0149 215.724 79.0644C215.795 79.1155 215.873 79.148 215.96 79.1621C216.057 79.1777 216.131 79.2392 216.183 79.3465C216.246 79.4458 216.267 79.5581 216.247 79.6834C216.228 79.7991 216.241 79.9347 216.285 80.0902C216.338 80.2473 216.407 80.3722 216.491 80.4649C216.575 80.5577 216.632 80.7252 216.662 80.9675C216.693 81.2002 216.688 81.4466 216.646 81.7069C216.583 82.0925 216.491 82.3594 216.368 82.5077C216.245 82.6559 215.977 82.8104 215.565 82.9712C214.995 83.1953 214.584 83.2871 214.334 83.2465C214.083 83.2058 213.685 82.978 213.139 82.5631C212.655 82.1879 212.301 81.7199 212.075 81.159C211.851 80.5885 211.789 80.0244 211.889 79.4669C211.991 78.8997 212.246 78.4266 212.654 78.0474Z" fill="white"/>
<defs>
<filter id="filter0_b_1_77" x="11.3454" y="6.79974" width="380.836" height="138.123" filterUnits="userSpaceOnUse" color-interpolation-filters="sRGB">
<feFlood flood-opacity="0" result="BackgroundImageFix"/>
<feGaussianBlur in="BackgroundImageFix" stdDeviation="3.5"/>
<feComposite in2="SourceAlpha" operator="in" result="effect1_backgroundBlur_1_77"/>
<feBlend mode="normal" in="SourceGraphic" in2="effect1_backgroundBlur_1_77" result="shape"/>
</filter>
</defs>
</svg>
