<svg width="292" height="78" viewBox="0 0 292 78" fill="none" xmlns="http://www.w3.org/2000/svg">
<path d="M2.9134 4.75302C3.22901 19.5513 3.39226 34.359 3.92822 49.1515C4.11553 54.3212 4.74008 59.5281 4.74008 64.7037V70.0569C18.6819 66.5714 31.7608 69.562 45.6881 72.2894C54.9112 74.0956 63.6582 76.5759 73.0376 75.9935C92.5769 74.7803 112.163 74.6465 131.694 73.2027C148.42 71.9663 164.76 69.9855 181.548 70.5134C201.43 71.1387 221.179 70.8689 241.042 70.3105C249.202 70.0811 257.398 70.3029 265.55 69.8538C273.613 69.4096 281.675 68.2913 289.702 67.7734M288.332 70.9701C288.717 50.5729 290.8 28.9092 287.927 8.55848C287.778 7.50889 287.419 6.71845 287.419 5.66624C263.543 6.81982 239.948 7.51334 216.077 7.08707C202.011 6.8359 187.928 7.03633 173.86 7.03633C152.638 7.03633 131.381 5.59369 110.307 3.10389C102.32 2.16025 94.5507 1.67631 86.484 2.24129C70.6679 3.34904 54.9093 6.52476 39.041 6.57966C31.5471 6.60559 24.0977 6.42052 16.6135 6.14836C11.7533 5.97163 6.86127 6.12299 2 6.12299" stroke="#D6C6B6" stroke-width="3" stroke-linecap="round"/>
<g filter="url(#filter0_b_1_69)">
<path d="M16.0182 45.7362C17.1881 34.6693 16.8102 27.132 18.2601 15.3038C18.4501 13.7535 17.8196 12.549 18.7718 11.3371C19.3998 10.538 20.0205 10.4432 21.0383 10.511C24.633 10.7507 28.2283 11.3638 31.8198 11.6548C58.4403 13.8122 85.1345 12.7116 111.781 14.0484C125.538 14.7386 138.774 14.5769 152.428 12.7563C165.399 11.0268 177.903 12.579 190.894 13.2011C208.321 14.0356 225.777 13.7524 243.213 14.1967C255.381 14.5067 266.886 14.2512 278.871 12.3347C278.187 32.8498 277.612 13.9627 277.612 35.1665C277.612 44.2087 278.221 50.2053 278.883 59.229C273.216 59.9846 267.659 61.0644 262.023 62.0038C254.409 63.2727 247.342 62.3305 239.74 61.5166C231.303 60.6133 222.825 59.9634 214.343 59.7161C204.118 59.418 194.17 60.8055 183.989 61.22C173.254 61.6571 162.637 60.9341 151.92 60.5846C140.313 60.2061 128.772 58.739 117.182 58.3817C107.222 58.0746 97.1716 60.537 87.2311 61.0294C63.0604 62.2267 38.8491 61.6991 14.6626 61.5166C14.6626 56.2077 15.4606 51.0104 16.0182 45.7362Z" fill="#D9D9D9" fill-opacity="0.01"/>
<path d="M278.883 11.9513C278.194 33.0838 277.612 13.8321 277.612 35.1665C277.612 44.2087 278.221 50.2053 278.883 59.229C273.216 59.9846 267.659 61.0644 262.023 62.0038C254.409 63.2727 247.342 62.3305 239.74 61.5166C231.303 60.6134 222.825 59.9634 214.343 59.7161C204.118 59.418 194.17 60.8055 183.989 61.22C173.254 61.6571 162.637 60.9341 151.92 60.5846C140.313 60.2061 128.772 58.739 117.182 58.3817C107.222 58.0746 97.1716 60.537 87.2311 61.0294C63.0604 62.2267 38.8491 61.6991 14.6626 61.5166C14.6626 56.2077 15.4606 51.0104 16.0182 45.7362C17.1881 34.6693 16.8102 27.132 18.2601 15.3038C18.4501 13.7535 17.8196 12.549 18.7718 11.3371C19.3998 10.538 20.0205 10.4432 21.0383 10.511C24.633 10.7507 28.2283 11.3638 31.8198 11.6548C58.4403 13.8122 85.1345 12.7116 111.781 14.0484C125.538 14.7386 138.774 14.5769 152.428 12.7563C165.399 11.0268 177.903 12.579 190.894 13.2011C208.321 14.0356 225.777 13.7524 243.213 14.1967C255.385 14.5068 266.894 14.251 278.883 12.3327" stroke="#D6C6B6" stroke-width="3" stroke-linecap="round"/>
</g>
<path d="M40.0376 28.3345C40.6398 28.2124 41.3763 28.1514 42.2471 28.1514C43.1178 28.1514 43.5898 28.2083 43.6631 28.3223C43.7038 28.3792 43.8014 28.4281 43.956 28.4688C44.1188 28.5094 44.2938 28.5298 44.4809 28.5298C44.6681 28.5298 44.8268 28.5461 44.957 28.5786C45.0954 28.6112 45.1645 28.6519 45.1645 28.7007C45.1645 28.7495 45.2541 28.8472 45.4331 28.9937C45.6203 29.132 45.84 29.2744 46.0923 29.4209C46.5806 29.7139 47.1136 30.1248 47.6914 30.6538C48.2773 31.1746 48.5703 31.5083 48.5703 31.6548C48.5703 31.7769 48.7086 31.9559 48.9853 32.1919C49.1725 32.3465 49.2824 32.5459 49.3149 32.79C49.3556 33.026 49.3638 33.5794 49.3393 34.4502L49.2661 36.3545L50.3647 36.9648C50.6658 37.1276 50.9385 37.2985 51.1826 37.4775C51.4267 37.6484 51.5732 37.7705 51.6221 37.8438C51.6627 37.9089 51.7197 37.9699 51.793 38.0269C51.8662 38.0838 51.9272 38.1123 51.9761 38.1123C52.0981 38.1123 52.2894 38.2466 52.5498 38.5151C52.8183 38.7756 52.9526 38.9668 52.9526 39.0889C52.9526 39.1377 52.9852 39.1947 53.0503 39.2598C53.1154 39.3167 53.1927 39.3615 53.2822 39.394C53.4857 39.4754 53.563 39.9189 53.5141 40.7246C53.4653 41.5303 53.3148 42.2749 53.0625 42.9585C52.8834 43.4386 52.4969 44.049 51.9028 44.7896C51.3169 45.5301 50.9222 45.9004 50.7187 45.9004C50.5723 45.9004 50.3932 45.9899 50.1816 46.1689C49.97 46.348 49.498 46.5596 48.7656 46.8037C48.0332 47.0479 47.5327 47.2594 47.2641 47.4385C47.0363 47.585 46.4015 47.6704 45.3598 47.6948C44.3263 47.7192 43.3375 47.6785 42.3935 47.5728C41.4495 47.4751 40.9775 47.349 40.9775 47.1943C40.9775 47.0479 40.709 47.0031 40.1719 47.0601C39.8138 47.0926 39.5493 47.0723 39.3784 46.999C39.2156 46.9258 38.9796 46.7264 38.6704 46.4009C38.2147 45.9207 37.9868 45.6237 37.9868 45.5098C37.9868 45.4609 37.9624 45.4121 37.9136 45.3633C37.8647 45.3145 37.8037 45.2778 37.7305 45.2534C37.6328 45.2127 37.584 45.1517 37.584 45.0703C37.584 44.9808 37.6328 44.8302 37.7305 44.6187C37.8851 44.285 37.9665 43.2555 37.9746 41.5303C37.9909 39.7969 37.9258 38.4989 37.7793 37.6362C37.6328 36.7573 37.5107 35.2274 37.4131 33.0464C37.3154 30.8573 37.3113 29.6366 37.4009 29.3843C37.4822 29.1727 37.706 28.9937 38.0723 28.8472C38.4466 28.6925 39.1017 28.5216 40.0376 28.3345ZM44.7739 32.5215C44.4728 32.2122 44.1269 32.0291 43.7363 31.9722C43.3538 31.9071 42.7475 31.9355 41.9175 32.0576L41.3804 32.1431V34.2061V36.269L42.1006 36.3545C42.5563 36.4115 43.126 36.2772 43.8096 35.9517C44.4931 35.6261 44.9245 35.2803 45.1035 34.9141C45.3232 34.4746 45.4046 34.0514 45.3476 33.6445C45.2907 33.2295 45.0994 32.8551 44.7739 32.5215ZM45.4453 38.7104C44.5908 38.2547 43.9723 38.0594 43.5898 38.1245C43.4433 38.1489 43.3701 38.2181 43.3701 38.332C43.3701 38.4785 43.0609 38.5273 42.4424 38.4785L41.5146 38.4053L41.6611 41.4082C41.7669 43.402 41.8524 44.4518 41.9175 44.5576C41.9988 44.696 42.5278 44.7448 43.5044 44.7041C44.4809 44.6553 45.2093 44.5495 45.6894 44.3867C46.6497 44.0612 47.4961 43.5078 48.2285 42.7266C48.9691 41.9372 49.3434 41.1844 49.3515 40.4683C49.3597 40.2241 49.3312 40.0695 49.2661 40.0044C49.201 39.9393 49.0504 39.9067 48.8144 39.9067C48.4482 39.9067 48.0739 39.8091 47.6914 39.6138C47.317 39.4103 47.0363 39.3086 46.8491 39.3086C46.6619 39.3086 46.194 39.1092 45.4453 38.7104ZM55.6138 29.3721C55.6951 29.307 55.7928 29.2703 55.9067 29.2622C56.0207 29.2459 56.1264 29.2581 56.2241 29.2988C56.8914 29.6325 57.3878 29.9132 57.7134 30.1411C58.0389 30.3608 58.34 30.6294 58.6167 30.9468L59.2392 31.6426L59.0195 33.2295L58.6899 35.793C58.6004 36.444 58.6004 37.6281 58.6899 39.3452C58.7876 41.2251 59.0073 42.6004 59.3491 43.4712C59.6909 44.342 60.1792 44.7651 60.8139 44.7407C61.172 44.7326 62.0469 44.4396 63.4385 43.8618C64.8301 43.284 65.77 42.8242 66.2583 42.4824C66.6652 42.1976 67.0273 41.7012 67.3447 40.9932C67.6702 40.277 67.894 39.4836 68.0161 38.6128C68.1463 37.7339 68.1504 36.9323 68.0283 36.208L67.6377 33.9375C67.4993 33.1562 67.4383 32.5418 67.4546 32.0942C67.479 31.6466 67.5889 31.2235 67.7842 30.8247C67.8493 30.6864 67.894 30.5887 67.9184 30.5317C67.951 30.4666 67.9958 30.4015 68.0527 30.3364C68.1097 30.2713 68.1544 30.2306 68.187 30.2144C68.2195 30.1981 68.2806 30.1859 68.3701 30.1777C68.4678 30.1696 68.5573 30.1696 68.6387 30.1777C68.72 30.1859 68.8462 30.2021 69.0171 30.2266C69.2449 30.2591 69.3955 30.2795 69.4687 30.2876C69.5501 30.2957 69.6559 30.3324 69.7861 30.3975C69.9245 30.4544 70.0058 30.4951 70.0303 30.5195C70.0628 30.5439 70.132 30.6294 70.2378 30.7759C70.3517 30.9224 70.4331 31.0444 70.4819 31.1421C70.5307 31.2397 70.6325 31.431 70.7871 31.7158C71.373 32.8063 71.8043 34.1043 72.081 35.6099C72.3577 37.1154 72.4147 38.446 72.2519 39.6016C72.1461 40.3014 71.9183 41.2373 71.5683 42.4092C71.2184 43.5729 70.9743 44.2036 70.8359 44.3013C70.7383 44.3664 70.5185 44.6593 70.1767 45.1802C69.9 45.5952 69.3711 46.0835 68.5898 46.645C67.8086 47.2065 67.2593 47.4914 66.9419 47.4995C66.6733 47.5076 66.3315 47.6257 65.9165 47.8535C65.1352 48.2848 64.5452 48.5778 64.1465 48.7324C63.7477 48.8952 63.2269 49.0457 62.584 49.1841C61.6806 49.3875 61.1028 49.4201 60.8506 49.2817C60.5983 49.1515 60.3664 49.0864 60.1548 49.0864C59.935 49.0864 59.4549 48.8382 58.7143 48.3418C57.9738 47.8535 57.4407 47.4263 57.1152 47.0601L56.0288 45.876C55.5405 45.347 55.1865 44.6268 54.9668 43.7153C54.7471 42.7957 54.5517 41.2251 54.3808 39.0034C54.2995 37.8315 54.2588 36.9526 54.2588 36.3667C54.2588 35.7726 54.3117 35.2233 54.4175 34.7188C54.5802 33.848 54.6657 32.9569 54.6738 32.0454C54.682 31.3618 54.7593 30.8166 54.9057 30.4097C55.0522 29.9946 55.2882 29.6488 55.6138 29.3721ZM73.5581 27.8218C73.8429 27.5451 74.1074 27.3945 74.3515 27.3701C74.6038 27.3376 75.0311 27.4108 75.6333 27.5898C76.0076 27.7038 76.4389 27.9601 76.9272 28.3589C77.4237 28.7495 77.6719 29.0384 77.6719 29.2256C77.6719 29.307 77.9282 29.7261 78.4409 30.4829C78.9536 31.2397 79.2588 31.7687 79.3564 32.0698C79.389 32.1919 79.45 32.2977 79.5395 32.3872C79.6291 32.4767 79.7145 32.5215 79.7959 32.5215C79.9831 32.5215 80.3655 32.2326 80.9433 31.6548C81.5211 31.077 82.1193 30.3812 82.7378 29.5674C82.9982 29.2256 83.2423 28.9326 83.4702 28.6885C83.7062 28.4362 83.8568 28.3101 83.9219 28.3101C84.0846 28.2938 84.2637 28.2775 84.459 28.2612C85.0856 28.1961 85.818 28.5583 86.6562 29.3477C87.0713 29.7464 87.3113 30.0272 87.3764 30.1899C87.4497 30.3446 87.4538 30.6457 87.3887 31.0933C87.3317 31.4839 87.23 31.7972 87.0835 32.0332C86.9451 32.2692 86.6522 32.5988 86.2046 33.022C85.5942 33.5998 84.9147 34.2996 84.166 35.1216C83.4254 35.9354 82.9046 36.5579 82.6035 36.9893C82.3105 37.3962 82.164 38.2059 82.164 39.4185C82.164 40.631 82.3065 42.4906 82.5913 44.9971C82.6808 45.7458 82.6401 46.3765 82.4692 46.8892C82.3065 47.4019 82.0379 47.7355 81.6636 47.8901C81.2729 48.0529 80.805 48.0895 80.2598 48C79.7226 47.9186 79.2954 47.7355 78.978 47.4507C78.7339 47.2472 78.4775 46.8241 78.209 46.1812C77.9486 45.5382 77.798 44.9767 77.7573 44.4966C77.7248 44.1629 77.6963 43.1009 77.6719 41.3105C77.6474 39.9352 77.5498 38.686 77.3789 37.563C77.208 36.4399 77.0127 35.7889 76.793 35.6099C76.6872 35.5203 76.4267 35.1053 76.0117 34.3647C75.5967 33.616 75.2549 32.9487 74.9863 32.3628C74.9293 32.2407 74.8642 32.139 74.791 32.0576C74.7259 31.9681 74.673 31.9233 74.6323 31.9233C74.5916 31.9233 74.555 31.903 74.5224 31.8623C74.4899 31.8216 74.4736 31.7728 74.4736 31.7158C74.4736 31.5693 74.3434 31.3577 74.083 31.0811C73.9121 30.8939 73.7005 30.487 73.4482 29.8604C73.2041 29.2337 73.082 28.7902 73.082 28.5298C73.082 28.4647 73.1268 28.363 73.2163 28.2246C73.3139 28.0863 73.4279 27.952 73.5581 27.8218ZM104.259 27.6509C104.454 27.3579 104.71 27.1911 105.028 27.1504C105.353 27.1016 105.797 27.1748 106.358 27.3701C106.895 27.5573 107.339 27.8421 107.689 28.2246C108.039 28.6071 108.263 29.0465 108.36 29.543C108.482 30.1696 108.539 31.5937 108.531 33.8154C108.531 36.029 108.466 37.5264 108.336 38.3076C108.206 39.1702 108.08 40.334 107.958 41.7988C107.876 42.8893 107.742 43.7886 107.555 44.4966C107.376 45.1965 107.184 45.583 106.981 45.6562C106.916 45.6807 106.863 45.7254 106.822 45.7905C106.782 45.8556 106.761 45.9248 106.761 45.998C106.761 46.3317 106.314 46.4985 105.418 46.4985C105.199 46.4985 104.857 46.3887 104.393 46.1689C103.929 45.9574 103.506 45.7214 103.124 45.4609C102.749 45.2005 102.562 45.0052 102.562 44.875C102.562 44.7611 102.493 44.7041 102.354 44.7041C102.224 44.7041 101.927 44.4518 101.463 43.9473C101.008 43.4427 100.776 43.1131 100.768 42.9585C100.768 42.8934 100.739 42.8242 100.682 42.751C100.633 42.6696 100.576 42.6086 100.511 42.5679C100.438 42.519 100.332 42.3888 100.194 42.1772C100.055 41.9575 99.9212 41.7215 99.791 41.4692C99.4655 40.7856 99.2335 40.4398 99.0952 40.4316C98.9406 40.4316 98.8429 40.9077 98.8022 41.8599C98.7778 42.3563 98.7656 43.0887 98.7656 44.0571C98.7656 44.7896 98.7534 45.3796 98.729 45.8271C98.7127 46.2829 98.6761 46.6532 98.6191 46.938C98.5703 47.2228 98.5011 47.4181 98.4116 47.5239C98.3302 47.6379 98.2244 47.6948 98.0942 47.6948C98.0128 47.6948 97.9355 47.7152 97.8623 47.7559C97.7972 47.7965 97.7565 47.8494 97.7402 47.9146C97.7077 47.9959 97.61 48.0407 97.4473 48.0488C97.2845 48.0651 97.0851 48.0407 96.8491 47.9756C96.6212 47.9186 96.3812 47.8413 96.1289 47.7437C95.8848 47.6541 95.6487 47.5402 95.4209 47.4019C95.2012 47.2716 95.0343 47.1414 94.9204 47.0112C94.5623 46.6125 94.3833 46.3439 94.3833 46.2056C94.3833 46.0672 94.367 43.1375 94.3345 37.4165L94.2978 28.8228L95.4819 28.835C96.3445 28.8512 96.9793 28.9896 97.3862 29.25C97.7931 29.5023 98.1797 30.019 98.5459 30.8003C98.9446 31.6548 99.3963 32.4727 99.9009 33.2539C100.414 34.027 100.881 34.8286 101.305 35.6587C102.46 37.8885 103.193 39.158 103.502 39.4673C103.624 39.5894 103.701 39.5812 103.734 39.4429C103.758 39.3371 103.775 39.1133 103.783 38.7715C103.799 38.1286 103.872 36.9445 104.002 35.2192C104.124 33.6323 104.194 32.2407 104.21 31.0444C104.226 29.84 104.181 29.0588 104.076 28.7007C103.97 28.3426 104.031 27.9927 104.259 27.6509ZM111.534 28.6641C111.99 28.4606 112.45 28.3304 112.914 28.2734C113.377 28.2165 114.338 28.1799 115.794 28.1636C117.08 28.1473 117.979 28.1595 118.492 28.2002C119.005 28.2327 119.375 28.3101 119.603 28.4321C119.985 28.6274 120.242 28.7251 120.372 28.7251C120.429 28.7251 120.51 28.7699 120.616 28.8594C120.73 28.9408 120.836 29.0425 120.934 29.1646C121.08 29.3354 121.186 29.5796 121.251 29.897C121.324 30.2144 121.34 30.4992 121.3 30.7515C121.267 30.9956 121.186 31.1177 121.056 31.1177C120.974 31.1177 120.897 31.1421 120.824 31.1909C120.759 31.2397 120.71 31.3008 120.677 31.374C120.62 31.5368 119.867 31.667 118.419 31.7646C116.97 31.8542 115.912 31.9437 115.245 32.0332L114.244 32.1553L114.195 33.9497C114.187 34.3485 114.179 34.6659 114.171 34.9019C114.171 35.1379 114.183 35.3169 114.208 35.439C114.232 35.5529 114.264 35.6261 114.305 35.6587C114.346 35.6912 114.407 35.6994 114.488 35.6831C114.789 35.6424 115.245 35.8052 115.855 36.1714C116.474 36.5295 116.856 36.8631 117.003 37.1724C117.215 37.6037 117.251 37.9943 117.113 38.3442C116.974 38.6942 116.698 38.9098 116.283 38.9912C114.859 39.2923 114.146 39.3371 114.146 39.1255C114.146 38.979 114.102 38.9058 114.012 38.9058C113.89 38.922 113.784 39.04 113.695 39.2598C113.679 39.2923 113.666 39.3289 113.658 39.3696C113.569 39.6626 113.491 40.277 113.426 41.2129C113.361 42.1406 113.3 42.7266 113.243 42.9707C113.211 43.1335 113.247 43.2271 113.353 43.2515C113.491 43.284 113.976 43.2637 114.806 43.1904C116.002 43.0765 116.917 43.0521 117.552 43.1172C118.187 43.1742 118.814 43.341 119.432 43.6177C119.945 43.8537 120.254 44.0327 120.36 44.1548C120.474 44.2687 120.531 44.4844 120.531 44.8018C120.531 45.2493 120.38 45.644 120.079 45.9858L119.64 46.4985L115.184 46.6206L110.729 46.7549L110.13 46.0713C109.732 45.6237 109.471 45.2534 109.349 44.9604C109.227 44.6756 109.227 43.6584 109.349 41.9087C109.479 40.1509 109.675 38.4582 109.935 36.8306C110.212 35.1134 110.326 33.5509 110.277 32.1431C110.261 31.5653 110.261 31.0241 110.277 30.5195C110.293 30.015 110.326 29.7017 110.374 29.5796C110.423 29.4412 110.554 29.2907 110.765 29.1279C110.985 28.957 111.241 28.8024 111.534 28.6641ZM122.874 27.0283C123.566 26.654 124.14 26.6784 124.596 27.1016C124.848 27.3294 125.088 27.4881 125.316 27.5776C125.576 27.6753 125.755 27.8665 125.853 28.1514C126.04 28.6722 126.154 30.137 126.195 32.5459C126.219 33.5469 126.235 35.089 126.244 37.1724C126.268 41.9006 126.219 44.757 126.097 45.7417C126.008 46.4253 125.841 46.8037 125.597 46.877C125.556 46.8851 125.507 46.8892 125.45 46.8892C125.353 46.8892 125.255 46.9095 125.157 46.9502C125.068 46.9909 125.007 47.0397 124.974 47.0967C124.885 47.2432 124.62 47.1903 124.181 46.938C123.741 46.6938 123.326 46.3683 122.936 45.9614L122.301 45.2778L122.179 37.6484C122.097 32.5622 122.057 29.8522 122.057 29.5186C122.048 28.9163 122.122 28.3874 122.276 27.9316C122.431 27.4678 122.63 27.1667 122.874 27.0283ZM131.895 27.2603C132.88 27.1382 133.849 27.2318 134.801 27.541C135.761 27.8421 136.673 28.3426 137.535 29.0425C138.178 29.5796 138.805 30.3364 139.415 31.313C140.025 32.2896 140.481 33.2783 140.782 34.2793C140.953 34.8245 140.961 35.4552 140.807 36.1714C140.66 36.8875 140.388 37.5223 139.989 38.0757C139.728 38.4338 139.586 38.6698 139.562 38.7837C139.545 38.8895 139.614 39.0116 139.769 39.1499C140.42 39.7358 141.108 40.5985 141.832 41.7378C142.564 42.8771 142.967 43.7235 143.041 44.2769C143.097 44.6675 143.097 44.9442 143.041 45.1069C142.984 45.2697 142.825 45.4813 142.564 45.7417C142.32 45.9777 142.117 46.1283 141.954 46.1934C141.799 46.2585 141.604 46.2666 141.368 46.2178C141.034 46.1527 140.619 45.9126 140.123 45.4976C139.635 45.0825 139.391 44.7692 139.391 44.5576C139.391 44.4925 139.37 44.4355 139.33 44.3867C139.289 44.3298 139.244 44.3013 139.195 44.3013C139.146 44.3013 139.09 44.2646 139.024 44.1914C138.967 44.1182 138.927 44.0327 138.902 43.9351C138.87 43.8293 138.756 43.6502 138.561 43.3979C138.365 43.1457 138.141 42.8893 137.889 42.6289C137.287 42.0104 136.986 41.6686 136.986 41.6035C136.986 41.5384 136.847 41.3675 136.571 41.0908C136.294 40.806 135.61 40.5781 134.52 40.4072C133.438 40.2363 132.774 40.098 132.53 39.9922C132.367 39.9271 132.274 39.9474 132.249 40.0532C132.217 40.1672 132.233 40.5903 132.298 41.3228C132.38 42.1935 132.331 43.2555 132.152 44.5088C131.981 45.7539 131.769 46.5677 131.517 46.9502C131.33 47.2269 131.057 47.4059 130.699 47.4873C130.341 47.5768 129.975 47.5728 129.601 47.4751C129.234 47.3774 128.884 47.1984 128.551 46.938C128.225 46.6776 127.997 46.3724 127.867 46.0225C127.696 45.5098 127.643 45.2005 127.708 45.0947C127.879 44.818 128.018 44.1426 128.124 43.0684C128.237 41.986 128.262 41.0664 128.197 40.3096C128.099 39.1784 128.042 37.9373 128.026 36.5864C128.018 35.7808 127.977 35.1501 127.904 34.6943C127.839 34.2305 127.704 33.7056 127.501 33.1196L126.988 31.6548L127.477 30.6172C127.745 30.0638 128.095 29.543 128.526 29.0547C128.958 28.5664 129.291 28.3223 129.527 28.3223C129.609 28.3223 129.674 28.306 129.723 28.2734C129.78 28.2409 129.808 28.2002 129.808 28.1514C129.808 28.0374 130.06 27.8747 130.565 27.6631C131.078 27.4434 131.521 27.3091 131.895 27.2603ZM134.776 31.606C134.41 31.4188 134.117 31.3333 133.897 31.3496C133.686 31.3659 133.32 31.5042 132.799 31.7646C132.197 32.0658 131.904 32.3343 131.92 32.5703C131.936 32.8063 131.952 33.6201 131.969 35.0117L132.005 37.1113H133.25C133.845 37.1113 134.243 37.0747 134.447 37.0015C134.65 36.9201 134.972 36.6759 135.411 36.269C135.663 36.033 135.891 35.7889 136.095 35.5366C136.298 35.2762 136.416 35.0809 136.449 34.9507C136.514 34.6903 136.485 34.32 136.363 33.8398C136.249 33.3597 136.127 33.1196 135.997 33.1196C135.948 33.1196 135.883 33.0627 135.802 32.9487C135.729 32.8267 135.655 32.6802 135.582 32.5093C135.517 32.3384 135.403 32.1675 135.24 31.9966C135.086 31.8175 134.931 31.6873 134.776 31.606ZM151.988 29.9702C152.452 29.8563 153.103 29.8888 153.941 30.0679C154.78 30.2388 155.626 30.5236 156.48 30.9224C157.359 31.3211 157.844 31.5205 157.933 31.5205C158.031 31.5205 158.312 31.7362 158.775 32.1675C158.971 32.3465 159.186 32.5215 159.422 32.6924C159.658 32.8633 159.841 32.9813 159.972 33.0464C160.273 33.1766 160.549 33.616 160.802 34.3647C161.054 35.1053 161.18 35.854 161.18 36.6108C161.18 37.1724 161.074 37.9048 160.863 38.8081C160.659 39.7114 160.468 40.277 160.289 40.5049C160.134 40.7083 159.98 40.9891 159.825 41.3472C159.679 41.6971 159.166 42.3319 158.287 43.2515C157.416 44.1711 156.802 44.7244 156.444 44.9116C156.069 45.0988 155.597 45.3836 155.028 45.7661C154.792 45.9207 154.495 46.0794 154.137 46.2422C153.787 46.4131 153.486 46.5392 153.233 46.6206C152.696 46.7834 151.956 46.881 151.012 46.9136C150.076 46.9461 149.518 46.8932 149.339 46.7549C149.177 46.6328 148.823 46.4863 148.277 46.3154C148.049 46.2422 147.72 46.0876 147.289 45.8516C146.865 45.6237 146.467 45.3796 146.092 45.1191C145.482 44.7041 145.075 44.3786 144.872 44.1426C144.668 43.9066 144.457 43.5241 144.237 42.9951C144.05 42.515 143.928 42.1203 143.871 41.811C143.822 41.5018 143.818 41.1112 143.858 40.6392C143.891 40.3136 143.936 40.0166 143.993 39.748C144.058 39.4714 144.119 39.3045 144.176 39.2476C144.241 39.1906 144.294 39.097 144.334 38.9668C144.383 38.8366 144.408 38.7104 144.408 38.5884C144.408 38.4663 144.465 38.2466 144.579 37.9292C144.701 37.6037 144.843 37.2741 145.006 36.9404C145.405 36.1348 145.604 35.6587 145.604 35.5122C145.604 35.2762 145.868 34.7513 146.397 33.9375C146.935 33.1156 147.431 32.4686 147.887 31.9966C148.18 31.7036 148.782 31.3293 149.693 30.8735C150.613 30.4178 151.378 30.1167 151.988 29.9702ZM156.224 34.5967C155.809 34.1816 155.333 33.9172 154.796 33.8032C154.267 33.6812 153.726 33.7178 153.172 33.9131C152.668 34.0921 152.257 34.2671 151.939 34.438C151.622 34.6089 151.317 34.8449 151.024 35.146C150.731 35.4471 150.466 35.797 150.23 36.1958C150.003 36.5946 149.73 37.1317 149.413 37.8071L148.766 39.1621C148.652 39.39 148.595 39.5975 148.595 39.7847C148.595 39.9718 148.493 40.2607 148.29 40.6514C147.956 41.2943 147.919 41.7988 148.18 42.165C148.448 42.5231 148.985 42.7021 149.791 42.7021C150.157 42.7021 150.629 42.6126 151.207 42.4336C151.785 42.2464 152.293 42.0308 152.733 41.7866C153.172 41.5425 153.392 41.3431 153.392 41.1885C153.392 41.1071 153.416 41.042 153.465 40.9932C153.514 40.9362 153.575 40.9077 153.648 40.9077C153.844 40.9077 154.251 40.57 154.869 39.8945C155.488 39.2191 155.907 38.6576 156.126 38.21C156.24 37.9902 156.346 37.6932 156.444 37.3188C156.55 36.9445 156.623 36.6027 156.664 36.2935C156.729 35.7645 156.741 35.4186 156.7 35.2559C156.659 35.0931 156.501 34.8734 156.224 34.5967ZM181.725 27.4922C181.936 27.1911 182.201 27.0039 182.518 26.9307C182.77 26.8737 182.896 26.9388 182.896 27.126C182.896 27.1829 182.941 27.2318 183.031 27.2725C183.128 27.3132 183.242 27.3335 183.373 27.3335C183.543 27.3335 183.674 27.3701 183.763 27.4434C183.861 27.5085 183.926 27.6183 183.958 27.7729C184.024 28.0741 184.158 28.4932 184.361 29.0303C184.557 29.543 184.658 30.0475 184.666 30.5439C184.675 31.0322 184.585 31.3577 184.398 31.5205C184.317 31.5856 184.243 31.6873 184.178 31.8257C184.121 31.964 184.093 32.0983 184.093 32.2285C184.093 32.5459 184.02 32.8877 183.873 33.2539C183.661 33.7747 183.336 35.0524 182.896 37.0869C182.766 37.6729 182.644 38.0391 182.53 38.1855C182.408 38.3402 182.205 38.8407 181.92 39.687C181.643 40.5252 181.505 41.0501 181.505 41.2617C181.505 41.5059 181.448 41.693 181.334 41.8232C181.22 41.9453 181.004 42.4377 180.687 43.3003C180.378 44.1629 180.174 44.6309 180.077 44.7041C179.987 44.7692 179.816 45.0256 179.564 45.4731C179.369 45.8394 179.181 46.0835 179.002 46.2056C178.823 46.3358 178.457 46.4904 177.904 46.6694C177.456 46.8159 177.163 46.8241 177.025 46.6938C176.895 46.5636 176.708 46.4985 176.463 46.4985C176.366 46.4985 176.28 46.4701 176.207 46.4131C176.142 46.3561 176.109 46.2869 176.109 46.2056C176.109 46.1323 175.983 45.9574 175.731 45.6807C175.479 45.4121 175.173 45.1232 174.815 44.814C174.457 44.4966 174.116 44.1711 173.79 43.8374C173.473 43.5037 173.269 43.2555 173.18 43.0928L172.838 42.5068L172.374 43.4468C172.073 44.0815 171.922 44.5088 171.922 44.7285C171.922 44.818 171.874 44.9401 171.776 45.0947C171.678 45.2493 171.56 45.3918 171.422 45.522C171.088 45.8394 170.921 46.0469 170.921 46.1445C170.921 46.2422 170.779 46.4334 170.494 46.7183C170.323 46.8892 170.144 46.995 169.957 47.0356C169.77 47.0763 169.452 47.0804 169.005 47.0479C168.403 46.999 167.914 46.8281 167.54 46.5352C167.166 46.2422 166.917 45.8434 166.795 45.3389C166.706 44.9808 166.576 44.6349 166.405 44.3013C166.242 43.9676 166.079 43.5688 165.916 43.105C165.754 42.633 165.489 41.9982 165.123 41.2007C164.757 40.4032 164.529 39.7725 164.439 39.3086C164.326 38.7145 164.049 37.7746 163.609 36.4888C163.17 35.203 162.8 34.2467 162.499 33.6201C162.157 32.8958 161.965 32.2367 161.925 31.6426C161.892 31.0485 162.01 30.5806 162.279 30.2388C162.547 29.897 162.946 29.7261 163.475 29.7261C163.801 29.7261 164.057 29.783 164.244 29.897C164.439 30.0028 164.72 30.2632 165.086 30.6782C165.322 30.9305 165.534 31.1991 165.721 31.4839C165.916 31.7687 166.03 31.9803 166.063 32.1187C166.144 32.4523 166.234 32.6883 166.332 32.8267C166.437 32.9569 166.539 33.2539 166.637 33.7178C166.734 34.1816 166.832 34.4502 166.93 34.5234C167.027 34.5967 167.316 35.3698 167.796 36.8428C168.285 38.3158 168.529 39.1702 168.529 39.4062C168.529 39.6829 168.626 39.9515 168.822 40.2119C168.968 40.4072 169.066 40.5049 169.115 40.5049C169.172 40.5049 169.269 40.4154 169.408 40.2363C169.489 40.1387 169.57 39.9718 169.652 39.7358C169.733 39.4917 169.794 39.2557 169.835 39.0278C169.924 38.4093 170.047 37.9048 170.201 37.5142C170.356 37.1154 170.523 36.8835 170.702 36.8184C170.962 36.7288 171.153 36.6637 171.275 36.623C171.397 36.5742 171.532 36.5376 171.678 36.5132C171.833 36.4806 171.943 36.4644 172.008 36.4644C172.073 36.4644 172.162 36.4888 172.276 36.5376C172.398 36.5783 172.496 36.6271 172.569 36.6841C172.651 36.741 172.773 36.8306 172.936 36.9526C173.294 37.2131 173.615 37.4897 173.9 37.7827C174.193 38.0675 174.677 38.5965 175.353 39.3696C175.589 39.6382 175.707 39.8457 175.707 39.9922C175.707 40.0573 175.763 40.1794 175.877 40.3584C175.991 40.5374 176.122 40.7165 176.268 40.8955L176.83 41.5669L177.269 40.5415C177.562 39.866 177.708 39.4266 177.708 39.2231C177.708 39.0116 177.765 38.7918 177.879 38.564C178.01 38.3198 178.176 37.8193 178.38 37.0625C178.583 36.3057 178.726 35.6628 178.807 35.1338C178.897 34.5316 178.994 34.1287 179.1 33.9253C179.206 33.7218 179.405 33.1196 179.698 32.1187C179.959 31.2235 180.199 30.5033 180.418 29.958C180.638 29.4046 180.801 29.1279 180.907 29.1279C180.947 29.1279 180.996 29.075 181.053 28.9692C181.11 28.8634 181.155 28.7373 181.187 28.5908C181.228 28.4443 181.301 28.2612 181.407 28.0415C181.513 27.8218 181.619 27.6387 181.725 27.4922ZM186.229 27.0283C186.921 26.654 187.494 26.6784 187.95 27.1016C188.202 27.3294 188.443 27.4881 188.67 27.5776C188.931 27.6753 189.11 27.8665 189.208 28.1514C189.395 28.6722 189.509 30.137 189.549 32.5459C189.574 33.5469 189.59 35.089 189.598 37.1724C189.623 41.9006 189.574 44.757 189.452 45.7417C189.362 46.4253 189.195 46.8037 188.951 46.877C188.91 46.8851 188.862 46.8892 188.805 46.8892C188.707 46.8892 188.609 46.9095 188.512 46.9502C188.422 46.9909 188.361 47.0397 188.329 47.0967C188.239 47.2432 187.975 47.1903 187.535 46.938C187.096 46.6938 186.681 46.3683 186.29 45.9614L185.655 45.2778L185.533 37.6484C185.452 32.5622 185.411 29.8522 185.411 29.5186C185.403 28.9163 185.476 28.3874 185.631 27.9316C185.785 27.4678 185.985 27.1667 186.229 27.0283ZM195.238 29.3354C195.962 29.2134 196.979 29.1768 198.29 29.2256C199.6 29.2663 200.348 29.3639 200.536 29.5186C200.698 29.6569 200.796 29.8319 200.829 30.0435C200.861 30.255 200.833 30.4707 200.743 30.6904C200.654 30.902 200.507 31.1095 200.304 31.313C200.108 31.5164 199.876 31.6792 199.608 31.8013C199.404 31.8908 199.225 31.9884 199.071 32.0942C198.916 32.1919 198.839 32.2611 198.839 32.3018C198.839 32.3424 198.619 32.3953 198.18 32.4604C197.74 32.5174 197.211 32.5662 196.593 32.6069C195.974 32.6395 195.429 32.6842 194.957 32.7412C194.485 32.7982 194.229 32.847 194.188 32.8877C194.147 32.9284 194.139 33.1196 194.164 33.4614C194.196 33.7951 194.257 34.1816 194.347 34.6211C194.542 35.679 194.652 36.2935 194.676 36.4644C194.684 36.5539 194.839 36.619 195.14 36.6597C195.449 36.6922 195.962 36.7085 196.678 36.7085C197.459 36.7085 198.066 36.7451 198.497 36.8184C198.937 36.8916 199.27 37.0137 199.498 37.1846C199.726 37.3555 199.897 37.6037 200.011 37.9292C200.1 38.1978 200.137 38.3971 200.121 38.5273C200.104 38.6494 200.023 38.7959 199.876 38.9668C199.583 39.3005 199.217 39.5446 198.778 39.6992C198.338 39.8538 197.7 39.9637 196.861 40.0288C195.779 40.1183 195.238 40.2526 195.238 40.4316C195.238 40.4967 195.254 40.5659 195.287 40.6392C195.327 40.7124 195.372 40.7653 195.421 40.7979C195.51 40.8467 195.6 41.2983 195.689 42.1528C195.787 43.0073 195.848 43.931 195.873 44.9238C195.881 45.3633 195.856 45.7051 195.799 45.9492C195.742 46.1934 195.628 46.4334 195.458 46.6694C195.335 46.8403 195.209 46.9746 195.079 47.0723C194.949 47.1781 194.851 47.2228 194.786 47.2065C194.623 47.1577 194.363 47.0926 194.005 47.0112C193.85 46.9787 193.667 46.881 193.456 46.7183C193.244 46.5555 193.065 46.3765 192.918 46.1812C192.658 45.8475 192.495 45.5342 192.43 45.2412C192.373 44.9482 192.333 44.3094 192.308 43.3247C192.251 41.3797 192.031 39.5405 191.649 37.8071C191.169 35.6668 190.86 34.0026 190.721 32.8145C190.632 32.0169 190.526 31.5042 190.404 31.2764C190.29 31.0404 190.343 30.7555 190.562 30.4219C190.693 30.2266 190.831 30.0964 190.978 30.0312C191.124 29.958 191.352 29.9214 191.661 29.9214C192.182 29.9214 192.723 29.8563 193.285 29.7261C193.854 29.5877 194.505 29.4575 195.238 29.3354ZM201.964 28.6519C202.444 28.3101 202.997 28.2531 203.624 28.481C204.251 28.7088 204.727 29.1361 205.052 29.7627C205.207 30.0557 205.353 30.6904 205.492 31.667C205.63 32.6354 205.732 33.7381 205.797 34.9751L205.833 35.7319L206.834 35.5854C207.502 35.4878 208.027 35.4471 208.409 35.4634C208.759 35.4797 209.036 35.4186 209.239 35.2803C209.443 35.1338 209.512 34.9507 209.447 34.731C209.382 34.5194 209.317 33.5672 209.251 31.8745C209.235 31.4757 209.223 31.1624 209.215 30.9346C209.207 30.6986 209.207 30.4585 209.215 30.2144C209.223 29.9702 209.231 29.7912 209.239 29.6772C209.256 29.5552 209.288 29.4331 209.337 29.311C209.386 29.189 209.435 29.1076 209.483 29.0669C209.54 29.0262 209.622 28.9855 209.728 28.9448C209.833 28.896 209.935 28.8716 210.033 28.8716C210.138 28.8634 210.285 28.8553 210.472 28.8472C210.977 28.8309 211.38 28.9733 211.681 29.2744C211.795 29.3965 211.925 29.5023 212.071 29.5918C212.226 29.6813 212.344 29.7261 212.425 29.7261C212.629 29.7261 212.73 29.8848 212.73 30.2021C212.73 30.3324 212.747 30.4544 212.779 30.5684C212.82 30.6742 212.869 30.7352 212.926 30.7515C212.983 30.7759 213.04 31.0892 213.097 31.6914C213.162 32.2855 213.211 33.026 213.243 33.9131C213.308 35.7523 213.365 37.0381 213.414 37.7705C213.463 38.4948 213.569 39.6463 213.731 41.2251C213.845 42.3237 213.898 43.0277 213.89 43.3369C213.882 43.6462 213.801 43.9188 213.646 44.1548C213.443 44.4722 213.105 44.6878 212.633 44.8018C212.169 44.9157 211.774 44.8831 211.449 44.7041C210.952 44.4437 210.509 43.8049 210.118 42.7876C209.728 41.7703 209.532 40.7572 209.532 39.748V39.0645L208.385 39.1621C207.62 39.2354 207.038 39.3167 206.639 39.4062L206.041 39.5527L206.102 42.7021C206.143 44.4274 206.131 45.4325 206.065 45.7173C206.025 45.9207 205.907 46.1079 205.711 46.2788C205.394 46.5799 205.02 46.7183 204.588 46.6938C204.157 46.6776 203.827 46.5067 203.6 46.1812C203.364 45.8312 203.128 45.5301 202.892 45.2778C202.761 45.1395 202.668 44.9482 202.611 44.7041C202.562 44.46 202.538 44.11 202.538 43.6543C202.538 43.3125 202.517 42.9504 202.477 42.5679C202.436 42.1854 202.383 41.8965 202.318 41.7012C202.261 41.514 202.192 40.8833 202.11 39.8091C202.037 38.7267 201.976 37.5264 201.927 36.208C201.821 33.0179 201.724 31.0119 201.634 30.1899C201.577 29.6366 201.565 29.2785 201.598 29.1157C201.63 28.9448 201.752 28.7902 201.964 28.6519ZM221.202 27.9683C221.43 27.7729 221.922 27.7078 222.679 27.7729C223.444 27.8381 223.957 27.9886 224.217 28.2246C224.331 28.3304 224.425 28.4687 224.498 28.6396C224.579 28.8105 224.62 28.9692 224.62 29.1157C224.62 29.2622 224.645 29.425 224.693 29.604C224.75 29.783 224.824 29.9255 224.913 30.0312C225.1 30.2917 225.198 30.5277 225.206 30.7393C225.206 30.8939 225.34 31.252 225.609 31.8135C225.886 32.3669 226.174 32.8836 226.476 33.3638C226.671 33.6649 226.984 34.4827 227.416 35.8174C228.083 37.8519 228.628 39.2476 229.051 40.0044C229.824 41.3797 230.211 42.2505 230.211 42.6167C230.211 42.9259 230.272 43.1172 230.394 43.1904C230.516 43.2637 230.614 43.5404 230.687 44.0205C230.768 44.4925 230.772 44.8669 230.699 45.1436C230.675 45.2656 230.581 45.4162 230.418 45.5952C230.256 45.7824 230.081 45.9411 229.894 46.0713C229.592 46.2829 229.373 46.4009 229.234 46.4253C229.104 46.4578 228.941 46.4212 228.746 46.3154C228.388 46.1201 227.908 45.7295 227.306 45.1436C226.712 44.5576 226.415 44.1833 226.415 44.0205C226.415 43.7601 226.305 43.2596 226.085 42.519C225.873 41.7785 225.686 41.2454 225.523 40.9199C225.369 40.6351 225.222 40.4642 225.084 40.4072C224.954 40.3421 224.657 40.3096 224.193 40.3096C223.916 40.3096 223.562 40.3503 223.131 40.4316C222.708 40.5049 222.325 40.5985 221.983 40.7124C221.642 40.8263 221.304 40.9118 220.97 40.9687C220.645 41.0257 220.417 41.0379 220.287 41.0054C220.091 40.9565 219.965 40.9525 219.908 40.9932C219.786 41.0664 219.554 41.4937 219.212 42.2749C219.172 42.3807 219.001 42.7876 218.7 43.4956C218.366 44.2769 218.089 44.8262 217.87 45.1436C217.658 45.4528 217.398 45.6807 217.088 45.8271L216.429 46.1323L215.538 45.2046C215.286 44.9442 215.07 44.6919 214.891 44.4478C214.72 44.1955 214.635 44.0205 214.635 43.9229C214.635 43.6787 214.769 43.166 215.038 42.3848C215.314 41.5954 215.506 40.9687 215.611 40.5049C215.717 40.041 215.908 39.5405 216.185 39.0034C217.137 37.1561 217.682 36.1266 217.821 35.915C217.943 35.7116 218.118 35.2233 218.346 34.4502C218.443 34.1247 218.549 33.8398 218.663 33.5957C218.785 33.3434 218.879 33.2051 218.944 33.1807C219.017 33.1481 219.09 33.0545 219.164 32.8999C219.245 32.7453 219.306 32.5703 219.347 32.375C219.436 31.8949 219.575 31.4839 219.762 31.1421C219.827 31.0037 219.888 30.8288 219.945 30.6172C220.002 30.3975 220.03 30.2144 220.03 30.0679C220.03 29.783 220.148 29.425 220.384 28.9937C220.628 28.5542 220.901 28.2124 221.202 27.9683ZM223.192 34.8652C223.135 34.7187 223.07 34.5926 222.997 34.4868C222.931 34.3729 222.879 34.3159 222.838 34.3159C222.732 34.3159 222.492 34.7187 222.118 35.5244C221.751 36.3219 221.605 36.7573 221.678 36.8306C221.76 36.9119 222.105 36.9079 222.716 36.8184C223.172 36.7614 223.432 36.7004 223.497 36.6353C223.57 36.562 223.578 36.3667 223.521 36.0493C223.44 35.6261 223.33 35.2314 223.192 34.8652ZM242.052 27.7485C243.419 27.6753 244.367 27.6549 244.896 27.6875C245.425 27.7119 245.873 27.8096 246.239 27.9805C246.548 28.127 246.825 28.3426 247.069 28.6274C247.313 28.9041 247.435 29.1564 247.435 29.3843C247.443 29.6121 247.52 29.8522 247.667 30.1045C247.765 30.2591 247.801 30.3975 247.777 30.5195C247.761 30.6335 247.671 30.8003 247.508 31.02C247.24 31.4025 246.804 31.6873 246.202 31.8745C245.6 32.0617 244.709 32.1878 243.529 32.2529L241.515 32.375L241.356 35.5C241.25 37.5752 241.209 38.9505 241.234 39.626C241.258 40.2933 241.209 40.7856 241.087 41.103C240.973 41.4204 240.99 41.9819 241.136 42.7876C241.291 43.5933 241.384 44.5373 241.417 45.6196L241.478 47.231L240.672 47.8779L239.879 48.5127L239.012 48.1343C238.605 47.9471 238.296 47.7599 238.084 47.5728C237.881 47.3856 237.714 47.1333 237.584 46.8159C237.462 46.5067 237.332 46.0347 237.193 45.3999C237.031 44.5861 236.921 43.0236 236.864 40.7124C236.807 38.4012 236.852 37.1724 236.998 37.0259C237.079 36.9526 237.14 36.4155 237.181 35.4146C237.23 34.4054 237.263 33.8521 237.279 33.7544C237.295 33.6405 237.307 33.5469 237.315 33.4736C237.324 33.4004 237.319 33.3312 237.303 33.2661C237.295 33.1929 237.279 33.14 237.254 33.1074C237.238 33.0749 237.193 33.0423 237.12 33.0098C237.055 32.9772 236.986 32.9569 236.913 32.9487C236.839 32.9406 236.725 32.9365 236.571 32.9365C236.424 32.9284 236.278 32.9284 236.131 32.9365C235.985 32.9447 235.79 32.9569 235.545 32.9731C235.073 33.0057 234.605 33.0138 234.142 32.9976C233.678 32.9813 233.36 32.9487 233.189 32.8999C232.774 32.786 232.384 32.4523 232.018 31.8989C231.659 31.3455 231.48 30.8206 231.48 30.3242C231.48 29.7627 231.627 29.3436 231.92 29.0669C232.221 28.7821 232.709 28.5868 233.385 28.481C234.15 28.367 235.391 28.2409 237.108 28.1025C238.825 27.9561 240.473 27.8381 242.052 27.7485Z" fill="#D6C6B6"/>
<defs>
<filter id="filter0_b_1_69" x="6.16257" y="1.99292" width="281.32" height="69.1304" filterUnits="userSpaceOnUse" color-interpolation-filters="sRGB">
<feFlood flood-opacity="0" result="BackgroundImageFix"/>
<feGaussianBlur in="BackgroundImageFix" stdDeviation="3.5"/>
<feComposite in2="SourceAlpha" operator="in" result="effect1_backgroundBlur_1_69"/>
<feBlend mode="normal" in="SourceGraphic" in2="effect1_backgroundBlur_1_69" result="shape"/>
</filter>
</defs>
</svg>
