<svg width="215" height="215" viewBox="0 0 215 215" fill="none" xmlns="http://www.w3.org/2000/svg">
<mask id="path-1-inside-1_1_98" fill="white">
<path fill-rule="evenodd" clip-rule="evenodd" d="M213.043 107.684C213.043 166.063 165.718 213.388 107.339 213.388C48.9601 213.388 1.63469 166.063 1.63469 107.684C1.63469 49.3049 48.9601 1.97949 107.339 1.97949C165.718 1.97949 213.043 49.3049 213.043 107.684ZM117.655 90.1034C121.442 88.2149 126.261 85.435 131.086 81.6262C132.104 83.7388 132.215 85.5823 131.691 87.0709C131.319 88.12 130.62 89.0325 129.699 89.7584C128.703 90.543 127.458 91.1141 126.082 91.4228C123.471 92.0109 120.423 91.6676 117.655 90.1034ZM118.312 109.453L123.325 112.349C113.738 117.722 110.689 127.407 107.625 137.138C107.418 137.798 107.21 138.458 107 139.116C106.791 138.459 106.583 137.8 106.376 137.142L106.376 137.141C103.312 127.409 100.262 117.723 90.6753 112.349L95.6888 109.453C96.1738 109.27 96.5883 108.938 96.873 108.505C97.1576 108.071 97.2979 107.559 97.2735 107.041C96.8142 97.3232 99.4381 93.0257 102.977 90.3275C104.247 89.361 105.633 88.8756 107 88.8756C108.367 88.8756 109.753 89.361 111.023 90.3275C114.562 93.0257 117.186 97.3232 116.727 107.041C116.703 107.559 116.843 108.071 117.127 108.505C117.412 108.938 117.827 109.27 118.312 109.453ZM107 46C112.795 46.1556 118.605 47.2806 123.647 49.4691C127.138 50.9866 130.396 52.9911 133.346 55.3881C134.678 56.4702 135.775 57.5155 136.983 58.719C140.242 58.8316 145.005 55.211 147.217 51.8232C143.411 64.299 126.046 79.032 114.023 84.6694C114.022 84.6689 114.021 84.6684 114.02 84.6679L114.019 84.6671C114.017 84.6661 114.016 84.6651 114.014 84.664C114.013 84.6633 114.012 84.6627 114.011 84.662C111.854 83.0145 109.427 82.1908 107 82.1908C104.573 82.1908 102.147 83.0145 99.9891 84.662C99.9877 84.6628 99.9864 84.6638 99.985 84.6648C99.9827 84.6665 99.9802 84.6684 99.9771 84.6694C87.9544 79.032 70.5893 64.299 66.7838 51.8232C68.9946 55.211 73.7576 58.8316 77.0166 58.719C78.2254 57.5159 79.3224 56.4702 80.6542 55.3881C83.6041 52.9911 86.862 50.9866 90.3534 49.4691C95.3957 47.2806 101.205 46.1556 107 46ZM96.3449 90.1034C92.558 88.2149 87.7385 85.435 82.9141 81.6262C81.8968 83.7388 81.7854 85.5823 82.3091 87.0709C82.6809 88.12 83.3809 89.0325 84.3008 89.7584C85.2978 90.543 86.5425 91.1141 87.9185 91.4228C90.5292 92.0109 93.577 91.6676 96.3449 90.1034ZM136.371 76.959C139.027 74.2785 141.367 71.3116 143.249 68.6642L144.205 70.4631C147.282 76.6193 148.881 82.7508 148.881 89.6511L148.874 100.601L148.932 106.277C149.155 120.212 152.17 134.311 159 147.214L144.709 135.691L134.598 152.099L123.975 142.099L107 169.646L90.0249 142.099L79.4024 152.099L69.2909 135.691L55 147.214C61.8302 134.312 64.8453 120.213 65.0686 106.277L65.1264 100.601L65.1198 89.6515C65.1198 82.7508 66.7182 76.6193 69.7961 70.4635L70.7515 68.6646C72.6334 71.312 74.9734 74.2785 77.6299 76.9594L76.8004 78.6824C75.1888 82.029 74.6552 85.7709 75.9106 89.3296C76.7199 91.6217 78.197 93.5874 80.1011 95.088C81.95 96.5452 84.1382 97.5275 86.429 98.0433C87.9214 98.3793 89.4417 98.5175 90.9522 98.4705C90.5998 100.468 90.4458 102.541 90.4359 104.652L76.9556 112.438L87.358 118.269C88.1895 118.735 88.981 119.269 89.7244 119.866C96.72 126.146 101.44 142.46 104.865 154.299C105.639 156.975 106.347 159.421 107 161.472C107.654 159.421 108.362 156.973 109.136 154.297C112.562 142.458 117.281 126.146 124.277 119.866C125.02 119.269 125.812 118.735 126.643 118.269L137.046 112.438L123.565 104.652C123.555 102.541 123.401 100.468 123.049 98.4705C124.559 98.5175 126.079 98.3793 127.572 98.0433C129.863 97.5275 132.051 96.5452 133.9 95.088C135.803 93.5874 137.281 91.6217 138.09 89.3296C139.346 85.7709 138.812 82.0294 137.2 78.6824L136.371 76.9594L136.371 76.959Z"/>
</mask>
<path fill-rule="evenodd" clip-rule="evenodd" d="M213.043 107.684C213.043 166.063 165.718 213.388 107.339 213.388C48.9601 213.388 1.63469 166.063 1.63469 107.684C1.63469 49.3049 48.9601 1.97949 107.339 1.97949C165.718 1.97949 213.043 49.3049 213.043 107.684ZM117.655 90.1034C121.442 88.2149 126.261 85.435 131.086 81.6262C132.104 83.7388 132.215 85.5823 131.691 87.0709C131.319 88.12 130.62 89.0325 129.699 89.7584C128.703 90.543 127.458 91.1141 126.082 91.4228C123.471 92.0109 120.423 91.6676 117.655 90.1034ZM118.312 109.453L123.325 112.349C113.738 117.722 110.689 127.407 107.625 137.138C107.418 137.798 107.21 138.458 107 139.116C106.791 138.459 106.583 137.8 106.376 137.142L106.376 137.141C103.312 127.409 100.262 117.723 90.6753 112.349L95.6888 109.453C96.1738 109.27 96.5883 108.938 96.873 108.505C97.1576 108.071 97.2979 107.559 97.2735 107.041C96.8142 97.3232 99.4381 93.0257 102.977 90.3275C104.247 89.361 105.633 88.8756 107 88.8756C108.367 88.8756 109.753 89.361 111.023 90.3275C114.562 93.0257 117.186 97.3232 116.727 107.041C116.703 107.559 116.843 108.071 117.127 108.505C117.412 108.938 117.827 109.27 118.312 109.453ZM107 46C112.795 46.1556 118.605 47.2806 123.647 49.4691C127.138 50.9866 130.396 52.9911 133.346 55.3881C134.678 56.4702 135.775 57.5155 136.983 58.719C140.242 58.8316 145.005 55.211 147.217 51.8232C143.411 64.299 126.046 79.032 114.023 84.6694C114.022 84.6689 114.021 84.6684 114.02 84.6679L114.019 84.6671C114.017 84.6661 114.016 84.6651 114.014 84.664C114.013 84.6633 114.012 84.6627 114.011 84.662C111.854 83.0145 109.427 82.1908 107 82.1908C104.573 82.1908 102.147 83.0145 99.9891 84.662C99.9877 84.6628 99.9864 84.6638 99.985 84.6648C99.9827 84.6665 99.9802 84.6684 99.9771 84.6694C87.9544 79.032 70.5893 64.299 66.7838 51.8232C68.9946 55.211 73.7576 58.8316 77.0166 58.719C78.2254 57.5159 79.3224 56.4702 80.6542 55.3881C83.6041 52.9911 86.862 50.9866 90.3534 49.4691C95.3957 47.2806 101.205 46.1556 107 46ZM96.3449 90.1034C92.558 88.2149 87.7385 85.435 82.9141 81.6262C81.8968 83.7388 81.7854 85.5823 82.3091 87.0709C82.6809 88.12 83.3809 89.0325 84.3008 89.7584C85.2978 90.543 86.5425 91.1141 87.9185 91.4228C90.5292 92.0109 93.577 91.6676 96.3449 90.1034ZM136.371 76.959C139.027 74.2785 141.367 71.3116 143.249 68.6642L144.205 70.4631C147.282 76.6193 148.881 82.7508 148.881 89.6511L148.874 100.601L148.932 106.277C149.155 120.212 152.17 134.311 159 147.214L144.709 135.691L134.598 152.099L123.975 142.099L107 169.646L90.0249 142.099L79.4024 152.099L69.2909 135.691L55 147.214C61.8302 134.312 64.8453 120.213 65.0686 106.277L65.1264 100.601L65.1198 89.6515C65.1198 82.7508 66.7182 76.6193 69.7961 70.4635L70.7515 68.6646C72.6334 71.312 74.9734 74.2785 77.6299 76.9594L76.8004 78.6824C75.1888 82.029 74.6552 85.7709 75.9106 89.3296C76.7199 91.6217 78.197 93.5874 80.1011 95.088C81.95 96.5452 84.1382 97.5275 86.429 98.0433C87.9214 98.3793 89.4417 98.5175 90.9522 98.4705C90.5998 100.468 90.4458 102.541 90.4359 104.652L76.9556 112.438L87.358 118.269C88.1895 118.735 88.981 119.269 89.7244 119.866C96.72 126.146 101.44 142.46 104.865 154.299C105.639 156.975 106.347 159.421 107 161.472C107.654 159.421 108.362 156.973 109.136 154.297C112.562 142.458 117.281 126.146 124.277 119.866C125.02 119.269 125.812 118.735 126.643 118.269L137.046 112.438L123.565 104.652C123.555 102.541 123.401 100.468 123.049 98.4705C124.559 98.5175 126.079 98.3793 127.572 98.0433C129.863 97.5275 132.051 96.5452 133.9 95.088C135.803 93.5874 137.281 91.6217 138.09 89.3296C139.346 85.7709 138.812 82.0294 137.2 78.6824L136.371 76.9594L136.371 76.959Z" fill="url(#paint0_linear_1_98)"/>
<path d="M131.086 81.6262L133.789 80.3246L132.165 76.9523L129.227 79.2715L131.086 81.6262ZM117.655 90.1034L116.316 87.4187L111.264 89.9379L116.179 92.7153L117.655 90.1034ZM131.691 87.0709L134.519 88.0722L134.521 88.0673L131.691 87.0709ZM129.699 89.7584L131.555 92.1157L131.557 92.1138L129.699 89.7584ZM126.082 91.4228L125.425 88.4956L125.423 88.4962L126.082 91.4228ZM123.325 112.349L124.792 114.966L129.391 112.388L124.826 109.751L123.325 112.349ZM118.312 109.453L119.812 106.855L119.601 106.733L119.372 106.647L118.312 109.453ZM107.625 137.138L104.764 136.237L104.764 136.237L107.625 137.138ZM107 139.116L104.142 140.027L107 149L109.858 140.027L107 139.116ZM106.376 137.142L109.238 136.241L109.233 136.228L106.376 137.142ZM106.376 137.141L103.514 138.042L103.518 138.055L106.376 137.141ZM90.6753 112.349L89.1748 109.751L84.6095 112.388L89.2085 114.966L90.6753 112.349ZM95.6888 109.453L94.6282 106.647L94.3997 106.733L94.1882 106.855L95.6888 109.453ZM97.2735 107.041L100.27 106.9L100.27 106.899L97.2735 107.041ZM102.977 90.3275L101.16 87.9406L101.159 87.9418L102.977 90.3275ZM111.023 90.3275L112.842 87.9417L112.84 87.9403L111.023 90.3275ZM116.727 107.041L113.73 106.899L113.73 106.9L116.727 107.041ZM117.127 108.505L114.62 110.152L114.62 110.152L117.127 108.505ZM123.647 49.4691L124.842 46.7178L124.841 46.7172L123.647 49.4691ZM107 46L107.081 43.0011L107 42.9989L106.919 43.0011L107 46ZM133.346 55.3881L131.454 57.7164L131.454 57.7167L133.346 55.3881ZM136.983 58.719L134.866 60.8446L135.702 61.6764L136.88 61.7172L136.983 58.719ZM147.217 51.8232L150.086 52.6984L144.704 50.1834L147.217 51.8232ZM114.023 84.6694L112.868 87.4381L114.094 87.9496L115.297 87.3856L114.023 84.6694ZM114.02 84.6679L112.517 87.2641L112.538 87.2765L112.56 87.2885L114.02 84.6679ZM114.019 84.6671L112.456 87.2279L112.486 87.246L112.516 87.2634L114.019 84.6671ZM114.014 84.664L115.763 82.2263L115.758 82.2228L114.014 84.664ZM114.011 84.662L112.191 87.0464L112.269 87.1064L112.352 87.1612L114.011 84.662ZM99.9891 84.662L101.445 87.2852L101.636 87.1791L101.81 87.0464L99.9891 84.662ZM99.985 84.6648L101.785 87.0648L101.793 87.0584L99.985 84.6648ZM99.9771 84.6694L98.7035 87.3856L99.7864 87.8934L100.922 87.5169L99.9771 84.6694ZM66.7838 51.8232L69.2961 50.1837L63.9143 52.6984L66.7838 51.8232ZM77.0166 58.719L77.1203 61.7172L78.2978 61.6765L79.1329 60.8453L77.0166 58.719ZM80.6542 55.3881L82.546 57.7164L82.546 57.7164L80.6542 55.3881ZM90.3534 49.4691L89.159 46.7172L89.1576 46.7178L90.3534 49.4691ZM82.9141 81.6262L84.773 79.2715L81.8351 76.9521L80.2112 80.3246L82.9141 81.6262ZM96.3449 90.1034L97.8208 92.7153L102.736 89.9381L97.6838 87.4187L96.3449 90.1034ZM82.3091 87.0709L79.4791 88.0665L79.4814 88.0732L82.3091 87.0709ZM84.3008 89.7584L82.4423 92.1134L82.4457 92.1161L84.3008 89.7584ZM87.9185 91.4228L88.5777 88.4962L88.5752 88.4956L87.9185 91.4228ZM143.249 68.6642L145.898 67.2566L143.619 62.9661L140.804 66.926L143.249 68.6642ZM136.371 76.959L134.24 74.8474L132.138 76.9686L134.249 79.0803L136.371 76.959ZM144.205 70.4631L146.888 69.1218L146.872 69.0885L146.854 69.0555L144.205 70.4631ZM148.881 89.6511L151.881 89.6529V89.6511H148.881ZM148.874 100.601L145.874 100.599L145.874 100.615L145.874 100.631L148.874 100.601ZM148.932 106.277L145.932 106.308L145.932 106.316L145.932 106.325L148.932 106.277ZM159 147.214L157.117 149.549L161.651 145.81L159 147.214ZM144.709 135.691L146.593 133.355L143.942 131.218L142.155 134.117L144.709 135.691ZM134.598 152.099L132.542 154.283L135.221 156.806L137.152 153.673L134.598 152.099ZM123.975 142.099L126.031 139.914L123.352 137.392L121.421 140.525L123.975 142.099ZM107 169.646L104.446 171.22L107 175.365L109.554 171.22L107 169.646ZM90.0249 142.099L92.5789 140.525L90.6482 137.392L87.9685 139.915L90.0249 142.099ZM79.4024 152.099L76.8484 153.673L78.7792 156.806L81.4588 154.284L79.4024 152.099ZM69.2909 135.691L71.8449 134.117L70.0585 131.218L67.4078 133.356L69.2909 135.691ZM55 147.214L52.3486 145.811L56.8831 149.55L55 147.214ZM65.0686 106.277L68.0682 106.326L68.0684 106.317L68.0684 106.308L65.0686 106.277ZM65.1264 100.601L68.1262 100.632L68.1264 100.616L68.1264 100.599L65.1264 100.601ZM65.1198 89.6515L62.1198 89.6515L62.1198 89.6533L65.1198 89.6515ZM69.7961 70.4635L67.1465 69.0564L67.1293 69.0889L67.1128 69.1219L69.7961 70.4635ZM70.7515 68.6646L73.1966 66.9264L70.3812 62.9657L68.1019 67.2575L70.7515 68.6646ZM77.6299 76.9594L80.333 78.2607L81.2517 76.3523L79.7609 74.8478L77.6299 76.9594ZM76.8004 78.6824L79.5033 79.984L79.5034 79.9838L76.8004 78.6824ZM75.9106 89.3296L73.0815 90.3277L73.0818 90.3284L75.9106 89.3296ZM80.1011 95.088L81.9582 92.7319L81.958 92.7317L80.1011 95.088ZM86.429 98.0433L85.77 100.97L85.7702 100.97L86.429 98.0433ZM90.9522 98.4705L93.9066 98.9917L94.5478 95.357L90.8588 95.4719L90.9522 98.4705ZM90.4359 104.652L91.9364 107.25L93.4278 106.388L93.4359 104.666L90.4359 104.652ZM76.9556 112.438L75.4551 109.84L70.8898 112.477L75.4887 115.055L76.9556 112.438ZM87.358 118.269L88.8252 115.652L88.8249 115.652L87.358 118.269ZM89.7244 119.866L91.7287 117.633L91.6668 117.578L91.6019 117.526L89.7244 119.866ZM104.865 154.299L107.747 153.466L107.747 153.466L104.865 154.299ZM107 161.472L104.142 162.383L107 171.358L109.859 162.383L107 161.472ZM109.136 154.297L106.255 153.463L106.255 153.463L109.136 154.297ZM124.277 119.866L122.399 117.526L122.334 117.578L122.273 117.633L124.277 119.866ZM126.643 118.269L128.11 120.886L128.11 120.886L126.643 118.269ZM137.046 112.438L138.513 115.055L143.112 112.477L138.546 109.84L137.046 112.438ZM123.565 104.652L120.565 104.666L120.573 106.388L122.064 107.25L123.565 104.652ZM123.049 98.4705L123.142 95.4719L119.453 95.357L120.094 98.9917L123.049 98.4705ZM127.572 98.0433L128.231 100.97L128.231 100.97L127.572 98.0433ZM133.9 95.088L132.043 92.7319L132.042 92.7321L133.9 95.088ZM138.09 89.3296L140.919 90.328L140.919 90.328L138.09 89.3296ZM137.2 78.6824L139.904 77.3812L139.903 77.3811L137.2 78.6824ZM136.371 76.9594L139.074 75.6581L138.853 75.1986L138.492 74.8381L136.371 76.9594ZM107.339 216.388C167.375 216.388 216.043 167.72 216.043 107.684H210.043C210.043 164.406 164.061 210.388 107.339 210.388V216.388ZM-1.36531 107.684C-1.36531 167.72 47.3033 216.388 107.339 216.388V210.388C50.617 210.388 4.63469 164.406 4.63469 107.684H-1.36531ZM107.339 -1.02051C47.3033 -1.02051 -1.36531 47.6481 -1.36531 107.684H4.63469C4.63469 50.9618 50.617 4.97949 107.339 4.97949V-1.02051ZM216.043 107.684C216.043 47.6481 167.375 -1.02051 107.339 -1.02051V4.97949C164.061 4.97949 210.043 50.9618 210.043 107.684H216.043ZM129.227 79.2715C124.602 82.923 119.968 85.5978 116.316 87.4187L118.994 92.7882C122.917 90.832 127.921 87.947 132.945 83.9809L129.227 79.2715ZM134.521 88.0673C135.368 85.6604 135.068 82.9802 133.789 80.3246L128.383 82.9278C129.139 84.4974 129.062 85.5042 128.861 86.0746L134.521 88.0673ZM131.557 92.1138C132.853 91.0916 133.931 89.7324 134.519 88.0722L128.863 86.0697C128.708 86.5076 128.386 86.9733 127.841 87.403L131.557 92.1138ZM126.739 94.3501C128.499 93.9551 130.166 93.2089 131.555 92.1157L127.844 87.4011C127.239 87.877 126.417 88.2732 125.425 88.4956L126.739 94.3501ZM116.179 92.7153C119.604 94.6508 123.415 95.0988 126.741 94.3495L125.423 88.4962C123.528 88.923 121.242 88.6843 119.131 87.4916L116.179 92.7153ZM124.826 109.751L119.812 106.855L116.811 112.051L121.825 114.947L124.826 109.751ZM110.487 138.039C113.613 128.109 116.399 119.67 124.792 114.966L121.858 109.732C111.077 115.775 107.765 126.705 104.764 136.237L110.487 138.039ZM109.858 140.027C110.07 139.363 110.279 138.698 110.487 138.039L104.764 136.237C104.556 136.898 104.35 137.553 104.142 138.206L109.858 140.027ZM103.514 138.043C103.721 138.7 103.93 139.364 104.142 140.027L109.858 138.206C109.651 137.554 109.445 136.9 109.238 136.241L103.514 138.043ZM103.518 138.055L103.519 138.056L109.233 136.228L109.233 136.226L103.518 138.055ZM89.2085 114.966C97.6015 119.67 100.388 128.11 103.514 138.042L109.237 136.24C106.236 126.707 102.923 115.775 92.1421 109.732L89.2085 114.966ZM94.1882 106.855L89.1748 109.751L92.1758 114.947L97.1893 112.051L94.1882 106.855ZM94.3656 106.857C94.4288 106.761 94.5207 106.688 94.6282 106.647L96.7493 112.259C97.8268 111.852 98.7478 111.114 99.3803 110.152L94.3656 106.857ZM94.2768 107.182C94.2714 107.067 94.3025 106.953 94.3656 106.857L99.3803 110.152C100.013 109.189 100.324 108.051 100.27 106.9L94.2768 107.182ZM101.159 87.9418C99.021 89.5714 97.1074 91.7414 95.8371 94.9465C94.5904 98.0918 94.0344 102.053 94.2769 107.183L100.27 106.899C100.053 102.311 100.58 99.2647 101.415 97.1573C102.226 95.1097 103.395 93.7819 104.796 92.7133L101.159 87.9418ZM107 85.8756C104.9 85.8756 102.888 86.6252 101.16 87.9406L104.795 92.7144C105.606 92.0968 106.366 91.8756 107 91.8756V85.8756ZM112.84 87.9403C111.112 86.6252 109.1 85.8756 107 85.8756V91.8756C107.634 91.8756 108.394 92.0968 109.206 92.7147L112.84 87.9403ZM119.724 107.183C119.966 102.053 119.41 98.0918 118.163 94.9465C116.893 91.7414 114.979 89.5714 112.842 87.9418L109.204 92.7133C110.606 93.7819 111.774 95.1097 112.586 97.1573C113.421 99.2647 113.947 102.311 113.73 106.899L119.724 107.183ZM119.635 106.857C119.698 106.953 119.729 107.067 119.724 107.182L113.73 106.9C113.676 108.051 113.988 109.189 114.62 110.152L119.635 106.857ZM119.372 106.647C119.48 106.688 119.572 106.761 119.635 106.857L114.62 110.152C115.253 111.114 116.174 111.852 117.251 112.259L119.372 106.647ZM124.841 46.7172C119.388 44.3504 113.19 43.1651 107.081 43.0011L106.919 48.9989C112.4 49.1461 117.821 50.2108 122.452 52.2211L124.841 46.7172ZM135.238 53.0598C132.084 50.4977 128.594 48.3483 124.842 46.7178L122.451 52.2205C125.682 53.625 128.707 55.4846 131.454 57.7164L135.238 53.0598ZM139.1 56.5933C137.863 55.3611 136.684 54.2346 135.237 53.0594L131.454 57.7167C132.672 58.7057 133.687 59.6699 134.866 60.8446L139.1 56.5933ZM144.704 50.1834C143.836 51.5141 142.378 53.0006 140.77 54.1275C139.066 55.3231 137.729 55.7429 137.087 55.7207L136.88 61.7172C139.497 61.8076 142.171 60.4735 144.215 59.04C146.357 57.5379 148.386 55.5201 149.729 53.4629L144.704 50.1834ZM115.297 87.3856C121.647 84.4079 129.252 79.1172 135.757 72.9954C142.203 66.9295 147.954 59.6888 150.086 52.6984L144.347 50.9479C142.674 56.4334 137.839 62.7971 131.645 68.626C125.511 74.399 118.422 79.2935 112.75 81.9532L115.297 87.3856ZM112.56 87.2885C112.663 87.3462 112.767 87.3957 112.868 87.4381L115.178 81.9007C115.278 81.9422 115.379 81.9907 115.48 82.0473L112.56 87.2885ZM112.516 87.2634L112.517 87.2641L115.523 82.0716L115.522 82.0708L112.516 87.2634ZM112.266 87.1018C112.261 87.0981 112.285 87.1158 112.313 87.135C112.344 87.1567 112.394 87.1899 112.456 87.2279L115.582 82.1064C115.642 82.1433 115.69 82.1755 115.72 82.1962C115.746 82.2144 115.769 82.231 115.763 82.2263L112.266 87.1018ZM112.352 87.1612C112.326 87.1438 112.305 87.1293 112.292 87.1202C112.285 87.1156 112.28 87.1118 112.276 87.1094C112.273 87.1071 112.271 87.1053 112.271 87.1052L115.758 82.2228C115.758 82.2226 115.747 82.2149 115.734 82.2058C115.72 82.196 115.698 82.1808 115.671 82.1629L112.352 87.1612ZM107 85.1908C108.728 85.1908 110.523 85.7727 112.191 87.0464L115.832 82.2776C113.185 80.2564 110.126 79.1908 107 79.1908V85.1908ZM101.81 87.0464C103.478 85.7726 105.272 85.1908 107 85.1908V79.1908C103.874 79.1908 100.815 80.2564 98.1684 82.2776L101.81 87.0464ZM101.793 87.0584C101.793 87.0584 101.793 87.0589 101.792 87.0595C101.791 87.0601 101.79 87.0611 101.788 87.0624C101.785 87.0648 101.78 87.0687 101.773 87.0736C101.761 87.083 101.739 87.0987 101.712 87.1177C101.66 87.1543 101.567 87.2173 101.445 87.2852L98.5334 82.0389C98.4096 82.1075 98.3154 82.1713 98.262 82.2089C98.2343 82.2284 98.2121 82.2446 98.1988 82.2545C98.1919 82.2596 98.1863 82.2638 98.1828 82.2665C98.1794 82.269 98.1767 82.2711 98.1765 82.2712L101.793 87.0584ZM100.922 87.5169C101.209 87.4214 101.429 87.3003 101.572 87.2113C101.642 87.1673 101.697 87.1287 101.731 87.1041C101.749 87.0917 101.763 87.0814 101.771 87.075C101.776 87.0717 101.779 87.0691 101.782 87.0674C101.783 87.0666 101.784 87.0659 101.784 87.0655C101.784 87.0653 101.785 87.0651 101.785 87.065C101.785 87.0649 101.785 87.0649 101.785 87.0649C101.785 87.0648 101.785 87.0648 101.785 87.0648C101.785 87.0648 101.785 87.0648 101.785 87.0648L98.185 82.2648C98.1679 82.2777 98.2669 82.2012 98.3912 82.1235C98.531 82.0361 98.7481 81.9164 99.0326 81.822L100.922 87.5169ZM63.9143 52.6984C66.0465 59.6888 71.7972 66.9295 78.243 72.9954C84.7481 79.1172 92.3531 84.4079 98.7035 87.3856L101.251 81.9532C95.5784 79.2934 88.4894 74.399 82.355 68.626C76.1611 62.7971 71.3265 56.4334 69.6533 50.9479L63.9143 52.6984ZM76.913 55.7207C76.271 55.7429 74.9344 55.3231 73.2296 54.1275C71.6226 53.0006 70.1644 51.5141 69.2961 50.1837L64.2714 53.4627C65.614 55.52 67.6426 57.5378 69.7846 59.04C71.8288 60.4735 74.5031 61.8076 77.1203 61.7172L76.913 55.7207ZM78.7624 53.0597C77.3161 54.2348 76.1372 55.3617 74.9004 56.5926L79.1329 60.8453C80.3137 59.6702 81.3286 58.7055 82.546 57.7164L78.7624 53.0597ZM89.1576 46.7178C85.4062 48.3483 81.9155 50.4977 78.7623 53.0598L82.546 57.7164C85.2927 55.4846 88.3177 53.625 91.5492 52.2205L89.1576 46.7178ZM106.919 43.0011C100.811 43.1651 94.612 44.3504 89.159 46.7172L91.5478 52.2211C96.1795 50.2108 101.6 49.1461 107.081 48.9989L106.919 43.0011ZM81.0552 83.9808C86.0789 87.947 91.0837 90.832 95.0061 92.7881L97.6838 87.4187C94.0324 85.5978 89.3981 82.923 84.773 79.2715L81.0552 83.9808ZM85.139 86.0753C84.9382 85.5045 84.8612 84.4973 85.617 82.9278L80.2112 80.3246C78.9323 82.9803 78.6325 85.6602 79.4791 88.0665L85.139 86.0753ZM86.1592 87.4034C85.6146 86.9736 85.2922 86.5074 85.1367 86.0687L79.4814 88.0732C80.0696 89.7326 81.1471 91.0913 82.4423 92.1134L86.1592 87.4034ZM88.5752 88.4956C87.5839 88.2732 86.7611 87.877 86.1559 87.4007L82.4457 92.1161C83.8346 93.2089 85.5012 93.9551 87.2617 94.3501L88.5752 88.4956ZM94.869 87.4916C92.7583 88.6843 90.4727 88.923 88.5777 88.4962L87.2592 94.3495C90.5857 95.0988 94.3956 94.6508 97.8208 92.7153L94.869 87.4916ZM140.804 66.926C138.983 69.4882 136.746 72.3177 134.24 74.8474L138.501 79.0706C141.307 76.2393 143.752 73.1351 145.694 70.4023L140.804 66.926ZM146.854 69.0555L145.898 67.2566L140.6 70.0718L141.555 71.8707L146.854 69.0555ZM151.881 89.6511C151.881 82.2404 150.152 75.6525 146.888 69.1218L141.521 71.8044C144.411 77.5862 145.881 83.2612 145.881 89.6511H151.881ZM151.874 100.603L151.881 89.6529L145.881 89.6493L145.874 100.599L151.874 100.603ZM151.932 106.247L151.874 100.57L145.874 100.631L145.932 106.308L151.932 106.247ZM161.651 145.81C155.076 133.389 152.148 119.768 151.931 106.229L145.932 106.325C146.161 120.656 149.264 135.234 156.349 148.617L161.651 145.81ZM142.826 138.026L157.117 149.549L160.883 144.879L146.593 133.355L142.826 138.026ZM137.152 153.673L147.263 137.264L142.155 134.117L132.044 150.525L137.152 153.673ZM121.919 144.283L132.542 154.283L136.654 149.915L126.031 139.914L121.919 144.283ZM109.554 171.22L126.529 143.673L121.421 140.525L104.446 168.072L109.554 171.22ZM87.4709 143.673L104.446 171.22L109.554 168.072L92.5789 140.525L87.4709 143.673ZM81.4588 154.284L92.0813 144.284L87.9685 139.915L77.3461 149.915L81.4588 154.284ZM66.7369 137.265L76.8484 153.673L81.9564 150.526L71.8449 134.117L66.7369 137.265ZM56.8831 149.55L71.174 138.026L67.4078 133.356L53.1169 144.879L56.8831 149.55ZM62.069 106.229C61.8521 119.769 58.924 133.389 52.3486 145.811L57.6514 148.618C64.7363 135.234 67.8386 120.657 68.0682 106.326L62.069 106.229ZM62.1265 100.571L62.0688 106.247L68.0684 106.308L68.1262 100.632L62.1265 100.571ZM62.1198 89.6533L62.1264 100.603L68.1264 100.599L68.1198 89.6497L62.1198 89.6533ZM67.1128 69.1219C63.8475 75.6525 62.1198 82.2405 62.1198 89.6515H68.1198C68.1198 83.2611 69.5888 77.5862 72.4793 71.8052L67.1128 69.1219ZM68.1019 67.2575L67.1465 69.0564L72.4456 71.8706L73.401 70.0717L68.1019 67.2575ZM79.7609 74.8478C77.2538 72.3178 75.0179 69.4886 73.1966 66.9264L68.3063 70.4027C70.2488 73.1355 72.6929 76.2393 75.4989 79.071L79.7609 74.8478ZM79.5034 79.9838L80.333 78.2607L74.9269 75.658L74.0973 77.3811L79.5034 79.9838ZM78.7397 88.3316C77.8096 85.6951 78.1515 82.7912 79.5033 79.984L74.0975 77.3808C72.2261 81.2668 71.5007 85.8468 73.0815 90.3277L78.7397 88.3316ZM81.958 92.7317C80.461 91.552 79.3439 90.0429 78.7395 88.3308L73.0818 90.3284C74.0959 93.2006 75.933 95.6229 78.2443 97.4443L81.958 92.7317ZM87.0881 95.1166C85.1874 94.6886 83.4196 93.8837 81.9582 92.7319L78.2441 97.4441C80.4805 99.2068 83.0889 100.366 85.77 100.97L87.0881 95.1166ZM90.8588 95.4719C89.5936 95.5113 88.3262 95.3953 87.0879 95.1166L85.7702 100.97C87.5165 101.363 89.2899 101.524 91.0456 101.469L90.8588 95.4719ZM93.4359 104.666C93.4452 102.688 93.5894 100.79 93.9066 98.9917L87.9978 97.9493C87.6101 100.147 87.4465 102.393 87.436 104.638L93.4359 104.666ZM78.456 115.036L91.9364 107.25L88.9355 102.054L75.4551 109.84L78.456 115.036ZM88.8249 115.652L78.4224 109.821L75.4887 115.055L85.8911 120.886L88.8249 115.652ZM91.6019 117.526C90.7295 116.826 89.8007 116.199 88.8252 115.652L85.8909 120.886C86.5782 121.271 87.2325 121.712 87.847 122.206L91.6019 117.526ZM107.747 153.466C106.041 147.57 103.969 140.398 101.427 133.905C98.9308 127.526 95.7944 121.284 91.7287 117.633L87.7202 122.098C90.65 124.728 93.3714 129.784 95.8401 136.092C98.2641 142.285 100.264 149.19 101.984 155.133L107.747 153.466ZM109.859 160.562C109.221 158.557 108.525 156.153 107.747 153.466L101.984 155.133C102.754 157.796 103.474 160.286 104.142 162.383L109.859 160.562ZM106.255 153.463C105.477 156.151 104.781 158.556 104.142 160.562L109.859 162.383C110.527 160.285 111.247 157.795 112.018 155.13L106.255 153.463ZM122.273 117.633C118.207 121.283 115.071 127.525 112.574 133.903C110.033 140.396 107.96 147.567 106.255 153.463L112.018 155.13C113.738 149.187 115.738 142.283 118.162 136.09C120.63 129.783 123.351 124.728 126.281 122.098L122.273 117.633ZM125.176 115.652C124.201 116.199 123.272 116.826 122.399 117.526L126.154 122.205C126.769 121.712 127.423 121.271 128.11 120.886L125.176 115.652ZM135.579 109.821L125.176 115.652L128.11 120.886L138.513 115.055L135.579 109.821ZM122.064 107.25L135.545 115.036L138.546 109.84L125.065 102.054L122.064 107.25ZM120.094 98.9917C120.411 100.79 120.556 102.688 120.565 104.666L126.565 104.638C126.554 102.393 126.391 100.147 126.003 97.9493L120.094 98.9917ZM126.913 95.1166C125.675 95.3953 124.407 95.5113 123.142 95.4719L122.955 101.469C124.711 101.524 126.484 101.363 128.231 100.97L126.913 95.1166ZM132.042 92.7321C130.582 93.8836 128.814 94.6886 126.913 95.1166L128.231 100.97C130.912 100.366 133.521 99.2069 135.757 97.4439L132.042 92.7321ZM135.261 88.3313C134.657 90.0427 133.54 91.5519 132.043 92.7319L135.757 97.4441C138.067 95.623 139.905 93.2008 140.919 90.328L135.261 88.3313ZM134.497 79.9836C135.849 82.7917 136.191 85.6952 135.261 88.3313L140.919 90.328C142.5 85.8467 141.774 81.267 139.904 77.3812L134.497 79.9836ZM133.668 78.2607L134.497 79.9837L139.903 77.3811L139.074 75.6581L133.668 78.2607ZM134.249 79.0803L134.25 79.0807L138.492 74.8381L138.492 74.8377L134.249 79.0803Z" fill="#B4A79A" mask="url(#path-1-inside-1_1_98)"/>
<defs>
<linearGradient id="paint0_linear_1_98" x1="138.322" y1="179.936" x2="85.4699" y2="56.685" gradientUnits="userSpaceOnUse">
<stop stop-color="#B4A79A"/>
<stop offset="1" stop-color="#B4A79A"/>
</linearGradient>
</defs>
</svg>
