<svg width="375" height="216" viewBox="0 0 375 216" fill="none" xmlns="http://www.w3.org/2000/svg">
<path d="M167.914 25.4082C172.534 24.2195 175.547 24.546 176.954 26.3876C177.919 27.6995 178.461 29.2352 178.581 30.9948C178.65 32.1553 178.425 32.7119 177.904 32.6646C177.661 32.6425 177.423 32.7607 177.19 33.0193C176.994 33.2463 176.881 33.5333 176.849 33.8802C176.821 34.1924 176.707 34.4793 176.509 34.741C176.313 34.9681 176.094 35.0706 175.851 35.0485C175.643 35.0296 175.44 35.151 175.241 35.4127C175.046 35.6397 174.932 35.9267 174.9 36.2736C174.869 36.6204 174.703 36.9027 174.404 37.1202C174.139 37.341 173.833 37.4356 173.486 37.404C173.174 37.3756 172.873 37.4182 172.583 37.5317C172.327 37.6484 172.192 37.7934 172.176 37.9669C172.16 38.1403 171.678 38.4462 170.728 38.8845C169.814 39.3259 168.705 39.7847 167.403 40.2608C165.848 40.8189 164.636 41.2683 163.766 41.6088C162.895 41.9494 162.036 42.3609 161.188 42.8433C160.377 43.2942 159.781 43.6947 159.4 44.0447C159.021 44.36 158.627 44.8488 158.217 45.511C157.807 46.1732 157.501 46.8449 157.299 47.526C157.101 48.1725 156.845 49.0586 156.533 50.1843C155.521 54.0094 154.365 57.2968 153.065 60.0466C151.769 62.7616 150.568 66.3596 149.461 70.8406C149.013 72.6885 148.478 74.5285 147.857 76.3607C147.239 78.1581 146.723 79.4053 146.31 80.1021C145.657 81.127 145.288 81.9153 145.203 82.4672C145.153 83.0222 145.336 83.7033 145.752 84.5106C146.051 85.0625 146.357 85.545 146.669 85.9581C146.985 86.3365 147.229 86.5336 147.403 86.5494C147.819 86.5872 148.516 87.1927 149.493 88.3658C150.471 89.5389 152.653 91.5036 156.04 94.2598L161.12 98.394L170.069 99.2079C174.131 99.5423 176.868 99.6338 178.281 99.4825C179.725 99.369 181.521 98.8503 183.668 97.9265C185.45 97.1792 186.732 96.7361 187.514 96.5974C188.331 96.4618 188.93 96.6038 189.311 97.0232C189.589 97.4331 189.71 97.8289 189.675 98.2105C189.641 98.592 189.324 99.0004 188.725 99.4355C188.157 99.9085 187.345 100.377 186.289 100.84C185.264 101.342 183.898 101.934 182.192 102.619C179.729 103.549 177.738 104.102 176.218 104.279C174.695 104.49 172.404 104.492 169.345 104.283C166.359 104.047 164.148 103.741 162.714 103.365C161.31 103.028 159.729 102.342 157.969 101.308C156.84 100.645 155.868 99.9974 155.051 99.3635C154.234 98.7297 153.834 98.326 153.849 98.1526C153.894 97.667 153.656 97.4005 153.135 97.3532C152.927 97.3342 152.372 96.8991 151.47 96.0476C150.603 95.1993 149.662 94.2044 148.646 93.0628C145.537 89.5624 143.623 88.3041 142.904 89.288C142.702 89.5844 142.571 90.0621 142.512 90.7212C142.423 91.6924 141.805 93.1052 140.657 94.9593C139.506 96.8482 138.09 98.7654 136.409 100.711C135.432 101.846 134.118 102.636 132.469 103.081C130.854 103.528 129.262 103.541 127.692 103.118C126.153 102.734 124.995 101.999 124.22 100.914C121.804 97.4768 121.355 93.7636 122.872 89.7746C124.029 86.6622 125.865 84.3634 128.378 82.8782C130.929 81.3615 133.901 80.7924 137.294 81.1709C138.228 81.2907 139.101 81.3002 139.915 81.1993C140.766 81.0669 141.309 80.8714 141.542 80.6129C142.122 80.0011 142.89 78.2872 143.846 75.4713C144.801 72.6553 145.628 69.7226 146.325 66.6733C146.577 65.4371 146.916 64.2089 147.342 62.9885C147.805 61.7366 148.179 60.8963 148.463 60.4674C149.264 59.3511 150.456 56.4342 152.039 51.7168C153.626 46.9646 154.496 43.7387 154.651 42.039C154.72 41.2759 154.852 40.5884 155.048 39.9766C155.281 39.3334 155.508 38.9518 155.729 38.832C156.243 38.564 156.786 37.599 157.356 35.9372C157.596 35.2245 157.859 34.6364 158.146 34.1729C158.433 33.7093 158.664 33.4854 158.837 33.5012C159.045 33.5201 159.269 33.3656 159.509 33.0377C159.786 32.6782 160.037 32.2288 160.261 31.6896C160.816 30.2012 161.773 28.9068 163.132 27.8063C164.491 26.7057 166.085 25.9064 167.914 25.4082ZM175.085 30.2048C174.795 29.1642 173.595 28.7053 171.486 28.8282C169.379 28.9164 167.366 29.5203 165.445 30.6397C164.411 31.2451 163.345 32.5821 162.247 34.6507C161.15 36.7193 160.805 38.017 161.211 38.5436C161.372 38.6981 161.667 38.7249 162.096 38.624C162.563 38.4916 163.021 38.2535 163.472 37.9098C163.923 37.5661 164.439 37.2808 165.019 37.0537C165.634 36.8299 166.132 36.7353 166.514 36.77C167.381 36.8488 168.199 36.5036 168.969 35.7341C169.278 35.4125 169.617 35.146 169.986 34.9348C170.358 34.6888 170.648 34.5753 170.856 34.5942C171.585 34.6605 172.51 34.0976 173.633 32.9057C174.79 31.7169 175.274 30.8166 175.085 30.2048ZM139.593 88.1999C139.738 87.7585 139.838 87.4352 139.891 87.2303C139.979 87.0285 140 86.803 139.953 86.5539C139.902 86.3394 139.827 86.2101 139.726 86.166C139.663 86.0903 139.443 86.0004 139.068 85.8963C138.693 85.7923 138.332 85.7245 137.985 85.6929C137.638 85.6614 137.066 85.6093 136.268 85.5368C133.215 85.2592 130.918 85.7148 129.376 86.9036C127.831 88.127 126.888 90.2272 126.547 93.204C126.443 93.964 126.375 94.5174 126.344 94.8643C126.309 95.2459 126.273 95.6448 126.235 96.061C126.194 96.512 126.219 96.8115 126.311 96.9597C126.399 97.1426 126.47 97.324 126.523 97.5037C126.609 97.7213 126.769 97.8758 127.006 97.9673C127.274 98.0966 127.509 98.2054 127.711 98.2937C127.947 98.3851 128.286 98.5034 128.728 98.6485C129.92 99.0017 130.82 99.1011 131.429 98.9466C132.034 98.8267 132.83 98.3396 133.817 97.485C136.359 95.3029 138.284 92.2079 139.593 88.1999ZM229.657 20.2685C232.883 20.1771 236.233 20.4468 239.709 21.0776C243.187 21.6737 245.156 22.325 245.616 23.0313C246.168 23.8859 246.635 24.3306 247.017 24.3653C247.433 24.4031 248.33 25.3066 249.708 27.0757C251.089 28.8102 252.267 29.8966 253.241 30.3349C253.61 30.5084 253.996 30.8758 254.4 31.4371C254.838 32.0016 255.136 32.5708 255.294 33.1447C255.452 33.7186 255.679 34.2988 255.975 34.8854C256.309 35.4404 256.59 35.8157 256.817 36.0112C257.082 36.1752 257.449 36.7507 257.919 37.7377C258.424 38.7279 258.884 39.819 259.3 41.011C259.969 42.8905 260.317 44.2512 260.345 45.0932C260.377 45.9004 260.131 46.8748 259.607 48.0164C259.172 48.9561 258.62 50.0251 257.952 51.2234C257.286 52.3869 256.624 53.5159 255.965 54.6101C255.306 55.7043 254.672 56.7134 254.063 57.6373C253.458 58.5265 252.939 59.2313 252.507 59.7516C252.078 60.2372 251.834 60.4249 251.774 60.3145C251.613 60.16 251.366 60.1899 251.031 60.4043C250.732 60.6219 250.385 60.9751 249.991 61.4639C249.634 61.9211 249.232 62.3042 248.784 62.6132C248.371 62.9254 248.026 63.0689 247.748 63.0437C247.506 63.0216 247.164 63.1304 246.722 63.37C246.318 63.5781 245.962 63.843 245.653 64.1646C245.344 64.4863 244.832 64.737 244.116 64.9167C243.4 65.0964 242.712 65.1563 242.053 65.0964C240.631 64.967 238.629 65.2571 236.046 65.9665C233.467 66.6413 231.921 67.2877 231.41 67.9057C230.937 68.4923 229.949 68.21 228.445 67.059C226.978 65.8764 225.495 64.8846 223.994 64.0836C223.391 63.784 222.863 63.4386 222.409 63.0476C221.99 62.6597 221.788 62.3791 221.804 62.2056C221.848 61.72 221.559 61.6238 220.938 61.9171C220.355 62.1788 220.276 62.8536 220.702 63.9416C221.165 64.998 221.261 65.6712 220.99 65.9613C220.722 66.2167 220.816 68.8309 221.274 73.8039C221.576 77.0141 221.666 79.2956 221.543 80.6484C221.458 81.9697 221.116 83.425 220.516 85.0143C220.021 86.2284 219.556 87.1129 219.121 87.6679C218.686 88.2229 218.301 88.4152 217.967 88.2449C217.629 88.1093 217.346 88.1535 217.115 88.3773C216.923 88.5697 216.803 88.926 216.756 89.4463C216.712 89.932 216.554 90.3198 216.283 90.6099C216.046 90.9032 215.755 91.0341 215.408 91.0025C215.095 90.9741 214.753 91.0829 214.381 91.3289C214.012 91.5401 213.762 91.7971 213.629 92.0998C213.156 93.0711 212.391 93.4038 211.335 93.0978C210.31 92.8298 209.129 91.9704 207.792 90.5198C204.828 87.3474 202.707 84.8987 201.43 83.1737C200.153 81.4487 199.549 80.2047 199.619 79.4416C199.663 78.9559 199.587 78.4419 199.392 77.8995C199.196 77.3571 198.938 76.9314 198.616 76.6224C198.294 76.3133 198.019 75.886 197.788 75.3405C197.593 74.7981 197.514 74.3188 197.552 73.9025C197.593 73.4516 197.546 73.0101 197.41 72.5781C197.274 72.146 197.092 71.8496 196.861 71.6888C196.631 71.528 196.502 71.2189 196.474 70.7617C196.445 70.3044 196.519 69.874 196.696 69.4703C196.873 69.0667 196.94 68.7056 196.899 68.3871C196.862 68.034 196.721 67.8463 196.478 67.8242C195.923 67.7738 195.901 64.7465 196.412 58.7424C196.737 55.1696 197.026 52.7651 197.278 51.5289C197.568 50.2613 197.982 49.5644 198.518 49.4383C199.379 49.2018 199.904 48.0429 200.093 45.9617C200.175 45.0598 200.523 43.9198 201.138 42.5418C201.756 41.1291 202.491 39.7794 203.343 38.4929C205.32 35.5949 206.345 33.7471 206.417 32.9492C206.446 32.6371 206.596 32.3359 206.867 32.0458C207.176 31.7242 207.51 31.5097 207.87 31.4025C208.229 31.2953 208.541 31.1314 208.806 30.9106C209.109 30.6584 209.27 30.4282 209.289 30.22C209.339 29.665 210.49 28.5456 212.742 26.8617C215.028 25.181 216.353 24.4621 216.715 24.7049C216.845 24.8216 217.113 24.7585 217.519 24.5157C217.961 24.2761 218.41 23.9497 218.867 23.5367C219.328 23.0889 219.867 22.7357 220.485 22.4771C221.106 22.1839 221.608 22.0546 221.989 22.0893C222.371 22.124 222.797 22.0578 223.267 21.8907C223.771 21.7267 224.175 21.5186 224.477 21.2664C224.78 21.0141 225.43 20.7934 226.426 20.6042C227.458 20.4182 228.534 20.3063 229.657 20.2685ZM242.925 26.6687C241.178 25.8803 240.126 25.5224 239.77 25.5949C239.451 25.6359 236.815 25.5885 231.861 25.4528C229.799 25.4401 227.94 25.4984 226.284 25.6276C224.629 25.7568 223.651 25.9302 223.352 26.1478C222.67 26.7154 222 31.5859 221.341 40.7592L220.347 54.5711L222.859 57.5275C223.997 58.8552 225.019 59.735 225.924 60.1671C226.832 60.5644 228.579 60.9681 231.165 61.3781C233.441 61.7251 235.037 61.8702 235.952 61.8135C236.901 61.7599 237.626 61.4761 238.127 60.9621C238.474 60.6089 238.884 60.3314 239.357 60.1296C239.868 59.8963 240.297 59.7954 240.644 59.8269C241.719 59.9247 243.277 59.3319 245.317 58.0486C247.358 56.7652 249.264 55.2248 251.036 53.4274C252.812 51.5953 253.879 50.0486 254.239 48.7872C255.15 45.6874 255.448 43.3712 255.133 41.8387C254.821 40.2714 253.652 38.3115 251.628 35.959C250.556 34.6724 249.648 33.5056 248.904 32.4586C248.194 31.4148 247.852 30.7542 247.877 30.4767C247.899 30.2338 247.779 30.0131 247.518 29.8144C247.291 29.6189 247.004 29.5054 246.657 29.4738C246.31 29.4423 246.004 29.3445 245.739 29.1805C245.512 28.985 245.407 28.8005 245.422 28.6271C245.441 28.419 245.206 28.1178 244.718 27.7236C244.229 27.3294 243.631 26.9778 242.925 26.6687ZM218.196 29.1939C218.807 29.0047 218.908 28.8565 218.498 28.7493C218.429 28.7429 218.377 28.7382 218.342 28.7351C217.655 28.6026 216.595 29.1008 215.164 30.2297C213.732 31.3586 212.31 32.7681 210.897 34.4583C209.522 36.117 208.566 37.5864 208.03 38.8667C207.453 40.2132 206.979 41.0094 206.606 41.2554C205.824 41.7788 204.88 43.704 203.773 47.0308C202.666 50.3576 201.999 53.2698 201.772 55.7673C201.431 59.5135 200.949 61.3583 200.324 61.3015C199.7 61.2447 199.632 61.6058 200.121 62.3847C200.304 62.6811 200.46 63.4648 200.589 64.7356C200.753 66.0096 200.819 67.3971 200.787 68.8981C200.791 70.4023 200.857 71.7898 200.986 73.0607C201.15 74.3346 201.323 75.1198 201.506 75.4163C202.001 76.1258 202.351 77.2768 202.556 78.8693C202.673 79.5095 202.914 80.126 203.28 80.7188C203.684 81.2801 204.103 81.668 204.538 81.8825C205.011 82.0654 205.393 82.2924 205.683 82.5636C206.008 82.838 206.16 83.0792 206.142 83.2874C206.126 83.4608 206.389 83.8345 206.931 84.4084C207.512 84.9508 208.213 85.5043 209.036 86.0688L211.993 88.1738L213.823 86.5041C214.621 85.8072 215.181 84.8439 215.502 83.614C215.862 82.3527 216.237 79.9561 216.628 76.4243C216.906 74.1412 217.051 72.1608 217.064 70.4832C217.111 68.8088 217.031 67.9621 216.823 67.9431C216.649 67.9274 216.515 67.6703 216.421 67.1721C216.326 66.6739 216.31 66.0779 216.373 65.3841C216.436 64.6904 216.408 64.0408 216.288 63.4353C216.203 62.833 216.061 62.4703 215.863 62.3473C215.371 61.9878 215.249 60.2456 215.499 57.1205C215.782 53.9986 216.181 52.3037 216.695 52.0357C217.244 51.7708 217.32 50.9383 216.923 49.5382C216.557 48.1759 216.488 46.6307 216.715 44.9026C216.945 43.1399 217.32 42.2821 217.84 42.3295C218.291 42.3705 218.241 41.9637 217.689 41.1091C217.632 40.964 217.557 40.8347 217.462 40.7212C216.961 40.081 216.669 38.8654 216.587 37.0742C216.508 35.2484 216.612 33.5266 216.899 31.9089C217.224 30.2597 217.656 29.3547 218.196 29.1939ZM23.7384 113.471C24.0996 112.921 24.5117 112.453 24.9747 112.067C25.4762 111.685 25.8813 111.508 26.1899 111.536C26.9615 111.606 27.6208 112.483 28.1678 114.166C28.757 115.814 29.1094 117.927 29.225 120.505C29.3091 121.718 29.4739 122.9 29.7194 124.051C30.0069 125.166 30.3068 125.932 30.6189 126.35C30.9275 126.806 31.1554 127.935 31.3027 129.737C31.4885 131.544 31.5305 133.648 31.4287 136.05C31.1234 144.113 31.1214 150.55 31.4229 155.362C31.7243 160.174 32.3082 162.95 33.1744 163.69C33.7881 164.212 34.1178 164.651 34.1634 165.005C34.2089 165.359 34.0003 165.729 33.5373 166.115C31.0507 168.222 29.2464 166.464 28.1243 160.838C27.5457 157.791 27.2162 153.715 27.1357 148.612C27.0166 143.506 26.773 139.341 26.4048 136.118C26.0788 132.86 26.0614 129.416 26.3526 125.787C26.5841 123.24 26.5263 121.524 26.1791 120.636C25.8354 119.711 25.2042 119.595 24.2853 120.289C23.405 120.987 22.2178 122.493 20.7237 124.808C19.7277 126.351 18.5159 127.913 17.0885 129.495C15.6996 131.08 14.5072 132.216 13.5112 132.904L10.018 135.387L8.29261 133.188C7.04063 131.557 6.56371 130.172 6.86185 129.032C7.03722 128.387 7.47211 128.095 8.16651 128.159C9.16953 128.25 11.5842 126.505 15.4105 122.924C19.2404 119.305 22.0163 116.154 23.7384 113.471ZM49.7889 115.082C50.4904 114.64 51.2549 114.573 52.0826 114.882C52.9523 115.156 54.4498 116.011 56.5751 117.449C59.4754 119.347 61.5305 120.915 62.7404 122.153C63.9924 123.356 64.5798 124.381 64.5026 125.23C64.4745 125.539 64.5622 125.858 64.7656 126.188C64.969 126.517 65.239 126.756 65.5757 126.903C66.3192 127.282 66.505 130.799 66.133 137.456C65.8734 141.594 65.598 144.409 65.3068 145.899C65.0192 147.351 64.5387 148.358 63.8653 148.919C63.4024 149.304 62.9868 149.811 62.6185 150.439C62.2888 151.07 62.0994 151.656 62.0503 152.196C62.0012 152.736 61.8591 153.229 61.6242 153.674C61.4277 154.123 61.2068 154.414 60.9613 154.547C60.3511 154.842 59.7408 155.992 59.1305 157.998C58.4921 159.885 57.0261 162.105 54.7324 164.658C52.4773 167.215 50.8464 168.467 49.8399 168.414C48.6791 168.347 47.1868 167.648 45.3632 166.315C43.5781 164.986 42.7189 163.955 42.7856 163.222C42.8172 162.874 42.7453 162.596 42.5699 162.385C42.4367 162.14 42.235 162.005 41.965 161.98C41.6949 161.956 41.4863 161.684 41.339 161.165C41.1952 160.607 41.1549 159.981 41.218 159.287C41.2847 158.554 41.2233 157.731 41.034 156.819C40.8481 155.869 40.5834 155.145 40.2397 154.647C39.6961 153.781 39.463 151.426 39.5403 147.582C39.621 143.699 39.9403 139.975 40.498 136.408C41.0593 132.803 41.659 130.913 42.2973 130.737C43.2162 130.471 43.823 128.717 44.1177 125.477C44.4159 122.198 45.0998 120.237 46.1695 119.595C46.6219 119.325 47.0235 118.973 47.3742 118.538C47.7249 118.103 47.9161 117.712 47.9477 117.365C47.9757 117.056 48.1651 116.685 48.5158 116.25C48.8701 115.776 49.2944 115.387 49.7889 115.082ZM55.8595 121.469C55.6491 120.788 55.109 120.311 54.2393 120.038C53.4116 119.729 52.5787 119.692 51.7405 119.927C50.9023 120.162 50.4341 120.606 50.3359 121.258C50.0973 122.598 49.8273 123.643 49.5256 124.393C49.224 125.144 48.519 126.48 47.4107 128.402C46.576 129.882 45.9447 131.691 45.5167 133.831C45.1309 135.935 44.7362 139.633 44.3328 144.925C43.6907 153.269 43.5538 158.196 43.922 159.708C44.2586 160.711 44.9267 161.277 45.9262 161.407C46.9678 161.502 48.3637 161.123 50.1137 160.271C51.9024 159.422 52.8247 158.689 52.8809 158.072C52.9335 157.493 54.0435 155.766 56.211 152.89C57.1404 151.652 57.9331 150.421 58.5889 149.197C59.2834 147.977 59.6569 147.077 59.7095 146.499C59.8288 145.187 60.2146 144.366 60.8669 144.037C61.1545 143.868 61.3544 143.381 61.4667 142.574C61.6175 141.771 61.6456 140.821 61.5509 139.723C61.4984 138.59 61.5861 137.412 61.8141 136.188C62.0421 134.964 62.3683 133.943 62.7926 133.126C63.452 131.864 63.7326 130.917 63.6344 130.286C63.5783 129.619 63.0418 128.462 62.0248 126.814C61.4111 125.863 60.7097 125.021 59.9206 124.288C59.1316 123.555 58.4863 123.166 57.9847 123.12C57.5218 123.078 57.0712 122.901 56.6328 122.589C56.1979 122.238 55.9402 121.865 55.8595 121.469ZM79.0695 117.745C79.7709 117.303 80.5355 117.236 81.3631 117.545C82.2329 117.818 83.7304 118.674 85.8556 120.112C88.7559 122.01 90.811 123.577 92.0209 124.815C93.2729 126.018 93.8603 127.044 93.7831 127.893C93.7551 128.202 93.8427 128.521 94.0461 128.85C94.2495 129.18 94.5196 129.419 94.8562 129.566C95.5997 129.945 95.7855 133.462 95.4135 140.119C95.1539 144.257 94.8785 147.071 94.5874 148.562C94.2997 150.014 93.8192 151.02 93.1459 151.581C92.6829 151.967 92.2673 152.474 91.8991 153.102C91.5694 153.733 91.38 154.319 91.3309 154.859C91.2817 155.399 91.1397 155.892 90.9047 156.337C90.7083 156.786 90.4873 157.077 90.2418 157.21C89.6316 157.505 89.0213 158.655 88.411 160.661C87.7727 162.548 86.3067 164.768 84.0129 167.321C81.7578 169.878 80.127 171.13 79.1205 171.077C77.9596 171.01 76.4674 170.311 74.6437 168.978C72.8587 167.649 71.9995 166.617 72.0661 165.884C72.0977 165.537 72.0258 165.258 71.8505 165.048C71.7172 164.803 71.5155 164.667 71.2455 164.643C70.9755 164.618 70.7668 164.347 70.6195 163.828C70.4757 163.27 70.4354 162.644 70.4986 161.949C70.5652 161.216 70.5039 160.394 70.3145 159.482C70.1287 158.532 69.8639 157.808 69.5202 157.31C68.9767 156.443 68.7435 154.088 68.8208 150.245C68.9016 146.362 69.2208 142.638 69.7786 139.071C70.3398 135.466 70.9396 133.575 71.5779 133.4C72.4967 133.134 73.1035 131.38 73.3982 128.14C73.6964 124.86 74.3804 122.9 75.45 122.258C75.9025 121.988 76.304 121.636 76.6548 121.201C77.0055 120.766 77.1966 120.375 77.2282 120.028C77.2563 119.719 77.4457 119.347 77.7964 118.913C78.1506 118.439 78.575 118.05 79.0695 117.745ZM85.14 124.131C84.9296 123.451 84.3896 122.974 83.5198 122.7C82.6922 122.392 81.8592 122.355 81.021 122.59C80.1828 122.825 79.7146 123.268 79.6164 123.921C79.3779 125.26 79.1078 126.306 78.8062 127.056C78.5045 127.807 77.7996 129.143 76.6913 131.065C75.8565 132.545 75.2252 134.354 74.7973 136.493C74.4114 138.598 74.0168 142.296 73.6133 147.588C72.9713 155.931 72.8343 160.859 73.2025 162.37C73.5392 163.373 74.2073 163.94 75.2068 164.07C76.2484 164.164 77.6442 163.786 79.3943 162.933C81.1829 162.085 82.1053 161.352 82.1614 160.735C82.214 160.156 83.3241 158.429 85.4915 155.553C86.421 154.315 87.2136 153.084 87.8695 151.86C88.5639 150.64 88.9374 149.74 88.9901 149.161C89.1093 147.85 89.4951 147.029 90.1475 146.7C90.435 146.531 90.635 146.044 90.7472 145.237C90.898 144.434 90.9261 143.484 90.8315 142.386C90.7789 141.253 90.8666 140.075 91.0946 138.851C91.3226 137.627 91.6488 136.606 92.0732 135.789C92.7326 134.527 93.0132 133.58 92.915 132.948C92.8589 132.282 92.3223 131.125 91.3053 129.476C90.6916 128.526 89.9902 127.684 89.2012 126.951C88.4121 126.218 87.7668 125.829 87.2653 125.783C86.8024 125.741 86.3517 125.564 85.9133 125.252C85.4785 124.901 85.2207 124.528 85.14 124.131ZM105.332 179.131C104.414 178.891 103.835 178.368 103.595 177.563C103.406 176.763 103.576 175.76 104.103 174.555C104.63 173.35 105.509 172.02 106.737 170.565C107.241 170.193 107.688 169.868 108.079 169.59C108.475 169.261 108.741 168.92 108.877 168.566C109.169 168.228 109.802 167.58 110.777 166.625C111.756 165.617 112.902 164.494 114.216 163.256C115.53 162.018 116.815 160.803 118.072 159.612C119.381 158.426 120.492 157.405 121.405 156.548C122.318 155.691 122.808 155.187 122.874 155.037C123.076 155.107 123.319 155.025 123.601 154.789C123.889 154.502 124.1 154.182 124.237 153.829C124.43 153.429 124.722 153.09 125.113 152.812C125.508 152.483 125.889 152.308 126.257 152.29C126.384 152.04 126.532 151.845 126.702 151.703C126.871 151.562 126.991 151.39 127.062 151.188C127.132 150.986 127.252 150.814 127.422 150.672C127.643 150.536 127.789 150.366 127.86 150.164C128.364 149.792 129.234 149.114 130.473 148.13C131.716 147.095 133.156 145.894 134.795 144.529C136.433 143.164 138.13 141.726 139.886 140.214C141.642 138.703 143.285 137.286 144.816 135.963C146.346 134.64 147.596 133.527 148.565 132.623C149.535 131.719 150.079 131.194 150.197 131.048C150.621 130.408 151.129 130.272 151.722 130.639C152.103 130.465 152.518 130.502 152.965 130.752C152.965 130.752 152.979 130.884 153.007 131.147C153.092 131.364 153.214 131.741 153.375 132.277C153.586 132.819 153.648 133.294 153.558 133.704C153.473 134.062 153.252 134.485 152.894 134.975C152.584 135.521 152.228 135.985 151.828 136.366C151.479 136.752 150.886 137.246 150.048 137.849C149.262 138.456 148.029 139.388 146.348 140.645C145.948 141.027 145.157 141.686 143.975 142.623C142.85 143.512 141.637 144.499 140.338 145.581C139.043 146.612 137.916 147.528 136.955 148.328C136 149.077 135.491 149.5 135.43 149.599C135.218 149.632 134.947 149.738 134.618 149.917C134.34 150.101 134.046 150.466 133.735 151.012C133.283 151.388 132.551 151.974 131.539 152.77C130.578 153.57 129.675 154.324 128.827 155.03C128.036 155.689 127.608 156.094 127.542 156.244C127.424 156.39 127.257 156.506 127.04 156.59C126.824 156.675 126.555 156.755 126.235 156.83C126.188 156.774 126.106 156.819 125.988 156.964C125.922 157.115 125.889 157.19 125.889 157.19C125.87 157.398 125.6 157.791 125.077 158.37C124.611 158.902 123.905 159.49 122.959 160.135C121.984 161.091 120.692 162.383 119.082 164.012C117.528 165.594 115.913 167.274 114.237 169.054C112.617 170.786 111.17 172.352 109.894 173.75C108.613 175.2 107.789 176.221 107.422 176.815C106.918 177.761 106.523 178.378 106.236 178.665C106 178.957 105.699 179.112 105.332 179.131ZM133.494 171.745C134.521 170.794 135.363 169.853 136.023 168.92C136.682 167.988 137.336 166.821 137.986 165.418C138.254 164.763 138.438 163.892 138.537 162.805C138.636 161.717 138.563 161.084 138.318 160.905C137.824 160.599 137.209 160.465 136.475 160.503C135.797 160.493 135.062 160.818 134.272 161.477C132.887 162.343 131.656 163.537 130.578 165.057C129.556 166.531 128.518 168.186 127.464 170.022C126.767 171.368 126.534 172.496 126.764 173.404C127.052 174.266 127.777 174.619 128.939 174.464C130.098 174.36 131.616 173.454 133.494 171.745ZM126.948 178.277C126.43 178.23 125.999 178.086 125.656 177.846C125.364 177.611 125.027 177.293 124.646 176.893C123.893 175.989 123.396 175.134 123.156 174.329C122.916 173.524 122.904 172.792 123.121 172.133C123.257 171.78 123.311 171.472 123.283 171.208C123.311 170.897 123.325 170.742 123.325 170.742C123.142 170.464 123.104 170.304 123.212 170.262C123.321 170.219 123.408 170.123 123.474 169.972C123.733 169.996 123.832 169.77 123.77 169.294C123.747 168.979 123.994 168.27 124.512 167.169C125.03 166.067 125.644 165.053 126.355 164.125C126.652 163.734 127.064 163.224 127.591 162.593C128.118 161.962 128.697 161.336 129.328 160.714C130.011 160.098 130.63 159.606 131.186 159.239C132.301 158.452 133.266 157.887 134.081 157.544C134.895 157.2 135.778 156.967 136.729 156.845C137.685 156.671 138.342 156.626 138.699 156.711C139.062 156.744 139.523 157.125 140.083 157.855C140.983 158.302 141.611 158.855 141.969 159.514C142.383 160.126 142.59 161.007 142.59 162.155C142.581 163.408 142.348 164.822 141.891 166.4C141.491 167.93 140.354 169.81 138.48 172.042C137.312 173.398 136.255 174.398 135.309 175.043C134.363 175.688 133.261 176.319 132.004 176.935C131.072 177.425 130.232 177.766 129.483 177.959C128.73 178.204 127.885 178.31 126.948 178.277ZM125.304 142.099C126.33 141.148 127.173 140.207 127.832 139.275C128.491 138.343 129.145 137.175 129.795 135.772C130.063 135.118 130.247 134.247 130.346 133.159C130.445 132.072 130.372 131.439 130.127 131.26C129.633 130.954 129.018 130.82 128.284 130.857C127.606 130.848 126.872 131.173 126.081 131.832C124.697 132.698 123.465 133.891 122.387 135.412C121.366 136.885 120.328 138.54 119.273 140.376C118.576 141.723 118.343 142.85 118.574 143.759C118.861 144.62 119.583 144.999 120.742 144.896C121.904 144.74 123.425 143.808 125.304 142.099ZM118.687 148.547C118.169 148.5 117.738 148.356 117.394 148.116C117.102 147.88 116.766 147.563 116.384 147.162C115.631 146.259 115.135 145.404 114.894 144.599C114.654 143.794 114.643 143.062 114.859 142.403C114.996 142.05 115.05 141.741 115.022 141.478C115.05 141.167 115.064 141.012 115.064 141.012C114.88 140.734 114.843 140.574 114.951 140.531C115.059 140.489 115.146 140.393 115.212 140.242C115.471 140.265 115.57 140.039 115.509 139.564C115.485 139.249 115.733 138.54 116.251 137.438C116.768 136.337 117.383 135.322 118.094 134.395C118.39 134.004 118.802 133.493 119.33 132.862C119.857 132.232 120.436 131.605 121.067 130.984C121.75 130.367 122.369 129.875 122.924 129.508C124.04 128.722 125.005 128.157 125.82 127.813C126.634 127.47 127.517 127.237 128.468 127.114C129.423 126.94 130.08 126.896 130.438 126.98C130.801 127.013 131.262 127.395 131.822 128.124C132.721 128.572 133.35 129.125 133.708 129.784C134.122 130.396 134.329 131.276 134.329 132.425C134.319 133.677 134.086 135.092 133.63 136.669C133.229 138.199 132.092 140.08 130.219 142.311C129.051 143.667 127.994 144.668 127.048 145.313C126.101 145.958 125 146.588 123.743 147.205C122.811 147.695 121.968 148.062 121.215 148.307C120.466 148.5 119.623 148.58 118.687 148.547ZM182.328 147.536C182.553 147.348 183.511 147.479 185.203 147.927C186.913 148.36 187.91 148.728 188.195 149.031C188.606 149.467 188.897 149.692 189.069 149.708C189.292 149.728 189.829 150.305 190.678 151.439C191.529 152.556 192.084 153.412 192.342 154.007C192.47 154.314 192.618 154.587 192.787 154.827C192.957 155.051 193.094 155.167 193.197 155.177C193.283 155.184 193.355 155.252 193.412 155.378C193.472 155.487 193.494 155.628 193.478 155.8C193.464 155.954 193.507 156.149 193.607 156.383C193.724 156.619 193.861 156.822 194.019 156.992C194.385 157.355 194.449 158.08 194.211 159.167C193.992 160.238 193.587 161.171 192.995 161.966C192.561 162.551 191.728 163.324 190.497 164.286C189.285 165.232 188.14 166.012 187.063 166.624C185.966 167.252 185.476 167.779 185.593 168.206C185.661 168.42 185.918 168.547 186.364 168.587C186.605 168.609 186.9 168.697 187.25 168.85C187.6 169.003 187.897 169.169 188.14 169.347C188.723 169.798 189.495 170.163 190.457 170.441C191.301 170.691 192.176 171.065 193.084 171.563C194.008 172.063 194.544 172.458 194.691 172.749C194.766 172.877 194.946 172.997 195.23 173.11C195.516 173.205 195.83 173.268 196.174 173.299C196.535 173.332 196.856 173.422 197.137 173.569C197.418 173.716 197.585 173.887 197.636 174.082C197.672 174.259 197.745 174.412 197.854 174.544C197.981 174.676 198.087 174.747 198.173 174.755C198.602 174.794 199.296 175.446 200.255 176.711C201.233 177.961 201.803 178.939 201.963 179.647C202.154 180.409 202.121 181.532 201.865 183.016C201.607 184.517 201.324 185.253 201.014 185.225C200.911 185.216 200.79 185.309 200.651 185.504C200.529 185.701 200.421 185.942 200.325 186.228C200.072 186.915 199.244 187.836 197.839 188.99C196.435 190.145 195.364 190.775 194.627 190.881C193.856 190.984 193.304 191.142 192.973 191.354C192.586 191.614 191.103 191.626 188.526 191.392C185.966 191.159 184.261 190.857 183.411 190.485C182.994 190.308 182.591 190.176 182.2 190.089C181.81 190.001 181.543 189.986 181.399 190.042C181.072 190.203 180.058 190.405 178.355 190.649C177.179 190.819 176.378 190.867 175.951 190.794C175.523 190.738 174.949 190.477 174.229 190.014C173.181 189.347 172.443 188.993 172.013 188.954C171.824 188.937 171.665 188.879 171.535 188.781C171.423 188.684 171.373 188.567 171.385 188.43C171.396 188.309 171.274 188.22 171.02 188.162C170.765 188.105 170.421 188.082 169.986 188.095C169.569 188.109 169.107 188.144 168.599 188.202C168.109 188.262 167.598 188.354 167.067 188.479C166.553 188.605 166.099 188.746 165.703 188.9C165.236 189.083 164.705 189.208 164.11 189.275C163.531 189.361 163.053 189.37 162.679 189.301L161.35 189.05L162.412 188.237C162.693 188.003 163.058 187.794 163.508 187.609C163.958 187.425 164.358 187.314 164.708 187.277C165.303 187.209 166.192 186.762 167.376 185.934C168.576 185.125 169.193 184.532 169.227 184.154C169.249 183.913 169.526 183.54 170.057 183.034C170.661 182.482 171.325 181.564 172.048 180.278C172.787 179.012 173.183 178.086 173.236 177.502C173.3 176.798 173.6 175.794 174.134 174.491C174.67 173.172 175.12 171.454 175.486 169.339C175.726 168.027 175.837 167.006 175.816 166.277C175.813 165.549 175.67 164.653 175.385 163.587C174.954 161.85 174.759 160.758 174.8 160.312C174.842 159.848 174.679 159.166 174.31 158.266C173.96 157.351 173.602 156.712 173.237 156.35C173.095 156.198 172.964 156.022 172.843 155.82C172.725 155.602 172.671 155.432 172.682 155.312C172.694 155.174 172.585 154.948 172.354 154.632C172.141 154.301 171.876 153.983 171.557 153.676C171.24 153.353 170.975 153.026 170.763 152.695C170.551 152.364 170.451 152.129 170.463 151.992C170.477 151.837 170.42 151.702 170.292 151.586C170.183 151.455 170.042 151.382 169.87 151.366C169.698 151.351 169.549 151.372 169.423 151.429C169.298 151.47 169.231 151.533 169.224 151.619C169.216 151.705 169.082 151.849 168.821 152.05C168.56 152.252 168.238 152.456 167.855 152.664C167.454 152.887 167.117 153.16 166.845 153.482C166.592 153.788 166.453 154.078 166.428 154.353C166.397 154.697 166.27 154.954 166.046 155.124C165.825 155.277 165.597 155.308 165.362 155.218C165.13 155.11 164.967 154.896 164.875 154.576C164.769 154.22 164.971 153.614 165.482 152.76C165.994 151.889 166.396 151.466 166.689 151.493C166.929 151.514 167.523 151.17 168.472 150.459C171.189 148.385 174.534 147.425 178.504 147.578C180.903 147.675 182.178 147.661 182.328 147.536ZM186.355 150.111C186.112 149.742 185.57 149.511 184.729 149.417C183.889 149.324 181.945 149.268 178.898 149.251C177.823 149.257 176.745 149.306 175.662 149.398C174.597 149.492 173.842 149.605 173.397 149.738L171.815 150.27L172.534 151.504C173.031 152.329 173.613 153.17 174.28 154.028C174.544 154.364 174.764 154.704 174.94 155.049C175.136 155.379 175.229 155.595 175.219 155.698C175.196 155.956 175.321 156.098 175.596 156.123C175.734 156.135 175.832 156.196 175.892 156.305C175.97 156.399 176.002 156.523 175.988 156.678C175.975 156.815 176.061 157.109 176.245 157.559C176.43 158.009 176.656 158.471 176.925 158.946C177.193 159.421 177.439 160.049 177.663 160.832C177.888 161.597 178.016 162.285 178.047 162.894C178.139 164.357 178.212 165.369 178.265 165.928C178.307 166.417 178.659 166.735 179.321 166.882C179.985 167.011 180.821 166.966 181.828 166.746C182.836 166.526 183.814 166.155 184.762 165.635C185.435 165.281 186.011 164.943 186.491 164.623C186.972 164.286 187.217 164.066 187.227 163.962C187.25 163.705 187.399 163.588 187.674 163.613C187.794 163.624 188.076 163.485 188.518 163.196C188.961 162.89 189.427 162.526 189.916 162.102C190.705 161.429 191.203 160.911 191.409 160.549C191.634 160.171 191.751 159.645 191.76 158.97L191.784 156.711C191.782 156.347 191.083 155.279 189.685 153.506C188.304 151.735 187.459 150.835 187.15 150.807C186.926 150.786 186.662 150.554 186.355 150.111ZM185.624 170.157C185.513 170.043 185.065 169.916 184.281 169.775C183.514 169.636 182.624 169.521 181.61 169.428L177.951 169.096L177.426 172.01C177.059 173.952 176.695 175.279 176.336 175.991C175.996 176.688 175.789 177.431 175.718 178.221C175.686 178.565 175.596 178.895 175.446 179.21C175.296 179.526 175.129 179.744 174.944 179.866C174.76 179.988 174.589 180.154 174.431 180.365C174.291 180.578 174.212 180.77 174.197 180.942C174.181 181.113 174.106 181.271 173.972 181.415C173.855 181.56 173.707 181.659 173.529 181.712C173.37 181.75 173.194 181.872 173.002 182.08C172.825 182.307 172.691 182.546 172.599 182.797C172.388 183.402 171.883 184.187 171.085 185.154L169.914 186.607L171.336 186.684C171.748 186.722 172.156 186.811 172.559 186.951C172.962 187.092 173.259 187.257 173.449 187.448C173.737 187.717 175.449 188.037 178.585 188.409C181.721 188.781 184.911 189.045 188.154 189.201C191.412 189.376 193.311 189.358 193.849 189.147C195.449 188.513 196.689 187.638 197.57 186.523C198.468 185.41 199.107 183.909 199.487 182.02L199.932 179.696L198.151 177.559C197.65 176.976 197.167 176.473 196.704 176.05C196.24 175.627 195.93 175.408 195.776 175.394C195.621 175.38 195.469 175.34 195.319 175.275C195.188 175.193 195.108 175.117 195.08 175.045C195.027 174.867 194.322 174.43 192.964 173.735C191.624 173.042 190.046 172.3 188.229 171.512C186.728 170.873 185.86 170.421 185.624 170.157ZM210.861 146.389C211.031 146.04 211.514 145.876 212.309 145.897C213.121 145.919 213.614 146.111 213.789 146.473C213.95 146.8 213.729 147.135 213.126 147.478C212.525 147.805 211.889 147.937 211.219 147.876C210.427 147.822 210.012 148.009 209.973 148.439C209.955 148.628 209.879 148.803 209.743 148.964C209.607 149.124 209.45 149.231 209.272 149.284C209.113 149.322 208.925 149.478 208.71 149.753C208.513 150.012 208.366 150.293 208.269 150.597C208.099 151.135 207.791 151.566 207.346 151.89C206.92 152.197 206.597 152.22 206.378 151.958C206.253 151.808 206.334 151.113 206.62 149.875C206.924 148.621 207.359 147.933 207.925 147.811C208.154 147.762 208.352 147.685 208.518 147.579C208.702 147.457 208.799 147.344 208.808 147.241C208.819 147.121 208.914 147.034 209.092 146.981C209.271 146.911 209.473 146.886 209.696 146.906C209.937 146.928 210.166 146.888 210.383 146.787C210.619 146.67 210.778 146.537 210.861 146.389ZM214.445 145.831C214.474 145.522 214.556 145.278 214.694 145.1C214.831 144.922 214.994 144.842 215.183 144.859C215.355 144.874 215.497 144.931 215.61 145.028C215.722 145.124 215.773 145.233 215.762 145.353C215.753 145.456 215.83 145.654 215.994 145.946C216.16 146.221 216.351 146.498 216.568 146.778C217.397 147.754 218.019 148.729 218.433 149.702C218.866 150.659 219.048 151.507 218.981 152.246C218.944 152.659 218.971 153.12 219.063 153.631C219.155 154.142 219.283 154.552 219.445 154.861C219.667 155.28 219.786 155.776 219.803 156.349C219.822 156.905 219.738 157.737 219.55 158.846C219.425 159.649 219.35 160.379 219.325 161.035C219.302 161.674 219.337 162.049 219.431 162.162C219.696 162.48 219.662 164.288 219.327 167.583C218.993 170.879 218.663 172.694 218.339 173.028C218.128 173.252 218.026 173.416 218.034 173.52C218.042 173.625 218.17 173.741 218.418 173.867C218.651 173.975 218.789 174.265 218.833 174.736C218.877 175.208 218.845 176.028 218.739 177.197C218.595 178.777 218.731 180.522 219.147 182.431C219.578 184.358 220.133 185.777 220.812 186.688C221.2 187.191 221.848 187.492 222.757 187.592C223.664 187.71 224.318 187.57 224.718 187.173C224.871 187.014 225.057 186.875 225.276 186.756C225.493 186.655 225.679 186.611 225.833 186.625C226.091 186.648 226.555 186.405 227.225 185.894C227.912 185.385 229.16 184.337 230.967 182.752C231.606 182.204 232.031 181.723 232.241 181.309C232.616 180.615 233.192 178.572 233.968 175.177C234.062 174.718 234.263 173.844 234.571 172.556C234.925 170.942 235.1 168.922 235.096 166.497C235.11 164.055 234.939 162.602 234.583 162.136C234.489 162.024 234.421 161.819 234.379 161.52C234.337 161.222 234.329 160.927 234.355 160.635C234.413 159.999 234.191 158.445 233.688 155.974C233.185 153.503 232.796 152.065 232.521 151.659C232.309 151.327 232.191 150.719 232.167 149.833C232.133 149.068 232.317 148.574 232.718 148.35C233.138 148.111 233.64 148.209 234.225 148.643C234.728 149.018 235.185 149.224 235.598 149.262C235.769 149.277 235.91 149.351 236.019 149.482C236.146 149.615 236.201 149.767 236.186 149.939C236.164 150.18 236.245 150.334 236.429 150.403C236.615 150.454 236.978 150.462 237.519 150.424C238.445 150.335 239.102 150.161 239.489 149.902C239.856 149.675 240.843 149.583 242.451 149.625C244.06 149.65 245.226 149.782 245.949 150.021C246.385 150.182 246.599 150.297 246.593 150.366C246.601 150.47 246.148 150.689 245.234 151.022C244.752 151.186 244.202 151.318 243.587 151.418C242.972 151.518 242.474 151.559 242.095 151.542C241.182 151.476 240.43 151.555 239.838 151.778L238.06 152.474C237.808 152.573 237.509 152.632 237.16 152.652C236.831 152.657 236.557 152.615 236.34 152.526C236.056 152.413 235.842 152.385 235.698 152.441C235.572 152.499 235.497 152.657 235.473 152.915C235.42 153.499 235.522 154.383 235.778 155.567C236.053 156.735 236.328 157.514 236.605 157.903C236.805 158.181 236.936 158.453 236.998 158.718C237.078 158.985 237.076 159.202 236.991 159.367C236.926 159.517 236.79 159.583 236.584 159.564C236.463 159.553 236.355 159.604 236.258 159.716C236.178 159.83 236.131 159.973 236.115 160.145C236.099 160.317 236.137 160.476 236.228 160.623C236.337 160.754 236.469 160.827 236.623 160.841C237.019 160.877 237.247 161.131 237.308 161.605C237.386 162.08 237.333 163.045 237.148 164.501C236.947 166.145 237.025 167.183 237.385 167.614C237.666 167.952 237.699 169.393 237.485 171.937C237.29 174.466 237.029 175.811 236.703 175.972C236.612 176.015 236.512 176.258 236.403 176.698C236.293 177.138 236.214 177.634 236.164 178.183C236.089 179.008 235.912 179.711 235.634 180.292C235.358 180.856 234.809 181.646 233.989 182.663C233.444 183.324 232.849 183.963 232.204 184.58C231.574 185.215 231.085 185.639 230.737 185.849C230.372 186.059 230.056 186.29 229.791 186.543C229.541 186.815 229.408 187.037 229.392 187.208C229.377 187.38 229.292 187.546 229.139 187.705C229.003 187.866 228.847 187.964 228.671 188C228.51 188.055 228.354 188.153 228.202 188.295C228.068 188.439 227.993 188.588 227.979 188.743C227.965 188.898 227.878 189.002 227.717 189.057C227.556 189.112 227.35 189.093 227.098 189.001C226.88 188.929 226.622 188.905 226.325 188.93C226.027 188.972 225.786 189.054 225.601 189.176C224.992 189.589 224.089 189.801 222.893 189.814C221.712 189.845 220.871 189.664 220.369 189.272C219.659 188.705 219.079 188.124 218.631 187.529C218.181 186.951 217.973 186.482 218.005 186.121C218.02 185.966 217.998 185.817 217.942 185.673C217.884 185.547 217.804 185.479 217.701 185.47C217.082 185.413 216.636 183.658 216.361 180.202C216.103 176.749 216.121 172.939 216.413 168.773C216.603 165.915 216.761 162.664 216.884 159.02C217.025 155.377 217.065 153.12 217.006 152.249C216.945 151.394 216.687 150.427 216.231 149.346C215.776 148.248 215.337 147.549 214.914 147.251C214.767 147.151 214.646 146.958 214.551 146.672C214.456 146.386 214.42 146.106 214.445 145.831ZM261.858 148.246C261.867 148.143 261.936 148.054 262.064 147.979C262.192 147.904 262.342 147.874 262.514 147.89C262.685 147.905 262.825 147.987 262.933 148.136C263.06 148.269 263.116 148.412 263.102 148.567C263.063 148.996 263.182 149.206 263.46 149.197C263.755 149.189 264.051 148.982 264.348 148.576C264.548 148.283 264.718 148.133 264.857 148.129C265.014 148.108 265.238 148.224 265.527 148.476C265.992 148.882 266.53 149.251 267.141 149.584C267.388 149.728 267.598 149.894 267.771 150.083C267.946 150.255 268.028 150.401 268.017 150.521C268.008 150.624 268.059 150.724 268.172 150.821C268.301 150.919 268.452 150.976 268.624 150.992C268.796 151.008 268.936 151.09 269.043 151.238C269.151 151.386 269.195 151.572 269.175 151.796C269.156 152.002 269.255 152.245 269.472 152.524C269.708 152.788 270.007 153.023 270.369 153.23C271.177 153.684 272.002 154.426 272.844 155.455C273.685 156.485 274.241 157.428 274.509 158.283C274.819 159.264 274.858 160.74 274.626 162.712C274.412 164.684 274.069 165.892 273.595 166.334C273.124 166.759 272.88 167.057 272.864 167.229C272.849 167.401 272.296 167.948 271.208 168.871C270.758 169.246 270.379 169.601 270.071 169.937C269.782 170.257 269.66 170.463 269.703 170.553C270.258 172.076 270.665 173.127 270.924 173.705C271.185 174.266 271.421 174.625 271.632 174.783C271.778 174.883 271.894 175.04 271.978 175.256C272.063 175.471 272.096 175.682 272.077 175.888C272.031 176.387 272.19 176.93 272.552 177.517C272.704 177.756 272.816 178.138 272.89 178.665C272.965 179.174 272.989 179.67 272.962 180.153C272.895 180.891 272.931 181.449 273.07 181.826C273.211 182.185 273.553 182.606 274.099 183.088C274.45 183.415 275.011 183.812 275.783 184.281C276.556 184.733 277.317 185.131 278.065 185.476C279.313 186.04 280.227 186.374 280.806 186.479C281.403 186.585 282.364 186.586 283.691 186.481C285.645 186.33 286.676 186.32 286.786 186.451C286.832 186.507 286.741 186.655 286.511 186.894C286.299 187.134 286.006 187.402 285.633 187.697C284.757 188.38 283.819 188.685 282.821 188.611C281.839 188.556 281.157 188.624 280.776 188.815C280.595 188.902 280.361 188.898 280.075 188.803C279.788 188.725 279.507 188.57 279.234 188.337C278.975 188.14 278.654 187.955 278.271 187.782C277.906 187.61 277.585 187.511 277.311 187.486C277.053 187.463 276.641 187.33 276.074 187.088C275.524 186.847 275.003 186.575 274.511 186.27C273.311 185.555 272.364 184.542 271.669 183.231C270.974 181.921 270.636 180.487 270.657 178.93C270.643 178.322 270.605 177.79 270.542 177.334C270.48 176.878 270.405 176.646 270.32 176.638C270.131 176.621 269.851 176.266 269.481 175.574C269.128 174.884 268.854 174.183 268.658 173.473C268.527 173.01 267.933 172.497 266.875 171.933C265.818 171.369 264.825 171.045 263.898 170.961C263.485 170.923 263.128 170.856 262.825 170.759C262.523 170.645 262.377 170.537 262.386 170.434C262.411 170.159 262.036 170.099 261.259 170.253C260.325 170.428 259.547 170.323 258.924 169.937C258.319 169.535 257.943 168.904 257.797 168.041C257.776 167.884 257.74 167.906 257.687 168.109C257.558 168.565 257.422 169.497 257.276 170.905C257.137 172.243 257.076 173.199 257.094 173.772C257.129 174.33 257.251 174.618 257.457 174.637C257.732 174.662 257.825 175.251 257.738 176.403C257.669 177.541 257.465 178.735 257.126 179.986C256.804 181.239 256.473 182.023 256.133 182.338C255.567 182.841 255.163 183.385 254.919 183.969C254.318 185.439 253.483 186.134 252.417 186.054C251.35 185.974 250.085 185.114 248.623 183.474L246.405 181.012L246.574 177.441C246.609 176.474 246.61 175.521 246.574 174.583C246.539 173.627 246.476 172.989 246.384 172.668C246.292 172.348 246.246 171.998 246.246 171.616C246.263 171.237 246.315 170.947 246.403 170.747C246.653 170.285 246.917 168.715 247.195 166.038C247.399 164.168 247.716 162.594 248.144 161.317C248.589 160.041 249.018 159.421 249.43 159.459C249.533 159.468 249.616 159.415 249.679 159.3C249.76 159.168 249.808 159.017 249.824 158.845C249.839 158.673 249.896 158.531 249.992 158.419C250.089 158.306 250.189 158.255 250.292 158.264C250.395 158.273 250.516 158.189 250.653 158.011C250.809 157.817 250.933 157.603 251.023 157.369C251.253 156.749 251.514 156.166 251.806 155.621C252.098 155.076 252.374 154.425 252.633 153.67C252.733 153.332 252.917 153.02 253.186 152.732C253.472 152.447 253.767 152.248 254.072 152.137C254.358 152.042 254.612 151.909 254.836 151.739C255.061 151.552 255.18 151.381 255.194 151.226C255.207 151.088 255.343 150.928 255.602 150.743C255.88 150.543 256.198 150.382 256.555 150.258C257.432 149.957 257.878 149.712 257.896 149.523C257.902 149.454 258.092 149.367 258.465 149.263C258.857 149.142 259.325 149.046 259.868 148.974C260.414 148.885 260.874 148.771 261.251 148.632C261.644 148.495 261.847 148.366 261.858 148.246ZM265.679 152.517C264.129 151.649 262.619 151.208 261.148 151.196C259.695 151.167 258.315 151.579 257.008 152.43C255.719 153.266 254.657 154.46 253.823 156.013C253.028 157.517 252.462 158.505 252.125 158.976C251.806 159.432 251.526 159.65 251.286 159.628C251.08 159.609 250.638 160.851 249.96 163.353C249.282 165.855 248.943 167.487 248.943 168.25C248.949 168.943 248.903 169.537 248.807 170.03C248.728 170.508 248.551 171.124 248.275 171.879C248.043 172.516 247.923 172.982 247.914 173.275C247.923 173.553 248.025 173.762 248.221 173.901C248.58 174.141 248.635 174.865 248.387 176.073C248.139 177.28 248.16 178.001 248.45 178.235C248.58 178.334 248.676 178.516 248.738 178.781C248.801 179.047 248.819 179.326 248.792 179.618C248.731 180.288 248.987 181.004 249.558 181.766C250.132 182.511 250.727 182.921 251.344 182.994C251.773 183.033 252.271 182.793 252.838 182.272C253.423 181.754 253.794 181.199 253.951 180.607C254.053 180.252 254.361 179.249 254.875 177.598C255.167 176.672 255.352 175.875 255.43 175.206C255.508 174.538 255.498 173.792 255.4 172.969C255.315 172.372 255.287 171.347 255.315 169.895C255.361 168.444 255.441 166.987 255.557 165.525C255.841 162.017 256.022 159.643 256.101 158.402C256.179 157.162 256.395 156.498 256.75 156.409C257.106 156.302 257.246 156.67 257.169 157.512C257.136 157.873 257.167 158.205 257.26 158.508C257.356 158.794 257.477 158.978 257.626 159.061C257.943 159.194 258.161 159.75 258.279 160.731C258.398 161.712 258.403 162.995 258.293 164.579L258.19 166.57L260.104 166.952C261.382 167.189 262.646 167.391 263.895 167.557C265.147 167.705 265.861 167.848 266.039 167.985C266.266 168.162 266.737 168.118 267.454 167.854C268.171 167.59 268.845 167.236 269.474 166.791C270.103 166.345 270.432 165.968 270.46 165.659C270.471 165.539 270.553 165.408 270.704 165.265C270.874 165.108 271.068 164.978 271.285 164.876C271.593 164.731 271.809 164.448 271.934 164.026C272.061 163.587 272.17 162.765 272.262 161.561C272.365 159.856 272.238 158.588 271.881 157.759C271.523 156.929 270.733 156.095 269.51 155.256C268.433 154.517 267.834 154.064 267.71 153.897C267.588 153.713 266.911 153.253 265.679 152.517ZM314.937 158.062C315.945 157.27 316.673 156.782 317.123 156.598C317.573 156.414 318.114 156.376 318.745 156.485C319.307 156.589 319.693 156.719 319.904 156.877C320.115 157.035 320.231 157.288 320.251 157.636C320.268 158.019 320.221 158.248 320.11 158.325C320 158.401 319.741 158.386 319.335 158.28C319.03 158.2 318.563 158.297 317.931 158.568C317.3 158.84 316.722 159.195 316.198 159.632C315.674 160.052 315.4 160.4 315.375 160.675C315.349 160.967 315.167 161.158 314.829 161.249C314.331 161.394 313.83 162.336 313.325 164.074C312.838 165.814 312.308 168.495 311.736 172.115C310.95 177.137 310.429 180.58 310.173 182.445C309.919 184.293 309.694 186.187 309.501 188.127C309.329 190.017 309.048 191.299 308.657 191.974C308.282 192.668 307.745 192.861 307.045 192.555C306.778 192.444 306.554 192.242 306.373 191.948C306.191 191.655 306.075 191.315 306.024 190.929C305.986 190.579 305.91 190.278 305.794 190.025C305.696 189.773 305.595 189.643 305.492 189.633C305.371 189.622 305.281 189.571 305.22 189.479C305.161 189.369 305.138 189.237 305.152 189.083C305.171 188.877 304.669 187.341 303.648 184.476C302.645 181.596 301.899 179.605 301.411 178.504C301.197 178 301.104 177.593 301.132 177.283C301.16 176.974 301.017 176.355 300.703 175.425C300.202 173.89 299.882 172.83 299.745 172.246C299.609 171.645 299.561 171.121 299.602 170.674C299.701 169.591 299.476 169.675 298.93 170.925C298.141 172.741 297.06 176.056 295.687 180.868C295.485 181.56 295.273 182.173 295.052 182.707C294.831 183.224 294.658 183.512 294.532 183.569C294.422 183.629 294.282 183.841 294.11 184.207C293.955 184.574 293.823 184.977 293.714 185.418C293.606 185.841 293.424 186.318 293.168 186.849C292.912 187.381 292.666 187.791 292.432 188.082C291.849 188.774 291.542 189.292 291.511 189.635C291.478 189.996 291.015 190.612 290.122 191.484C289.228 192.355 288.627 192.777 288.318 192.749C288.043 192.724 287.911 192.365 287.922 191.673C287.931 190.999 288.078 190.622 288.362 190.544C288.576 190.477 289.085 189.64 289.89 188.033C290.696 186.408 291.204 185.198 291.415 184.403C291.514 184.083 291.625 183.816 291.748 183.602C291.871 183.388 291.976 183.285 292.062 183.293C292.165 183.302 292.289 183.184 292.432 182.937C292.578 182.673 292.702 182.355 292.805 181.983C293.077 181.09 293.358 180.379 293.648 179.851C293.958 179.308 294.284 178.099 294.628 176.224C294.767 175.457 294.979 174.654 295.263 173.813C295.566 172.957 295.849 172.316 296.113 171.89C296.438 171.365 296.694 170.842 296.88 170.322C297.084 169.787 297.176 169.345 297.156 168.996C297.153 168.649 297.04 168.466 296.816 168.446C296.713 168.436 296.64 168.005 296.596 167.152C296.571 166.284 296.587 165.254 296.643 164.064C296.785 161.167 296.817 159.108 296.737 157.888C296.668 156.929 296.772 156.358 297.049 156.176C297.327 155.976 297.776 156.181 298.396 156.792C298.747 157.118 299.102 157.982 299.46 159.383C299.834 160.786 299.988 161.857 299.921 162.595C299.862 163.248 299.954 163.664 300.197 163.842C300.294 163.92 300.39 164.197 300.486 164.674C300.581 165.15 300.646 165.676 300.68 166.25C300.714 166.825 300.771 167.35 300.849 167.825C300.945 168.284 301.034 168.552 301.113 168.628C301.34 168.805 301.432 169.125 301.39 169.589C301.348 170.053 301.54 170.885 301.968 172.084C302.398 173.267 302.787 174.61 303.135 176.114C303.285 176.752 303.455 177.356 303.646 177.928C303.854 178.501 304.036 178.881 304.192 179.069C304.549 179.517 304.702 180.033 304.649 180.618C304.627 180.858 304.715 181.317 304.913 181.993C305.112 182.669 305.361 183.35 305.663 184.036C306.452 185.84 306.89 186.737 306.977 186.728C307.029 186.733 307.01 186.463 306.921 185.917C306.879 185.619 306.917 185.008 307.036 184.083C307.173 183.143 307.351 182.145 307.568 181.091C308.107 178.593 308.69 175.32 309.318 171.272C309.72 168.571 310.148 166.436 310.602 164.866C311.057 163.296 311.608 161.995 312.257 160.963C312.924 159.915 313.817 158.948 314.937 158.062ZM361.012 159.186C361.374 158.82 361.667 158.648 361.89 158.668C362.114 158.688 362.37 158.911 362.661 159.336C362.998 159.817 362.884 160.309 362.319 160.812C361.753 161.315 360.916 161.663 359.807 161.857C359.35 161.936 358.958 162.048 358.633 162.192C358.31 162.318 358.143 162.442 358.132 162.562C358.123 162.665 358.045 162.753 357.9 162.827C357.755 162.9 357.57 162.927 357.347 162.906C356.864 162.88 356.329 163.048 355.742 163.41C355.505 163.544 355.183 163.654 354.777 163.738C354.371 163.822 354.013 163.85 353.704 163.822C353.394 163.794 353.09 163.81 352.79 163.869C352.507 163.93 352.326 164.018 352.246 164.132C352.167 164.246 351.625 164.3 350.62 164.296C349.618 164.274 348.386 164.196 346.926 164.063L341.874 163.604L341.825 165.003C341.761 166.088 341.514 167.946 341.084 170.574C340.656 173.186 340.234 175.348 339.819 177.06C339.167 179.842 338.628 186.54 338.199 197.155C338.146 198.502 338.063 199.412 337.951 199.887C337.854 200.381 337.702 200.618 337.496 200.599C335.555 200.423 335.116 194.579 336.18 183.069C336.491 179.841 336.756 177.5 336.975 176.047C337.21 174.596 337.509 173.411 337.87 172.491C338.48 170.918 338.866 168.874 339.025 166.359L339.262 162.613L334.21 161.868C332.056 161.551 330.176 161.371 328.568 161.329C326.963 161.269 325.043 161.329 322.809 161.507C322.267 161.561 321.905 161.26 321.722 160.602C321.605 160.176 321.586 159.914 321.664 159.817C321.761 159.705 322.032 159.669 322.479 159.709C322.754 159.734 323.016 159.715 323.264 159.651C323.53 159.588 323.712 159.492 323.81 159.363C323.89 159.249 324.035 159.175 324.246 159.143C324.474 159.111 324.688 159.139 324.888 159.227C325.106 159.299 325.295 159.325 325.452 159.304C325.612 159.267 325.696 159.196 325.705 159.093C325.729 158.836 328.787 159.018 334.88 159.642C339.996 160.159 342.881 160.534 343.535 160.767C343.887 160.903 344.078 161.085 344.109 161.313C344.166 161.647 344.345 161.863 344.648 161.959C344.953 162.039 345.616 162.082 346.637 162.088C348.231 162.095 349.434 162.005 350.248 161.819C350.567 161.744 350.907 161.714 351.269 161.73C351.633 161.728 351.89 161.76 352.04 161.826C352.189 161.909 352.456 161.925 352.842 161.873C353.227 161.821 353.618 161.718 354.013 161.564C354.947 161.198 355.723 161.044 356.342 161.1C356.6 161.123 356.9 161.064 357.242 160.922C357.601 160.781 357.894 160.609 358.12 160.404C358.347 160.199 358.614 160.025 358.922 159.879C359.229 159.734 359.486 159.671 359.692 159.69C359.899 159.708 360.127 159.668 360.379 159.57C360.63 159.472 360.841 159.344 361.012 159.186Z" fill="#D6C6B6"/>
</svg>
