<svg width="419" height="150" viewBox="0 0 419 150" fill="none" xmlns="http://www.w3.org/2000/svg">
<path d="M254.863 149.589C253.916 149.532 253.246 149.131 252.854 148.388C252.514 147.64 252.486 146.623 252.769 145.339C253.052 144.054 253.655 142.579 254.578 140.913C255 140.451 255.376 140.045 255.705 139.697C256.029 139.297 256.224 138.91 256.289 138.537C256.51 138.148 257.005 137.39 257.776 136.263C258.541 135.085 259.447 133.761 260.496 132.291C261.544 130.822 262.569 129.381 263.571 127.968C264.624 126.55 265.516 125.333 266.245 124.315C266.975 123.297 267.357 122.708 267.393 122.547C267.605 122.577 267.827 122.449 268.058 122.163C268.284 121.826 268.43 121.471 268.495 121.098C268.607 120.668 268.828 120.279 269.157 119.93C269.481 119.53 269.821 119.285 270.178 119.196C270.254 118.926 270.362 118.706 270.5 118.534C270.639 118.363 270.724 118.171 270.754 117.959C270.784 117.746 270.868 117.555 271.007 117.383C271.197 117.206 271.308 117.012 271.338 116.799C271.76 116.337 272.482 115.503 273.506 114.297C274.524 113.04 275.704 111.582 277.046 109.925C278.388 108.268 279.774 106.527 281.203 104.704C282.633 102.88 283.969 101.171 285.213 99.5765C286.458 97.9817 287.467 96.6469 288.243 95.5719C289.019 94.4969 289.451 93.8764 289.538 93.7104C289.829 93 290.302 92.7674 290.955 93.0124C291.295 92.7675 291.709 92.724 292.196 92.882C292.196 92.882 292.235 93.0085 292.314 93.2617C292.439 93.4577 292.633 93.8034 292.894 94.2988C293.207 94.7888 293.359 95.2433 293.351 95.6625C293.337 96.0299 293.202 96.4885 292.946 97.0383C292.748 97.6343 292.489 98.1582 292.17 98.61C291.904 99.0563 291.418 99.6564 290.713 100.41C290.059 101.159 289.03 102.313 287.626 103.872C287.307 104.324 286.659 105.124 285.682 106.272C284.751 107.364 283.753 108.566 282.689 109.881C281.619 111.144 280.69 112.261 279.904 113.232C279.112 114.152 278.695 114.667 278.654 114.775C278.453 114.849 278.208 115.005 277.919 115.245C277.682 115.479 277.465 115.894 277.266 116.49C276.896 116.947 276.291 117.664 275.453 118.641C274.666 119.613 273.925 120.527 273.231 121.384C272.583 122.185 272.242 122.665 272.206 122.825C272.119 122.992 271.978 123.137 271.782 123.262C271.586 123.387 271.338 123.518 271.039 123.654C270.981 123.608 270.909 123.668 270.822 123.834C270.787 123.994 270.769 124.075 270.769 124.075C270.791 124.281 270.602 124.72 270.201 125.389C269.847 126.001 269.269 126.716 268.466 127.532C267.695 128.659 266.679 130.178 265.415 132.088C264.198 133.941 262.941 135.904 261.642 137.975C260.39 139.989 259.273 141.805 258.293 143.425C257.319 145.096 256.709 146.258 256.464 146.911C256.153 147.937 255.885 148.619 255.659 148.956C255.485 149.288 255.219 149.499 254.863 149.589ZM281.055 136.875C281.878 135.743 282.521 134.656 282.987 133.614C283.453 132.571 283.868 131.299 284.233 129.797C284.369 129.103 284.38 128.212 284.266 127.126C284.152 126.04 283.957 125.433 283.682 125.305C283.138 125.101 282.509 125.089 281.796 125.268C281.129 125.391 280.472 125.852 279.824 126.652C278.634 127.771 277.658 129.18 276.896 130.881C276.18 132.525 275.483 134.35 274.805 136.356C274.383 137.812 274.373 138.963 274.776 139.81C275.225 140.599 276.004 140.805 277.115 140.427C278.231 140.1 279.544 138.917 281.055 136.875ZM275.902 144.554C275.385 144.609 274.934 144.551 274.55 144.383C274.218 144.208 273.827 143.962 273.375 143.643C272.46 142.903 271.807 142.161 271.415 141.418C271.024 140.675 270.87 139.959 270.954 139.27C271.02 138.898 271.013 138.585 270.934 138.331C270.902 138.021 270.885 137.866 270.885 137.866C270.651 137.629 270.583 137.479 270.681 137.417C270.779 137.354 270.846 137.243 270.881 137.082C271.14 137.055 271.193 136.814 271.041 136.359C270.956 136.055 271.061 135.312 271.355 134.13C271.649 132.949 272.055 131.835 272.573 130.787C272.788 130.346 273.093 129.765 273.487 129.044C273.882 128.322 274.329 127.596 274.827 126.864C275.377 126.126 275.888 125.523 276.362 125.055C277.304 124.067 278.141 123.326 278.873 122.831C279.606 122.335 280.426 121.935 281.335 121.631C282.239 121.274 282.875 121.103 283.242 121.117C283.604 121.079 284.131 121.363 284.822 121.97C285.791 122.234 286.515 122.655 286.994 123.232C287.519 123.752 287.893 124.575 288.116 125.702C288.35 126.933 288.396 128.366 288.254 130.001C288.159 131.58 287.409 133.646 286.004 136.199C285.122 137.755 284.279 138.942 283.476 139.758C282.673 140.575 281.715 141.407 280.601 142.256C279.782 142.918 279.024 143.416 278.327 143.75C277.636 144.137 276.827 144.405 275.902 144.554ZM267.264 109.384C268.086 108.252 268.73 107.165 269.196 106.123C269.661 105.08 270.077 103.808 270.442 102.306C270.578 101.611 270.589 100.721 270.475 99.6354C270.361 98.5494 270.166 97.9424 269.891 97.8145C269.347 97.6103 268.718 97.5979 268.005 97.7774C267.338 97.8998 266.681 98.361 266.033 99.1612C264.843 100.28 263.867 101.689 263.105 103.39C262.389 105.034 261.692 106.859 261.014 108.865C260.592 110.321 260.582 111.472 260.985 112.319C261.434 113.108 262.216 113.34 263.332 113.013C264.443 112.635 265.753 111.426 267.264 109.384ZM262.025 116.994C261.508 117.048 261.057 116.991 260.674 116.822C260.342 116.648 259.95 116.401 259.498 116.083C258.583 115.342 257.93 114.601 257.539 113.858C257.147 113.114 256.993 112.399 257.078 111.71C257.143 111.337 257.136 111.024 257.057 110.771C257.025 110.461 257.008 110.306 257.008 110.306C256.774 110.069 256.706 109.919 256.804 109.856C256.902 109.794 256.969 109.682 257.004 109.522C257.263 109.494 257.316 109.254 257.164 108.799C257.079 108.494 257.184 107.751 257.478 106.57C257.773 105.389 258.178 104.274 258.696 103.226C258.911 102.785 259.216 102.204 259.61 101.483C260.005 100.762 260.452 100.035 260.95 99.3033C261.5 98.5657 262.012 97.9629 262.485 97.4949C263.427 96.507 264.264 95.7654 264.997 95.2702C265.729 94.7749 266.549 94.3749 267.459 94.0702C268.362 93.7138 268.998 93.5425 269.365 93.5561C269.727 93.5181 270.254 93.8026 270.945 94.4097C271.914 94.6738 272.638 95.0945 273.117 95.6716C273.642 96.1915 274.016 97.0149 274.239 98.1418C274.473 99.3721 274.519 100.805 274.377 102.441C274.282 104.02 273.532 106.085 272.127 108.638C271.245 110.195 270.402 111.381 269.599 112.198C268.796 113.014 267.838 113.847 266.725 114.696C265.905 115.357 265.15 115.881 264.458 116.267C263.762 116.602 262.95 116.844 262.025 116.994Z" fill="#D6C6B6"/>
<path d="M217.181 94.4704C217.783 93.9008 218.52 93.687 219.392 93.829C220.299 93.9285 221.934 94.4773 224.298 95.4752C227.511 96.7734 229.832 97.9122 231.259 98.8918C232.721 99.8287 233.496 100.721 233.585 101.569C233.618 101.877 233.766 102.173 234.029 102.457C234.293 102.741 234.604 102.922 234.963 103.001C235.766 103.228 236.631 106.643 237.558 113.245C238.107 117.355 238.384 120.169 238.387 121.688C238.387 123.168 238.111 124.249 237.56 124.93C237.18 125.398 236.871 125.976 236.632 126.663C236.431 127.347 236.359 127.958 236.416 128.497C236.472 129.037 236.429 129.548 236.285 130.03C236.179 130.509 236.019 130.837 235.804 131.016C235.262 131.423 234.887 132.67 234.678 134.756C234.418 136.731 233.411 139.193 231.657 142.143C229.941 145.089 228.584 146.634 227.587 146.778C226.435 146.938 224.835 146.541 222.787 145.588C220.778 144.63 219.735 143.786 219.658 143.054C219.622 142.707 219.497 142.448 219.284 142.275C219.106 142.06 218.882 141.967 218.612 141.995C218.343 142.024 218.085 141.797 217.84 141.317C217.591 140.798 217.429 140.192 217.357 139.498C217.28 138.766 217.06 137.971 216.697 137.114C216.33 136.217 215.93 135.558 215.496 135.136C214.794 134.392 214.109 132.127 213.438 128.342C212.763 124.518 212.353 120.802 212.208 117.195C212.058 113.549 212.28 111.578 212.872 111.282C213.722 110.843 213.976 109.005 213.636 105.769C213.292 102.494 213.582 100.438 214.507 99.6008C214.898 99.2481 215.224 98.8244 215.483 98.3297C215.743 97.835 215.855 97.4143 215.818 97.0675C215.786 96.7593 215.899 96.3579 216.159 95.8632C216.415 95.33 216.755 94.8657 217.181 94.4704ZM224.376 99.5567C224.038 98.9302 223.415 98.5671 222.509 98.4676C221.637 98.3256 220.813 98.4511 220.036 98.8444C219.26 99.2376 218.887 99.7637 218.917 100.423C218.943 101.783 218.881 102.861 218.731 103.656C218.581 104.45 218.149 105.898 217.434 107.999C216.903 109.612 216.635 111.51 216.631 113.692C216.661 115.831 216.992 119.535 217.623 124.805C218.614 133.114 219.436 137.975 220.091 139.386C220.616 140.305 221.381 140.73 222.387 140.664C223.427 140.554 224.723 139.912 226.274 138.736C227.864 137.556 228.626 136.658 228.562 136.042C228.501 135.464 229.254 133.554 230.822 130.312C231.494 128.917 232.032 127.556 232.438 126.228C232.882 124.896 233.074 123.941 233.013 123.363C232.875 122.053 233.095 121.173 233.67 120.723C233.92 120.502 234.021 119.985 233.975 119.172C233.967 118.355 233.81 117.417 233.504 116.359C233.232 115.258 233.09 114.085 233.076 112.84C233.062 111.595 233.183 110.53 233.441 109.646C233.843 108.28 233.934 107.297 233.715 106.696C233.531 106.054 232.78 105.022 231.462 103.603C230.675 102.79 229.824 102.1 228.908 101.534C227.991 100.969 227.283 100.712 226.782 100.765C226.319 100.813 225.843 100.727 225.352 100.506C224.858 100.246 224.532 99.9298 224.376 99.5567Z" fill="#D6C6B6"/>
<path d="M172.47 94.3205C172.849 93.8522 177.972 93.119 187.838 92.1209C197.743 91.1188 203.354 90.7629 204.669 91.053C205.827 91.3208 206.264 92.3266 205.98 94.0703C205.734 95.8099 204.841 97.8708 203.299 100.253C201.214 103.393 199.998 105.157 199.649 105.544C199.051 106.153 198.374 107.314 197.62 109.029C196.861 110.706 196.512 111.833 196.573 112.411C196.617 112.835 196.779 113.071 197.056 113.12C197.33 113.13 197.774 112.908 198.389 112.454C199.952 111.394 201.48 110.922 202.972 111.038C204.465 111.153 205.746 111.856 206.816 113.146C207.712 114.259 208.178 114.989 208.215 115.336C208.251 115.683 207.876 116.19 207.089 116.856C205.846 118 204.14 118.627 201.97 118.738C200.344 118.831 199.551 118.506 199.589 117.762C199.581 117.685 199.592 117.605 199.623 117.524C199.823 116.841 199.693 116.524 199.23 116.572C198.888 116.647 198.215 116.913 197.211 117.369C195.95 117.969 195.191 118.535 194.936 119.069C194.715 119.559 194.706 120.592 194.911 122.168C196.375 132.024 196.352 137.363 194.841 138.184C194.434 138.382 193.978 138.489 193.473 138.503C192.968 138.517 192.588 138.421 192.332 138.214C191.651 137.662 191.136 135.73 190.788 132.417C190.44 129.103 190.542 127.106 191.093 126.425C191.369 126.085 191.574 125.44 191.708 124.491C191.842 123.542 191.856 122.567 191.751 121.565L191.368 117.925L187.141 118.836C185.269 119.189 184.075 119.314 183.558 119.213C183.079 119.107 182.802 118.689 182.725 117.957C182.599 116.762 183.736 115.533 186.135 114.268C188.568 112.961 190.02 112.321 190.49 112.35C191.431 112.406 192.178 112.289 192.732 111.997C193.281 111.667 193.528 111.232 193.471 110.692C193.382 109.845 193.832 108.201 194.822 105.76C195.808 103.28 196.732 101.508 197.594 100.444C199.076 98.613 198.842 97.6833 196.892 97.6546C195.878 97.6443 194.465 97.9097 192.652 98.4508C190.423 99.1135 188.315 99.4325 186.326 99.4078C184.375 99.3791 180.81 98.9944 175.629 98.2535C173.813 98.016 172.635 97.5555 172.095 96.8721C171.556 96.1888 171.681 95.3382 172.47 94.3205Z" fill="#D6C6B6"/>
<path d="M412.17 1.3147C412.454 0.885802 412.708 0.65963 412.931 0.636186C413.154 0.612742 413.449 0.781206 413.817 1.14158C414.241 1.54801 414.225 2.05281 413.768 2.65597C413.311 3.25913 412.557 3.76336 411.507 4.16866C411.073 4.33566 410.711 4.52118 410.42 4.72522C410.128 4.9121 409.988 5.0656 410 5.18571C410.011 5.28865 409.952 5.39024 409.824 5.49045C409.696 5.59067 409.52 5.6525 409.297 5.67595C408.819 5.7436 408.326 6.01218 407.821 6.48168C407.614 6.65955 407.319 6.82927 406.937 6.99086C406.555 7.15244 406.21 7.24946 405.901 7.28193C405.592 7.31439 405.296 7.38884 405.014 7.50529C404.748 7.61993 404.588 7.74092 404.532 7.86824C404.476 7.99556 403.954 8.15441 402.968 8.3448C401.98 8.51803 400.757 8.68128 399.299 8.83457L394.254 9.36477L394.477 10.7465C394.625 11.8238 394.744 13.6936 394.833 16.3558C394.92 19.0008 394.926 21.2033 394.851 22.9633C394.752 25.8187 395.523 32.4946 397.164 42.9909C397.373 44.322 397.469 45.2314 397.451 45.7191C397.452 46.222 397.349 46.4844 397.143 46.506C395.204 46.7098 393.639 41.0628 392.448 29.5651C392.126 26.3376 391.932 23.9901 391.864 22.5226C391.814 21.0534 391.876 19.8325 392.052 18.8599C392.345 17.1984 392.326 15.1187 391.994 12.6208L391.499 8.89972L386.399 9.14951C384.225 9.25663 382.345 9.44552 380.76 9.71619C379.173 9.96969 377.302 10.4006 375.145 11.0089C374.624 11.1678 374.21 10.9424 373.903 10.3328C373.705 9.93723 373.635 9.68437 373.693 9.5742C373.766 9.44508 374.026 9.35707 374.472 9.31019C374.747 9.28133 375 9.21139 375.231 9.10035C375.479 8.98751 375.639 8.85794 375.71 8.71166C375.766 8.58434 375.895 8.48413 376.095 8.41101C376.313 8.33609 376.528 8.32213 376.741 8.36912C376.97 8.39715 377.159 8.38589 377.31 8.33535C377.459 8.26764 377.528 8.18231 377.517 8.07937C377.49 7.82199 380.526 7.40752 386.624 6.83595C391.743 6.35002 394.646 6.15767 395.333 6.25892C395.704 6.324 395.927 6.46536 396.002 6.68301C396.122 6.99999 396.34 7.17657 396.656 7.21274C396.97 7.23176 397.629 7.14517 398.633 6.95298C400.197 6.6498 401.36 6.32805 402.122 5.98772C402.42 5.85231 402.748 5.75709 403.107 5.70207C403.464 5.62988 403.722 5.61141 403.882 5.64665C404.043 5.69905 404.308 5.66252 404.677 5.53706C405.045 5.41159 405.408 5.23465 405.766 5.00624C406.611 4.46635 407.343 4.16395 407.961 4.09902C408.218 4.07197 408.501 3.95553 408.809 3.74968C409.134 3.54203 409.387 3.31586 409.57 3.07116C409.752 2.82647 409.98 2.603 410.254 2.40076C410.528 2.19852 410.767 2.08658 410.973 2.06494C411.179 2.0433 411.396 1.95981 411.624 1.81445C411.851 1.6691 412.033 1.50251 412.17 1.3147Z" fill="#D6C6B6"/>
<path d="M366.754 9.15852C367.588 8.18608 368.208 7.56578 368.614 7.29764C369.019 7.0295 369.542 6.88781 370.183 6.87256C370.754 6.86452 371.159 6.91741 371.396 7.03123C371.634 7.14505 371.796 7.37084 371.884 7.70859C371.975 8.08066 371.974 8.315 371.88 8.41161C371.786 8.50822 371.529 8.54385 371.11 8.5185C370.796 8.49948 370.356 8.68454 369.789 9.07366C369.223 9.46278 368.725 9.92281 368.295 10.4537C367.863 10.9675 367.662 11.3616 367.691 11.6362C367.721 11.9279 367.58 12.1509 367.267 12.3053C366.806 12.5445 366.497 13.5658 366.34 15.3691C366.199 17.1707 366.2 19.9028 366.342 23.5656C366.547 28.6443 366.704 32.1233 366.815 34.0026C366.924 35.8647 367.072 37.7661 367.258 39.7067C367.457 41.5941 367.43 42.9067 367.178 43.6444C366.945 44.3975 366.455 44.6918 365.709 44.5274C365.426 44.4704 365.167 44.3155 364.932 44.0626C364.697 43.8097 364.517 43.4991 364.392 43.1306C364.287 42.7947 364.153 42.5138 363.991 42.288C363.845 42.0604 363.721 41.952 363.618 41.9629C363.498 41.9755 363.399 41.9425 363.322 41.8639C363.242 41.7682 363.194 41.6431 363.178 41.4887C363.156 41.2828 362.367 39.8739 360.808 37.2621C359.265 34.6313 358.147 32.8232 357.454 31.8379C357.146 31.3845 356.976 31.0034 356.943 30.6945C356.911 30.3857 356.651 29.8059 356.162 28.9552C355.372 27.5463 354.853 26.5687 354.605 26.0223C354.355 25.4587 354.206 24.9539 354.159 24.5078C354.046 23.4269 353.842 23.5523 353.548 24.8843C353.127 26.8194 352.71 30.2807 352.298 35.2682C352.235 35.9861 352.146 36.6286 352.032 37.1957C351.916 37.7456 351.802 38.0612 351.689 38.1425C351.594 38.2219 351.497 38.4576 351.399 38.8495C351.319 39.2396 351.268 39.6613 351.246 40.1146C351.222 40.5508 351.137 41.0542 350.988 41.6249C350.84 42.1956 350.679 42.6462 350.506 42.9767C350.069 43.7686 349.868 44.3361 349.904 44.6793C349.942 45.0396 349.607 45.734 348.9 46.7625C348.193 47.7909 347.685 48.3214 347.376 48.3538C347.102 48.3827 346.902 48.0567 346.779 47.3758C346.657 46.712 346.728 46.3142 346.992 46.1824C347.189 46.075 347.526 45.1548 348.003 43.422C348.478 41.672 348.742 40.3865 348.794 39.5657C348.829 39.2324 348.886 38.9489 348.965 38.715C349.045 38.4811 349.127 38.3597 349.213 38.3507C349.316 38.3399 349.414 38.1994 349.507 37.9295C349.598 37.6423 349.658 37.3064 349.687 36.9217C349.781 35.9925 349.918 35.2407 350.101 34.6664C350.299 34.0731 350.384 32.8238 350.357 30.9184C350.345 30.139 350.397 29.3096 350.512 28.4301C350.643 27.5315 350.797 26.8475 350.973 26.378C351.19 25.8001 351.339 25.2379 351.42 24.6916C351.517 24.1263 351.522 23.6748 351.434 23.337C351.364 22.9975 351.217 22.8394 350.994 22.8629C350.891 22.8737 350.735 22.465 350.527 21.6369C350.334 20.7898 350.149 19.777 349.973 18.5985C349.55 15.7286 349.181 13.703 348.866 12.5218C348.613 11.5943 348.604 11.0141 348.839 10.7812C349.073 10.5311 349.554 10.6454 350.281 11.1241C350.689 11.3761 351.204 12.1546 351.827 13.4596C352.467 14.7628 352.826 15.7833 352.904 16.5211C352.972 17.1731 353.143 17.5628 353.417 17.6902C353.527 17.748 353.675 18.0013 353.861 18.4502C354.047 18.899 354.213 19.402 354.358 19.9592C354.503 20.5164 354.66 21.0203 354.829 21.471C355.013 21.9027 355.152 22.1483 355.245 22.2079C355.501 22.3371 355.654 22.6333 355.702 23.0966C355.751 23.5599 356.102 24.3383 356.755 25.432C357.406 26.5086 358.048 27.7508 358.682 29.1587C358.952 29.7548 359.237 30.3147 359.535 30.8385C359.85 31.3605 360.102 31.6983 360.292 31.8519C360.73 32.2222 360.979 32.699 361.041 33.2824C361.066 33.5226 361.241 33.9552 361.567 34.5802C361.893 35.2051 362.271 35.8247 362.699 36.4388C363.823 38.0554 364.427 38.8506 364.511 38.8245C364.563 38.8191 364.492 38.5576 364.299 38.0401C364.2 37.7557 364.118 37.1484 364.055 36.2182C364.008 35.2691 363.988 34.2563 363.996 33.1799C364.04 30.6252 363.977 27.3011 363.807 23.2076C363.676 20.4804 363.682 18.3027 363.823 16.6745C363.964 15.0464 364.252 13.663 364.688 12.5243C365.138 11.3667 365.827 10.2447 366.754 9.15852Z" fill="#D6C6B6"/>
<path d="M312.778 9.83544C312.768 9.73249 312.818 9.63181 312.929 9.5334C313.04 9.43498 313.181 9.37676 313.353 9.35872C313.524 9.34069 313.677 9.39399 313.812 9.51864C313.962 9.62431 314.045 9.75437 314.061 9.90879C314.106 10.3377 314.264 10.5206 314.535 10.4575C314.823 10.3925 315.073 10.132 315.286 9.676C315.425 9.34912 315.562 9.16988 315.698 9.1383C315.848 9.08775 316.09 9.15778 316.422 9.34837C316.958 9.65639 317.557 9.9143 318.221 10.1221C318.491 10.2152 318.729 10.3376 318.936 10.4893C319.141 10.6239 319.25 10.7512 319.263 10.8713C319.273 10.9743 319.343 11.0624 319.472 11.1355C319.619 11.2069 319.778 11.2335 319.949 11.2155C320.121 11.1975 320.274 11.2508 320.408 11.3754C320.543 11.5001 320.622 11.6739 320.645 11.897C320.667 12.1029 320.812 12.3219 321.079 12.554C321.361 12.7672 321.7 12.9397 322.096 13.0716C322.976 13.3607 323.929 13.9284 324.955 14.7747C325.981 15.6211 326.709 16.438 327.138 17.2255C327.632 18.1277 327.957 19.5681 328.113 21.5467C328.286 23.5235 328.183 24.7746 327.805 25.3001C327.425 25.8085 327.244 26.1485 327.262 26.32C327.28 26.4916 326.844 27.1359 325.955 28.2528C325.587 28.7079 325.284 29.13 325.048 29.5192C324.826 29.8894 324.746 30.1147 324.806 30.1951C325.646 31.5814 326.249 32.5328 326.616 33.0494C326.98 33.5489 327.282 33.8555 327.519 33.9693C327.683 34.0389 327.827 34.1712 327.951 34.3663C328.076 34.5613 328.149 34.7618 328.17 34.9677C328.223 35.4653 328.484 35.967 328.953 36.4728C329.148 36.6778 329.333 37.0314 329.507 37.5335C329.679 38.0184 329.799 38.5002 329.867 38.9789C329.945 39.7167 330.088 40.2567 330.298 40.599C330.505 40.9241 330.923 41.2705 331.552 41.6381C331.96 41.8901 332.588 42.1711 333.436 42.481C334.282 42.7737 335.105 43.0167 335.906 43.2101C337.24 43.521 338.201 43.6715 338.79 43.6616C339.396 43.65 340.339 43.4641 341.62 43.104C343.507 42.576 344.518 42.3658 344.65 42.4732C344.707 42.5193 344.646 42.6818 344.467 42.9609C344.306 43.2381 344.07 43.5577 343.761 43.9198C343.034 44.7595 342.174 45.2402 341.181 45.362C340.206 45.4991 339.551 45.6981 339.214 45.959C339.053 46.08 338.823 46.1215 338.524 46.0835C338.227 46.0627 337.922 45.9647 337.609 45.7895C337.316 45.6467 336.965 45.5275 336.556 45.4317C336.164 45.3341 335.831 45.2997 335.557 45.3286C335.299 45.3556 334.869 45.3055 334.266 45.178C333.68 45.0488 333.116 44.8826 332.574 44.6793C331.258 44.2104 330.132 43.4006 329.196 42.25C328.26 41.0994 327.65 39.7583 327.368 38.2267C327.236 37.6334 327.096 37.1191 326.946 36.6838C326.796 36.2485 326.678 36.0353 326.592 36.0444C326.403 36.0642 326.06 35.7707 325.563 35.1637C325.083 34.555 324.678 33.921 324.348 33.2617C324.13 32.8337 323.447 32.4457 322.3 32.0978C321.153 31.75 320.117 31.6248 319.19 31.7221C318.778 31.7654 318.414 31.769 318.098 31.7328C317.781 31.6795 317.616 31.6013 317.605 31.4984C317.577 31.2239 317.196 31.2378 316.465 31.5402C315.583 31.8931 314.798 31.9409 314.112 31.6834C313.441 31.407 312.95 30.8601 312.638 30.0428C312.588 29.892 312.556 29.9213 312.544 30.1308C312.507 30.6031 312.553 31.5436 312.684 32.9524C312.808 34.2925 312.933 35.2421 313.062 35.8011C313.205 36.3412 313.38 36.6004 313.586 36.5787C313.86 36.5499 314.066 37.1093 314.204 38.2571C314.358 39.3859 314.39 40.5969 314.3 41.8901C314.228 43.1814 314.055 44.0149 313.782 44.3905C313.325 44.9937 313.034 45.6054 312.908 46.2258C312.604 47.7844 311.92 48.6282 310.858 48.7572C309.796 48.8861 308.389 48.2881 306.636 46.9631L303.982 44.9782L303.454 41.4427C303.302 40.4873 303.117 39.5526 302.899 38.6387C302.68 37.7076 302.494 37.094 302.341 36.7977C302.189 36.5015 302.076 36.1665 302.002 35.7926C301.945 35.4169 301.94 35.1225 301.987 34.9094C302.142 34.4074 302.096 32.8162 301.849 30.1359C301.687 28.2621 301.692 26.6569 301.864 25.3205C302.053 23.9822 302.353 23.2914 302.765 23.2481C302.868 23.2373 302.939 23.1691 302.977 23.0436C303.032 22.8991 303.05 22.7411 303.032 22.5695C303.014 22.3979 303.041 22.2476 303.114 22.1185C303.188 21.9893 303.276 21.9194 303.379 21.9085C303.482 21.8977 303.583 21.7916 303.683 21.5903C303.799 21.3699 303.879 21.1361 303.922 20.8886C304.027 20.2358 304.17 19.6136 304.35 19.0221C304.531 18.4307 304.675 17.7389 304.783 16.947C304.815 16.5966 304.935 16.2544 305.143 15.9203C305.368 15.5844 305.619 15.3325 305.896 15.1646C306.158 15.0156 306.382 14.8359 306.568 14.6256C306.753 14.398 306.837 14.207 306.82 14.0526C306.806 13.9154 306.908 13.7311 307.127 13.5C307.361 13.2499 307.641 13.0296 307.968 12.8391C308.769 12.3733 309.16 12.046 309.14 11.8572C309.133 11.7886 309.302 11.6667 309.648 11.4916C310.009 11.2975 310.449 11.1124 310.969 10.9364C311.486 10.7432 311.916 10.5419 312.258 10.3325C312.618 10.1212 312.791 9.95555 312.778 9.83544ZM317.356 13.2835C315.668 12.7324 314.101 12.5935 312.655 12.8669C311.224 13.1214 309.95 13.793 308.833 14.8819C307.731 15.9519 306.922 17.3293 306.405 19.0143C305.917 20.6442 305.554 21.7233 305.314 22.2516C305.09 22.7608 304.858 23.0281 304.618 23.0533C304.412 23.075 304.219 24.3789 304.04 26.9652C303.861 29.5515 303.845 31.2185 303.993 31.9663C304.134 32.6454 304.205 33.2364 304.206 33.7394C304.222 34.2235 304.168 34.8624 304.043 35.6561C303.94 36.3262 303.912 36.8061 303.96 37.096C304.023 37.3669 304.164 37.5516 304.383 37.6501C304.782 37.8163 304.977 38.5157 304.967 39.7484C304.958 40.9811 305.119 41.6841 305.449 41.8575C305.596 41.9289 305.725 42.0888 305.838 42.3371C305.951 42.5855 306.023 42.8555 306.053 43.1472C306.124 43.8163 306.513 44.4693 307.222 45.1061C307.929 45.7257 308.592 46.0116 309.212 45.9638C309.641 45.9187 310.083 45.586 310.538 44.9657C311.01 44.3436 311.266 43.7268 311.306 43.1155C311.337 42.748 311.444 41.7045 311.628 39.9851C311.734 39.0198 311.761 38.2017 311.708 37.5307C311.655 36.8597 311.5 36.13 311.244 35.3416C311.045 34.7727 310.819 33.773 310.564 32.3425C310.327 30.9103 310.123 29.4658 309.953 28.0092C309.55 24.5125 309.267 22.1483 309.103 20.9165C308.939 19.6848 309.022 18.9908 309.353 18.8346C309.681 18.6613 309.89 18.995 309.978 19.8357C310.016 20.1961 310.111 20.5158 310.261 20.7948C310.41 21.0567 310.566 21.2139 310.727 21.2663C311.064 21.335 311.386 21.8389 311.693 22.7781C312 23.7173 312.253 24.9744 312.453 26.5494L312.739 28.523L314.691 28.526C315.99 28.5109 317.269 28.4632 318.527 28.383C319.783 28.2857 320.512 28.2872 320.713 28.3874C320.97 28.5166 321.424 28.3821 322.076 27.984C322.728 27.5859 323.32 27.1073 323.851 26.5484C324.382 25.9895 324.631 25.5557 324.599 25.2468C324.586 25.1267 324.64 24.9822 324.761 24.8134C324.898 24.6256 325.062 24.4608 325.256 24.319C325.529 24.1168 325.687 23.7967 325.727 23.3587C325.766 22.9036 325.714 22.0764 325.571 20.8771C325.341 19.1839 324.97 17.9652 324.458 17.221C323.946 16.4768 323.009 15.812 321.646 15.2266C320.447 14.7108 319.77 14.3829 319.617 14.2429C319.462 14.0858 318.708 13.766 317.356 13.2835Z" fill="#D6C6B6"/>
<path d="M262.391 17.9156C262.491 17.5409 262.932 17.2863 263.716 17.1519C264.517 17.0156 265.039 17.1083 265.281 17.4298C265.502 17.7188 265.35 18.0904 264.826 18.5445C264.299 18.9815 263.701 19.2352 263.032 19.3055C262.244 19.4056 261.873 19.6702 261.918 20.0991C261.938 20.2878 261.897 20.4743 261.795 20.6585C261.693 20.8427 261.56 20.9782 261.395 21.0648C261.246 21.1325 261.093 21.3221 260.935 21.6337C260.792 21.9262 260.703 22.2305 260.666 22.5466C260.604 23.1083 260.386 23.5909 260.012 23.9945C259.653 24.3792 259.341 24.464 259.076 24.249C258.924 24.1262 258.868 23.4295 258.908 22.1589C258.963 20.8694 259.257 20.11 259.788 19.8807C260.004 19.7886 260.182 19.6744 260.324 19.5381C260.481 19.3828 260.554 19.2536 260.544 19.1507C260.531 19.0306 260.607 18.9272 260.771 18.8405C260.934 18.7367 261.127 18.6731 261.35 18.6496C261.59 18.6244 261.807 18.5409 262 18.3991C262.209 18.2384 262.339 18.0773 262.391 17.9156ZM265.8 16.6727C265.767 16.3638 265.801 16.1087 265.901 15.9074C266.002 15.706 266.146 15.5954 266.335 15.5756C266.507 15.5575 266.657 15.5851 266.786 15.6583C266.915 15.7314 266.986 15.8281 266.999 15.9482C267.009 16.0511 267.124 16.2299 267.341 16.4846C267.557 16.7222 267.799 16.957 268.066 17.1891C269.069 17.9858 269.868 18.8212 270.463 19.6954C271.073 20.5507 271.417 21.3472 271.495 22.085C271.538 22.4968 271.655 22.9443 271.844 23.4275C272.034 23.9106 272.238 24.2881 272.458 24.56C272.756 24.9276 272.97 25.3909 273.098 25.9499C273.224 26.4917 273.303 27.3248 273.335 28.4491C273.368 29.2609 273.436 29.991 273.539 30.6394C273.64 31.2707 273.747 31.6324 273.861 31.7245C274.183 31.9855 274.501 33.765 274.813 37.063C275.124 40.3609 275.153 42.2054 274.9 42.5964C274.736 42.8564 274.668 43.037 274.696 43.1382C274.724 43.2393 274.872 43.3278 275.141 43.4037C275.39 43.4643 275.582 43.7217 275.716 44.1759C275.851 44.6302 275.979 45.4407 276.102 46.6074C276.268 48.186 276.74 49.8711 277.518 51.6629C278.315 53.47 279.135 54.7543 279.979 55.5157C280.456 55.9338 281.151 56.1037 282.062 56.0253C282.975 55.964 283.589 55.7 283.904 55.2332C284.023 55.0472 284.179 54.8747 284.37 54.7158C284.564 54.5741 284.737 54.4951 284.892 54.4788C285.149 54.4518 285.557 54.1227 286.115 53.4916C286.69 52.8586 287.711 51.5891 289.176 49.683C289.696 49.0211 290.019 48.4667 290.146 48.0197C290.379 47.2666 290.547 45.1499 290.649 41.6696C290.652 41.201 290.679 40.3047 290.731 38.9808C290.766 37.3292 290.545 35.314 290.07 32.9353C289.609 30.5377 289.159 29.1451 288.72 28.7576C288.606 28.6655 288.499 28.4772 288.4 28.1927C288.301 27.9082 288.236 27.6202 288.205 27.3285C288.139 26.6936 287.619 25.213 286.645 22.8866C285.672 20.5602 285.012 19.2245 284.663 18.8795C284.39 18.5959 284.157 18.022 283.962 17.1577C283.779 16.4136 283.863 15.893 284.214 15.596C284.58 15.28 285.091 15.2782 285.749 15.5908C286.315 15.8609 286.804 15.9743 287.216 15.931C287.387 15.913 287.539 15.9577 287.672 16.0652C287.822 16.1709 287.906 16.3095 287.924 16.4811C287.949 16.7213 288.059 16.8572 288.253 16.8889C288.445 16.9033 288.803 16.8397 289.326 16.698C290.217 16.4309 290.828 16.1325 291.157 15.803C291.473 15.5095 292.424 15.2275 294.009 14.9568C295.592 14.669 296.761 14.5721 297.517 14.6661C297.976 14.7393 298.209 14.8103 298.216 14.8789C298.244 14.98 297.842 15.2825 297.01 15.7863C296.569 16.0409 296.056 16.2769 295.471 16.4945C294.887 16.712 294.407 16.8492 294.032 16.906C293.124 17.0188 292.401 17.2422 291.864 17.5762L290.255 18.6041C290.027 18.7494 289.744 18.8659 289.407 18.9534C289.084 19.022 288.808 19.0337 288.578 18.9885C288.277 18.9334 288.062 18.9473 287.932 19.0304C287.819 19.1116 287.776 19.2809 287.803 19.5383C287.864 20.1217 288.135 20.9692 288.617 22.081C289.113 23.1737 289.535 23.884 289.881 24.2119C290.131 24.4458 290.313 24.687 290.426 24.9353C290.556 25.1819 290.595 25.3945 290.545 25.5733C290.51 25.7332 290.389 25.8239 290.183 25.8455C290.063 25.8582 289.966 25.929 289.893 26.0582C289.837 26.1855 289.818 26.3349 289.836 26.5065C289.854 26.6781 289.922 26.8271 290.039 26.9536C290.172 27.061 290.316 27.1067 290.47 27.0904C290.865 27.049 291.138 27.2544 291.29 27.7069C291.458 28.1575 291.594 29.1148 291.695 30.5786C291.817 32.2312 292.096 33.2341 292.532 33.5872C292.873 33.8636 293.186 35.2706 293.47 37.8082C293.77 40.3268 293.775 41.6968 293.486 41.918C293.405 41.9785 293.354 42.2354 293.333 42.6887C293.311 43.142 293.329 43.6432 293.387 44.1923C293.473 45.0158 293.436 45.7396 293.276 46.3636C293.115 46.9704 292.73 47.8522 292.123 49.0089C291.717 49.7629 291.257 50.5051 290.744 51.2356C290.25 51.9814 289.853 52.4916 289.552 52.766C289.234 53.0423 288.969 53.3304 288.758 53.6301C288.565 53.9453 288.478 54.1886 288.496 54.3602C288.514 54.5318 288.464 54.7106 288.345 54.8966C288.242 55.0808 288.108 55.2076 287.942 55.2772C287.795 55.362 287.661 55.4889 287.54 55.6577C287.436 55.8248 287.392 55.9855 287.408 56.1399C287.425 56.2943 287.359 56.414 287.212 56.4989C287.065 56.5837 286.859 56.6054 286.594 56.5638C286.366 56.5357 286.108 56.5628 285.822 56.6449C285.538 56.7442 285.317 56.8715 285.16 57.0268C284.642 57.5496 283.798 57.9333 282.626 58.1778C281.474 58.4377 280.614 58.424 280.046 58.1367C279.239 57.7185 278.557 57.261 278.002 56.7643C277.449 56.2847 277.153 55.8647 277.115 55.5044C277.099 55.3499 277.049 55.2077 276.966 55.0777C276.885 54.9648 276.793 54.9137 276.69 54.9246C276.072 54.9895 275.293 53.3539 274.353 50.018C273.429 46.6802 272.707 42.9396 272.184 38.7964C271.816 35.9554 271.339 32.7355 270.753 29.1368C270.184 25.5363 269.785 23.3143 269.558 22.4708C269.332 21.6445 268.891 20.7454 268.233 19.7736C267.574 18.7847 267.008 18.185 266.535 17.9745C266.372 17.905 266.215 17.7392 266.066 17.4773C265.917 17.2154 265.829 16.9472 265.8 16.6727Z" fill="#D6C6B6"/>
<path d="M234.625 24.5812C234.809 24.3536 235.774 24.2955 237.521 24.4069C239.282 24.4993 240.332 24.6665 240.67 24.9086C241.157 25.2563 241.487 25.4212 241.659 25.4031C241.882 25.3797 242.52 25.8417 243.574 26.7892C244.626 27.7195 245.336 28.4515 245.704 28.9852C245.889 29.2607 246.088 29.5 246.3 29.7033C246.51 29.8893 246.667 29.9769 246.77 29.9661C246.856 29.9571 246.939 30.009 247.021 30.1219C247.1 30.2177 247.149 30.3513 247.167 30.5229C247.183 30.6773 247.263 30.8598 247.407 31.0702C247.567 31.2788 247.742 31.4513 247.929 31.5877C248.358 31.8722 248.562 32.5708 248.54 33.6833C248.533 34.7769 248.317 35.7711 247.891 36.666C247.578 37.3233 246.911 38.2434 245.891 39.4263C244.886 40.5901 243.914 41.577 242.975 42.3869C242.022 43.2157 241.644 43.8279 241.841 44.2235C241.949 44.4204 242.225 44.4954 242.672 44.4485C242.912 44.4232 243.218 44.4517 243.591 44.534C243.964 44.6162 244.288 44.721 244.561 44.8484C245.22 45.1781 246.049 45.3859 247.047 45.4719C247.923 45.5533 248.854 45.7503 249.841 46.0629C250.845 46.3737 251.447 46.6573 251.648 46.9138C251.746 47.0249 251.946 47.108 252.247 47.1632C252.545 47.2011 252.867 47.2021 253.21 47.166C253.57 47.1282 253.902 47.1539 254.207 47.2434C254.511 47.3328 254.707 47.4683 254.796 47.6499C254.865 47.816 254.966 47.9529 255.099 48.0603C255.249 48.166 255.367 48.2143 255.453 48.2053C255.882 48.1602 256.689 48.6652 257.876 49.7201C259.078 50.7561 259.826 51.6055 260.121 52.2684C260.456 52.9791 260.642 54.0872 260.679 55.5926C260.717 57.1151 260.582 57.8926 260.273 57.9251C260.17 57.9359 260.07 58.0506 259.971 58.2691C259.89 58.4858 259.83 58.7436 259.792 59.0425C259.678 59.7658 259.043 60.83 257.89 62.2349C256.737 63.6399 255.809 64.466 255.106 64.7133C254.369 64.9643 253.859 65.2261 253.575 65.4988C253.246 65.8283 251.794 66.1283 249.22 66.3989C246.664 66.6676 244.932 66.7021 244.027 66.5023C243.583 66.4102 243.162 66.3591 242.762 66.3491C242.362 66.3391 242.097 66.3756 241.966 66.4587C241.677 66.6799 240.722 67.0752 239.099 67.6448C237.978 68.0402 237.201 68.2432 236.769 68.254C236.338 68.2819 235.724 68.1382 234.928 67.823C233.77 67.3722 232.977 67.1693 232.548 67.2144C232.359 67.2342 232.192 67.2085 232.046 67.1371C231.916 67.0639 231.845 66.9587 231.83 66.8215C231.818 66.7013 231.681 66.6377 231.42 66.6304C231.159 66.6231 230.817 66.6678 230.393 66.7643C229.987 66.8591 229.54 66.9841 229.053 67.1393C228.584 67.2928 228.101 67.4823 227.604 67.708C227.124 67.9319 226.706 68.1581 226.348 68.3865C225.925 68.6564 225.429 68.8821 224.858 69.0635C224.306 69.2603 223.84 69.3614 223.459 69.3667L222.107 69.3787L222.99 68.3751C223.22 68.0907 223.538 67.8144 223.944 67.5463C224.349 67.2781 224.72 67.0917 225.056 66.987C225.627 66.8056 226.412 66.1939 227.413 65.1519C228.433 64.1253 228.923 63.4233 228.883 63.0458C228.858 62.8056 229.057 62.3857 229.479 61.7862C229.965 61.1279 230.438 60.0981 230.898 58.6966C231.377 57.3105 231.586 56.3258 231.524 55.7424C231.451 55.0389 231.549 53.9964 231.82 52.6148C232.09 51.216 232.198 49.4438 232.146 47.2982C232.127 45.9644 232.037 44.9417 231.876 44.23C231.731 43.5166 231.416 42.665 230.931 41.6752C230.171 40.055 229.767 39.0219 229.72 38.5758C229.671 38.1125 229.379 37.4753 228.843 36.6643C228.322 35.8344 227.847 35.2771 227.418 34.9926C227.249 34.8715 227.086 34.7239 226.929 34.5496C226.77 34.3581 226.684 34.2023 226.672 34.0822C226.657 33.9449 226.506 33.744 226.218 33.4793C225.945 33.1957 225.623 32.9347 225.251 32.6962C224.877 32.4406 224.554 32.171 224.281 31.8874C224.009 31.6038 223.865 31.3934 223.851 31.2561C223.834 31.1017 223.752 30.9802 223.604 30.8917C223.471 30.7842 223.319 30.7395 223.148 30.7575C222.976 30.7756 222.834 30.8252 222.721 30.9065C222.606 30.9706 222.553 31.0455 222.562 31.1313C222.571 31.2171 222.468 31.3841 222.251 31.6324C222.034 31.8807 221.758 32.1439 221.423 32.422C221.073 32.7191 220.795 33.0518 220.591 33.4202C220.402 33.7697 220.322 34.0816 220.351 34.3562C220.387 34.6993 220.312 34.9761 220.126 35.1865C219.938 35.3797 219.721 35.4546 219.473 35.4112C219.224 35.3507 219.023 35.1723 218.871 34.8761C218.697 34.5474 218.778 33.9143 219.113 32.977C219.447 32.0226 219.759 31.53 220.051 31.4994C220.291 31.4741 220.807 31.0209 221.6 30.1396C223.863 27.5771 226.957 25.9856 230.882 25.3649C233.254 24.9941 234.502 24.7329 234.625 24.5812ZM239.075 26.3252C238.765 26.0109 238.188 25.8893 237.346 25.9605C236.503 26.0318 234.585 26.3547 231.593 26.9295C230.54 27.1443 229.491 27.4019 228.447 27.7025C227.42 28.0012 226.702 28.2589 226.291 28.4756L224.842 29.3044L225.788 30.376C226.435 31.0886 227.169 31.8007 227.99 32.5125C228.314 32.7906 228.596 33.0819 228.836 33.3863C229.092 33.6717 229.225 33.8659 229.236 33.9688C229.263 34.2262 229.414 34.3404 229.688 34.3116C229.826 34.2972 229.934 34.3378 230.013 34.4335C230.108 34.5103 230.164 34.6259 230.18 34.7803C230.194 34.9176 230.336 35.189 230.604 35.5945C230.872 36 231.184 36.4096 231.54 36.8232C231.895 37.2369 232.259 37.8059 232.63 38.5302C232.999 39.2373 233.258 39.8866 233.407 40.4781C233.782 41.896 234.049 42.874 234.21 43.4123C234.346 43.8837 234.753 44.1271 235.431 44.1426C236.108 44.1409 236.919 43.9342 237.864 43.5225C238.81 43.1109 239.697 42.5579 240.526 41.8636C241.118 41.3851 241.618 40.9422 242.026 40.535C242.433 40.1107 242.63 39.847 242.619 39.7441C242.592 39.4867 242.716 39.3436 242.991 39.3147C243.111 39.3021 243.36 39.1111 243.737 38.7419C244.113 38.3554 244.499 37.9071 244.897 37.397C245.54 36.5834 245.927 35.9789 246.059 35.5834C246.207 35.1689 246.219 34.6298 246.098 33.966L245.682 31.7458C245.61 31.3891 244.716 30.4769 243 29.0092C241.302 27.5397 240.298 26.8212 239.99 26.8536C239.767 26.8771 239.462 26.7009 239.075 26.3252ZM242.25 46.1321C242.119 46.0418 241.655 46.0038 240.859 46.0181C240.08 46.0306 239.184 46.0901 238.171 46.1965L234.517 46.5806L234.568 49.5417C234.585 51.5176 234.486 52.8897 234.272 53.6582C234.073 54.4077 234.015 55.1771 234.098 55.9663C234.134 56.3095 234.109 56.6504 234.023 56.989C233.938 57.3276 233.816 57.5746 233.659 57.7299C233.502 57.8852 233.366 58.0816 233.252 58.3191C233.156 58.5548 233.117 58.7584 233.135 58.93C233.153 59.1015 233.11 59.2709 233.006 59.4379C232.919 59.6032 232.794 59.7291 232.629 59.8158C232.48 59.8835 232.332 60.0379 232.183 60.279C232.054 60.5354 231.969 60.7959 231.927 61.0605C231.838 61.6944 231.495 62.5631 230.9 63.6665L230.033 65.319L231.443 65.1187C231.855 65.0754 232.272 65.0836 232.695 65.1433C233.117 65.2029 233.441 65.3078 233.664 65.4577C233.999 65.6654 235.74 65.6472 238.889 65.403C242.038 65.1587 245.218 64.7985 248.429 64.3222C251.66 63.8612 253.519 63.475 254.006 63.1636C255.452 62.2309 256.499 61.1321 257.147 59.867C257.812 58.6002 258.147 57.0036 258.153 55.0775L258.138 52.711L255.976 50.9606C255.371 50.4864 254.8 50.0867 254.263 49.7615C253.726 49.4364 253.38 49.2819 253.226 49.2981C253.071 49.3143 252.914 49.3048 252.754 49.2696C252.61 49.2154 252.517 49.1558 252.475 49.0907C252.389 48.9264 251.612 48.635 250.145 48.2167C248.696 47.7965 247.004 47.3759 245.069 46.9548C243.472 46.6195 242.533 46.3453 242.25 46.1321Z" fill="#D6C6B6"/>
<path d="M172.94 29.3991C173.175 29.1662 173.412 29.0285 173.651 28.9861C173.887 28.9265 174.063 28.9428 174.176 29.0349C174.307 29.1253 174.367 29.2838 174.356 29.5104C174.346 29.7371 174.241 29.9822 174.043 30.2459C173.755 30.6405 173.633 31.2085 173.676 31.9499C173.719 32.6913 173.964 34.357 174.409 36.947C174.431 37.1529 174.611 37.4636 174.95 37.879C175.306 38.2927 175.709 38.6666 176.161 39.0008C176.862 39.5689 177.392 39.9036 177.749 40.0048C178.124 40.1042 178.649 40.0663 179.325 39.8912C180.338 39.6286 181.479 39.3439 182.748 39.037C184.034 38.7284 185.138 38.0138 186.061 36.8933C186.985 35.7727 187.434 34.6065 187.411 33.3947C187.383 32.9639 187.321 32.5367 187.224 32.1132C187.128 31.6897 187.021 31.4147 186.904 31.2882C186.669 31.0353 186.52 30.6086 186.457 30.0081C186.394 29.4076 186.421 28.8409 186.538 28.3081C186.656 27.7754 186.85 27.4774 187.121 27.4142C187.674 27.2346 188.136 27.585 188.506 28.4656C188.892 29.3271 189.214 30.8285 189.474 32.9696C189.83 35.6906 190.118 37.1955 190.339 37.4845C190.56 37.7735 191.074 39.7752 191.881 43.4896C192.703 47.1849 193.354 49.6666 193.834 50.9346C194.172 51.8358 194.427 52.3642 194.6 52.5195C194.772 52.6749 195.102 52.6749 195.588 52.5197C196.239 52.2778 197.101 51.8056 198.172 51.1032C199.241 50.3836 200.034 49.7539 200.549 49.214C201.063 48.6569 201.406 48.3693 201.578 48.3513C201.904 48.317 202.208 47.7472 202.491 46.6419C202.789 45.5177 202.916 44.4201 202.873 43.3491C202.776 41.4337 202.941 40.4449 203.368 40.3826C203.746 40.343 204.126 41.0749 204.51 42.5786C204.632 43.0861 204.743 43.6469 204.843 44.261C205.08 45.6933 205.17 46.6293 205.112 47.069C205.054 47.5088 204.766 48.0682 204.247 48.7472C203.258 50.0655 201.726 51.493 199.649 53.0296C197.588 54.5473 196.264 55.233 195.676 55.0866C195.427 55.026 195.405 56.2253 195.612 58.6843C195.676 59.4582 195.762 60.3599 195.87 61.3894C196.171 64.2548 196.32 66.1648 196.316 67.1193C196.312 68.0738 196.145 69.0369 195.813 70.0085C195.446 71.1399 194.917 72.2104 194.225 73.2199C193.55 74.2276 192.999 74.7626 192.572 74.8248C192.263 74.8573 191.72 75.1312 190.941 75.6468C190.325 76.0584 189.66 76.3279 188.945 76.4551C188.229 76.5823 187.123 76.6205 185.626 76.5697C185.051 76.5435 184.575 76.472 184.198 76.3555C183.822 76.2389 183.625 76.1035 183.609 75.949C183.595 75.8118 183.476 75.6767 183.254 75.544C183.032 75.4112 182.762 75.3181 182.444 75.2648C181.723 75.1671 181.094 74.6347 180.559 73.6675C180.112 72.8817 179.666 72.2694 179.221 71.8305C178.778 71.4087 178.384 71.2158 178.041 71.2519C177.904 71.2663 177.799 71.26 177.727 71.2329C177.655 71.2058 177.613 71.1407 177.602 71.0378C177.609 70.933 177.637 70.7913 177.688 70.6125C177.757 70.449 177.863 70.221 178.006 69.9285C178.161 69.5826 178.23 69.3325 178.213 69.1781C178.214 69.0218 178.105 68.8859 177.884 68.7703C177.539 68.6158 177.27 67.7073 177.077 66.0448C176.904 64.3976 176.952 63.3691 177.222 62.9591C177.46 62.5871 177.469 62.2566 177.247 61.9676C177.149 61.8565 177.137 61.6583 177.211 61.3729C177.302 61.0858 177.446 60.8018 177.642 60.521C178.143 59.8438 178.45 59.213 178.562 58.6288C178.635 58.1701 179.017 57.6789 179.708 57.1552C180.397 56.6144 181.629 55.8691 183.402 54.9194C184.255 54.4481 185.037 54.1317 185.749 53.9702C186.458 53.7915 187.511 53.6549 188.906 53.5603L192.294 53.3603L192.129 51.7904C192.082 51.3443 191.999 50.9713 191.881 50.6715C191.78 50.3698 191.67 50.2253 191.549 50.2379C191.429 50.2506 191.296 49.9697 191.149 49.3953C191.017 48.802 190.902 48.0421 190.805 47.1156C190.711 46.2233 190.582 45.4043 190.417 44.6583C190.25 43.8952 190.104 43.4161 189.979 43.2211C189.592 42.672 189.114 40.7619 188.544 37.491C188.504 37.2698 188.376 37.1271 188.161 37.0629C187.963 36.997 187.758 37.0272 187.546 37.1536C187.334 37.28 187.188 37.4601 187.108 37.694C187.023 38.0326 186.559 38.489 185.717 39.0632C184.892 39.6356 184.249 39.9462 183.785 39.9949C183.631 40.0111 183.509 40.0933 183.421 40.2413C183.331 40.3723 183.295 40.5321 183.315 40.7208C183.346 41.0125 183.21 41.2089 182.909 41.31C182.622 41.3921 181.97 41.4521 180.95 41.4899C180.275 41.5087 179.569 41.4702 178.83 41.3744C178.091 41.2786 177.541 41.1543 177.178 41.0016C176.286 40.6096 175.583 40.3539 175.067 40.2346C174.552 40.1153 174.254 39.6782 174.175 38.9233C174.142 38.6144 174.067 38.3101 173.949 38.0102C173.829 37.6933 173.693 37.4733 173.541 37.3505C173.389 37.2277 173.223 36.8028 173.043 36.0758C172.862 35.3488 172.711 34.4886 172.59 33.4953C172.417 32.0215 172.35 31.0484 172.387 30.5762C172.439 30.0849 172.624 29.6926 172.94 29.3991ZM192.514 56.1995C191.736 56.0558 190.477 56.0493 188.739 56.18C187.018 56.3088 185.909 56.4861 185.412 56.7118C185.017 56.9095 184.28 57.3252 183.201 57.959C182.138 58.5738 181.366 58.9846 180.885 59.1913C180.239 59.4847 179.802 60.2766 179.573 61.567C179.343 62.8402 179.352 64.496 179.601 66.5342C179.791 68.1796 179.989 69.321 180.195 69.9586C180.403 70.6133 180.812 71.3684 181.422 72.2236C182.338 73.5151 183.214 74.2558 184.049 74.4455C185.027 74.6723 186.233 74.6757 187.667 74.4556C189.103 74.2526 190.203 73.9029 190.966 73.4063C191.894 72.8231 192.691 71.9066 193.357 70.6569C194.024 69.4072 194.345 68.2545 194.321 67.1989C194.288 66.0574 194.334 65.3413 194.459 65.0506C194.543 64.851 194.484 63.8856 194.285 62.1545C194.086 60.4233 193.926 59.564 193.806 59.5767C193.703 59.5875 193.615 59.4145 193.543 59.0578C193.471 58.7011 193.438 58.3056 193.445 57.8712C193.451 57.4369 193.499 57.1542 193.59 57.0233C193.724 56.8183 193.699 56.6562 193.513 56.537C193.344 56.4159 193.011 56.3035 192.514 56.1995Z" fill="#D6C6B6"/>
<path d="M156.84 32.4444C158.971 31.4225 160.466 31.2913 161.327 32.0509C161.922 32.5955 162.333 33.2896 162.56 34.133C162.706 34.6902 162.649 34.9824 162.392 35.0094C162.272 35.022 162.168 35.1024 162.079 35.2505C162.006 35.3796 161.978 35.53 161.996 35.7015C162.013 35.856 161.985 36.0063 161.914 36.1526C161.841 36.2817 161.744 36.3526 161.624 36.3652C161.521 36.376 161.434 36.4546 161.362 36.6009C161.289 36.73 161.262 36.8803 161.28 37.0519C161.298 37.2235 161.244 37.3766 161.12 37.5111C161.012 37.6438 160.873 37.7192 160.701 37.7372C160.547 37.7535 160.405 37.8031 160.274 37.8862C160.162 37.9674 160.11 38.051 160.119 38.1368C160.128 38.2225 159.923 38.4176 159.504 38.7218C159.102 39.0243 158.607 39.3538 158.02 39.7104C157.318 40.1311 156.773 40.4661 156.382 40.7153C155.992 40.9644 155.614 41.247 155.248 41.563C154.898 41.8601 154.647 42.112 154.495 42.3188C154.342 42.5084 154.197 42.7838 154.062 43.145C153.926 43.5062 153.842 43.862 153.809 44.2123C153.775 44.5456 153.736 45.0007 153.693 45.5777C153.569 47.5337 153.323 49.2422 152.956 50.7033C152.588 52.1472 152.35 54.011 152.243 56.2948C152.203 57.2358 152.12 58.1812 151.995 59.1312C151.867 60.064 151.737 60.7196 151.603 61.098C151.384 61.6587 151.281 62.0773 151.293 62.3536C151.321 62.6281 151.476 62.9415 151.756 63.2937C151.954 63.5331 152.149 63.7381 152.341 63.9088C152.53 64.0624 152.668 64.1346 152.754 64.1256C152.96 64.104 153.357 64.3311 153.944 64.8071C154.532 65.2831 155.781 66.0279 157.692 67.0414L160.558 68.5617L164.985 68.0964C166.991 67.8683 168.329 67.6495 169.001 67.4401C169.692 67.246 170.515 66.8213 171.47 66.1658C172.263 65.6313 172.844 65.2928 173.21 65.1502C173.594 65.0057 173.899 65.0171 174.125 65.1842C174.299 65.3567 174.396 65.5373 174.416 65.726C174.436 65.9148 174.321 66.1437 174.072 66.4128C173.841 66.6972 173.492 67.0028 173.023 67.3296C172.573 67.6718 171.967 68.0912 171.204 68.5877C170.096 69.2766 169.182 69.737 168.46 69.969C167.741 70.2181 166.628 70.4392 165.121 70.6322C163.648 70.8044 162.544 70.8684 161.811 70.824C161.096 70.795 160.262 70.6138 159.308 70.2804C158.695 70.0672 158.16 69.8459 157.703 69.6164C157.245 69.387 157.011 69.2294 157.002 69.1436C156.977 68.9034 156.836 68.7968 156.578 68.8238C156.475 68.8347 156.164 68.6766 155.644 68.3496C155.141 68.0208 154.588 67.6279 153.985 67.1709C152.137 65.7691 151.086 65.3417 150.831 65.889C150.762 66.0524 150.744 66.2971 150.779 66.6231C150.829 67.1035 150.665 67.8494 150.285 68.8608C149.907 69.8893 149.404 70.9571 148.774 72.0641C148.408 72.7097 147.846 73.2198 147.088 73.5945C146.346 73.9673 145.574 74.1266 144.77 74.0723C143.985 74.0333 143.352 73.7876 142.871 73.3351C141.367 71.8972 140.791 70.1362 141.145 68.052C141.408 66.4284 142.078 65.1349 143.157 64.1715C144.251 63.1892 145.64 62.6268 147.325 62.4844C147.79 62.4528 148.215 62.3734 148.601 62.2462C149.002 62.0999 149.247 61.9528 149.335 61.8047C149.558 61.4516 149.767 60.545 149.96 59.0848C150.154 57.6246 150.273 56.1202 150.319 54.5715C150.322 53.9466 150.369 53.3172 150.458 52.6832C150.563 52.0304 150.664 51.5861 150.761 51.3504C151.042 50.731 151.341 49.199 151.657 46.7545C151.97 44.2929 152.083 42.6417 151.995 41.8009C151.955 41.4234 151.953 41.0767 151.99 40.7606C152.041 40.4256 152.115 40.2184 152.21 40.1389C152.434 39.9592 152.605 39.4382 152.723 38.5758C152.771 38.2065 152.842 37.8954 152.937 37.6426C153.032 37.3897 153.122 37.2588 153.208 37.2498C153.311 37.239 153.405 37.1424 153.49 36.9599C153.59 36.7586 153.668 36.5161 153.725 36.2326C153.852 35.456 154.193 34.735 154.747 34.0695C155.302 33.4041 155.999 32.8623 156.84 32.4444ZM160.786 34.0854C160.545 33.6076 159.918 33.5 158.904 33.7627C157.889 34.0081 156.969 34.4952 156.143 35.2238C155.699 35.6175 155.31 36.3696 154.975 37.4803C154.641 38.591 154.598 39.2548 154.846 39.4715C154.939 39.5311 155.085 39.5158 155.284 39.4255C155.498 39.3163 155.698 39.1565 155.884 38.9461C156.07 38.7357 156.293 38.5475 156.553 38.3814C156.831 38.2134 157.064 38.1196 157.252 38.0997C157.681 38.0546 158.046 37.8082 158.346 37.3603C158.465 37.1743 158.604 37.0122 158.763 36.8741C158.92 36.7188 159.05 36.6357 159.153 36.6249C159.513 36.587 159.909 36.2245 160.34 35.5374C160.788 34.8484 160.937 34.3644 160.786 34.0854ZM149.118 65.6787C149.146 65.4503 149.163 65.2837 149.17 65.1789C149.193 65.0723 149.181 64.9608 149.134 64.8443C149.089 64.745 149.04 64.6894 148.987 64.6777C148.949 64.647 148.834 64.6244 148.641 64.6099C148.449 64.5954 148.267 64.5972 148.095 64.6152C147.924 64.6333 147.641 64.663 147.246 64.7045C145.736 64.8632 144.664 65.3055 144.029 66.0315C143.396 66.7746 143.139 67.8857 143.26 69.3649C143.283 69.7442 143.303 70.0196 143.321 70.1912C143.341 70.38 143.362 70.5773 143.383 70.7832C143.407 71.0062 143.448 71.1494 143.507 71.2126C143.567 71.293 143.619 71.3743 143.662 71.4564C143.725 71.554 143.818 71.6136 143.941 71.6353C144.084 71.6723 144.209 71.7026 144.315 71.7261C144.439 71.7478 144.615 71.7726 144.843 71.8007C145.457 71.8577 145.904 71.8194 146.184 71.6858C146.467 71.5693 146.807 71.256 147.205 70.7458C148.23 69.4411 148.868 67.7521 149.118 65.6787Z" fill="#D6C6B6"/>
<path d="M119.07 31.0798C120.628 30.7252 122.282 30.534 124.032 30.5063C125.779 30.4614 126.799 30.5884 127.09 30.8874C127.44 31.2495 127.71 31.4207 127.899 31.4009C128.105 31.3792 128.627 31.732 129.467 32.459C130.305 33.169 130.982 33.5836 131.497 33.7028C131.693 33.7516 131.916 33.893 132.167 34.1269C132.434 34.3591 132.633 34.607 132.765 34.8707C132.897 35.1344 133.063 35.3945 133.264 35.651C133.479 35.8885 133.652 36.0439 133.781 36.117C133.925 36.1712 134.159 36.4156 134.482 36.85C134.823 37.2826 135.151 37.7685 135.468 38.3076C135.974 39.1566 136.274 39.7842 136.369 40.1906C136.462 40.5798 136.436 41.077 136.291 41.682C136.17 42.1804 136.005 42.7529 135.795 43.3995C135.584 44.0289 135.371 44.6411 135.156 45.2362C134.941 45.8313 134.73 46.3825 134.523 46.89C134.314 47.3803 134.13 47.7727 133.97 48.067C133.808 48.3442 133.708 48.4589 133.668 48.411C133.575 48.3514 133.457 48.3898 133.316 48.5261C133.191 48.6607 133.056 48.8656 132.912 49.141C132.783 49.3975 132.624 49.6223 132.436 49.8155C132.266 50.0069 132.112 50.1099 131.974 50.1243C131.854 50.1369 131.699 50.2227 131.507 50.3816C131.331 50.5215 131.183 50.6845 131.064 50.8705C130.945 51.0565 130.72 51.2276 130.389 51.3838C130.059 51.54 129.731 51.6352 129.405 51.6695C128.701 51.7434 127.756 52.0769 126.569 52.67C125.381 53.246 124.692 53.7087 124.503 54.0581C124.33 54.3886 123.822 54.3465 122.981 53.9319C122.155 53.4983 121.338 53.1591 120.532 52.9143C120.211 52.8266 119.921 52.7096 119.662 52.5633C119.421 52.4152 119.296 52.2982 119.287 52.2124C119.262 51.9722 119.113 51.9532 118.839 52.1554C118.581 52.3387 118.607 52.6742 118.919 53.1619C119.245 53.6306 119.357 53.9485 119.253 54.1156C119.147 54.2654 119.445 55.5266 120.145 57.899C120.601 59.4297 120.864 60.5297 120.934 61.1988C121.02 61.849 120.994 62.5891 120.855 63.4189C120.732 64.0565 120.591 64.531 120.433 64.8425C120.274 65.1541 120.106 65.2845 119.927 65.2339C119.75 65.2005 119.617 65.2492 119.526 65.3801C119.451 65.4921 119.427 65.6768 119.454 65.9342C119.48 66.1744 119.44 66.378 119.336 66.545C119.25 66.7103 119.121 66.8019 118.949 66.82C118.795 66.8362 118.639 66.922 118.482 67.0773C118.323 67.2154 118.226 67.3644 118.19 67.5242C118.054 68.0416 117.714 68.2768 117.172 68.2298C116.648 68.1981 115.991 67.8941 115.202 67.3178C113.457 66.0614 112.191 65.0756 111.404 64.3602C110.618 63.6449 110.205 63.0985 110.165 62.721C110.14 62.4808 110.054 62.2383 109.907 61.9936C109.76 61.7488 109.593 61.5668 109.407 61.4476C109.221 61.3284 109.046 61.1473 108.881 60.9044C108.734 60.6596 108.65 60.4343 108.628 60.2284C108.605 60.0053 108.539 59.7954 108.432 59.5985C108.325 59.4016 108.207 59.2752 108.08 59.2191C107.953 59.1631 107.86 59.0254 107.802 58.806C107.744 58.5865 107.739 58.3702 107.786 58.1571C107.833 57.944 107.831 57.762 107.781 57.6112C107.728 57.4433 107.642 57.3656 107.522 57.3782C107.248 57.4071 106.946 55.9382 106.617 52.9717C106.431 51.2044 106.34 50.0083 106.343 49.3834C106.363 48.7395 106.496 48.3612 106.745 48.2483C107.14 48.0506 107.284 47.437 107.176 46.4075C107.129 45.9614 107.188 45.374 107.355 44.6453C107.519 43.8994 107.746 43.1729 108.036 42.4659C108.718 40.8676 109.039 39.8712 108.997 39.4765C108.981 39.3221 109.025 39.1614 109.129 38.9943C109.248 38.8083 109.39 38.672 109.554 38.5853C109.719 38.4986 109.854 38.3889 109.962 38.2562C110.085 38.1045 110.141 37.9772 110.13 37.8743C110.101 37.5997 110.553 36.9451 111.485 35.9104C112.434 34.8738 113.008 34.3971 113.208 34.4802C113.282 34.5245 113.406 34.468 113.581 34.3109C113.772 34.152 113.959 33.9502 114.141 33.7055C114.322 33.4437 114.55 33.2202 114.826 33.0351C115.099 32.8329 115.33 32.7219 115.519 32.702C115.708 32.6822 115.908 32.6091 116.121 32.4827C116.35 32.3545 116.526 32.2145 116.649 32.0628C116.772 31.9112 117.066 31.7414 117.532 31.5537C118.015 31.3641 118.528 31.2062 119.07 31.0798ZM126.132 32.9136C125.207 32.6986 124.662 32.6258 124.496 32.6953C124.345 32.7459 123.06 32.9764 120.639 33.3869C119.636 33.5791 118.738 33.7862 117.946 34.0082C117.154 34.2302 116.696 34.4085 116.571 34.543C116.295 34.8843 116.438 37.3154 117 41.8361L117.845 48.6429L119.35 49.8379C120.031 50.3735 120.612 50.7027 121.093 50.8256C121.573 50.9313 122.46 50.9595 123.756 50.91C124.896 50.8596 125.685 50.7767 126.124 50.6611C126.58 50.5438 126.905 50.3362 127.099 50.0382C127.234 49.8332 127.406 49.659 127.617 49.5154C127.843 49.3529 128.041 49.2626 128.213 49.2446C128.745 49.1887 129.445 48.7508 130.313 47.931C131.181 47.1112 131.959 46.1794 132.647 45.1355C133.334 44.0746 133.703 43.2204 133.757 42.5729C133.902 40.979 133.824 39.8249 133.523 39.1106C133.221 38.3791 132.464 37.5391 131.255 36.5907C130.61 36.0687 130.056 35.5891 129.594 35.1519C129.149 34.713 128.919 34.4249 128.905 34.2876C128.892 34.1675 128.813 34.0718 128.666 34.0004C128.537 33.9272 128.387 33.8997 128.215 33.9177C128.044 33.9357 127.886 33.9177 127.741 33.8635C127.612 33.7903 127.543 33.7108 127.534 33.625C127.523 33.5221 127.38 33.3983 127.105 33.2538C126.829 33.1093 126.505 32.9959 126.132 32.9136ZM114.359 36.519C114.638 36.3682 114.673 36.2865 114.463 36.2738C114.429 36.2774 114.403 36.2802 114.386 36.282C114.039 36.2837 113.573 36.6277 112.985 37.3139C112.398 38.0001 111.843 38.8218 111.319 39.779C110.81 40.7171 110.487 41.5231 110.35 42.1967C110.199 42.9065 110.045 43.339 109.888 43.4943C109.558 43.8239 109.284 44.8501 109.067 46.5731C108.849 48.2961 108.805 49.7752 108.935 51.0106C109.129 52.8637 109.072 53.8065 108.763 53.8389C108.455 53.8714 108.456 54.0534 108.769 54.3848C108.886 54.5113 109.037 54.877 109.222 55.4821C109.425 56.0853 109.59 56.7532 109.719 57.4856C109.865 58.2161 110.031 58.884 110.216 59.489C110.418 60.0923 110.578 60.4572 110.695 60.5836C111.004 60.8808 111.285 61.4064 111.538 62.1604C111.656 62.4603 111.832 62.7366 112.067 62.9895C112.317 63.2235 112.558 63.3716 112.79 63.4339C113.038 63.4773 113.245 63.551 113.412 63.6548C113.596 63.7569 113.694 63.8594 113.705 63.9624C113.714 64.0481 113.877 64.2044 114.196 64.4311C114.53 64.6389 114.924 64.8403 115.379 65.0354L117.018 65.7739L117.746 64.7866C118.067 64.3712 118.246 63.8493 118.284 63.2208C118.338 62.5733 118.29 61.3727 118.14 59.619C118.055 58.4829 117.935 57.5067 117.78 56.6903C117.642 55.8722 117.522 55.4685 117.419 55.4793C117.333 55.4883 117.243 55.3763 117.149 55.1433C117.055 54.9103 116.99 54.6223 116.954 54.2791C116.918 53.9359 116.842 53.623 116.726 53.3403C116.626 53.0559 116.522 52.8933 116.414 52.8527C116.141 52.7253 115.914 51.8904 115.735 50.348C115.572 48.8037 115.603 47.9418 115.827 47.7621C116.068 47.5806 116.025 47.1688 115.697 46.5267C115.388 45.9 115.206 45.1558 115.15 44.2943C115.093 43.4157 115.192 42.9628 115.45 42.9357C115.673 42.9123 115.609 42.7195 115.259 42.3573C115.217 42.2923 115.168 42.2367 115.111 42.1907C114.806 41.9278 114.548 41.3652 114.335 40.5028C114.122 39.6232 114.007 38.7766 113.99 37.9629C113.99 37.1303 114.113 36.649 114.359 36.519Z" fill="#D6C6B6"/>
<path d="M86.7441 34.4774C88.3028 34.1227 89.9567 33.9316 91.7059 33.9038C93.4533 33.859 94.4729 33.986 94.7645 34.285C95.1148 34.6471 95.3843 34.8183 95.5731 34.7985C95.779 34.7768 96.3018 35.1295 97.1415 35.8566C97.9794 36.5665 98.6562 36.9811 99.1718 37.1004C99.3678 37.1492 99.5908 37.2906 99.8409 37.5245C100.108 37.7566 100.308 38.0046 100.439 38.2683C100.571 38.532 100.737 38.7921 100.938 39.0486C101.154 39.2861 101.326 39.4415 101.455 39.5146C101.6 39.5688 101.834 39.8131 102.157 40.2476C102.497 40.6802 102.826 41.1661 103.143 41.7052C103.648 42.5542 103.948 43.1818 104.043 43.5882C104.136 43.9774 104.11 44.4745 103.966 45.0796C103.845 45.578 103.679 46.1505 103.47 46.7971C103.258 47.4265 103.045 48.0387 102.83 48.6338C102.615 49.2288 102.404 49.7801 102.197 50.2876C101.988 50.7779 101.804 51.1702 101.644 51.4646C101.483 51.7418 101.382 51.8565 101.342 51.8086C101.249 51.749 101.132 51.7874 100.99 51.9237C100.865 52.0582 100.731 52.2632 100.586 52.5386C100.457 52.7951 100.299 53.0199 100.111 53.2131C99.94 53.4045 99.786 53.5075 99.6487 53.5219C99.5286 53.5345 99.3728 53.6203 99.1814 53.7792C99.0053 53.9191 98.8576 54.0821 98.7383 54.2681C98.6191 54.4541 98.3942 54.6252 98.0637 54.7814C97.7332 54.9376 97.4049 55.0328 97.0789 55.067C96.3754 55.141 95.4303 55.4745 94.2436 56.0676C93.0551 56.6436 92.3665 57.1063 92.1777 57.4557C92.0043 57.7862 91.4968 57.7441 90.6552 57.3295C89.829 56.8959 89.0127 56.5567 88.2063 56.3118C87.8848 56.2242 87.595 56.1072 87.3367 55.9609C87.0956 55.8127 86.9706 55.6958 86.9616 55.61C86.9363 55.3698 86.7869 55.3508 86.5132 55.553C86.2549 55.7363 86.2815 56.0718 86.593 56.5595C86.9198 57.0282 87.0313 57.3461 86.9274 57.5131C86.8217 57.663 87.1191 58.9242 87.8195 61.2966C88.2753 62.8273 88.5383 63.9272 88.6087 64.5964C88.6943 65.2466 88.668 65.9867 88.5297 66.8165C88.4059 67.4541 88.265 67.9286 88.1069 68.2401C87.9488 68.5516 87.7804 68.6821 87.6016 68.6315C87.4246 68.5981 87.2909 68.6468 87.2006 68.7777C87.1256 68.8897 87.1017 69.0744 87.1287 69.3317C87.154 69.5719 87.1147 69.7756 87.0108 69.9426C86.9241 70.1079 86.7949 70.1995 86.6233 70.2175C86.4689 70.2338 86.3131 70.3195 86.156 70.4748C85.997 70.613 85.8999 70.762 85.8647 70.9218C85.7282 71.4392 85.3886 71.6744 84.8459 71.6274C84.3222 71.5957 83.6657 71.2917 82.8765 70.7154C81.1311 69.459 79.8652 68.4732 79.0788 67.7578C78.2924 67.0425 77.8793 66.4961 77.8396 66.1186C77.8144 65.8784 77.7282 65.6359 77.581 65.3912C77.4339 65.1464 77.2673 64.9644 77.0813 64.8452C76.8953 64.726 76.7201 64.5449 76.5558 64.3019C76.4086 64.0572 76.3242 63.8319 76.3026 63.626C76.2791 63.4029 76.2137 63.1929 76.1063 62.9961C75.9988 62.7992 75.8815 62.6727 75.7542 62.6167C75.6268 62.5607 75.5343 62.423 75.4765 62.2035C75.4188 61.9841 75.4134 61.7678 75.4604 61.5547C75.5074 61.3416 75.5056 61.1596 75.455 61.0088C75.4027 60.8408 75.3165 60.7632 75.1964 60.7758C74.9218 60.8046 74.62 59.3358 74.2909 56.3693C74.1051 54.602 74.0141 53.4059 74.0178 52.781C74.0369 52.1371 74.1706 51.7588 74.4189 51.6459C74.8145 51.4482 74.9582 50.8346 74.85 49.8051C74.8031 49.359 74.8628 48.7716 75.029 48.0429C75.1935 47.297 75.4207 46.5705 75.7107 45.8635C76.3928 44.2652 76.7131 43.2687 76.6716 42.8741C76.6554 42.7197 76.6992 42.559 76.8031 42.3919C76.9223 42.2059 77.0641 42.0696 77.2285 41.9829C77.3928 41.8962 77.5287 41.7865 77.6362 41.6538C77.7591 41.5021 77.8151 41.3748 77.8043 41.2718C77.7754 40.9973 78.227 40.3427 79.1591 39.3079C80.1084 38.2714 80.6828 37.7947 80.8824 37.8778C80.9564 37.922 81.0806 37.8656 81.2549 37.7085C81.4464 37.5496 81.6333 37.3478 81.8158 37.1031C81.9964 36.8413 82.2245 36.6178 82.4999 36.4327C82.7736 36.2305 83.0048 36.1194 83.1935 36.0996C83.3823 36.0798 83.5827 36.0067 83.795 35.8803C84.0244 35.7521 84.2005 35.6121 84.3233 35.4604C84.4462 35.3087 84.7406 35.139 85.2066 34.9513C85.6897 34.7617 86.2022 34.6037 86.7441 34.4774ZM93.8065 36.3112C92.8818 36.0962 92.3364 36.0234 92.1702 36.0929C92.0194 36.1434 90.7339 36.374 88.3137 36.7845C87.3104 36.9767 86.4127 37.1838 85.6207 37.4058C84.8287 37.6278 84.3704 37.8061 84.2457 37.9406C83.9693 38.2819 84.1121 40.7129 84.674 45.2337L85.5195 52.0405L87.0242 53.2354C87.7051 53.7711 88.2861 54.1003 88.7674 54.2232C89.2469 54.3289 90.1346 54.3571 91.4305 54.3076C92.5701 54.2572 93.3594 54.1742 93.7983 54.0587C94.2543 53.9414 94.5795 53.7338 94.7737 53.4358C94.9083 53.2308 95.0808 53.0565 95.2912 52.913C95.517 52.7505 95.7157 52.6602 95.8872 52.6422C96.4191 52.5863 97.1191 52.1484 97.987 51.3286C98.855 50.5088 99.6331 49.5769 100.321 48.5331C101.008 47.4722 101.378 46.6179 101.431 45.9705C101.576 44.3766 101.498 43.2225 101.197 42.5082C100.895 41.7767 100.139 40.9367 98.9289 39.9883C98.2842 39.4663 97.7307 38.9867 97.2684 38.5495C96.8233 38.1106 96.5935 37.8225 96.5791 37.6852C96.5664 37.5651 96.487 37.4694 96.3407 37.398C96.2116 37.3248 96.0612 37.2973 95.8897 37.3153C95.7181 37.3333 95.56 37.3152 95.4156 37.261C95.2864 37.1879 95.2174 37.1084 95.2084 37.0226C95.1975 36.9196 95.0544 36.7959 94.779 36.6514C94.5036 36.5069 94.1794 36.3935 93.8065 36.3112ZM82.0334 39.9166C82.3125 39.7658 82.3473 39.6841 82.1378 39.6714C82.1034 39.675 82.0777 39.6777 82.0605 39.6795C81.7138 39.6813 81.2468 40.0253 80.6598 40.7115C80.0727 41.3977 79.5172 42.2194 78.9933 43.1765C78.4847 44.1147 78.1617 44.9206 78.0244 45.5943C77.8734 46.3041 77.7194 46.7366 77.5623 46.8919C77.2326 47.2214 76.9588 48.2477 76.7409 49.9707C76.523 51.6937 76.479 53.1728 76.6088 54.4082C76.8036 56.2613 76.7465 57.204 76.4377 57.2365C76.1289 57.269 76.1306 57.4509 76.443 57.7824C76.5604 57.9088 76.7116 58.2746 76.8966 58.8797C77.0988 59.4829 77.2644 60.1508 77.3934 60.8831C77.5396 61.6137 77.7052 62.2816 77.8903 62.8866C78.0924 63.4899 78.2522 63.8547 78.3696 63.9812C78.6784 64.2783 78.9592 64.804 79.2119 65.558C79.3301 65.8579 79.5066 66.1342 79.7414 66.3871C79.9915 66.621 80.2326 66.7692 80.4647 66.8315C80.7121 66.8749 80.9193 66.9485 81.0864 67.0524C81.2706 67.1545 81.3681 67.257 81.3789 67.3599C81.3879 67.4457 81.5518 67.602 81.8705 67.8287C82.2046 68.0365 82.5988 68.2379 83.053 68.433L84.6919 69.1715L85.4208 68.1842C85.7414 67.7688 85.9208 67.2469 85.9588 66.6184C86.0122 65.9709 85.9641 64.7703 85.8144 63.0166C85.7297 61.8805 85.6098 60.9043 85.4546 60.0879C85.3165 59.2698 85.1961 58.8661 85.0931 58.8769C85.0073 58.8859 84.9175 58.7739 84.8236 58.5409C84.7297 58.3079 84.6647 58.0198 84.6287 57.6767C84.5926 57.3335 84.5164 57.0206 84.3999 56.7379C84.3006 56.4535 84.1968 56.2909 84.0884 56.2502C83.8148 56.1229 83.5883 55.288 83.4088 53.7455C83.2465 52.2013 83.2774 51.3394 83.5013 51.1597C83.7425 50.9782 83.6992 50.5664 83.3715 49.9243C83.0628 49.2976 82.8805 48.5534 82.8246 47.6919C82.767 46.8132 82.8668 46.3604 83.1242 46.3333C83.3472 46.3099 83.2836 46.1171 82.9333 45.7549C82.8918 45.6899 82.8425 45.6343 82.7857 45.5883C82.4805 45.3254 82.2218 44.7628 82.0098 43.9004C81.7959 43.0208 81.6809 42.1741 81.6647 41.3605C81.664 40.5279 81.7869 40.0466 82.0334 39.9166Z" fill="#D6C6B6"/>
<path d="M35.0295 41.8124C35.1289 41.4376 35.5705 41.183 36.3544 41.0486C37.1554 40.9124 37.6769 41.005 37.9189 41.3265C38.1401 41.6155 37.9883 41.9871 37.4636 42.4413C36.937 42.8782 36.3392 43.1319 35.67 43.2022C34.8825 43.3023 34.5113 43.5669 34.5564 43.9958C34.5763 44.1846 34.5352 44.371 34.4331 44.5552C34.331 44.7395 34.1978 44.8749 34.0334 44.9616C33.8844 45.0293 33.7309 45.2189 33.5728 45.5304C33.43 45.823 33.3406 46.1273 33.3044 46.4433C33.242 47.005 33.0239 47.4877 32.6499 47.8913C32.2914 48.2759 31.9794 48.3607 31.7139 48.1458C31.5622 48.0229 31.5063 47.3262 31.5463 46.0557C31.6016 44.7661 31.8947 44.0067 32.4257 43.7774C32.6416 43.6853 32.8204 43.5711 32.9622 43.4348C33.1194 43.2795 33.1925 43.1504 33.1817 43.0474C33.1691 42.9273 33.2449 42.8239 33.4093 42.7373C33.5719 42.6334 33.7647 42.5698 33.9877 42.5464C34.228 42.5211 34.4447 42.4376 34.638 42.2959C34.8466 42.1352 34.9771 41.974 35.0295 41.8124ZM38.4378 40.5694C38.4053 40.2606 38.4392 40.0054 38.5395 39.8041C38.6398 39.6027 38.7843 39.4921 38.973 39.4723C39.1446 39.4543 39.295 39.4818 39.4241 39.555C39.5532 39.6282 39.6241 39.7248 39.6367 39.8449C39.6475 39.9478 39.7617 40.1267 39.9793 40.3814C40.1951 40.6189 40.4366 40.8537 40.7039 41.0858C41.7071 41.8825 42.5061 42.7179 43.1011 43.5922C43.7114 44.4474 44.0553 45.244 44.1329 45.9818C44.1762 46.3936 44.2926 46.841 44.4822 47.3242C44.6717 47.8074 44.8762 48.1849 45.0956 48.4567C45.3944 48.8243 45.6079 49.2876 45.7361 49.8466C45.8624 50.3884 45.9413 51.2215 45.9727 52.3458C46.006 53.1576 46.0741 53.8878 46.1769 54.5362C46.278 55.1674 46.3854 55.5291 46.4991 55.6212C46.8215 55.8823 47.1386 57.6617 47.4506 60.9597C47.7625 64.2577 47.7916 66.1021 47.5377 66.4931C47.3743 66.7532 47.3065 66.9338 47.3345 67.0349C47.3625 67.1361 47.5105 67.2246 47.7787 67.3005C48.028 67.361 48.2198 67.6184 48.3543 68.0727C48.4888 68.5269 48.6173 69.3374 48.74 70.5042C48.9059 72.0827 49.3779 73.7679 50.156 75.5596C50.9531 77.3667 51.7734 78.651 52.6167 79.4124C53.0943 79.8306 53.7887 80.0005 54.6999 79.922C55.6129 79.8608 56.227 79.5967 56.5423 79.1299C56.6615 78.9439 56.8168 78.7714 57.0083 78.6125C57.2016 78.4708 57.3754 78.3918 57.5298 78.3756C57.7872 78.3485 58.195 78.0194 58.7532 77.3883C59.3285 76.7553 60.3487 75.4858 61.8137 73.5797C62.334 72.9179 62.6574 72.3635 62.7839 71.9165C63.017 71.1634 63.1848 69.0467 63.2874 65.5664C63.2902 65.0977 63.3174 64.2014 63.3691 62.8776C63.4037 61.2259 63.1832 59.2107 62.7077 56.832C62.2475 54.4344 61.7975 53.0418 61.3578 52.6544C61.2441 52.5622 61.1375 52.3739 61.0382 52.0895C60.9389 51.805 60.874 51.5169 60.8433 51.2252C60.7766 50.5904 60.2567 49.1097 59.2836 46.7833C58.3104 44.457 57.6496 43.1213 57.3011 42.7762C57.0284 42.4926 56.7946 41.9187 56.5997 41.0545C56.4174 40.3103 56.5015 39.7898 56.8519 39.4927C57.2177 39.1767 57.7293 39.175 58.3866 39.4875C58.9528 39.7576 59.4418 39.871 59.8536 39.8278C60.0251 39.8097 60.1773 39.8544 60.31 39.9619C60.4599 40.0676 60.5439 40.2062 60.5619 40.3778C60.5872 40.618 60.6969 40.754 60.891 40.7856C61.0834 40.8001 61.441 40.7365 61.9639 40.5948C62.8552 40.3276 63.4657 40.0292 63.7954 39.6997C64.1115 39.4063 65.062 39.1242 66.6469 38.8535C68.2299 38.5657 69.3994 38.4688 70.1552 38.5629C70.614 38.6361 70.8469 38.707 70.8541 38.7756C70.8821 38.8768 70.4802 39.1792 69.6484 39.683C69.2068 39.9376 68.6938 40.1737 68.1095 40.3912C67.5252 40.6087 67.0453 40.7459 66.6696 40.8028C65.762 40.9155 65.0395 41.1389 64.5022 41.4729L62.8928 42.5008C62.6652 42.6461 62.3825 42.7626 62.0448 42.8501C61.7224 42.9187 61.446 42.9304 61.2158 42.8852C60.9151 42.8301 60.6997 42.844 60.5696 42.9271C60.4567 43.0084 60.4138 43.1777 60.4409 43.435C60.5022 44.0184 60.7734 44.866 61.2546 45.9777C61.7511 47.0705 62.1727 47.7808 62.5194 48.1086C62.7695 48.3425 62.951 48.5837 63.0638 48.832C63.1938 49.0786 63.2335 49.2913 63.1829 49.4701C63.1477 49.6299 63.0271 49.7206 62.8212 49.7423C62.7011 49.7549 62.6045 49.8258 62.5313 49.9549C62.4753 50.0822 62.4563 50.2317 62.4743 50.4032C62.4924 50.5748 62.5601 50.7238 62.6775 50.8503C62.8102 50.9578 62.9538 51.0034 63.1082 50.9872C63.5028 50.9457 63.776 51.1512 63.9276 51.6036C64.0964 52.0543 64.2317 53.0115 64.3335 54.4754C64.4552 56.1279 64.734 57.1308 65.1702 57.484C65.5115 57.7604 65.8242 59.1673 66.1082 61.7049C66.4076 64.2236 66.4128 65.5935 66.1238 65.8147C66.0434 65.8752 65.9924 66.1321 65.9706 66.5854C65.9489 67.0387 65.9669 67.5399 66.0246 68.089C66.1111 68.9126 66.0745 69.6364 65.9145 70.2603C65.7528 70.8672 65.3684 71.7489 64.7614 72.9056C64.3549 73.6596 63.8951 74.4018 63.3821 75.1323C62.888 75.8781 62.4906 76.3883 62.1898 76.6628C61.8719 76.9391 61.6073 77.2271 61.3959 77.5269C61.2035 77.842 61.1163 78.0853 61.1344 78.2569C61.1524 78.4285 61.1018 78.6073 60.9826 78.7933C60.8805 78.9775 60.7464 79.1044 60.5802 79.1739C60.433 79.2587 60.2989 79.3856 60.1778 79.5545C60.074 79.7215 60.0301 79.8822 60.0464 80.0367C60.0626 80.1911 59.9971 80.3107 59.8499 80.3956C59.7027 80.4804 59.4968 80.5021 59.2322 80.4605C59.0037 80.4325 58.7464 80.4595 58.4601 80.5417C58.1756 80.6409 57.9548 80.7682 57.7976 80.9235C57.2801 81.4463 56.4357 81.83 55.2644 82.0745C54.1121 82.3344 53.252 82.3207 52.684 82.0335C51.8767 81.6152 51.1955 81.1577 50.6402 80.661C50.0867 80.1814 49.791 79.7614 49.7531 79.4011C49.7369 79.2467 49.6873 79.1044 49.6042 78.9744C49.5229 78.8615 49.4308 78.8105 49.3279 78.8213C48.7102 78.8862 47.9311 77.2507 46.9907 73.9147C46.0674 70.5769 45.3447 66.8364 44.8224 62.6931C44.4544 59.8521 43.9772 56.6322 43.3908 53.0335C42.8216 49.433 42.4232 47.211 42.1958 46.3675C41.9702 45.5412 41.5287 44.6422 40.8715 43.6704C40.2124 42.6814 39.6463 42.0817 39.1731 41.8712C39.0097 41.8017 38.8535 41.636 38.7045 41.3741C38.5556 41.1121 38.4666 40.8439 38.4378 40.5694Z" fill="#D6C6B6"/>
<path d="M13.7669 41.7833C14.5102 41.4276 15.0859 41.211 15.4941 41.1334C15.9195 41.054 16.7931 41.1964 18.1151 41.5605C19.4543 41.9228 20.3401 42.2634 20.7726 42.5823C21.2223 42.8993 21.9781 43.3229 23.04 43.8532C23.7542 44.2118 24.1953 44.5298 24.3632 44.807C24.5483 45.0825 24.6755 45.6329 24.7449 46.4583C24.8053 47.1979 24.7637 47.7921 24.62 48.2409C24.4746 48.6725 24.1331 49.2202 23.5957 49.8838C23.2426 50.3199 22.8249 50.7195 22.3426 51.0824C21.8774 51.4435 21.4923 51.6575 21.187 51.7243C20.4239 51.8912 19.9579 52.079 19.789 52.2876C19.5759 52.5702 19.3618 52.6794 19.1469 52.6153C18.932 52.5511 18.8074 52.356 18.7731 52.03C18.7551 51.8585 18.7913 51.7072 18.8816 51.5763C18.9873 51.4264 19.1087 51.3442 19.246 51.3298C19.3833 51.3154 19.6714 51.0856 20.1103 50.6405C20.5664 50.1935 21.0316 49.6676 21.5058 49.0626L23.2481 46.8238L22.2865 46.0922C20.8562 45.0282 19.3591 44.3181 17.7951 43.9621C16.2482 43.6042 15.053 43.7038 14.2095 44.2609C13.4942 44.7177 13.0751 45.022 12.9523 45.1737C12.7699 45.4184 12.3964 45.7439 11.8319 46.1501C11.2828 46.5375 10.843 46.8092 10.5125 46.9654C10.2966 47.0575 10.0993 47.243 9.92043 47.522C9.75693 47.7821 9.6553 48.053 9.61552 48.3347C9.57574 48.6164 9.48269 48.8864 9.33635 49.1447C9.20537 49.384 9.06538 49.5375 8.91637 49.6052C8.752 49.6918 8.61968 49.8358 8.51941 50.0372C8.4363 50.2368 8.40647 50.4481 8.42991 50.6711C8.48401 51.1859 8.33582 51.7566 7.98534 52.3832C7.5906 53.0839 7.44553 53.9319 7.55013 54.927C7.65473 55.9222 7.95667 56.7318 8.45595 57.3559C9.21075 58.2654 10.0306 58.9685 10.9155 59.4654C11.8158 59.9432 12.9919 60.3227 14.444 60.6037C15.2052 60.7493 15.8549 60.9065 16.3931 61.0754C16.9295 61.2272 17.2022 61.346 17.2112 61.4318C17.2347 61.6549 17.4609 61.7439 17.8898 61.6988C18.0785 61.6789 18.2659 61.7286 18.4519 61.8479C18.6533 61.9481 18.7982 62.089 18.8867 62.2706C18.9995 62.5189 19.1796 62.6648 19.4271 62.7082C19.6727 62.7344 20.0637 62.6586 20.6002 62.4808C21.1899 62.3147 21.715 62.2769 22.1755 62.3672C22.6532 62.4558 23.3774 62.744 24.3481 63.2318C25.7766 63.949 27.0985 64.8076 28.3139 65.8074C29.5464 66.8055 30.2836 67.6301 30.5255 68.2812C30.623 68.5485 30.7426 68.7788 30.8843 68.9721C31.0243 69.1482 31.1372 69.2318 31.2229 69.2228C31.4117 69.2029 31.6279 69.5271 31.8716 70.1954C32.1325 70.8619 32.3527 71.6368 32.5323 72.52C32.7101 73.386 32.8269 74.2498 32.8827 75.1113C32.9557 75.971 32.9313 76.5634 32.8093 76.8885C32.6991 77.1603 32.4538 77.5504 32.0736 78.0587C31.7123 78.5824 31.314 79.084 30.8786 79.5634C29.839 80.7309 29.1034 81.5715 28.6716 82.0853C28.5009 82.2767 28.3086 82.427 28.0945 82.5363C27.8823 82.6627 27.7125 82.6979 27.5852 82.6418C27.475 82.584 27.3617 82.5786 27.2452 82.6255C27.1477 82.6878 27.0795 82.7817 27.0406 82.9073C27.0189 83.031 26.8591 83.1605 26.561 83.2959C26.2802 83.4295 25.9519 83.5248 25.5762 83.5816C25.2005 83.6384 24.8465 83.7364 24.5142 83.8754C24.199 84.0126 24.0143 84.1534 23.9601 84.2979C23.7867 84.6284 22.8335 85.0495 21.1004 85.5613C19.3846 86.0712 17.8652 86.387 16.5422 86.5087C15.0476 86.6485 13.8005 86.502 12.8009 86.0693C12.4 85.8859 12.0217 85.7522 11.6659 85.6682C11.3291 85.5995 11.1299 85.603 11.0685 85.6789C10.9321 85.8667 10.6486 85.8098 10.2179 85.5081C9.78898 85.2236 9.44855 85.1206 9.19658 85.1991C8.39283 85.4744 7.44651 85.0534 6.35762 83.9362C5.28769 82.8343 4.50225 81.4683 4.00132 79.8383C3.83886 79.2829 3.77525 78.9252 3.8105 78.7654C3.86109 78.5866 4.05797 78.4792 4.40114 78.4431C4.79577 78.4016 5.22557 78.6947 5.69054 79.3224C6.17267 79.9483 6.448 80.5873 6.51653 81.2393C6.63014 82.3202 8.13358 83.0903 11.0269 83.5495C13.5851 83.9572 16.2464 83.8596 19.0107 83.2568C21.7768 82.6712 24.0441 81.713 25.8124 80.3822C26.1168 80.142 26.4085 79.9465 26.6876 79.7958C26.9856 79.6604 27.1716 79.6148 27.2457 79.659C27.3369 79.7015 27.5721 79.5467 27.9515 79.1945C28.348 78.8406 28.7688 78.3887 29.2141 77.8388C29.9241 77.0009 30.3603 76.3652 30.5229 75.9318C30.7009 75.4794 30.7434 74.8938 30.6505 74.175C30.3421 71.5705 29.5911 69.5417 28.3975 68.0885C27.7601 67.3055 26.9362 66.6462 25.9257 66.1105C24.9135 65.5577 24.2019 65.3896 23.791 65.6063C23.6113 65.7119 23.4149 65.7412 23.2018 65.6942C22.9869 65.6301 22.818 65.509 22.6952 65.3311C22.5742 65.1704 22.2894 65.0181 21.8406 64.8745C21.3918 64.7308 20.915 64.6508 20.4102 64.6345C19.9207 64.5992 19.4155 64.4962 18.8945 64.3254C18.3734 64.1547 17.9992 63.9772 17.7716 63.7929C17.5441 63.6087 17.2592 63.4564 16.917 63.3363C16.5901 63.1972 16.3237 63.1384 16.1178 63.1601C15.9119 63.1817 15.6929 63.1614 15.4609 63.099C15.2459 63.0349 15.0979 62.9463 15.0166 62.8334C14.9371 62.7377 14.7728 62.6596 14.5236 62.599C14.2743 62.5385 14.0125 62.5226 13.7379 62.5515C13.4634 62.5803 13.2006 62.5559 12.9496 62.4782C12.7157 62.3987 12.5563 62.2854 12.4715 62.1382C12.4038 61.9891 12.1618 61.8324 11.7455 61.668C11.3464 61.5018 10.8899 61.3676 10.3761 61.2655C9.82798 61.167 9.36113 61.0165 8.97556 60.8142C8.58999 60.6119 8.35795 60.3847 8.27942 60.1327C8.18554 59.8997 8.05328 59.7141 7.88262 59.576C7.72913 59.436 7.57517 59.3741 7.42074 59.3903C7.02611 59.4318 6.66679 58.819 6.3428 57.552C6.03597 56.2832 5.89123 54.9886 5.9086 53.6684C5.92416 52.331 6.12565 51.6072 6.51307 51.4971C6.76503 51.4186 6.92806 51.2367 7.00216 50.9513C7.09341 50.6642 7.10748 50.2203 7.04436 49.6198C6.92714 48.5045 7.06584 47.9261 7.46048 47.8846C7.6149 47.8684 7.75941 47.7578 7.89399 47.5528C8.04393 47.3289 8.13789 47.0675 8.17587 46.7686C8.21204 46.4525 8.30509 46.1825 8.45503 45.9586C8.60497 45.7347 8.77431 45.6128 8.96305 45.593C9.11748 45.5767 9.25203 45.5366 9.36673 45.4725C9.48143 45.4084 9.52569 45.3343 9.49951 45.2503C9.37137 44.6913 9.40981 44.3143 9.61483 44.1193C9.81805 43.9071 10.3143 43.7595 11.1036 43.6766C12.2188 43.5594 12.7557 43.3034 12.7143 42.9088C12.698 42.7544 12.7915 42.5711 12.9947 42.3589C13.2133 42.1277 13.4707 41.9359 13.7669 41.7833Z" fill="#D6C6B6"/>
</svg>
