<svg width="131" height="173" viewBox="0 0 131 173" fill="none" xmlns="http://www.w3.org/2000/svg">
<path d="M49.0331 24.5532C49.3544 24.2291 49.6141 24.076 49.8122 24.094C50.0103 24.1121 50.2381 24.3094 50.4958 24.6862C50.7949 25.1129 50.6938 25.5492 50.1924 25.9952C49.6909 26.4412 48.9485 26.75 47.965 26.9218C47.5592 26.9924 47.2122 27.0914 46.9241 27.2189C46.6374 27.331 46.4891 27.4405 46.4794 27.5471C46.4711 27.6385 46.4026 27.7168 46.2737 27.7819C46.1449 27.847 45.9815 27.8705 45.7834 27.8525C45.3554 27.829 44.881 27.9779 44.3601 28.2992C44.1496 28.4183 43.8642 28.5153 43.5041 28.59C43.144 28.6648 42.8268 28.6898 42.5525 28.6648C42.2782 28.6399 42.0081 28.6537 41.7422 28.7063C41.4915 28.7604 41.3308 28.8379 41.2602 28.939C41.1895 29.0401 40.7089 29.0886 39.8182 29.0844C38.9289 29.065 37.8368 28.9964 36.5416 28.8786L32.0621 28.4713L32.0184 29.7117C31.9616 30.6743 31.7427 32.3213 31.3617 34.6525C30.9821 36.9684 30.608 38.8855 30.2395 40.4036C29.6619 42.8705 29.1831 48.8107 28.8033 58.2242C28.7562 59.4182 28.6827 60.2257 28.583 60.6468C28.4971 61.0845 28.3627 61.295 28.1799 61.2784C26.4581 61.1218 26.0691 55.94 27.0127 45.7328C27.2884 42.8697 27.5233 40.7941 27.7172 39.5059C27.9264 38.2191 28.191 37.1678 28.511 36.352C29.0526 34.9571 29.3941 33.1447 29.5355 30.9146L29.7454 27.5923L25.2659 26.9315C23.3558 26.6502 21.6881 26.4909 20.2627 26.4534C18.8388 26.4008 17.1365 26.4533 15.1557 26.6112C14.675 26.6596 14.3537 26.3923 14.1917 25.8092C14.0878 25.431 14.0705 25.199 14.1397 25.1131C14.2256 25.0134 14.4666 24.9815 14.8628 25.0176C15.1066 25.0397 15.3386 25.0224 15.5588 24.9656C15.7943 24.9102 15.9557 24.8251 16.0429 24.7101C16.1136 24.609 16.2424 24.5439 16.4294 24.5148C16.6316 24.4871 16.8214 24.512 16.9987 24.5896C17.1926 24.6533 17.3595 24.6762 17.4994 24.6582C17.6407 24.625 17.7155 24.5626 17.7238 24.4712C17.7446 24.2427 20.4567 24.4048 25.8602 24.9576C30.3965 25.4163 32.9549 25.7488 33.5353 25.9552C33.8469 26.0757 34.0166 26.2371 34.0443 26.4393C34.0941 26.7357 34.2534 26.9269 34.5222 27.0128C34.7923 27.0834 35.3802 27.1215 36.2861 27.1271C37.699 27.1327 38.7662 27.0531 39.4879 26.8883C39.7705 26.8218 40.0725 26.7955 40.3938 26.8093C40.7165 26.808 40.9444 26.8364 41.0774 26.8945C41.209 26.968 41.4458 26.9818 41.788 26.9361C42.1301 26.8904 42.4764 26.799 42.8268 26.6619C43.6552 26.3378 44.3436 26.2007 44.8921 26.2506C45.1206 26.2714 45.3866 26.2187 45.6899 26.0927C46.0085 25.968 46.2683 25.815 46.4691 25.6335C46.67 25.4521 46.9068 25.297 47.1797 25.1681C47.4526 25.0393 47.6804 24.9832 47.8633 24.9999C48.0461 25.0165 48.249 24.9812 48.4721 24.8939C48.6951 24.8067 48.8821 24.6931 49.0331 24.5532ZM67.6056 31.1505C68.2221 29.9469 68.9597 29.0999 69.8185 28.6096C70.6773 28.1192 71.2057 27.8831 71.4038 27.9011C71.7238 27.9302 71.4674 32.0164 70.6347 40.1597C70.3077 43.4175 70.2661 45.142 70.5099 45.3332C70.6262 45.4052 70.7017 45.5887 70.7363 45.8838C70.7875 46.165 70.7979 46.4732 70.7674 46.8084C70.7467 47.0369 70.7314 47.2045 70.7217 47.3112C70.7273 47.4192 70.748 47.5287 70.784 47.6395C70.8201 47.7503 70.8519 47.8223 70.8796 47.8556C70.9225 47.8902 71.0264 47.9304 71.1913 47.9761C71.3575 48.0065 71.5098 48.0204 71.6484 48.0176C71.8021 48.0163 72.048 48.0156 72.386 48.0156C73.5204 48.0419 74.5149 48.1708 75.3696 48.4021C75.8779 48.5559 76.2089 48.7166 76.3627 48.8842C76.5178 49.0366 76.5788 49.2956 76.5455 49.6613C76.497 50.1945 76.2539 50.5027 75.8162 50.5858C75.3799 50.6537 74.492 50.5345 73.1526 50.2284C71.7979 49.9208 71.0458 49.8294 70.8962 49.9541C70.8311 49.9942 70.8248 50.1473 70.8775 50.4132C70.9453 50.6806 71.0561 50.9825 71.2099 51.3191C71.5824 52.1211 71.7486 52.7431 71.7085 53.1849C71.6683 53.6268 71.7985 54.2224 72.099 54.9718C72.4148 55.7226 72.5526 56.3189 72.5124 56.7607C72.4667 57.2635 72.6052 58.1902 72.9279 59.5407C73.2506 60.8913 73.5809 61.9045 73.9189 62.5805C74.2804 63.3354 74.7839 63.965 75.4293 64.4692C76.0886 64.99 76.6101 65.168 76.9938 65.0032C77.6629 64.7414 78.4725 64.623 79.4227 64.648C80.3729 64.6729 80.9498 64.8329 81.1534 65.128C81.5468 65.7015 81.0973 66.083 79.8049 66.2728C79.1678 66.3531 78.3422 66.3932 77.3283 66.3932C76.1911 66.3973 75.4203 66.3426 75.0158 66.229C74.6113 66.1154 74.1674 65.8446 73.684 65.4166C73.13 64.9207 72.5434 64.0224 71.9242 62.7217C71.3204 61.4224 71.0447 60.4833 71.0974 59.9043C71.114 59.7214 71.0843 59.5421 71.0081 59.3661C70.9457 59.2069 70.8557 59.0988 70.738 59.042C70.6189 59.0005 70.4997 58.7899 70.3806 58.4104C70.2754 58.0475 70.2054 57.634 70.1708 57.17C70.0739 56.0397 69.9063 54.8415 69.6681 53.5755C69.6487 53.4508 69.619 53.2714 69.5788 53.0374C69.4832 52.5678 69.4209 52.2395 69.3918 52.0525C69.3641 51.8503 69.3094 51.6072 69.2277 51.3232C69.1474 51.024 69.0878 50.8343 69.049 50.7539C69.0269 50.6597 68.9604 50.5461 68.8496 50.4132C68.7402 50.265 68.6557 50.1805 68.5961 50.1597C68.5366 50.1389 68.4091 50.1043 68.2138 50.0558C68.0338 50.0087 67.8821 49.9872 67.7588 49.9914C67.6369 49.9803 67.4229 49.9685 67.1168 49.956C66.9797 49.9435 66.873 49.9338 66.7968 49.9269C65.3743 49.859 64.2585 49.8804 63.4496 49.9912C62.89 50.0632 62.5243 50.199 62.3526 50.3984C62.1822 50.5826 62.0007 51.0577 61.8081 51.8237C61.52 52.9651 61.0885 54.078 60.5136 55.1626L59.1776 57.6911C58.8617 58.2923 58.5729 58.7653 58.3111 59.1102C58.0479 59.4703 57.7432 59.9496 57.3969 60.548C57.0506 61.1463 56.3192 61.9248 55.2027 62.8832C54.1001 63.8584 53.3964 64.3321 53.0917 64.3043C52.9546 64.2919 52.8375 64.312 52.7406 64.3646C52.6436 64.4172 52.5917 64.4816 52.5847 64.5578C52.5612 64.8168 52.0126 65.1049 50.9391 65.4221C49.8795 65.7559 49.1952 65.8473 48.8863 65.6963C48.2991 65.3971 48.2672 65.0716 48.7908 64.7198C49.1177 64.5037 49.696 64.226 50.5257 63.8866C51.9594 63.3257 53.1188 62.6553 54.0039 61.8755C54.889 61.0957 55.7153 60.034 56.4827 58.6904C56.7736 58.1946 57.0562 57.8746 57.3305 57.7306C57.4427 57.6793 57.5466 57.5505 57.6421 57.3441C57.7377 57.1377 57.7952 56.9279 57.8146 56.7146C57.8645 56.166 58.0861 55.5871 58.4795 54.9776C58.8743 54.3529 59.1999 53.5606 59.4561 52.6007C59.7277 51.6422 59.9445 50.9476 60.1065 50.5168C60.2049 50.2799 60.2049 50.1109 60.1065 50.0098C60.0234 49.9101 59.799 49.8436 59.4334 49.8103C59.1896 49.7882 58.9652 49.7217 58.7602 49.6109C58.5552 49.5 58.4361 49.374 58.4028 49.2327C58.3571 49.0596 58.2886 48.9688 58.1971 48.9605C58.1071 48.937 57.9547 49.0076 57.74 49.1724C57.3924 49.4481 56.9117 49.581 56.2981 49.5713C55.6859 49.5464 55.154 49.3981 54.7024 49.1266C54.2522 48.8399 54.0438 48.5137 54.077 48.148C54.1034 47.8585 54.2578 47.6805 54.5404 47.614C54.8687 47.5517 55.8556 47.5954 57.5011 47.745L60.8608 48.0505L60.9959 46.565C61.0347 46.1384 61.1151 45.7616 61.237 45.4347C61.3741 45.1092 61.5147 44.9146 61.6588 44.8509C62.012 44.6833 62.3361 43.7372 62.6312 42.0127C62.7573 41.3022 62.9055 40.6858 63.0759 40.1636C63.2477 39.6261 63.3883 39.347 63.4977 39.3263C63.6238 39.2916 63.7318 39.2016 63.8219 39.0562C63.9119 38.9107 63.9652 38.7466 63.9819 38.5638C64.022 38.1219 64.4861 37.0733 65.374 35.4181L67.6056 31.1505ZM68.8313 38.7052C69.3522 33.6522 69.5441 31.1194 69.407 31.107C69.2699 31.0945 69.1785 31.3397 69.1327 31.8425C69.087 32.3453 68.7705 33.0385 68.1832 33.9222C67.5958 34.806 67.2835 35.4535 67.246 35.8649C67.21 36.261 67.1006 36.5353 66.9177 36.6877C66.6352 36.9231 66.2196 37.7764 65.671 39.2474C65.1377 40.7198 64.8385 41.814 64.7733 42.5302C64.7373 42.9263 64.6397 43.3245 64.4803 43.7248C64.3363 44.1265 64.1881 44.4049 64.0357 44.5601C63.8681 44.7138 63.6804 45.004 63.4726 45.4306C63.2814 45.8434 63.1346 46.2755 63.0321 46.7271L62.6103 48.3249L64.2807 48.2002C65.7504 48.0881 67.1002 48.0265 68.3302 48.0155C68.5297 48.0182 68.6343 47.9663 68.644 47.8596C68.6551 47.7377 68.5844 47.5009 68.4321 47.149C68.2936 46.8138 68.2513 46.0111 68.3054 44.741C68.3595 43.4708 68.5347 41.4589 68.8313 38.7052ZM95.2789 29.6575C95.3565 28.8043 95.4493 28.2904 95.5574 28.1158C95.6654 27.9413 95.9327 27.8735 96.3594 27.9123C96.9079 27.9621 97.4273 28.2475 97.9176 28.7683C98.4232 29.2905 98.6621 29.7885 98.6344 30.2622C98.6178 30.4451 98.6739 30.7574 98.8027 31.1993C98.9467 31.6425 99.1295 32.0816 99.3511 32.5166C99.8539 33.5762 100.465 35.0452 101.186 36.9235C101.483 37.7033 101.76 38.3738 102.017 38.9348C102.288 39.4971 102.454 39.7811 102.515 39.7866C102.759 39.8088 103.263 40.6842 104.028 42.4129C104.794 44.1264 105.158 45.1888 105.121 45.6002C105.087 45.9659 105.272 46.0518 105.673 45.8578C106.172 45.6113 106.554 45.2159 106.818 44.6715C106.856 44.5981 106.885 44.5316 106.905 44.472C107.03 44.1147 107.142 43.8944 107.242 43.8113C107.357 43.7296 107.484 43.7719 107.622 43.9381C107.955 44.337 108.203 44.4749 108.368 44.3516C108.548 44.2297 108.669 43.8259 108.732 43.1403C108.78 42.607 108.85 42.2676 108.94 42.1222C109.045 41.9781 109.201 41.9539 109.407 42.0495C109.6 42.1285 109.746 42.1264 109.845 42.0433C109.945 41.9602 110.007 41.7891 110.03 41.5301C110.05 41.3168 110.182 41.0446 110.427 40.7135C110.672 40.3825 110.968 40.0868 111.314 39.8264C112.125 39.1934 112.54 38.7626 112.561 38.5341C112.571 38.4274 112.693 38.2695 112.927 38.0604C113.162 37.836 113.451 37.6164 113.793 37.4018C114.135 37.1871 114.424 36.9752 114.658 36.766C114.893 36.5416 115.016 36.3685 115.027 36.2466C115.066 35.9889 115.383 35.6337 115.977 35.1807C116.588 34.714 117.394 34.2112 118.396 33.6724C118.783 33.4619 119.125 33.2548 119.42 33.0512C119.716 32.8323 119.867 32.6924 119.873 32.6315C119.878 32.5705 119.994 32.4812 120.22 32.3635C120.446 32.2457 120.716 32.1398 121.032 32.0456C121.791 31.8074 122.696 31.9127 123.746 32.3615C124.796 32.8103 125.69 33.4524 126.428 34.2876C127.168 35.1077 127.504 35.8834 127.438 36.6147C127.385 37.1937 127.153 37.4645 126.742 37.4271C126.268 37.3994 125.85 37.0157 125.487 36.276C125.473 36.2594 125.46 36.2351 125.447 36.2033C125.19 35.6575 124.929 35.3188 124.664 35.1872C124.401 35.0404 123.789 34.9233 122.829 34.836C121.809 34.7432 120.824 34.8381 119.877 35.1206C118.946 35.3893 118.462 35.7293 118.425 36.1407C118.415 36.2474 118.294 36.3977 118.061 36.5916C117.828 36.7855 117.542 36.9746 117.203 37.1588C116.41 37.5937 116.006 37.9026 115.989 38.0854C115.974 38.253 115.308 38.9068 113.991 40.0467C113.441 40.519 112.884 41.0599 112.322 41.6694C111.776 42.265 111.387 42.7442 111.154 43.1071C110.598 43.9936 110.224 44.4742 110.032 44.549C109.841 44.6238 109.732 44.806 109.706 45.0954C109.694 45.2326 109.541 45.4798 109.247 45.8372C108.953 46.1945 108.604 46.5699 108.2 46.9633C107.238 47.9051 106.813 48.6116 106.924 49.0825C107.089 49.8042 107.36 50.6277 107.736 51.553C108.13 52.4644 108.54 53.2699 108.968 53.9694C109.585 54.9626 109.881 55.5887 109.857 55.8477C109.834 56.1067 109.966 56.3491 110.252 56.5749C110.367 56.6622 110.593 56.9669 110.93 57.4891C111.267 57.9961 111.601 58.5564 111.929 59.17C112.706 60.5926 113.581 61.6169 114.553 62.2431C115.542 62.8553 116.969 63.2924 118.835 63.5542C119.578 63.6678 120.232 63.735 120.799 63.7558C121.38 63.778 121.713 63.7545 121.796 63.6852C121.997 63.5038 122.409 63.4415 123.034 63.4983C123.461 63.5371 123.687 63.5883 123.712 63.652C123.75 63.7324 123.626 63.9131 123.34 64.1943C122.918 64.6015 122.621 65.0046 122.446 65.4035C122.215 65.9202 121.426 66.148 120.08 66.087C118.747 66.0427 117.285 65.733 115.694 65.1581C114.117 64.5846 112.982 64.0589 112.288 63.581C111.608 63.1198 111.116 62.5373 110.811 61.8336C110.697 61.5621 110.565 61.3274 110.414 61.1293C110.278 60.9326 110.165 60.8301 110.073 60.8218C109.982 60.8134 109.87 60.6957 109.737 60.4685C109.619 60.2427 109.521 59.965 109.444 59.6354C109.366 59.3057 109.261 59.0273 109.128 58.8001C109.01 58.5743 108.906 58.4573 108.814 58.449C108.723 58.4406 108.65 58.3956 108.596 58.3139C108.542 58.2322 108.52 58.138 108.53 58.0313C108.555 57.7571 108.424 57.4225 108.137 57.0278L107.383 55.9453C107.044 55.4535 106.672 54.8053 106.269 54.0005C105.866 53.1957 105.567 52.5156 105.372 51.9601L104.996 50.7737L104.003 51.8126C103.327 52.4885 102.976 52.9636 102.951 53.2378C102.901 53.6174 102.338 54.411 101.26 55.6189C100.197 56.8281 99.126 57.8828 98.0455 58.7831C96.5828 60.002 95.8445 60.6877 95.8306 60.84C95.8084 61.0838 95.2876 61.5741 94.2681 62.311C93.2639 63.0493 92.1952 63.7356 91.0621 64.3699C89.9443 65.0057 89.233 65.3097 88.9283 65.282L88.0847 65.1822L88.9927 64.5735C89.2226 64.41 89.4318 64.2217 89.6202 64.0084C89.8072 63.8103 89.9055 63.6579 89.9152 63.5513C89.9249 63.4446 89.9873 63.3504 90.1022 63.2687C90.2311 63.2036 90.3717 63.178 90.524 63.1918C90.6764 63.2057 90.8094 63.1794 90.9229 63.1129C91.0365 63.0464 91.0982 62.9598 91.1079 62.8532C91.1287 62.6246 91.547 62.1634 92.3629 61.4695C93.1926 60.7921 93.7293 60.4646 93.9731 60.4867C94.0645 60.4951 94.1525 60.457 94.237 60.3725C94.3229 60.2728 94.3721 60.1543 94.3845 60.0172C94.397 59.8801 94.4898 59.7042 94.663 59.4895C94.8361 59.2748 95.0307 59.0774 95.2468 58.8973C95.7898 58.5012 96.0696 58.2117 96.0862 58.0289C96.1098 57.7698 97.425 56.4838 100.032 54.1707C100.299 53.9338 100.538 53.6789 100.747 53.4061C100.957 53.118 101.069 52.8977 101.083 52.7454C101.097 52.593 101.228 52.3361 101.476 51.9745C101.739 51.6144 102.041 51.2501 102.382 50.8817C103.08 50.131 103.488 49.5305 103.606 49.0803C103.724 48.6302 103.62 47.9909 103.296 47.1626L102.222 44.2766C101.708 42.8319 101.341 41.8844 101.121 41.4342C100.916 40.9854 100.737 40.7541 100.585 40.7403C100.509 40.7333 100.329 40.4327 100.045 39.8385C99.7776 39.2304 99.4888 38.5205 99.1785 37.7088C97.9597 34.3872 96.9971 32.6405 96.2907 32.4687C95.9915 32.38 95.7006 32.5379 95.418 32.9424C95.116 33.3912 94.3853 33.655 93.226 33.7339C92.0818 33.8142 90.9654 33.6743 89.8767 33.3141C87.2948 32.4802 86.0212 31.8728 86.0558 31.4919C86.0738 31.2938 86.042 30.7993 85.9603 30.0084C85.8703 29.3089 85.9818 28.9273 86.2948 28.8635C86.6093 28.7846 86.9292 29.0672 87.2547 29.7113C87.3572 29.9357 87.5387 30.1365 87.7991 30.3138C88.0608 30.4759 88.3213 30.5687 88.5803 30.5923C88.8393 30.6158 89.0575 30.6664 89.2348 30.744C89.4121 30.8216 89.4972 30.8984 89.4903 30.9746C89.4668 31.2336 89.8553 31.5224 90.6559 31.8411C91.4565 32.1597 91.9801 32.2303 92.2266 32.053C92.3568 31.9727 92.53 31.927 92.7461 31.9159C92.9622 31.9048 93.1512 31.9374 93.3133 32.0136C93.8272 32.2754 94.2566 32.1992 94.6015 31.7851C94.963 31.3571 95.1888 30.6479 95.2789 29.6575ZM35.3467 91.8137C36.0481 91.3718 36.8127 91.3052 37.6403 91.6139C38.5101 91.8875 40.0076 92.7432 42.1328 94.1812C45.0331 96.0786 47.0882 97.6463 48.2981 98.8844C49.5501 100.087 50.1375 101.113 50.0603 101.962C50.0323 102.271 50.1199 102.59 50.3233 102.919C50.5267 103.249 50.7968 103.488 51.1335 103.635C51.8769 104.014 52.0627 107.531 51.6908 114.188C51.4311 118.326 51.1557 121.14 50.8646 122.631C50.577 124.083 50.0965 125.089 49.4231 125.65C48.9601 126.036 48.5445 126.543 48.1763 127.171C47.8466 127.802 47.6572 128.388 47.6081 128.928C47.5589 129.468 47.4169 129.961 47.1819 130.406C46.9855 130.855 46.7645 131.146 46.519 131.279C45.9088 131.574 45.2985 132.724 44.6882 134.73C44.0499 136.617 42.5839 138.837 40.2902 141.39C38.035 143.947 36.4042 145.199 35.3977 145.146C34.2368 145.079 32.7446 144.38 30.9209 143.047C29.1359 141.718 28.2767 140.686 28.3433 139.953C28.3749 139.606 28.303 139.327 28.1277 139.117C27.9944 138.871 27.7928 138.736 27.5227 138.712C27.2527 138.687 27.044 138.416 26.8967 137.896C26.7529 137.339 26.7126 136.713 26.7758 136.018C26.8424 135.285 26.7811 134.463 26.5917 133.551C26.4059 132.601 26.1411 131.877 25.7974 131.379C25.2539 130.512 25.0207 128.157 25.098 124.314C25.1788 120.431 25.498 116.707 26.0558 113.14C26.617 109.535 27.2168 107.644 27.8551 107.469C28.774 107.203 29.3807 105.449 29.6754 102.209C29.9736 98.9294 30.6576 96.969 31.7272 96.3272C32.1797 96.0572 32.5812 95.7047 32.932 95.2699C33.2827 94.835 33.4738 94.444 33.5054 94.0968C33.5335 93.7881 33.7229 93.4164 34.0736 92.9815C34.4278 92.5081 34.8522 92.1188 35.3467 91.8137ZM41.4173 98.2003C41.2069 97.5199 40.6668 97.0429 39.797 96.7694C38.9694 96.4607 38.1364 96.4239 37.2982 96.6588C36.46 96.8938 35.9918 97.3374 35.8936 97.9897C35.6551 99.3294 35.385 100.374 35.0834 101.125C34.7817 101.876 34.0768 103.212 32.9685 105.134C32.1338 106.613 31.5024 108.423 31.0745 110.562C30.6886 112.667 30.294 116.365 29.8905 121.657C29.2485 130 29.1115 134.928 29.4797 136.439C29.8164 137.442 30.4845 138.009 31.484 138.139C32.5256 138.233 33.9214 137.855 35.6715 137.002C37.4601 136.154 38.3825 135.421 38.4386 134.804C38.4912 134.225 39.6013 132.498 41.7688 129.622C42.6982 128.384 43.4908 127.153 44.1467 125.929C44.8411 124.709 45.2146 123.809 45.2673 123.23C45.3865 121.919 45.7723 121.098 46.4247 120.769C46.7123 120.6 46.9122 120.113 47.0244 119.306C47.1753 118.503 47.2033 117.553 47.1087 116.455C47.0561 115.322 47.1438 114.144 47.3718 112.92C47.5998 111.696 47.926 110.675 48.3504 109.858C49.0098 108.596 49.2904 107.649 49.1922 107.017C49.1361 106.351 48.5995 105.194 47.5825 103.545C46.9688 102.595 46.2674 101.753 45.4784 101.02C44.6893 100.287 44.044 99.8978 43.5425 99.8522C43.0796 99.8101 42.6289 99.633 42.1905 99.3208C41.7557 98.9701 41.4979 98.5966 41.4173 98.2003ZM61.609 153.2C60.6909 152.96 60.1119 152.437 59.8718 151.632C59.6835 150.832 59.853 149.829 60.3804 148.624C60.9077 147.419 61.7857 146.089 63.0145 144.634C63.5183 144.262 63.9655 143.937 64.3563 143.659C64.7518 143.33 65.0178 142.989 65.1543 142.635C65.4462 142.297 66.0794 141.649 67.054 140.694C68.0333 139.686 69.1797 138.563 70.4932 137.325C71.8067 136.087 73.092 134.872 74.349 133.681C75.6579 132.495 76.7689 131.473 77.6823 130.617C78.5956 129.76 79.0853 129.256 79.1512 129.106C79.3536 129.176 79.5961 129.094 79.8786 128.858C80.1658 128.571 80.3776 128.251 80.5142 127.898C80.7072 127.498 80.9991 127.159 81.3898 126.881C81.7853 126.552 82.1667 126.377 82.5339 126.359C82.661 126.109 82.8093 125.914 82.9788 125.772C83.1483 125.631 83.2683 125.459 83.339 125.257C83.4096 125.055 83.5296 124.883 83.6991 124.741C83.9204 124.605 84.0663 124.435 84.137 124.233C84.6407 123.861 85.5117 123.183 86.7499 122.199C87.9928 121.164 89.4334 119.963 91.0718 118.598C92.7102 117.233 94.4074 115.795 96.1635 114.283C97.9196 112.772 99.5627 111.355 101.093 110.032C102.623 108.709 103.873 107.596 104.843 106.692C105.813 105.788 106.356 105.263 106.474 105.117C106.898 104.477 107.406 104.341 107.999 104.708C108.381 104.534 108.795 104.571 109.242 104.821C109.242 104.821 109.256 104.953 109.285 105.216C109.369 105.433 109.492 105.81 109.652 106.346C109.864 106.888 109.925 107.363 109.835 107.773C109.751 108.131 109.529 108.554 109.171 109.044C108.861 109.59 108.505 110.054 108.105 110.435C107.757 110.821 107.163 111.315 106.325 111.918C105.539 112.525 104.306 113.457 102.625 114.714C102.225 115.096 101.434 115.755 100.252 116.692C99.127 117.581 97.9147 118.568 96.6153 119.65C95.3206 120.681 94.193 121.597 93.2326 122.397C92.2769 123.146 91.7684 123.569 91.7072 123.668C91.4954 123.701 91.2247 123.807 90.8951 123.986C90.6173 124.17 90.3231 124.535 90.0123 125.081C89.5604 125.457 88.8283 126.043 87.8161 126.839C86.8556 127.639 85.9517 128.392 85.1043 129.099C84.3133 129.758 83.8849 130.163 83.819 130.313C83.7013 130.459 83.5342 130.575 83.3176 130.659C83.101 130.744 82.8327 130.824 82.5125 130.899C82.4655 130.843 82.3831 130.888 82.2654 131.033C82.1995 131.184 82.1665 131.259 82.1665 131.259C82.1477 131.467 81.877 131.86 81.3544 132.439C80.8883 132.971 80.1821 133.559 79.2358 134.204C78.2612 135.16 76.9689 136.452 75.3587 138.081C73.8051 139.663 72.1902 141.343 70.5142 143.123C68.8946 144.855 67.4469 146.421 66.1711 147.819C64.8905 149.269 64.0666 150.29 63.6993 150.884C63.1956 151.83 62.8001 152.447 62.5129 152.734C62.2775 153.026 61.9762 153.181 61.609 153.2ZM89.7716 145.814C90.7979 144.863 91.6407 143.922 92.2998 142.989C92.9589 142.057 93.6134 140.89 94.2631 139.487C94.5315 138.832 94.7151 137.961 94.814 136.874C94.9129 135.786 94.8399 135.153 94.5951 134.974C94.1008 134.668 93.4865 134.534 92.752 134.572C92.0741 134.562 91.3397 134.887 90.5487 135.546C89.1646 136.412 87.9334 137.606 86.8553 139.126C85.8336 140.6 84.7955 142.255 83.7409 144.091C83.0441 145.437 82.811 146.565 83.0417 147.473C83.3288 148.335 84.0538 148.688 85.2167 148.533C86.3748 148.429 87.8931 147.523 89.7716 145.814ZM83.2251 152.346C82.7073 152.299 82.2765 152.155 81.9328 151.915C81.641 151.68 81.3044 151.362 80.923 150.962C80.1698 150.058 79.6731 149.203 79.4331 148.398C79.193 147.593 79.1812 146.861 79.3978 146.202C79.5344 145.849 79.5885 145.541 79.5603 145.277C79.5885 144.966 79.6027 144.811 79.6027 144.811C79.4191 144.533 79.3814 144.373 79.4897 144.331C79.598 144.288 79.6851 144.192 79.751 144.041C80.0099 144.065 80.1088 143.839 80.0476 143.363C80.0241 143.048 80.2713 142.339 80.7892 141.238C81.3071 140.136 81.9215 139.122 82.6324 138.194C82.929 137.803 83.3409 137.293 83.8682 136.662C84.3955 136.031 84.9746 135.405 85.6055 134.783C86.2882 134.167 86.9072 133.675 87.4628 133.308C88.5786 132.521 89.5437 131.956 90.3582 131.613C91.1726 131.269 92.0554 131.036 93.0064 130.914C93.9621 130.74 94.6188 130.695 94.9766 130.78C95.3391 130.813 95.8005 131.194 96.3607 131.924C97.2599 132.371 97.8884 132.924 98.2461 133.583C98.6604 134.195 98.8675 135.076 98.8675 136.224C98.858 137.477 98.6249 138.891 98.1682 140.469C97.768 141.999 96.631 143.879 94.7572 146.111C93.5896 147.467 92.5327 148.467 91.5864 149.112C90.6401 149.757 89.5384 150.388 88.2814 151.004C87.3492 151.494 86.5089 151.835 85.7603 152.028C85.0071 152.273 84.162 152.379 83.2251 152.346ZM81.5808 116.168C82.6072 115.217 83.4499 114.276 84.1091 113.344C84.7682 112.412 85.4226 111.244 86.0723 109.841C86.3407 109.187 86.5243 108.316 86.6232 107.228C86.7221 106.141 86.6492 105.508 86.4044 105.329C85.9101 105.023 85.2957 104.888 84.5613 104.926C83.8833 104.917 83.1489 105.242 82.358 105.901C80.9738 106.767 79.7427 107.96 78.6645 109.481C77.6429 110.954 76.6047 112.609 75.5501 114.445C74.8533 115.792 74.6203 116.919 74.8509 117.828C75.1381 118.689 75.8607 119.068 77.0188 118.965C78.1817 118.809 79.7024 117.877 81.5808 116.168ZM74.9638 122.616C74.4459 122.569 74.0151 122.425 73.6715 122.185C73.3796 121.949 73.043 121.632 72.6617 121.231C71.9084 120.327 71.4118 119.473 71.1717 118.668C70.9316 117.863 70.9199 117.131 71.1365 116.472C71.273 116.119 71.3271 115.81 71.2989 115.547C71.3272 115.236 71.3413 115.081 71.3413 115.081C71.1577 114.803 71.12 114.643 71.2283 114.6C71.3366 114.558 71.4237 114.461 71.4896 114.311C71.7485 114.334 71.8474 114.108 71.7862 113.633C71.7627 113.317 72.0099 112.609 72.5278 111.507C73.0457 110.406 73.6601 109.391 74.371 108.464C74.6676 108.073 75.0796 107.562 75.6069 106.931C76.1342 106.301 76.7132 105.674 77.3441 105.053C78.0268 104.436 78.6459 103.944 79.2014 103.577C80.3172 102.791 81.2823 102.226 82.0968 101.882C82.9113 101.539 83.794 101.306 84.745 101.183C85.7007 101.009 86.3574 100.965 86.7152 101.049C87.0777 101.082 87.5391 101.464 88.0993 102.193C88.9985 102.641 89.627 103.194 89.9848 103.853C90.399 104.465 90.6061 105.345 90.6061 106.494C90.5967 107.746 90.3636 109.161 89.9069 110.738C89.5066 112.268 88.3696 114.149 86.4958 116.38C85.3283 117.736 84.2713 118.737 83.325 119.382C82.3787 120.027 81.2771 120.657 80.02 121.274C79.0879 121.764 78.2451 122.131 77.4919 122.376C76.7433 122.569 75.9006 122.649 74.9638 122.616Z" fill="#D6C6B6"/>
</svg>
