<svg width="287" height="161" viewBox="0 0 287 161" fill="none" xmlns="http://www.w3.org/2000/svg">
<path d="M30.8901 24.3931C31.1437 24.0861 31.3573 23.9326 31.5308 23.9326C31.7043 23.9326 31.9178 24.0861 32.1714 24.3931C32.465 24.7401 32.4116 25.1271 32.0112 25.5542C31.6108 25.9813 30.9902 26.3083 30.1494 26.5352C29.8024 26.6286 29.5088 26.742 29.2686 26.8755C29.0283 26.9956 28.9082 27.1024 28.9082 27.1958C28.9082 27.2759 28.8548 27.3493 28.748 27.416C28.6413 27.4827 28.5011 27.5161 28.3276 27.5161C27.9539 27.5295 27.5535 27.6963 27.1265 28.0166C26.953 28.1367 26.7127 28.2435 26.4058 28.3369C26.0988 28.4303 25.8252 28.477 25.585 28.477C25.3447 28.477 25.1112 28.5104 24.8843 28.5771C24.6707 28.6439 24.5373 28.724 24.4839 28.8174C24.4305 28.9108 24.0168 28.9909 23.2427 29.0576C22.4686 29.111 21.5143 29.1377 20.3799 29.1377H16.4561L16.5161 30.2187C16.5428 31.0596 16.4827 32.5076 16.3359 34.563C16.1891 36.605 16.0156 38.3 15.8154 39.6479C15.5085 41.8367 15.5618 47.0352 15.9756 55.2432C16.029 56.2842 16.029 56.9915 15.9756 57.3652C15.9355 57.7523 15.8354 57.9458 15.6753 57.9458C14.1672 57.9458 13.4198 53.4748 13.4331 44.5327C13.4465 42.0236 13.4865 40.2018 13.5532 39.0674C13.6333 37.9329 13.7801 36.9987 13.9937 36.2646C14.354 35.0101 14.5075 33.4085 14.4541 31.46L14.374 28.5571L10.4302 28.3369C8.74853 28.2435 7.28711 28.2368 6.0459 28.3169C4.80469 28.3836 3.32991 28.5638 1.62158 28.8574C1.20784 28.9375 0.907552 28.7306 0.720703 28.2368C0.600586 27.9165 0.56722 27.7163 0.620605 27.6362C0.687337 27.5428 0.894206 27.4961 1.24121 27.4961C1.45475 27.4961 1.65495 27.4627 1.8418 27.396C2.04199 27.3293 2.17546 27.2425 2.24219 27.1357C2.29557 27.0423 2.40234 26.9756 2.5625 26.9355C2.736 26.8955 2.90283 26.9022 3.06299 26.9556C3.23649 26.9956 3.3833 27.0023 3.50342 26.9756C3.62353 26.9355 3.68359 26.8755 3.68359 26.7954C3.68359 26.5952 6.05257 26.5218 10.7905 26.5752C14.7677 26.6152 17.0166 26.702 17.5371 26.8354C17.8174 26.9155 17.9775 27.0423 18.0176 27.2158C18.0843 27.4694 18.2378 27.6229 18.478 27.6763C18.7183 27.7163 19.2321 27.703 20.0195 27.6362C21.2474 27.5295 22.1683 27.376 22.7822 27.1758C23.0225 27.0957 23.2827 27.049 23.563 27.0356C23.8433 27.0089 24.0435 27.0156 24.1636 27.0557C24.2837 27.109 24.4906 27.1024 24.7842 27.0356C25.0778 26.9689 25.3714 26.8621 25.665 26.7153C26.359 26.3683 26.9463 26.1948 27.4268 26.1948C27.6269 26.1948 27.8538 26.1281 28.1074 25.9946C28.3743 25.8612 28.5879 25.7077 28.748 25.5342C28.9082 25.3607 29.1017 25.2072 29.3286 25.0737C29.5555 24.9403 29.749 24.8735 29.9092 24.8735C30.0693 24.8735 30.2428 24.8268 30.4297 24.7334C30.6165 24.64 30.77 24.5265 30.8901 24.3931ZM41.6206 27.8965C41.7541 27.763 41.9209 27.6629 42.1211 27.5962C42.3213 27.5161 42.4948 27.4961 42.6416 27.5361C42.7884 27.5628 42.8551 27.6362 42.8418 27.7563C42.8284 28.05 42.6416 28.3503 42.2812 28.6572C41.9342 28.9642 41.5272 29.1711 41.0601 29.2778C40.7931 29.3446 40.4261 29.5448 39.959 29.8784C39.5052 30.1987 39.0848 30.5591 38.6977 30.9595C38.4308 31.2397 38.2373 31.4399 38.1172 31.5601C38.0104 31.6802 37.8903 31.8403 37.7568 32.0405C37.6367 32.2407 37.5566 32.3875 37.5166 32.481C37.4899 32.561 37.4565 32.7279 37.4165 32.9814C37.3898 33.2217 37.3765 33.4352 37.3765 33.6221C37.3898 33.7956 37.4098 34.0892 37.4365 34.5029C37.4766 35.4105 37.5566 36.0644 37.6768 36.4648C37.8102 36.8652 38.0771 37.3057 38.4775 37.7861C38.7311 38.0931 38.9914 38.3467 39.2583 38.5469C39.5252 38.7471 39.7121 38.8338 39.8188 38.8071C39.9256 38.7671 40.0924 38.7938 40.3193 38.8872C40.5596 38.9806 40.7865 39.1141 41 39.2876C41.2135 39.4611 41.5072 39.6213 41.8809 39.7681C42.2546 39.9149 42.5949 40.0083 42.9019 40.0483C44.0096 40.1951 45.7113 40.4421 48.0068 40.7891C48.7542 40.9092 49.1146 41.1294 49.0879 41.4497C49.0745 41.77 48.7142 42.0503 48.0068 42.2905C47.4863 42.464 46.8991 42.5508 46.2451 42.5508C45.6979 42.5641 45.0172 42.6909 44.2031 42.9311C43.4023 43.1714 42.7017 43.4517 42.1011 43.772C41.5138 44.0789 41.2202 44.3392 41.2202 44.5527C41.2202 44.7529 41.1134 44.853 40.8999 44.853C40.673 44.853 40.1792 45.2267 39.4185 45.9741C38.6577 46.7215 38.2773 47.2087 38.2773 47.4355C38.2773 47.5423 38.244 47.6291 38.1772 47.6958C38.1239 47.7625 38.0505 47.7959 37.957 47.7959C37.7034 47.7959 37.3097 48.4165 36.7759 49.6577C36.2554 50.8989 35.9951 51.8198 35.9951 52.4204C35.9951 52.7941 36.0018 53.061 36.0151 53.2212C36.0285 53.3813 36.1152 53.5815 36.2754 53.8218C36.4355 54.062 36.6224 54.2689 36.8359 54.4424C37.0495 54.6292 37.4232 54.9362 37.957 55.3633C38.7445 56.0039 39.5252 56.4243 40.2993 56.6245C41.0734 56.8247 42.5815 57.0049 44.8237 57.165C46.6789 57.2985 47.8267 57.3919 48.2671 57.4453C48.7075 57.4987 49.7285 57.5454 51.3301 57.5854C52.6781 57.6121 53.3854 57.6922 53.4521 57.8257C53.4922 57.8924 53.4588 57.9858 53.352 58.106C53.2586 58.2261 53.0851 58.3328 52.8315 58.4263C52.578 58.5197 52.331 58.5597 52.0908 58.5464C51.4902 58.5197 50.9764 58.6198 50.5493 58.8467C50.3758 58.9268 50.0155 58.9868 49.4683 59.0268C48.9344 59.0802 48.3739 59.0869 47.7866 59.0469L43.3623 58.8267C42.7083 58.7866 42.0677 58.7065 41.4404 58.5864C40.8131 58.4663 40.3594 58.3262 40.0791 58.166C39.4251 57.8057 38.9713 57.6255 38.7178 57.6255C38.611 57.6255 38.4175 57.5321 38.1372 57.3452C37.8703 57.1584 37.59 56.9248 37.2964 56.6445C37.0028 56.3643 36.7091 56.1307 36.4155 55.9438C36.1352 55.757 35.9284 55.6636 35.7949 55.6636C35.6615 55.6636 35.548 55.6369 35.4546 55.5835C35.3745 55.5435 35.3345 55.4901 35.3345 55.4233C35.3345 55.2498 35.0809 54.8895 34.5737 54.3423C33.5727 53.2746 33.3125 52.4938 33.793 52C34.0599 51.7064 34.6204 50.6987 35.4746 48.977C35.875 48.1629 36.4155 47.2887 37.0962 46.3545C37.7902 45.4202 38.4442 44.6662 39.0581 44.0923C39.672 43.505 40.0791 43.2715 40.2793 43.3916C40.346 43.4316 40.4261 43.4049 40.5195 43.3115C40.613 43.2181 40.6864 43.0846 40.7397 42.9111C40.7931 42.7243 40.8932 42.5641 41.04 42.4307C41.2002 42.2972 41.3603 42.2305 41.5205 42.2305C41.9209 42.2305 42.1811 42.1637 42.3013 42.0303C42.4614 41.8835 42.4614 41.6632 42.3013 41.3696C42.1411 41.076 41.9342 40.9292 41.6807 40.9292C41.5472 40.9292 41.4338 40.9025 41.3403 40.8491C41.2602 40.7824 41.2202 40.7023 41.2202 40.6089C41.2202 40.5288 41.1802 40.4754 41.1001 40.4487C41.02 40.422 40.9199 40.4287 40.7998 40.4687C40.4795 40.5889 39.9857 40.4487 39.3184 40.0483C38.6644 39.6346 38.0037 39.0807 37.3364 38.3867C36.6691 37.6927 36.182 37.0254 35.875 36.3848C35.5146 35.624 35.3345 34.8299 35.3345 34.0024C35.3478 33.1616 35.5413 32.561 35.915 32.2007C36.3421 31.8003 36.6825 31.3532 36.936 30.8594C37.0428 30.6592 37.1829 30.4857 37.3564 30.3389C37.5299 30.1921 37.6768 30.1186 37.7969 30.1186C37.9303 30.1186 38.0438 30.0786 38.1372 29.9985C38.2306 29.9185 38.2773 29.8184 38.2773 29.6982C38.2773 29.458 38.5509 29.1777 39.0981 28.8574C39.6587 28.5371 40.1859 28.3503 40.6797 28.2969C41.0667 28.2702 41.3804 28.1367 41.6206 27.8965ZM43.4224 27.6562C43.5158 27.416 43.9429 27.2892 44.7036 27.2759C45.4644 27.2625 46.3185 27.3626 47.2661 27.5762C48.2137 27.7764 48.9878 28.0433 49.5884 28.3769C50.5627 28.9108 51.0498 29.3112 51.0498 29.5781C51.0365 29.7116 50.9297 29.8384 50.7295 29.9585C50.6361 30.0119 50.556 30.1387 50.4893 30.3389C50.4225 30.5257 50.3892 30.7393 50.3892 30.9795C50.3892 31.2064 50.3358 31.4199 50.229 31.6201C50.1222 31.8203 49.9888 31.9471 49.8286 32.0005C49.6685 32.0539 49.4549 32.194 49.188 32.4209C48.9211 32.6478 48.6808 32.888 48.4673 33.1416C48.2671 33.3818 48.0202 33.5954 47.7266 33.7822C47.4329 33.9557 47.186 34.0425 46.9858 34.0425C46.799 34.0425 46.5988 34.0825 46.3852 34.1626C46.1717 34.2293 46.0116 34.3094 45.9048 34.4028C45.7713 34.5496 45.5778 34.623 45.3242 34.623C45.084 34.623 44.8838 34.563 44.7236 34.4429C44.5635 34.3227 44.5101 34.1826 44.5635 34.0225C44.6435 33.7822 45.1507 33.5153 46.085 33.2217C47.0325 32.9281 47.6598 32.8413 47.9668 32.9614C48.2738 33.0815 48.4272 32.9614 48.4272 32.6011C48.4272 32.4543 48.4606 32.3341 48.5273 32.2407C48.5941 32.1339 48.6741 32.0806 48.7676 32.0806C48.861 32.0806 48.9344 32.0138 48.9878 31.8804C49.0545 31.7336 49.0879 31.5534 49.0879 31.3398C49.0879 30.8327 49.1813 30.479 49.3682 30.2788C49.5684 30.0653 49.5817 29.7116 49.4082 29.2178C49.2747 28.8975 49.1213 28.7106 48.9477 28.6572C48.7742 28.5905 48.4072 28.5972 47.8467 28.6772C46.9925 28.8107 46.492 28.7573 46.3452 28.5171C46.2785 28.4237 46.0783 28.3436 45.7446 28.2769C45.4243 28.1968 45.064 28.1567 44.6636 28.1567C44.0897 28.1567 43.716 28.1234 43.5425 28.0566C43.3823 27.9899 43.3423 27.8564 43.4224 27.6562ZM68.687 28.6572C69.1274 27.5628 69.7013 26.7687 70.4087 26.2749C71.116 25.7811 71.5565 25.5342 71.73 25.5342C72.0102 25.5342 72.1103 29.1043 72.0303 36.2446C72.0036 39.1007 72.1037 40.6022 72.3306 40.749C72.4373 40.8024 72.5174 40.9559 72.5708 41.2095C72.6375 41.4497 72.6709 41.7166 72.6709 42.0102C72.6709 42.2104 72.6709 42.3573 72.6709 42.4507C72.6842 42.5441 72.7109 42.6375 72.751 42.731C72.791 42.8244 72.8244 42.8844 72.8511 42.9111C72.8911 42.9378 72.9845 42.9645 73.1313 42.9912C73.2781 43.0046 73.4116 43.0046 73.5317 42.9912C73.6652 42.9779 73.8787 42.9578 74.1724 42.9311C75.16 42.8644 76.0342 42.8978 76.7949 43.0312C77.2487 43.1247 77.549 43.2381 77.6958 43.3716C77.8426 43.4917 77.916 43.7119 77.916 44.0322C77.916 44.4993 77.7292 44.7863 77.3555 44.8931C76.9818 44.9865 76.201 44.9531 75.0132 44.793C73.812 44.6328 73.1514 44.6128 73.0312 44.7329C72.9779 44.7729 72.9845 44.9064 73.0513 45.1333C73.1313 45.3602 73.2515 45.6138 73.4116 45.894C73.7987 46.5614 73.9922 47.0885 73.9922 47.4756C73.9922 47.8626 74.1523 48.3698 74.4726 48.9971C74.8063 49.6243 74.9731 50.1315 74.9731 50.5185C74.9731 50.959 75.1667 51.7531 75.5537 52.9009C75.9407 54.0487 76.3078 54.9028 76.6548 55.4634C77.0285 56.0907 77.5156 56.5978 78.1162 56.9849C78.7301 57.3852 79.1973 57.4987 79.5176 57.3252C80.0781 57.0449 80.7721 56.8781 81.5996 56.8247C82.4271 56.7713 82.9409 56.8647 83.1411 57.105C83.5281 57.5721 83.1678 57.9391 82.06 58.206C81.5128 58.3262 80.7988 58.4263 79.918 58.5063C78.9303 58.5998 78.2563 58.6131 77.896 58.5464C77.5356 58.4796 77.1286 58.2795 76.6748 57.9458C76.1543 57.5587 75.5737 56.8247 74.9331 55.7436C74.3058 54.6626 73.9922 53.8685 73.9922 53.3613C73.9922 53.2012 73.9521 53.0477 73.8721 52.9009C73.8053 52.7674 73.7186 52.6807 73.6118 52.6406C73.505 52.6139 73.3849 52.4404 73.2515 52.1201C73.1313 51.8131 73.0379 51.4595 72.9712 51.0591C72.7977 50.0848 72.5574 49.0571 72.2505 47.9761C72.2238 47.8693 72.1837 47.7158 72.1304 47.5156C72.0102 47.1152 71.9302 46.835 71.8901 46.6748C71.8501 46.5013 71.7834 46.2944 71.6899 46.0542C71.5965 45.8006 71.5298 45.6405 71.4897 45.5737C71.463 45.4936 71.3963 45.4002 71.2895 45.2935C71.1828 45.1733 71.1027 45.1066 71.0493 45.0933C70.9959 45.0799 70.8825 45.0599 70.709 45.0332C70.5488 45.0065 70.4154 44.9998 70.3086 45.0132C70.2018 45.0132 70.015 45.0199 69.748 45.0332C69.6279 45.0332 69.5345 45.0332 69.4678 45.0332C68.2266 45.0866 67.2589 45.1934 66.5649 45.3535C66.0845 45.4603 65.7775 45.6071 65.644 45.7939C65.5106 45.9674 65.3905 46.3945 65.2837 47.0752C65.1235 48.0895 64.8366 49.0905 64.4228 50.0781L63.4619 52.3804C63.235 52.9276 63.0215 53.3613 62.8213 53.6816C62.6211 54.0153 62.3942 54.4557 62.1406 55.0029C61.887 55.5501 61.3131 56.2842 60.4189 57.2051C59.5381 58.1393 58.9642 58.6064 58.6973 58.6064C58.5771 58.6064 58.477 58.6331 58.397 58.6865C58.3169 58.7399 58.2768 58.8 58.2768 58.8667C58.2768 59.0936 57.8231 59.3872 56.9155 59.7476C56.0213 60.1212 55.4341 60.2547 55.1538 60.1479C54.6199 59.9344 54.5666 59.6541 54.9936 59.3071C55.2606 59.0936 55.741 58.8066 56.4351 58.4463C57.6362 57.8457 58.5905 57.1717 59.2978 56.4243C60.0052 55.6769 60.6392 54.6893 61.1997 53.4614C61.4132 53.0076 61.6335 52.7074 61.8603 52.5605C61.9538 52.5072 62.0338 52.387 62.1006 52.2002C62.1673 52.0133 62.2007 51.8265 62.2007 51.6396C62.2007 51.1592 62.3475 50.6387 62.6411 50.0781C62.9347 49.5042 63.1549 48.7902 63.3018 47.936C63.4619 47.0819 63.5954 46.4613 63.7021 46.0742C63.7689 45.8607 63.7555 45.7139 63.6621 45.6338C63.582 45.5537 63.3818 45.5137 63.0615 45.5137C62.848 45.5137 62.6478 45.4736 62.4609 45.3935C62.2741 45.3135 62.1606 45.2134 62.1206 45.0933C62.0672 44.9464 62.0005 44.873 61.9204 44.873C61.8403 44.8597 61.7135 44.9331 61.54 45.0933C61.2598 45.3602 60.8527 45.5137 60.3188 45.5537C59.785 45.5804 59.3112 45.4936 58.8975 45.2935C58.4837 45.0799 58.2768 44.813 58.2768 44.4927C58.2768 44.2391 58.397 44.0723 58.6372 43.9922C58.9175 43.9121 59.7783 43.8721 61.2197 43.8721H64.1626V42.5708C64.1626 42.1971 64.2026 41.8634 64.2827 41.5698C64.3761 41.2762 64.4829 41.096 64.603 41.0293C64.8966 40.8558 65.1035 40.0083 65.2236 38.4868C65.277 37.8595 65.3571 37.3123 65.4639 36.8452C65.5706 36.3647 65.6707 36.1112 65.7642 36.0845C65.8709 36.0444 65.9577 35.9577 66.0244 35.8242C66.0911 35.6908 66.1245 35.5439 66.1245 35.3838C66.1245 34.9967 66.4448 34.0491 67.0854 32.541L68.687 28.6572ZM70.3486 35.1235C70.402 30.6925 70.3686 28.477 70.2485 28.477C70.1284 28.477 70.0684 28.6973 70.0684 29.1377C70.0684 29.5781 69.8481 30.2054 69.4077 31.0195C68.9673 31.8337 68.7471 32.4209 68.7471 32.7812C68.7471 33.1283 68.6737 33.3752 68.5268 33.522C68.3 33.7489 68.0063 34.5229 67.646 35.8442C67.299 37.1655 67.1255 38.1398 67.1255 38.7671C67.1255 39.1141 67.0721 39.4678 66.9653 39.8281C66.8719 40.1885 66.7651 40.4421 66.645 40.5889C66.5115 40.7357 66.3714 41.0026 66.2246 41.3896C66.0911 41.7633 65.9977 42.1504 65.9443 42.5508L65.7041 43.9722L67.1455 43.7319C68.4134 43.5184 69.5812 43.3582 70.6489 43.2515C70.8224 43.2381 70.9092 43.1847 70.9092 43.0913C70.9092 42.9845 70.8291 42.7843 70.6689 42.4907C70.5221 42.2104 70.422 41.5164 70.3686 40.4087C70.3153 39.3009 70.3086 37.5392 70.3486 35.1235ZM93.3711 27.6562C93.3711 26.8955 93.4845 26.4217 93.7114 26.2349C93.9516 26.048 94.2653 26.1881 94.6523 26.6553C94.9593 27.0156 95.4197 27.8231 96.0337 29.0776C96.661 30.3322 96.9746 31.0863 96.9746 31.3398C96.9746 31.6468 97.3683 32.6411 98.1558 34.3227C98.9432 35.991 99.437 37.0721 99.6372 37.5659C99.7039 37.7661 99.7907 37.9396 99.8974 38.0864C100.018 38.2332 100.111 38.3066 100.178 38.3066C100.511 38.3066 101.045 37.2122 101.779 35.0234C101.939 34.543 102.133 34.0692 102.36 33.602C102.6 33.1349 102.8 32.8213 102.96 32.6611C103.334 32.2741 103.521 31.9471 103.521 31.6802C103.521 31.3999 103.888 30.7192 104.622 29.6382C104.929 29.1711 105.209 28.6906 105.463 28.1968C105.716 27.703 105.877 27.3293 105.943 27.0757C106.037 26.6886 106.23 26.415 106.524 26.2549C106.818 26.0947 107.118 26.0881 107.425 26.2349C107.745 26.3683 107.979 26.6286 108.125 27.0156C108.272 27.4027 108.272 29.2378 108.125 32.521C107.979 35.7908 107.798 37.993 107.585 39.1274C107.345 40.382 107.185 41.6766 107.104 43.0112C107.038 44.3325 107.064 45.4403 107.185 46.3345C107.358 47.6424 107.445 48.4165 107.445 48.6567C107.445 48.897 107.718 49.3374 108.266 49.978C108.813 50.6053 109.086 51.0057 109.086 51.1792C109.086 51.3527 109.3 51.6396 109.727 52.04C110.154 52.4404 110.534 52.7074 110.868 52.8408C111.349 53.0143 111.943 53.001 112.65 52.8008C113.357 52.6006 114.018 52.2536 114.632 51.7598C115.072 51.3994 115.366 51.0724 115.513 50.7788C115.673 50.4852 115.76 50.0915 115.773 49.5977C115.786 48.7969 115.92 48.3564 116.173 48.2764C116.44 48.1829 116.801 48.4499 117.254 49.0771L117.955 50.0981L117.294 50.959C116.841 51.5462 116.614 51.9866 116.614 52.2803C116.614 52.387 116.58 52.4871 116.514 52.5806C116.46 52.674 116.4 52.7207 116.333 52.7207C116.133 52.7207 115.486 53.0877 114.392 53.8218C113.698 54.2889 113.157 54.6226 112.77 54.8227C112.383 55.0229 112.003 55.123 111.629 55.123C111.255 55.1364 110.928 55.0496 110.648 54.8628C110.368 54.6759 110.001 54.3623 109.547 53.9219C108.586 52.9609 108.105 52.4004 108.105 52.2402C108.105 52.0934 107.792 51.6797 107.165 50.999C106.898 50.7054 106.651 50.3517 106.424 49.938C106.197 49.5109 106.05 49.1305 105.983 48.7969C105.823 48.0228 105.63 47.4956 105.403 47.2153C105.176 46.9484 105.076 45.8006 105.103 43.772C105.129 41.7433 105.256 40.422 105.483 39.8081C105.576 39.5679 105.656 39.1741 105.723 38.6269C105.79 38.0664 105.823 37.5259 105.823 37.0054C105.823 36.4715 105.85 35.9977 105.903 35.584C105.957 35.1702 106.017 34.9434 106.083 34.9033C106.164 34.8633 106.23 34.563 106.284 34.0024C106.337 33.4285 106.364 32.7679 106.364 32.0205C106.364 30.4056 106.31 29.6649 106.204 29.7983C106.097 30.1186 105.903 30.4456 105.623 30.7793C105.356 31.0996 105.143 31.5334 104.982 32.0806C104.822 32.6278 104.482 33.3151 103.961 34.1426C103.454 34.9567 103.201 35.4639 103.201 35.6641C103.201 35.931 102.86 36.7651 102.18 38.1665C101.499 39.5679 101.039 40.362 100.798 40.5488C100.505 40.8024 100.204 40.8691 99.8974 40.749C99.6572 40.6689 99.11 39.7614 98.2558 38.0264C97.4017 36.2913 96.9746 35.237 96.9746 34.8633C96.9746 34.7565 96.9279 34.623 96.8345 34.4629C96.7544 34.3027 96.6543 34.1759 96.5342 34.0825C96.334 33.9224 96.2205 33.9691 96.1938 34.2227C96.1671 34.4228 96.1805 34.8433 96.2339 35.4839C96.2873 36.1512 96.2539 36.8519 96.1338 37.5859C96.0137 38.3066 95.7534 39.321 95.353 40.6289C94.6724 42.8978 94.2119 44.2524 93.9717 44.6929C93.4512 45.6405 92.8906 46.7682 92.29 48.0762C91.7028 49.3708 91.4092 50.1115 91.4092 50.2983C91.4092 50.3784 91.2156 50.652 90.8286 51.1191C90.4549 51.5729 89.9945 52.0801 89.4473 52.6406C88.4062 53.7484 87.5721 54.409 86.9448 54.6226C86.3175 54.8361 85.7103 54.6759 85.123 54.1421C84.6025 53.675 84.3957 53.3079 84.5024 53.041C84.6092 52.7874 84.9896 52.7274 85.6435 52.8608C86.1774 52.9543 86.5845 52.9276 86.8647 52.7808C87.145 52.6473 87.6522 52.2202 88.3862 51.4995C88.8667 51.0324 89.2738 50.5586 89.6074 50.0781C89.9544 49.5843 90.168 49.1839 90.248 48.8769C90.3148 48.57 90.3948 48.3164 90.4883 48.1162C90.5817 47.9027 90.6618 47.7959 90.7285 47.7959C90.7952 47.7959 90.8887 47.7292 91.0088 47.5957C91.1289 47.4489 91.2357 47.2754 91.3291 47.0752C92.3835 44.8597 92.9974 43.2448 93.1709 42.2305C93.3444 41.2562 93.6714 39.8148 94.1518 37.9062C94.3387 37.1455 94.4388 36.1045 94.4521 34.7832C94.4788 33.4486 94.4121 32.234 94.2519 31.1396C94.1051 30.0452 93.9116 29.4246 93.6714 29.2778C93.5913 29.2378 93.5179 29.0576 93.4512 28.7373C93.3978 28.417 93.3711 28.0566 93.3711 27.6562ZM159.456 24.3931C159.709 24.0861 159.923 23.9326 160.096 23.9326C160.27 23.9326 160.483 24.0861 160.737 24.3931C161.03 24.7401 160.977 25.1271 160.577 25.5542C160.176 25.9813 159.556 26.3083 158.715 26.5352C158.368 26.6286 158.074 26.742 157.834 26.8755C157.594 26.9956 157.474 27.1024 157.474 27.1958C157.474 27.2759 157.42 27.3493 157.313 27.416C157.207 27.4827 157.067 27.5161 156.893 27.5161C156.519 27.5295 156.119 27.6963 155.692 28.0166C155.518 28.1367 155.278 28.2435 154.971 28.3369C154.664 28.4303 154.391 28.477 154.15 28.477C153.91 28.477 153.677 28.5104 153.45 28.5771C153.236 28.6439 153.103 28.724 153.049 28.8174C152.996 28.9108 152.582 28.9909 151.808 29.0576C151.034 29.111 150.08 29.1377 148.945 29.1377H145.021L145.082 30.2187C145.108 31.0596 145.048 32.5076 144.901 34.563C144.755 36.605 144.581 38.3 144.381 39.6479C144.074 41.8367 144.127 47.0352 144.541 55.2432C144.594 56.2842 144.594 56.9915 144.541 57.3652C144.501 57.7523 144.401 57.9458 144.241 57.9458C142.733 57.9458 141.985 53.4748 141.999 44.5327C142.012 42.0236 142.052 40.2018 142.119 39.0674C142.199 37.9329 142.346 36.9987 142.559 36.2646C142.919 35.0101 143.073 33.4085 143.02 31.46L142.939 28.5571L138.996 28.3369C137.314 28.2435 135.853 28.2368 134.611 28.3169C133.37 28.3836 131.895 28.5638 130.187 28.8574C129.773 28.9375 129.473 28.7306 129.286 28.2368C129.166 27.9165 129.133 27.7163 129.186 27.6362C129.253 27.5428 129.46 27.4961 129.807 27.4961C130.02 27.4961 130.22 27.4627 130.407 27.396C130.607 27.3293 130.741 27.2425 130.808 27.1357C130.861 27.0423 130.968 26.9756 131.128 26.9355C131.301 26.8955 131.468 26.9022 131.628 26.9556C131.802 26.9956 131.949 27.0023 132.069 26.9756C132.189 26.9355 132.249 26.8755 132.249 26.7954C132.249 26.5952 134.618 26.5218 139.356 26.5752C143.333 26.6152 145.582 26.702 146.103 26.8354C146.383 26.9155 146.543 27.0423 146.583 27.2158C146.65 27.4694 146.803 27.6229 147.043 27.6763C147.284 27.7163 147.798 27.703 148.585 27.6362C149.813 27.5295 150.734 27.376 151.348 27.1758C151.588 27.0957 151.848 27.049 152.128 27.0356C152.409 27.0089 152.609 27.0156 152.729 27.0557C152.849 27.109 153.056 27.1024 153.35 27.0356C153.643 26.9689 153.937 26.8621 154.23 26.7153C154.924 26.3683 155.512 26.1948 155.992 26.1948C156.192 26.1948 156.419 26.1281 156.673 25.9946C156.94 25.8612 157.153 25.7077 157.313 25.5342C157.474 25.3607 157.667 25.2072 157.894 25.0737C158.121 24.9403 158.314 24.8735 158.475 24.8735C158.635 24.8735 158.808 24.8268 158.995 24.7334C159.182 24.64 159.335 24.5265 159.456 24.3931ZM173.569 25.1938C174.65 25.047 175.671 25.047 176.632 25.1938C177.607 25.3407 178.354 25.6009 178.874 25.9746C179.488 26.4284 180.122 27.3693 180.776 28.7974C181.43 30.2121 181.797 31.4533 181.877 32.521C181.971 33.6554 182.131 34.8232 182.358 36.0244C182.545 36.9453 182.611 38.0931 182.558 39.4678C182.505 40.8291 182.351 41.8634 182.098 42.5708C181.911 43.118 181.751 43.772 181.617 44.5327C181.564 44.853 181.437 45.2467 181.237 45.7139C181.05 46.1676 180.836 46.5614 180.596 46.895C180.049 47.7225 179.775 48.243 179.775 48.4565C179.775 48.6701 179.682 48.7768 179.495 48.7768C179.415 48.7768 179.328 48.8436 179.235 48.977C179.141 49.1105 179.068 49.2707 179.015 49.4575C178.975 49.631 178.888 49.7845 178.754 49.918C178.621 50.0381 178.487 50.0981 178.354 50.0981C178.194 50.0981 178.06 50.1449 177.954 50.2383C177.86 50.3317 177.813 50.4451 177.813 50.5786C177.813 50.9923 177.273 51.6663 176.192 52.6006C175.124 53.5348 174.217 54.1221 173.469 54.3623C173.096 54.4824 172.742 54.6292 172.408 54.8027C172.088 54.9762 171.894 55.123 171.828 55.2432C171.748 55.3633 171.627 55.4634 171.467 55.5435C171.32 55.6235 171.16 55.6636 170.987 55.6636C170.613 55.6636 170.293 55.797 170.026 56.064C169.866 56.2108 169.632 56.2441 169.325 56.1641C169.032 56.084 168.524 55.8571 167.804 55.4834C166.536 54.8294 165.608 54.1554 165.021 53.4614C164.447 52.7674 163.88 51.6797 163.319 50.1982C162.919 49.1172 162.645 48.1696 162.499 47.3555C162.365 46.528 162.258 45.2334 162.178 43.4717C162.111 41.9102 162.098 40.7891 162.138 40.1084C162.178 39.4144 162.278 38.974 162.438 38.7871C162.545 38.6403 162.665 38.36 162.799 37.9463C162.932 37.5325 163.032 37.1055 163.099 36.665C163.339 35.1969 163.846 33.8356 164.621 32.5811C165.408 31.3131 166.769 29.6515 168.705 27.5962C170.066 26.1548 170.993 25.8278 171.487 26.6152C171.647 26.8822 171.794 26.742 171.928 26.1948C172.008 25.8478 172.148 25.6143 172.348 25.4941C172.548 25.3607 172.955 25.2606 173.569 25.1938ZM177.713 27.3359C177.527 27.2025 177.213 27.089 176.772 26.9956C176.332 26.9022 175.898 26.8555 175.471 26.8555C174.791 26.8555 174.317 26.9155 174.05 27.0356C173.796 27.1424 173.509 27.436 173.189 27.9165C172.695 28.6239 172.368 29.0309 172.208 29.1377C172.061 29.2445 171.788 29.765 171.387 30.6992C171.227 31.0729 171.06 31.3999 170.887 31.6802C170.713 31.9471 170.593 32.0806 170.526 32.0806C170.473 32.0806 170.42 32.1339 170.366 32.2407C170.313 32.3341 170.286 32.4476 170.286 32.5811C170.286 32.7145 170.253 32.828 170.186 32.9214C170.119 33.0148 170.046 33.0615 169.966 33.0615C169.645 33.0615 169.472 32.868 169.445 32.481C169.419 32.0806 169.532 31.52 169.786 30.7993C170.133 29.8384 170.286 29.3112 170.246 29.2178C170.219 29.1644 170.093 29.1377 169.866 29.1377C169.585 29.1377 169.038 29.5047 168.224 30.2388C167.423 30.9595 167.023 31.4466 167.023 31.7002C167.023 31.807 166.99 31.9004 166.923 31.9805C166.856 32.0472 166.776 32.0806 166.683 32.0806C166.456 32.0806 166.155 32.5477 165.782 33.4819C165.408 34.4028 165.048 35.5773 164.701 37.0054C164.3 38.6069 164.08 40.8291 164.04 43.6719C164.013 46.5013 164.18 48.1629 164.541 48.6567C164.674 48.8302 164.787 49.0771 164.881 49.3975C164.974 49.7178 165.028 50.0247 165.041 50.3184C165.054 51.0257 165.401 51.7598 166.082 52.5205C166.776 53.2946 167.49 53.755 168.224 53.9018C169.012 54.0487 169.992 53.9152 171.167 53.5015C172.355 53.1011 173.329 52.5605 174.09 51.8799C174.944 51.1325 175.451 50.7588 175.611 50.7588C175.678 50.7588 175.731 50.7121 175.771 50.6186C175.825 50.5119 175.852 50.3918 175.852 50.2583C175.852 50.1248 175.878 50.0114 175.932 49.918C175.998 49.8112 176.072 49.7578 176.152 49.7578C176.352 49.7578 176.846 49.1305 177.633 47.876C178.434 46.6081 178.895 45.7205 179.015 45.2134C179.161 44.6528 179.315 44.2658 179.475 44.0522C179.635 43.8254 179.795 43.0846 179.956 41.8301C180.009 41.3096 180.089 40.8691 180.196 40.5088C180.316 40.1351 180.416 39.9482 180.496 39.9482C180.616 39.9482 180.676 39.6346 180.676 39.0073C180.69 38.3667 180.643 37.5192 180.536 36.4648C180.429 35.3971 180.283 34.2627 180.096 33.0615C179.869 31.6602 179.542 30.4456 179.115 29.418C178.688 28.3769 178.221 27.6829 177.713 27.3359ZM207.542 28.2368C207.676 28.0366 207.836 27.8631 208.023 27.7163C208.223 27.5695 208.39 27.4961 208.523 27.4961C208.71 27.4961 208.817 27.5828 208.844 27.7563C208.884 27.9165 208.85 28.2435 208.744 28.7373C208.57 29.5514 208.477 30.2454 208.463 30.8193C208.437 31.3265 208.35 31.5667 208.203 31.54C208.136 31.5 208.076 31.5734 208.023 31.7603C207.983 31.9471 207.963 32.2007 207.963 32.521C207.963 33.175 207.829 33.8156 207.562 34.4429C207.296 35.0568 207.022 35.3638 206.742 35.3638C206.635 35.3638 206.555 35.4105 206.501 35.5039C206.461 35.584 206.468 35.6908 206.521 35.8242C206.628 36.1312 206.228 36.5983 205.32 37.2256C204.413 37.8395 203.765 38.3133 203.378 38.647C203.005 38.9673 202.611 39.2476 202.197 39.4878C201.703 39.7681 201.483 40.0283 201.537 40.2685C201.59 40.5088 201.93 40.7757 202.558 41.0693C202.878 41.2295 203.172 41.4297 203.438 41.6699C203.719 41.8968 203.879 42.097 203.919 42.2705C203.972 42.4307 204.086 42.5908 204.259 42.751C204.446 42.9111 204.64 43.0179 204.84 43.0713C205.053 43.1247 205.3 43.3115 205.581 43.6318C205.874 43.9521 206.141 44.3392 206.381 44.793C206.755 45.487 206.975 46.0876 207.042 46.5947C207.122 47.0885 207.135 48.0361 207.082 49.4375L206.942 52.5605L208.083 53.8418C208.603 54.429 209.024 54.7961 209.344 54.9429C209.678 55.103 210.278 55.2098 211.146 55.2632C211.546 55.2899 211.82 55.3099 211.967 55.3232C212.127 55.3366 212.327 55.3232 212.567 55.2832C212.821 55.2565 212.988 55.2231 213.068 55.1831C213.148 55.1564 213.315 55.063 213.568 54.9028C213.822 54.7427 214.022 54.5892 214.169 54.4424C214.329 54.3089 214.603 54.0754 214.99 53.7417C215.737 53.1144 216.278 52.7074 216.611 52.5205C216.945 52.3337 217.199 52.3136 217.372 52.4604C217.546 52.5939 217.619 52.734 217.592 52.8809C217.566 53.0277 217.419 53.2412 217.152 53.5215C216.698 53.9886 216.471 54.3556 216.471 54.6226C216.471 54.7293 216.424 54.8161 216.331 54.8828C216.238 54.9629 216.124 55.0029 215.991 55.0029C215.871 55.0029 215.737 55.043 215.59 55.123C215.443 55.2165 215.33 55.3232 215.25 55.4434C215.183 55.5635 214.996 55.7436 214.689 55.9839C214.382 56.2375 214.049 56.4777 213.688 56.7046C212.901 57.1851 212.127 57.3786 211.366 57.2851C210.619 57.2051 209.504 56.7847 208.023 56.0239C206.021 54.9962 205.02 54.0487 205.02 53.1811C205.02 53.021 204.967 52.8275 204.86 52.6006C204.753 52.3737 204.626 52.1802 204.479 52.02C204.266 51.7798 204.146 51.5863 204.119 51.4394C204.106 51.2793 204.173 51.1125 204.319 50.939C204.453 50.7788 204.546 50.2249 204.6 49.2773C204.653 48.3164 204.646 47.3955 204.58 46.5146C204.526 45.6338 204.433 45.1934 204.299 45.1934C204.219 45.1934 204.152 45.1466 204.099 45.0532C204.059 44.9464 204.039 44.8263 204.039 44.6929C204.039 44.5594 204.012 44.446 203.959 44.3525C203.906 44.2458 203.839 44.1924 203.759 44.1924C203.585 44.1924 203.165 43.8854 202.498 43.2715C201.79 42.6175 201.089 42.1838 200.395 41.9702C199.715 41.7433 199.094 41.7433 198.534 41.9702C197.546 42.3573 196.919 42.6442 196.652 42.831C196.398 43.0046 196.318 43.2114 196.412 43.4517C196.465 43.5851 196.465 43.7253 196.412 43.8721C196.372 44.0189 196.305 44.1256 196.211 44.1924C196.051 44.2858 195.978 44.4193 195.991 44.5928C196.018 44.7529 196.125 45.0132 196.312 45.3735C196.805 46.3211 197.066 47.4088 197.092 48.6367C197.119 49.571 196.979 50.0247 196.672 49.998C196.618 49.998 196.558 49.978 196.492 49.938C196.372 49.8579 196.285 49.9447 196.231 50.1982C196.191 50.3317 196.171 50.4985 196.171 50.6987C196.171 50.9657 196.125 51.2326 196.031 51.4995C195.938 51.7664 195.831 51.9466 195.711 52.04C195.591 52.1468 195.464 52.3136 195.331 52.5405C195.197 52.7674 195.104 52.9876 195.05 53.2012C194.957 53.6016 194.583 54.1621 193.929 54.8828C193.275 55.6169 192.821 55.9839 192.568 55.9839C192.501 55.9839 192.421 56.0306 192.328 56.124C192.234 56.2308 192.167 56.3509 192.127 56.4844C192.021 56.7513 191.54 56.8981 190.686 56.9248C189.845 56.9648 189.018 56.8848 188.204 56.6846C187.403 56.4977 187.002 56.2642 187.002 55.9839C187.002 55.7303 187.309 55.5101 187.923 55.3232C188.537 55.1497 189.104 55.1164 189.625 55.2231C190.266 55.3433 190.86 55.3299 191.407 55.1831C191.967 55.0363 192.248 54.8161 192.248 54.5225C192.248 54.389 192.281 54.2689 192.348 54.1621C192.414 54.0687 192.488 54.022 192.568 54.022C192.661 54.022 192.735 53.9686 192.788 53.8618C192.855 53.7684 192.888 53.6549 192.888 53.5215C192.888 53.4014 192.915 53.2879 192.968 53.1811C193.035 53.0877 193.108 53.041 193.188 53.041C193.442 53.041 193.676 52.734 193.889 52.1201C194.116 51.5195 194.283 50.8122 194.39 49.998C194.51 49.1839 194.556 48.3431 194.53 47.4756C194.516 46.5947 194.41 45.9074 194.209 45.4136C193.969 44.7729 193.769 42.8911 193.609 39.7681C193.462 36.645 193.455 34.4228 193.589 33.1016C193.602 32.9681 193.602 32.4876 193.589 31.6602C193.575 31.0329 193.529 30.6925 193.449 30.6392C193.369 30.5724 193.102 30.6525 192.648 30.8794C192.394 30.9995 192.007 31.113 191.487 31.2197C190.98 31.3131 190.479 31.3665 189.985 31.3799C189.278 31.4066 188.704 31.3599 188.264 31.2397C187.823 31.1196 187.303 30.8861 186.702 30.5391C185.701 29.9385 184.98 29.5181 184.54 29.2778C184.126 29.0509 183.879 28.7306 183.799 28.3169C183.733 27.9966 183.839 27.8364 184.12 27.8364C184.4 27.8364 185.307 28.2168 186.842 28.9775C187.576 29.3379 188.37 29.6315 189.225 29.8584C190.079 30.0853 190.793 30.1987 191.367 30.1987C191.954 30.1854 192.248 30.0519 192.248 29.7983C192.248 29.7049 192.288 29.6248 192.368 29.5581C192.461 29.4914 192.575 29.458 192.708 29.458C192.841 29.458 192.968 29.4113 193.088 29.3179C193.208 29.2244 193.295 29.1043 193.349 28.9575C193.482 28.6239 193.849 28.4904 194.45 28.5571C194.85 28.5972 195.11 28.7106 195.23 28.8975C195.364 29.0843 195.484 29.5314 195.591 30.2388C195.738 31.2931 195.871 31.8804 195.991 32.0005C196.045 32.0539 196.038 32.174 195.971 32.3608C195.904 32.5477 195.804 32.7479 195.671 32.9614C195.444 33.2951 195.324 33.5487 195.311 33.7222C195.311 33.8823 195.424 34.1226 195.651 34.4429C195.971 34.8966 196.131 35.3905 196.131 35.9243C196.145 36.4448 195.991 36.7585 195.671 36.8652C195.551 36.9186 195.437 36.9987 195.331 37.1055C195.237 37.1989 195.19 37.2856 195.19 37.3657C195.19 37.5793 195.297 37.6193 195.511 37.4858C195.631 37.4191 195.764 37.4658 195.911 37.626C196.058 37.7728 196.165 37.9797 196.231 38.2466C196.312 38.5002 196.318 38.7137 196.251 38.8872C196.211 38.994 196.131 39.0874 196.011 39.1675C195.891 39.2476 195.778 39.2876 195.671 39.2876C195.537 39.2876 195.444 39.3343 195.391 39.4277C195.351 39.5212 195.357 39.6413 195.411 39.7881C195.517 40.055 195.818 40.2152 196.312 40.2685C196.819 40.3086 197.146 40.2018 197.292 39.9482C197.413 39.748 197.993 39.4144 199.034 38.9473L201.737 37.7061C202.457 37.3857 203.285 36.7451 204.219 35.7842C205.153 34.8232 205.807 33.9491 206.181 33.1616C206.328 32.828 206.475 32.4009 206.622 31.8804C206.768 31.3465 206.862 30.8794 206.902 30.479C206.955 30.0653 207.042 29.6382 207.162 29.1978C207.296 28.7573 207.422 28.437 207.542 28.2368ZM226.881 27.8965C227.015 27.763 227.182 27.6629 227.382 27.5962C227.582 27.5161 227.756 27.4961 227.902 27.5361C228.049 27.5628 228.116 27.6362 228.103 27.7563C228.089 28.05 227.902 28.3503 227.542 28.6572C227.195 28.9642 226.788 29.1711 226.321 29.2778C226.054 29.3446 225.687 29.5448 225.22 29.8784C224.766 30.1987 224.346 30.5591 223.958 30.9595C223.692 31.2397 223.498 31.4399 223.378 31.5601C223.271 31.6802 223.151 31.8403 223.018 32.0405C222.897 32.2407 222.817 32.3875 222.777 32.481C222.751 32.561 222.717 32.7279 222.677 32.9814C222.651 33.2217 222.637 33.4352 222.637 33.6221C222.651 33.7956 222.671 34.0892 222.697 34.5029C222.737 35.4105 222.817 36.0644 222.937 36.4648C223.071 36.8652 223.338 37.3057 223.738 37.7861C223.992 38.0931 224.252 38.3467 224.519 38.5469C224.786 38.7471 224.973 38.8338 225.08 38.8071C225.186 38.7671 225.353 38.7938 225.58 38.8872C225.82 38.9806 226.047 39.1141 226.261 39.2876C226.474 39.4611 226.768 39.6213 227.142 39.7681C227.515 39.9149 227.856 40.0083 228.163 40.0483C229.27 40.1951 230.972 40.4421 233.268 40.7891C234.015 40.9092 234.375 41.1294 234.349 41.4497C234.335 41.77 233.975 42.0503 233.268 42.2905C232.747 42.464 232.16 42.5508 231.506 42.5508C230.959 42.5641 230.278 42.6909 229.464 42.9311C228.663 43.1714 227.962 43.4517 227.362 43.772C226.775 44.0789 226.481 44.3392 226.481 44.5527C226.481 44.7529 226.374 44.853 226.161 44.853C225.934 44.853 225.44 45.2267 224.679 45.9741C223.918 46.7215 223.538 47.2087 223.538 47.4355C223.538 47.5423 223.505 47.6291 223.438 47.6958C223.385 47.7625 223.311 47.7959 223.218 47.7959C222.964 47.7959 222.57 48.4165 222.037 49.6577C221.516 50.8989 221.256 51.8198 221.256 52.4204C221.256 52.7941 221.263 53.061 221.276 53.2212C221.289 53.3813 221.376 53.5815 221.536 53.8218C221.696 54.062 221.883 54.2689 222.097 54.4424C222.31 54.6292 222.684 54.9362 223.218 55.3633C224.005 56.0039 224.786 56.4243 225.56 56.6245C226.334 56.8247 227.842 57.0049 230.084 57.165C231.94 57.2985 233.087 57.3919 233.528 57.4453C233.968 57.4987 234.989 57.5454 236.591 57.5854C237.939 57.6121 238.646 57.6922 238.713 57.8257C238.753 57.8924 238.72 57.9858 238.613 58.106C238.519 58.2261 238.346 58.3328 238.092 58.4263C237.839 58.5197 237.592 58.5597 237.352 58.5464C236.751 58.5197 236.237 58.6198 235.81 58.8467C235.637 58.9268 235.276 58.9868 234.729 59.0268C234.195 59.0802 233.635 59.0869 233.047 59.0469L228.623 58.8267C227.969 58.7866 227.328 58.7065 226.701 58.5864C226.074 58.4663 225.62 58.3262 225.34 58.166C224.686 57.8057 224.232 57.6255 223.978 57.6255C223.872 57.6255 223.678 57.5321 223.398 57.3452C223.131 57.1584 222.851 56.9248 222.557 56.6445C222.263 56.3643 221.97 56.1307 221.676 55.9438C221.396 55.757 221.189 55.6636 221.056 55.6636C220.922 55.6636 220.809 55.6369 220.715 55.5835C220.635 55.5435 220.595 55.4901 220.595 55.4233C220.595 55.2498 220.342 54.8895 219.834 54.3423C218.833 53.2746 218.573 52.4938 219.054 52C219.321 51.7064 219.881 50.6987 220.735 48.977C221.136 48.1629 221.676 47.2887 222.357 46.3545C223.051 45.4202 223.705 44.6662 224.319 44.0923C224.933 43.505 225.34 43.2715 225.54 43.3916C225.607 43.4316 225.687 43.4049 225.78 43.3115C225.874 43.2181 225.947 43.0846 226 42.9111C226.054 42.7243 226.154 42.5641 226.301 42.4307C226.461 42.2972 226.621 42.2305 226.781 42.2305C227.182 42.2305 227.442 42.1637 227.562 42.0303C227.722 41.8835 227.722 41.6632 227.562 41.3696C227.402 41.076 227.195 40.9292 226.941 40.9292C226.808 40.9292 226.694 40.9025 226.601 40.8491C226.521 40.7824 226.481 40.7023 226.481 40.6089C226.481 40.5288 226.441 40.4754 226.361 40.4487C226.281 40.422 226.181 40.4287 226.061 40.4687C225.74 40.5889 225.246 40.4487 224.579 40.0483C223.925 39.6346 223.264 39.0807 222.597 38.3867C221.93 37.6927 221.443 37.0254 221.136 36.3848C220.775 35.624 220.595 34.8299 220.595 34.0024C220.609 33.1616 220.802 32.561 221.176 32.2007C221.603 31.8003 221.943 31.3532 222.197 30.8594C222.304 30.6592 222.444 30.4857 222.617 30.3389C222.791 30.1921 222.937 30.1186 223.058 30.1186C223.191 30.1186 223.304 30.0786 223.398 29.9985C223.491 29.9185 223.538 29.8184 223.538 29.6982C223.538 29.458 223.812 29.1777 224.359 28.8574C224.919 28.5371 225.447 28.3503 225.94 28.2969C226.327 28.2702 226.641 28.1367 226.881 27.8965ZM228.683 27.6562C228.777 27.416 229.204 27.2892 229.964 27.2759C230.725 27.2625 231.579 27.3626 232.527 27.5762C233.474 27.7764 234.249 28.0433 234.849 28.3769C235.823 28.9108 236.311 29.3112 236.311 29.5781C236.297 29.7116 236.19 29.8384 235.99 29.9585C235.897 30.0119 235.817 30.1387 235.75 30.3389C235.683 30.5257 235.65 30.7393 235.65 30.9795C235.65 31.2064 235.596 31.4199 235.49 31.6201C235.383 31.8203 235.249 31.9471 235.089 32.0005C234.929 32.0539 234.716 32.194 234.449 32.4209C234.182 32.6478 233.942 32.888 233.728 33.1416C233.528 33.3818 233.281 33.5954 232.987 33.7822C232.694 33.9557 232.447 34.0425 232.247 34.0425C232.06 34.0425 231.86 34.0825 231.646 34.1626C231.432 34.2293 231.272 34.3094 231.165 34.4028C231.032 34.5496 230.839 34.623 230.585 34.623C230.345 34.623 230.145 34.563 229.984 34.4429C229.824 34.3227 229.771 34.1826 229.824 34.0225C229.904 33.7822 230.411 33.5153 231.346 33.2217C232.293 32.9281 232.921 32.8413 233.228 32.9614C233.534 33.0815 233.688 32.9614 233.688 32.6011C233.688 32.4543 233.721 32.3341 233.788 32.2407C233.855 32.1339 233.935 32.0806 234.028 32.0806C234.122 32.0806 234.195 32.0138 234.249 31.8804C234.315 31.7336 234.349 31.5534 234.349 31.3398C234.349 30.8327 234.442 30.479 234.629 30.2788C234.829 30.0653 234.842 29.7116 234.669 29.2178C234.535 28.8975 234.382 28.7106 234.208 28.6572C234.035 28.5905 233.668 28.5972 233.107 28.6772C232.253 28.8107 231.753 28.7573 231.606 28.5171C231.539 28.4237 231.339 28.3436 231.005 28.2769C230.685 28.1968 230.325 28.1567 229.924 28.1567C229.35 28.1567 228.977 28.1234 228.803 28.0566C228.643 27.9899 228.603 27.8564 228.683 27.6562ZM258.412 26.7554C259.133 26.0747 259.66 25.6476 259.994 25.4741C260.327 25.3006 260.741 25.2339 261.235 25.2739C261.675 25.314 261.982 25.3874 262.156 25.4941C262.329 25.6009 262.436 25.7878 262.476 26.0547C262.516 26.3483 262.496 26.5285 262.416 26.5952C262.336 26.6619 262.136 26.6686 261.815 26.6152C261.575 26.5752 261.221 26.682 260.754 26.9355C260.287 27.1891 259.867 27.5028 259.493 27.8765C259.119 28.2368 258.933 28.5238 258.933 28.7373C258.933 28.9642 258.806 29.1243 258.552 29.2178C258.179 29.3646 257.858 30.1253 257.591 31.5C257.338 32.8747 257.117 34.9767 256.931 37.8061C256.677 41.73 256.517 44.4193 256.45 45.874C256.383 47.3154 256.343 48.7902 256.33 50.2983C256.33 51.7664 256.203 52.7741 255.95 53.3213C255.709 53.8818 255.309 54.0687 254.749 53.8818C254.535 53.8151 254.348 53.675 254.188 53.4614C254.028 53.2479 253.914 52.9943 253.848 52.7007C253.794 52.4338 253.714 52.2069 253.607 52.02C253.514 51.8332 253.427 51.7397 253.347 51.7397C253.254 51.7397 253.18 51.7064 253.127 51.6396C253.074 51.5596 253.047 51.4595 253.047 51.3393C253.047 51.1792 252.553 50.0314 251.565 47.896C250.591 45.7472 249.877 44.2658 249.423 43.4517C249.223 43.078 249.123 42.771 249.123 42.5308C249.123 42.2905 248.97 41.8234 248.663 41.1294C248.169 39.9816 247.848 39.1875 247.702 38.7471C247.555 38.2933 247.481 37.8929 247.481 37.5459C247.481 36.7051 247.315 36.7852 246.981 37.7861C246.5 39.2409 245.9 41.8701 245.179 45.6738C245.072 46.221 244.952 46.7082 244.819 47.1352C244.685 47.549 244.572 47.7825 244.478 47.8359C244.398 47.8893 244.305 48.0628 244.198 48.3564C244.105 48.6501 244.031 48.9704 243.978 49.3174C243.925 49.651 243.818 50.0314 243.658 50.4585C243.498 50.8856 243.337 51.2192 243.177 51.4595C242.777 52.0334 242.577 52.4538 242.577 52.7207C242.577 53.001 242.263 53.5081 241.636 54.2422C241.008 54.9762 240.575 55.3433 240.334 55.3433C240.121 55.3433 239.994 55.0763 239.954 54.5425C239.914 54.022 240.001 53.7217 240.214 53.6416C240.374 53.5749 240.708 52.8942 241.215 51.5996C241.722 50.2917 242.029 49.3241 242.136 48.6968C242.19 48.4432 242.256 48.2296 242.336 48.0561C242.416 47.8826 242.49 47.7959 242.557 47.7959C242.637 47.7959 242.723 47.6958 242.817 47.4956C242.91 47.2821 242.984 47.0285 243.037 46.7349C243.184 46.0275 243.351 45.4603 243.538 45.0332C243.738 44.5928 243.905 43.6385 244.038 42.1704C244.091 41.5698 244.198 40.9359 244.358 40.2685C244.532 39.5879 244.705 39.0741 244.879 38.727C245.092 38.3 245.253 37.8796 245.359 37.4658C245.479 37.0387 245.52 36.6917 245.479 36.4248C245.453 36.1579 245.353 36.0244 245.179 36.0244C245.099 36.0244 245.012 35.6974 244.919 35.0435C244.839 34.3761 244.779 33.582 244.739 32.6611C244.645 30.4189 244.525 28.8307 244.378 27.8965C244.258 27.1624 244.298 26.7153 244.499 26.5552C244.699 26.3817 245.059 26.5085 245.58 26.9355C245.873 27.1624 246.207 27.8031 246.581 28.8574C246.968 29.9118 247.161 30.7259 247.161 31.2998C247.161 31.807 247.261 32.1206 247.461 32.2407C247.541 32.2941 247.635 32.501 247.742 32.8613C247.848 33.2217 247.935 33.6221 248.002 34.0625C248.069 34.5029 248.149 34.9033 248.242 35.2637C248.349 35.6107 248.436 35.8109 248.502 35.8643C248.689 35.9844 248.783 36.2246 248.783 36.585C248.783 36.9453 248.99 37.5726 249.403 38.4668C249.817 39.3477 250.211 40.3553 250.584 41.4897C250.745 41.9702 250.918 42.424 251.105 42.8511C251.305 43.2782 251.472 43.5584 251.605 43.6919C251.912 44.0122 252.066 44.3992 252.066 44.853C252.066 45.0399 252.166 45.3869 252.366 45.894C252.566 46.4012 252.807 46.9084 253.087 47.4155C253.821 48.7502 254.221 49.4108 254.288 49.3975C254.328 49.3975 254.295 49.1906 254.188 48.7768C254.135 48.55 254.121 48.0762 254.148 47.3555C254.188 46.6214 254.255 45.8407 254.348 45.0132C254.588 43.0513 254.809 40.4888 255.009 37.3257C255.129 35.217 255.309 33.542 255.549 32.3008C255.79 31.0596 256.123 30.0186 256.55 29.1777C256.991 28.3236 257.611 27.5161 258.412 26.7554ZM274.368 23.312C274.968 23.0985 275.429 22.9784 275.749 22.9517C276.083 22.925 276.743 23.1051 277.731 23.4922C278.732 23.8792 279.386 24.2129 279.693 24.4932C280.013 24.7734 280.56 25.1605 281.334 25.6543C281.855 25.988 282.169 26.2682 282.275 26.4951C282.395 26.722 282.449 27.1558 282.436 27.7964C282.422 28.3703 282.342 28.8241 282.195 29.1577C282.048 29.478 281.742 29.8717 281.274 30.3389C280.967 30.6458 280.614 30.9194 280.213 31.1597C279.826 31.3999 279.513 31.5334 279.272 31.5601C278.672 31.6268 278.298 31.7336 278.151 31.8804C277.964 32.0806 277.791 32.1473 277.631 32.0806C277.471 32.0138 277.391 31.8537 277.391 31.6001C277.391 31.4666 277.431 31.3532 277.511 31.2598C277.604 31.153 277.704 31.0996 277.811 31.0996C277.918 31.0996 278.158 30.9461 278.532 30.6392C278.919 30.3322 279.319 29.9652 279.733 29.5381L281.254 27.9565L280.574 27.3159C279.559 26.3817 278.465 25.7144 277.29 25.314C276.129 24.9136 275.202 24.8936 274.508 25.2539C273.921 25.5475 273.574 25.7477 273.467 25.8545C273.307 26.028 272.993 26.2482 272.526 26.5151C272.072 26.7687 271.712 26.9422 271.445 27.0356C271.271 27.089 271.104 27.2158 270.944 27.416C270.797 27.6029 270.697 27.8031 270.644 28.0166C270.591 28.2301 270.497 28.4303 270.364 28.6172C270.244 28.7907 270.124 28.8975 270.003 28.9375C269.87 28.9909 269.756 29.091 269.663 29.2378C269.583 29.3846 269.543 29.5448 269.543 29.7183C269.543 30.1186 269.383 30.5457 269.062 30.9995C268.702 31.5067 268.522 32.1473 268.522 32.9214C268.522 33.6955 268.689 34.3428 269.022 34.8633C269.53 35.624 270.103 36.2313 270.744 36.6851C271.398 37.1255 272.272 37.5125 273.367 37.8462C273.941 38.0197 274.428 38.1932 274.828 38.3667C275.228 38.5269 275.429 38.6403 275.429 38.707C275.429 38.8805 275.596 38.9673 275.929 38.9673C276.076 38.9673 276.216 39.0207 276.35 39.1274C276.496 39.2209 276.596 39.341 276.65 39.4878C276.717 39.688 276.843 39.8148 277.03 39.8682C277.217 39.9082 277.524 39.8815 277.951 39.7881C278.418 39.708 278.825 39.7213 279.172 39.8281C279.533 39.9349 280.067 40.2152 280.774 40.6689C281.815 41.3363 282.762 42.1037 283.617 42.9712C284.484 43.8387 284.985 44.5327 285.118 45.0532C285.172 45.2668 285.245 45.4536 285.338 45.6138C285.432 45.7606 285.512 45.834 285.579 45.834C285.725 45.834 285.866 46.1009 285.999 46.6348C286.146 47.1686 286.253 47.7825 286.319 48.4766C286.386 49.1572 286.406 49.8312 286.379 50.4985C286.366 51.1658 286.299 51.6196 286.179 51.8599C286.072 52.0601 285.852 52.3403 285.519 52.7007C285.198 53.0744 284.851 53.4281 284.478 53.7617C283.583 54.5758 282.949 55.1631 282.576 55.5234C282.429 55.6569 282.269 55.757 282.095 55.8237C281.922 55.9038 281.788 55.9171 281.695 55.8638C281.615 55.8104 281.528 55.797 281.435 55.8237C281.354 55.8638 281.294 55.9305 281.254 56.0239C281.228 56.1173 281.094 56.2041 280.854 56.2842C280.627 56.3643 280.367 56.411 280.073 56.4243C279.78 56.4377 279.499 56.4844 279.232 56.5644C278.979 56.6445 278.825 56.7379 278.772 56.8447C278.612 57.085 277.844 57.3319 276.47 57.5854C275.108 57.839 273.914 57.9591 272.886 57.9458C271.725 57.9324 270.777 57.7189 270.043 57.3052C269.75 57.1317 269.47 56.9982 269.203 56.9048C268.949 56.8247 268.796 56.8114 268.742 56.8647C268.622 56.9982 268.408 56.9315 268.102 56.6645C267.795 56.411 267.541 56.3042 267.341 56.3442C266.7 56.491 266.006 56.0907 265.259 55.1431C264.525 54.2088 264.031 53.0944 263.777 51.7998C263.697 51.3594 263.677 51.0791 263.717 50.959C263.771 50.8255 263.931 50.7588 264.198 50.7588C264.505 50.7588 264.812 51.019 265.119 51.5395C265.439 52.0601 265.599 52.5739 265.599 53.081C265.599 53.9219 266.693 54.6359 268.882 55.2231C270.818 55.7436 272.873 55.8838 275.048 55.6435C277.224 55.4167 279.046 54.8628 280.514 53.9819C280.767 53.8218 281.007 53.695 281.234 53.6016C281.475 53.5215 281.621 53.5015 281.675 53.5415C281.742 53.5815 281.935 53.4814 282.255 53.2412C282.589 53.001 282.949 52.6873 283.336 52.3003C283.95 51.713 284.337 51.2593 284.498 50.939C284.671 50.6053 284.751 50.1582 284.738 49.5977C284.711 47.569 284.297 45.9474 283.497 44.7329C283.069 44.0789 282.489 43.505 281.755 43.0112C281.021 42.5041 280.487 42.3172 280.153 42.4507C280.006 42.5174 279.853 42.5241 279.693 42.4707C279.533 42.404 279.413 42.2972 279.332 42.1504C279.252 42.0169 279.046 41.8768 278.712 41.73C278.378 41.5832 278.018 41.4831 277.631 41.4297C277.257 41.363 276.877 41.2428 276.49 41.0693C276.103 40.8958 275.829 40.729 275.669 40.5688C275.509 40.4087 275.302 40.2685 275.048 40.1484C274.808 40.015 274.608 39.9482 274.448 39.9482C274.288 39.9482 274.121 39.9149 273.947 39.8481C273.787 39.7814 273.68 39.7013 273.627 39.6079C273.574 39.5278 273.453 39.4544 273.267 39.3877C273.08 39.321 272.88 39.2876 272.666 39.2876C272.452 39.2876 272.252 39.2476 272.065 39.1675C271.892 39.0874 271.778 38.9873 271.725 38.8672C271.685 38.7471 271.512 38.6069 271.205 38.4468C270.911 38.2866 270.571 38.1465 270.184 38.0264C269.77 37.9062 269.423 37.7528 269.143 37.5659C268.862 37.3791 268.702 37.1855 268.662 36.9853C268.609 36.7985 268.522 36.645 268.402 36.5249C268.295 36.4048 268.182 36.3447 268.061 36.3447C267.755 36.3447 267.528 35.8442 267.381 34.8433C267.247 33.8423 267.241 32.8346 267.361 31.8203C267.481 30.7926 267.694 30.2521 268.001 30.1987C268.202 30.1587 268.342 30.0319 268.422 29.8184C268.515 29.6048 268.562 29.2645 268.562 28.7974C268.562 27.9298 268.715 27.4961 269.022 27.4961C269.143 27.4961 269.263 27.4227 269.383 27.2759C269.516 27.1157 269.61 26.9222 269.663 26.6953C269.716 26.4551 269.81 26.2549 269.943 26.0947C270.077 25.9346 270.217 25.8545 270.364 25.8545C270.484 25.8545 270.591 25.8345 270.684 25.7944C270.777 25.7544 270.818 25.701 270.804 25.6343C270.751 25.1938 270.811 24.9069 270.984 24.7734C271.158 24.6266 271.552 24.5532 272.165 24.5532C273.033 24.5532 273.467 24.3997 273.467 24.0928C273.467 23.9727 273.554 23.8392 273.727 23.6924C273.914 23.5322 274.127 23.4054 274.368 23.312ZM113.724 88.5766C114.382 88.0731 115.138 87.9375 115.99 88.1699C116.881 88.3636 118.45 89.0802 120.696 90.3198C123.756 91.9468 125.945 93.3219 127.262 94.4453C128.618 95.5299 129.296 96.4984 129.296 97.3506C129.296 97.6605 129.412 97.9704 129.645 98.2803C129.877 98.5902 130.167 98.8032 130.516 98.9194C131.291 99.2293 131.794 102.716 132.027 109.378C132.143 113.523 132.124 116.351 131.969 117.862C131.814 119.334 131.426 120.38 130.807 120.999C130.381 121.426 130.013 121.968 129.703 122.626C129.431 123.285 129.296 123.885 129.296 124.428C129.296 124.97 129.199 125.474 129.005 125.938C128.85 126.403 128.657 126.713 128.424 126.868C127.843 127.217 127.34 128.418 126.914 130.471C126.449 132.408 125.19 134.751 123.137 137.501C121.122 140.252 119.612 141.646 118.604 141.685C117.442 141.724 115.893 141.162 113.956 140C112.058 138.838 111.109 137.889 111.109 137.153C111.109 136.804 111.012 136.533 110.818 136.339C110.663 136.107 110.45 135.991 110.179 135.991C109.908 135.991 109.676 135.739 109.482 135.235C109.288 134.693 109.191 134.073 109.191 133.376C109.191 132.64 109.056 131.826 108.785 130.936C108.513 130.006 108.184 129.309 107.797 128.844C107.177 128.03 106.732 125.706 106.46 121.871C106.189 117.997 106.17 114.259 106.402 110.657C106.635 107.015 107.061 105.079 107.681 104.846C108.572 104.498 109.017 102.696 109.017 99.4424C109.017 96.1497 109.521 94.1354 110.528 93.3994C110.954 93.0895 111.322 92.7021 111.632 92.2373C111.942 91.7724 112.097 91.3657 112.097 91.0171C112.097 90.7072 112.252 90.3198 112.562 89.855C112.871 89.3514 113.259 88.9253 113.724 88.5766ZM120.348 94.3872C120.076 93.7287 119.495 93.3026 118.604 93.1089C117.752 92.8765 116.919 92.9152 116.106 93.2251C115.292 93.535 114.866 94.0192 114.828 94.6777C114.711 96.0335 114.537 97.0988 114.305 97.8735C114.072 98.6483 113.491 100.043 112.562 102.057C111.864 103.607 111.399 105.466 111.167 107.635C110.973 109.766 110.915 113.485 110.993 118.791C111.109 127.159 111.419 132.078 111.922 133.55C112.348 134.519 113.065 135.022 114.072 135.061C115.118 135.061 116.474 134.557 118.14 133.55C119.844 132.543 120.696 131.73 120.696 131.11C120.696 130.529 121.645 128.708 123.543 125.648C124.357 124.331 125.035 123.033 125.577 121.755C126.158 120.477 126.449 119.547 126.449 118.966C126.449 117.649 126.759 116.797 127.378 116.409C127.65 116.215 127.805 115.712 127.843 114.898C127.921 114.085 127.863 113.136 127.669 112.051C127.514 110.928 127.495 109.746 127.611 108.507C127.727 107.267 127.959 106.221 128.308 105.369C128.85 104.052 129.044 103.084 128.889 102.464C128.773 101.805 128.134 100.701 126.972 99.1518C126.274 98.2609 125.5 97.4862 124.647 96.8276C123.795 96.1691 123.117 95.8398 122.614 95.8398C122.149 95.8398 121.684 95.7043 121.219 95.4331C120.754 95.1232 120.464 94.7746 120.348 94.3872ZM145.437 147.332C144.501 147.176 143.877 146.708 143.565 145.928C143.305 145.148 143.383 144.134 143.799 142.886C144.215 141.638 144.969 140.234 146.061 138.674C146.529 138.258 146.945 137.894 147.309 137.582C147.673 137.218 147.907 136.854 148.011 136.49C148.271 136.126 148.843 135.424 149.727 134.384C150.611 133.292 151.651 132.07 152.847 130.718C154.043 129.366 155.213 128.04 156.357 126.74C157.553 125.44 158.567 124.322 159.399 123.386C160.231 122.45 160.673 121.904 160.725 121.748C160.933 121.8 161.167 121.696 161.427 121.436C161.687 121.124 161.869 120.786 161.973 120.422C162.129 120.006 162.389 119.642 162.753 119.33C163.117 118.966 163.481 118.758 163.845 118.706C163.949 118.446 164.079 118.238 164.235 118.082C164.391 117.926 164.495 117.744 164.547 117.536C164.599 117.328 164.703 117.146 164.859 116.99C165.067 116.834 165.197 116.652 165.249 116.444C165.717 116.028 166.523 115.274 167.667 114.182C168.811 113.038 170.137 111.712 171.645 110.204C173.153 108.696 174.713 107.11 176.325 105.446C177.937 103.782 179.445 102.222 180.849 100.766C182.253 99.31 183.397 98.088 184.281 97.1C185.165 96.112 185.659 95.54 185.763 95.384C186.127 94.708 186.621 94.526 187.245 94.838C187.609 94.63 188.025 94.63 188.493 94.838C188.493 94.838 188.519 94.968 188.571 95.228C188.675 95.436 188.831 95.8 189.039 96.32C189.299 96.84 189.403 97.308 189.351 97.724C189.299 98.088 189.117 98.53 188.805 99.05C188.545 99.622 188.233 100.116 187.869 100.532C187.557 100.948 187.011 101.494 186.231 102.17C185.503 102.846 184.359 103.886 182.799 105.29C182.435 105.706 181.707 106.434 180.615 107.474C179.575 108.462 178.457 109.554 177.261 110.75C176.065 111.894 175.025 112.908 174.141 113.792C173.257 114.624 172.789 115.092 172.737 115.196C172.529 115.248 172.269 115.378 171.957 115.586C171.697 115.794 171.437 116.184 171.177 116.756C170.761 117.172 170.085 117.822 169.149 118.706C168.265 119.59 167.433 120.422 166.653 121.202C165.925 121.93 165.535 122.372 165.483 122.528C165.379 122.684 165.223 122.814 165.015 122.918C164.807 123.022 164.547 123.126 164.235 123.23C164.183 123.178 164.105 123.23 164.001 123.386C163.949 123.542 163.923 123.62 163.923 123.62C163.923 123.828 163.689 124.244 163.221 124.868C162.805 125.44 162.155 126.09 161.271 126.818C160.387 127.858 159.217 129.262 157.761 131.03C156.357 132.746 154.901 134.566 153.393 136.49C151.937 138.362 150.637 140.052 149.493 141.56C148.349 143.12 147.621 144.212 147.309 144.836C146.893 145.824 146.555 146.474 146.295 146.786C146.087 147.098 145.801 147.28 145.437 147.332ZM172.815 137.426C173.751 136.386 174.505 135.372 175.077 134.384C175.649 133.396 176.195 132.174 176.715 130.718C176.923 130.042 177.027 129.158 177.027 128.066C177.027 126.974 176.897 126.35 176.637 126.194C176.117 125.934 175.493 125.856 174.765 125.96C174.089 126.012 173.387 126.402 172.659 127.13C171.359 128.118 170.241 129.418 169.305 131.03C168.421 132.59 167.537 134.332 166.653 136.256C166.081 137.66 165.951 138.804 166.263 139.688C166.627 140.52 167.381 140.806 168.525 140.546C169.669 140.338 171.099 139.298 172.815 137.426ZM166.887 144.524C166.367 144.524 165.925 144.42 165.561 144.212C165.249 144.004 164.885 143.718 164.469 143.354C163.637 142.522 163.065 141.716 162.753 140.936C162.441 140.156 162.363 139.428 162.519 138.752C162.623 138.388 162.649 138.076 162.597 137.816C162.597 137.504 162.597 137.348 162.597 137.348C162.389 137.088 162.337 136.932 162.441 136.88C162.545 136.828 162.623 136.724 162.675 136.568C162.935 136.568 163.013 136.334 162.909 135.866C162.857 135.554 163.039 134.826 163.455 133.682C163.871 132.538 164.391 131.472 165.015 130.484C165.275 130.068 165.639 129.522 166.107 128.846C166.575 128.17 167.095 127.494 167.667 126.818C168.291 126.142 168.863 125.596 169.383 125.18C170.423 124.296 171.333 123.646 172.113 123.23C172.893 122.814 173.751 122.502 174.687 122.294C175.623 122.034 176.273 121.93 176.637 121.982C177.001 121.982 177.495 122.32 178.119 122.996C179.055 123.36 179.731 123.854 180.147 124.478C180.615 125.05 180.901 125.908 181.005 127.052C181.109 128.3 181.005 129.73 180.693 131.342C180.433 132.902 179.471 134.878 177.807 137.27C176.767 138.726 175.805 139.818 174.921 140.546C174.037 141.274 172.997 142.002 171.801 142.73C170.917 143.302 170.111 143.718 169.383 143.978C168.655 144.29 167.823 144.472 166.887 144.524ZM161.973 108.644C162.909 107.604 163.663 106.59 164.235 105.602C164.807 104.614 165.353 103.392 165.873 101.936C166.081 101.26 166.185 100.376 166.185 99.284C166.185 98.192 166.055 97.568 165.795 97.412C165.275 97.152 164.651 97.074 163.923 97.178C163.247 97.23 162.545 97.62 161.817 98.348C160.517 99.336 159.399 100.636 158.463 102.248C157.579 103.808 156.695 105.55 155.811 107.474C155.239 108.878 155.109 110.022 155.421 110.906C155.785 111.738 156.539 112.05 157.683 111.842C158.827 111.582 160.257 110.516 161.973 108.644ZM155.967 115.664C155.447 115.664 155.005 115.56 154.641 115.352C154.329 115.144 153.965 114.858 153.549 114.494C152.717 113.662 152.145 112.856 151.833 112.076C151.521 111.296 151.443 110.568 151.599 109.892C151.703 109.528 151.729 109.216 151.677 108.956C151.677 108.644 151.677 108.488 151.677 108.488C151.469 108.228 151.417 108.072 151.521 108.02C151.625 107.968 151.703 107.864 151.755 107.708C152.015 107.708 152.093 107.474 151.989 107.006C151.937 106.694 152.119 105.966 152.535 104.822C152.951 103.678 153.471 102.612 154.095 101.624C154.355 101.208 154.719 100.662 155.187 99.986C155.655 99.31 156.175 98.634 156.747 97.958C157.371 97.282 157.943 96.736 158.463 96.32C159.503 95.436 160.413 94.786 161.193 94.37C161.973 93.954 162.831 93.642 163.767 93.434C164.703 93.174 165.353 93.07 165.717 93.122C166.081 93.122 166.575 93.46 167.199 94.136C168.135 94.5 168.811 94.994 169.227 95.618C169.695 96.19 169.981 97.048 170.085 98.192C170.189 99.44 170.085 100.87 169.773 102.482C169.513 104.042 168.551 106.018 166.887 108.41C165.847 109.866 164.885 110.958 164.001 111.686C163.117 112.414 162.077 113.142 160.881 113.87C159.997 114.442 159.191 114.884 158.463 115.196C157.735 115.456 156.903 115.612 155.967 115.664Z" fill="#D6C6B6"/>
</svg>
