<svg width="938" height="520" viewBox="0 0 938 520" fill="none" xmlns="http://www.w3.org/2000/svg">
<path d="M394.789 72.7076C396.425 69.7099 398.669 67.7075 401.519 66.7003C403.785 65.9113 405.016 66.3797 405.212 68.1057C405.272 68.6309 405.735 69.0344 406.603 69.316C407.546 69.5891 408.618 69.6576 409.819 69.5215C411.395 69.3428 412.634 69.5443 413.536 70.1261C414.504 70.6243 415.219 71.5693 415.681 72.961C416.596 75.6694 418.273 79.3936 420.71 84.1336C423.047 88.6569 424.513 93.203 425.107 97.7719C425.692 102.266 425.207 105.361 423.651 107.058C422.969 107.743 422.4 108.757 421.944 110.101C421.564 111.436 421.441 112.704 421.578 113.905C421.909 116.832 421.591 120.06 420.624 123.59C419.217 128.614 417.551 140.735 415.626 159.955C415.038 165.494 414.295 168.998 413.398 170.468C412.434 172.021 411.081 176.849 409.34 184.951C407.665 192.969 406.938 197.954 407.159 199.905C407.414 202.156 407.085 203.942 406.17 205.262C405.247 206.506 403.773 211.272 401.749 219.558C399.799 227.835 398.412 232.363 397.588 233.14C396.831 233.834 395.523 236.377 393.665 240.768C392.247 244.349 390.776 246.795 389.253 248.108C387.738 249.496 384.523 251.305 379.607 253.534C375.633 255.353 372.94 255.734 371.529 254.678C370.192 253.614 368.398 253.209 366.147 253.464C365.246 253.566 364.428 253.393 363.694 252.944C363.034 252.487 362.661 251.883 362.576 251.133C362.5 250.457 361.153 248.976 358.538 246.688C355.931 244.476 352.815 242.131 349.19 239.654C345.556 237.102 342.064 234.457 338.714 231.721C335.438 228.976 333.303 226.9 332.307 225.493L328.543 220.447L325.248 229.6C323.136 235.767 322.194 239.864 322.424 241.891C322.517 242.716 322.195 243.893 321.456 245.42C320.717 246.948 319.778 248.385 318.638 249.73C315.894 253.006 314.572 255.094 314.674 255.994C314.776 256.894 313.663 258.807 311.334 261.731C309.937 263.486 308.397 264.648 306.714 265.219C305.03 265.79 302.108 266.159 297.947 266.327C292.343 266.506 287.662 265.441 283.904 263.131C280.145 260.821 277.44 257.404 275.787 252.879C274.587 249.67 273.025 246.617 271.1 243.719C269.25 240.813 267.333 237.306 265.347 233.199C263.353 229.017 260.25 223.44 256.04 216.469C251.829 209.498 249.068 203.921 247.758 199.737C246.086 194.378 242.552 186 237.156 174.604C231.759 163.207 227.345 154.777 223.914 149.313C220.005 142.992 217.552 137.114 216.556 131.678C215.635 126.235 216.234 121.796 218.353 118.364C220.471 114.931 223.97 112.939 228.847 112.386C231.849 112.045 234.272 112.303 236.117 113.158C238.029 113.929 240.89 116.037 244.701 119.481C247.141 121.56 249.372 123.815 251.396 126.246C253.495 128.668 254.767 130.5 255.212 131.742C256.311 134.733 257.383 136.816 258.428 137.99C259.54 139.08 260.788 141.712 262.174 145.887C263.559 150.063 264.74 152.437 265.717 153.01C266.694 153.583 270.167 160.41 276.134 173.49C282.176 186.562 285.321 194.186 285.568 196.362C285.857 198.914 287.038 201.288 289.111 203.485C290.666 205.133 291.669 205.931 292.119 205.88C292.644 205.821 293.451 204.893 294.54 203.097C295.188 202.112 295.764 200.488 296.268 198.227C296.763 195.891 297.079 193.651 297.216 191.507C297.395 185.711 297.993 180.931 299.01 177.167C300.019 173.328 301.315 171.015 302.898 170.228C305.205 169.13 306.901 168.33 307.984 167.827C309.058 167.249 310.258 166.771 311.584 166.393C312.975 165.931 313.971 165.666 314.572 165.598C315.172 165.53 316.023 165.661 317.125 165.993C318.293 166.24 319.244 166.588 319.979 167.037C320.789 167.477 322.008 168.175 323.637 169.13C327.211 171.157 330.464 173.373 333.397 175.776C336.396 178.096 341.414 182.468 348.45 188.89C350.907 191.12 352.212 192.91 352.366 194.261C352.434 194.861 353.087 195.927 354.324 197.459C355.562 198.991 356.95 200.506 358.488 202.003L364.367 207.607L367.348 197.693C369.343 191.158 370.234 186.953 370.021 185.077C369.8 183.126 370.096 181.04 370.908 178.82C371.854 176.432 372.869 171.643 373.953 164.452C375.038 157.26 375.679 151.183 375.876 146.22C376.072 140.574 376.552 136.757 377.314 134.771C378.077 132.784 379.286 127.023 380.941 117.486C382.406 108.96 383.867 102.068 385.323 96.8103C386.771 91.4779 387.982 88.7564 388.958 88.6458C389.333 88.6032 389.728 88.0644 390.143 87.0293C390.557 85.9942 390.838 84.7843 390.985 83.3996C391.207 82.0063 391.691 80.2413 392.437 78.1047C393.183 75.968 393.967 74.169 394.789 72.7076ZM433.597 79.1382C437.667 75.4846 442.71 74.3808 448.726 75.8267C454.742 77.2727 459.579 80.7146 463.236 86.1524C464.968 88.6922 466.982 94.3921 469.279 103.252C471.567 112.037 473.658 122.099 475.551 133.437L476.68 140.377L485.757 137.98C491.808 136.382 496.606 135.458 500.15 135.208C503.393 134.993 505.881 134.14 507.612 132.652C509.335 131.089 509.782 129.328 508.952 127.37C508.13 125.487 506.534 116.775 504.164 101.235C503.597 97.5751 503.157 94.6988 502.844 92.6062C502.522 90.4386 502.271 88.2249 502.091 85.9652C501.911 83.7055 501.799 82.0461 501.754 80.987C501.777 79.8444 501.949 78.6847 502.272 77.5081C502.595 76.3314 502.96 75.53 503.368 75.1037C503.85 74.669 504.558 74.2087 505.491 73.7229C506.416 73.1621 507.328 72.8306 508.229 72.7285C509.196 72.5428 510.538 72.3147 512.255 72.0439C516.891 71.3663 520.754 72.2584 523.845 74.7201C525.024 75.7265 526.335 76.5659 527.779 77.2382C529.298 77.902 530.433 78.1914 531.184 78.1063C533.06 77.8936 534.164 79.2505 534.495 82.1771C534.632 83.3777 534.909 84.4863 535.329 85.5028C535.814 86.4358 536.328 86.9476 536.871 87.0381C537.422 87.2036 538.274 90.0331 539.429 95.5265C540.651 100.936 541.875 107.714 543.103 115.859C545.626 132.75 547.495 144.547 548.711 151.25C549.919 157.877 552.098 168.385 555.25 182.772C557.449 192.784 558.673 199.219 558.921 202.079C559.169 204.939 558.704 207.538 557.525 209.876C555.981 213.015 553.092 215.357 548.859 216.901C544.7 218.437 541.027 218.549 537.838 217.238C532.988 215.356 528.231 209.929 523.565 200.958C518.9 191.986 516.04 182.848 514.985 173.543L514.27 167.239L503.792 169.34C496.814 170.815 491.534 172.173 487.951 173.416L482.588 175.392L486.444 204.368C488.623 220.234 489.561 229.515 489.258 232.209C489.096 234.128 488.204 235.977 486.581 237.757C483.97 240.865 480.662 242.532 476.66 242.758C472.666 243.059 469.448 241.828 467.006 239.064C464.464 236.084 461.973 233.555 459.533 231.475C458.188 230.336 457.125 228.67 456.345 226.478C455.639 224.278 455.048 221.077 454.572 216.875C454.214 213.723 453.648 210.405 452.873 206.921C452.098 203.436 451.308 200.828 450.504 199.095C449.783 197.428 448.486 191.685 446.612 181.865C444.805 171.961 442.987 160.957 441.159 148.851C436.848 119.546 433.85 101.151 432.166 93.6654C431.062 88.6222 430.575 85.3332 430.705 83.7984C430.826 82.1885 431.79 80.6351 433.597 79.1382ZM553.956 57.7392C556.293 54.8901 558.575 53.2253 560.8 52.745C563.092 52.181 567.109 52.4097 572.849 53.431C576.42 54.0902 580.665 56.003 585.584 59.1695C590.57 62.2524 593.161 64.6568 593.356 66.3828C593.441 67.1332 596.243 70.7297 601.762 77.1724C607.281 83.6151 610.648 88.1737 611.863 90.8481C612.291 91.9396 612.964 92.8513 613.884 93.5832C614.803 94.315 615.637 94.6384 616.388 94.5533C618.114 94.3576 621.338 91.2938 626.062 85.3619C630.786 79.43 635.574 72.3887 640.426 64.2381C642.47 60.8142 644.415 57.8575 646.261 55.368C648.173 52.7951 649.43 51.4745 650.03 51.4065C651.514 51.0862 653.148 50.749 654.932 50.3947C660.642 49.1392 667.774 51.7128 676.328 58.1153C680.572 61.3584 683.079 63.6963 683.85 65.129C684.687 66.4782 685.039 69.2504 684.907 73.4457C684.79 77.1072 684.18 80.1026 683.076 82.4319C682.047 84.7527 679.69 88.0981 676.005 92.4681C670.981 98.4341 665.447 105.598 659.403 113.96C653.425 122.238 649.273 128.523 646.947 132.815C644.671 136.873 644.167 144.493 645.435 155.674C646.703 166.855 649.96 183.853 655.207 206.667C656.815 213.477 657.099 219.335 656.059 224.242C655.095 229.139 652.967 232.497 649.677 234.314C646.245 236.223 641.969 237.05 636.847 236.795C631.81 236.606 627.679 235.364 624.454 233.069C621.99 231.449 619.184 227.815 616.036 222.167C612.962 216.511 610.987 211.491 610.11 207.106C609.461 204.063 608.088 194.3 605.991 177.817C604.328 165.161 602.122 153.744 599.372 143.568C596.622 133.391 594.14 127.592 591.927 126.171C590.858 125.456 588.022 121.901 583.421 115.506C578.811 109.036 574.962 103.24 571.873 98.1184C571.22 97.0523 570.514 96.1824 569.753 95.5086C569.059 94.7512 568.525 94.3938 568.149 94.4363C567.774 94.4789 567.415 94.3296 567.073 93.9884C566.73 93.6472 566.529 93.214 566.469 92.6887C566.316 91.338 564.894 89.5231 562.204 87.244C560.432 85.6967 558.056 82.1659 555.074 76.6516C552.168 71.1288 550.579 67.1667 550.306 64.7654C550.238 64.1651 550.545 63.1803 551.225 61.811C551.981 60.4333 552.891 59.076 553.956 57.7392ZM89.1086 348.352C90.0428 346.536 91.4111 345.407 93.2136 344.965C95.0577 344.471 97.6616 344.603 101.025 345.362C104.243 346.09 106.985 347.442 109.252 349.417C111.518 351.393 113.095 353.779 113.983 356.576C115.095 360.108 116.354 368.278 117.759 381.087C119.206 393.844 119.809 402.516 119.569 407.104C119.382 412.16 119.416 418.949 119.669 427.471C119.913 433.809 119.727 439.079 119.111 443.282C118.536 447.432 117.686 449.785 116.562 450.34C116.203 450.523 115.927 450.815 115.735 451.217C115.543 451.619 115.471 452.031 115.519 452.453C115.737 454.376 113.266 455.63 108.107 456.215C106.841 456.358 104.8 455.949 101.983 454.985C99.1711 454.069 96.5781 452.985 94.2036 451.735C91.876 450.478 90.6697 449.475 90.5846 448.725C90.5102 448.068 90.0743 447.785 89.277 447.875C88.5266 447.96 86.6499 446.701 83.6469 444.096C80.6908 441.486 79.1388 439.738 78.9909 438.852C78.9483 438.477 78.739 438.097 78.3628 437.712C78.0283 437.275 77.6601 436.961 77.2583 436.769C76.8043 436.535 76.1095 435.854 75.1739 434.725C74.2331 433.549 73.305 432.277 72.3898 430.908C70.0671 427.181 68.5044 425.339 67.7018 425.383C66.8107 425.484 66.559 428.291 66.9467 433.805C67.1303 436.682 67.5386 440.911 68.1714 446.492C68.6499 450.713 68.9651 454.121 69.1169 456.717C69.3209 459.354 69.3518 461.512 69.2096 463.19C69.1143 464.864 68.8433 466.034 68.3965 466.703C68.002 467.412 67.4295 467.81 66.6791 467.895C66.2101 467.948 65.7778 468.116 65.3823 468.398C65.0337 468.675 64.8338 469.007 64.7825 469.393C64.6481 469.883 64.1145 470.205 63.1818 470.358C62.2545 470.558 61.0895 470.548 59.6868 470.327C58.3364 470.147 56.9023 469.858 55.3846 469.461C53.9191 469.104 52.4846 468.602 51.081 467.953C49.7296 467.347 48.6831 466.705 47.9414 466.029C45.6172 463.965 44.4099 462.534 44.3195 461.737C44.2291 460.94 42.221 444.066 38.2951 411.117L32.4687 361.614L39.3006 360.911C44.2827 360.441 48.0313 360.824 50.5464 362.059C53.0563 363.247 55.6217 365.972 58.2427 370.235C61.0991 374.899 64.2365 379.318 67.6548 383.49C71.1147 387.611 74.3352 391.925 77.3164 396.432C85.4332 408.528 90.4838 415.365 92.468 416.945C93.2513 417.569 93.6915 417.472 93.7887 416.653C93.8603 416.028 93.8079 414.727 93.6314 412.752C93.3051 409.036 92.9535 402.165 92.5766 392.137C92.2432 382.911 91.7325 374.846 91.0446 367.941C90.3514 360.989 89.583 356.516 88.7393 354.522C87.8956 352.527 88.0187 350.471 89.1086 348.352ZM131.699 349.437C134.193 347.967 136.757 346.916 139.394 346.285C142.03 345.653 147.54 344.815 155.924 343.769C163.324 342.835 168.514 342.318 171.496 342.217C174.472 342.07 176.656 342.274 178.049 342.828C180.381 343.704 181.922 344.099 182.673 344.014C183.001 343.977 183.499 344.182 184.167 344.628C184.877 345.023 185.553 345.54 186.196 346.18C187.152 347.069 187.921 348.407 188.503 350.193C189.133 351.975 189.413 353.605 189.343 355.086C189.315 356.514 188.926 357.271 188.176 357.356C187.707 357.409 187.277 357.6 186.887 357.93C186.543 358.254 186.302 358.637 186.162 359.081C185.94 360.056 181.687 361.298 173.403 362.807C165.113 364.27 159.074 365.477 155.287 366.429L149.598 367.787L150.489 378.16C150.703 380.463 150.863 382.298 150.971 383.663C151.125 385.023 151.312 386.047 151.533 386.735C151.748 387.375 151.983 387.776 152.239 387.937C152.495 388.098 152.852 388.105 153.31 387.958C155.019 387.527 157.752 388.167 161.509 389.879C165.307 391.538 167.729 393.211 168.776 394.898C170.277 397.245 170.743 399.472 170.175 401.58C169.606 403.687 168.152 405.11 165.813 405.851C157.803 408.516 153.728 409.24 153.59 408.02C153.494 407.176 153.188 406.783 152.673 406.842C151.98 407.015 151.447 407.764 151.075 409.089C151.002 409.287 150.956 409.506 150.935 409.746C150.611 411.493 150.567 415.085 150.803 420.521C151.034 425.91 151.065 429.327 150.897 430.771C150.815 431.73 151.088 432.245 151.713 432.317C152.532 432.414 155.309 431.981 160.045 431.016C166.865 429.578 172.125 428.839 175.826 428.799C179.521 428.713 183.242 429.265 186.987 430.455C190.096 431.48 191.995 432.31 192.684 432.944C193.415 433.527 193.885 434.732 194.092 436.561C194.385 439.141 193.775 441.514 192.263 443.68L190.065 446.922L164.467 450.537L138.877 454.222L134.983 450.674C132.393 448.355 130.65 446.391 129.755 444.782C128.865 443.221 128.201 437.358 127.761 427.195C127.363 416.979 127.382 407.096 127.82 397.546C128.292 387.47 127.928 378.39 126.726 370.309C126.255 366.989 125.901 363.87 125.666 360.952C125.43 358.034 125.413 356.207 125.614 355.471C125.805 354.642 126.457 353.689 127.57 352.613C128.725 351.485 130.101 350.426 131.699 349.437ZM195.986 332.6C199.727 329.991 203.05 329.757 205.953 331.898C207.556 333.046 209.043 333.804 210.415 334.171C211.979 334.563 213.136 335.548 213.885 337.126C215.304 340.005 216.918 348.373 218.726 362.229C219.521 367.982 220.622 376.859 222.031 388.86C225.261 416.093 226.846 432.586 226.786 438.341C226.717 442.339 226.002 444.629 224.643 445.211C224.414 445.284 224.135 445.339 223.807 445.377C223.244 445.441 222.695 445.622 222.159 445.92C221.669 446.213 221.349 446.534 221.199 446.884C220.779 447.786 219.22 447.654 216.523 446.488C213.83 445.368 211.226 443.763 208.709 441.673L204.604 438.148L198.915 394.259C195.123 365 193.117 349.409 192.899 347.486C192.459 344.021 192.535 340.924 193.129 338.197C193.717 335.423 194.669 333.557 195.986 332.6ZM248.126 328.042C253.721 326.695 259.363 326.602 265.053 327.762C270.784 328.87 276.363 331.159 281.792 334.628C285.848 337.304 289.954 341.256 294.11 346.485C298.265 351.714 301.538 357.115 303.927 362.687C305.268 365.717 305.727 369.347 305.304 373.575C304.928 377.798 303.771 381.634 301.835 385.084C300.568 387.318 299.902 388.771 299.835 389.444C299.811 390.064 300.289 390.722 301.271 391.418C305.405 394.37 309.932 398.892 314.851 404.985C319.816 411.072 322.691 415.686 323.475 418.828C324.058 421.042 324.239 422.636 324.017 423.612C323.795 424.587 323.019 425.91 321.688 427.581C320.435 429.101 319.361 430.101 318.466 430.583C317.617 431.059 316.497 431.233 315.105 431.106C313.139 430.949 310.591 429.837 307.458 427.769C304.373 425.696 302.762 424.05 302.623 422.831C302.581 422.456 302.426 422.141 302.16 421.886C301.888 421.584 301.612 421.449 301.33 421.481C301.049 421.513 300.697 421.339 300.274 420.96C299.897 420.575 299.607 420.109 299.403 419.562C299.146 418.974 298.372 418.016 297.082 416.69C295.791 415.364 294.334 414.033 292.71 412.697C288.835 409.526 286.877 407.753 286.834 407.377C286.792 407.002 285.883 406.108 284.107 404.694C282.326 403.233 278.238 402.367 271.842 402.094C265.492 401.817 261.58 401.453 260.103 401.003C259.123 400.734 258.597 400.912 258.525 401.538C258.412 402.216 258.782 404.644 259.636 408.822C260.674 413.787 261.087 419.94 260.874 427.279C260.703 434.567 260.015 439.395 258.811 441.764C257.913 443.481 256.459 444.691 254.448 445.394C252.443 446.144 250.33 446.36 248.109 446.042C245.935 445.718 243.801 444.915 241.708 443.632C239.662 442.344 238.149 440.734 237.17 438.803C235.85 435.959 235.343 434.212 235.649 433.56C236.453 431.853 236.809 427.87 236.717 421.61C236.666 415.298 236.206 409.983 235.337 405.663C234.035 399.208 232.895 392.093 231.919 384.318C231.345 379.68 230.699 376.072 229.979 373.494C229.301 370.863 228.184 367.926 226.628 364.682L222.717 356.575L224.853 350.276C226.039 346.911 227.715 343.681 229.882 340.585C232.048 337.489 233.812 335.864 235.172 335.71C235.641 335.657 236.005 335.521 236.266 335.301C236.573 335.076 236.71 334.823 236.678 334.542C236.604 333.885 237.951 332.782 240.721 331.233C243.532 329.632 246 328.568 248.126 328.042ZM267.568 351.204C265.335 350.365 263.591 350.064 262.335 350.301C261.127 350.533 259.106 351.57 256.275 353.411C253.001 355.54 251.488 357.279 251.736 358.629C251.984 359.978 252.61 364.657 253.613 372.667L255.196 384.743L262.372 383.929C265.795 383.541 268.07 383.07 269.194 382.515C270.313 381.913 272.006 380.296 274.273 377.663C275.573 376.138 276.727 374.583 277.734 372.996C278.737 371.362 279.289 370.159 279.392 369.388C279.597 367.844 279.19 365.729 278.173 363.042C277.203 360.349 276.343 359.045 275.592 359.13C275.311 359.162 274.898 358.876 274.355 358.273C273.853 357.617 273.335 356.821 272.801 355.884C272.315 354.942 271.546 354.031 270.497 353.153C269.488 352.222 268.512 351.572 267.568 351.204ZM365.693 330.531C368.292 329.571 372.065 329.333 377.013 329.817C381.955 330.255 387.019 331.343 392.204 333.083C397.529 334.807 400.45 335.639 400.966 335.581C401.529 335.517 403.288 336.576 406.243 338.759C407.486 339.663 408.843 340.531 410.315 341.361C411.786 342.192 412.919 342.752 413.712 343.042C415.532 343.596 417.414 345.948 419.357 350.098C421.295 354.201 422.511 358.433 423.005 362.795C423.372 366.031 423.241 370.321 422.612 375.665C422.03 381.004 421.297 384.389 420.414 385.819C419.656 387.093 418.949 388.812 418.291 390.976C417.676 393.089 415.136 397.082 410.672 402.956C406.254 408.825 403.075 412.415 401.134 413.728C399.099 415.051 396.564 417.001 393.531 419.578C392.272 420.623 390.664 421.732 388.707 422.904C386.802 424.117 385.149 425.041 383.748 425.675C380.759 426.964 376.555 428.01 371.136 428.815C365.764 429.614 362.517 429.673 361.394 428.993C360.377 428.396 358.241 427.783 354.987 427.154C353.626 426.881 351.625 426.205 348.985 425.127C346.398 424.09 343.94 422.944 341.612 421.688C337.824 419.695 335.266 418.085 333.939 416.857C332.613 415.63 331.143 413.564 329.531 410.659C328.139 408.015 327.177 405.82 326.647 404.075C326.164 402.324 325.885 400.076 325.811 397.329C325.786 395.432 325.85 393.691 326.003 392.106C326.197 390.469 326.44 389.467 326.731 389.102C327.069 388.731 327.312 388.157 327.462 387.38C327.658 386.598 327.716 385.855 327.637 385.151C327.557 384.448 327.742 383.144 328.191 381.241C328.682 379.285 329.287 377.292 330.007 375.263C331.779 370.36 332.617 367.486 332.521 366.641C332.367 365.281 333.548 362.083 336.065 357.048C338.623 351.96 341.061 347.907 343.379 344.889C344.876 343.009 348.102 340.458 353.057 337.236C358.059 334.009 362.271 331.774 365.693 330.531ZM393.127 354.426C390.464 352.305 387.548 351.092 384.378 350.786C381.25 350.428 378.155 350.993 375.093 352.48C372.302 353.842 370.048 355.119 368.331 356.311C366.613 357.503 365.009 359.063 363.517 360.989C362.025 362.916 360.73 365.106 359.63 367.558C358.578 370.005 357.357 373.279 355.97 377.379L353.127 385.61C352.619 386.998 352.426 388.231 352.548 389.31C352.671 390.388 352.273 392.12 351.356 394.504C349.853 398.427 349.972 401.359 351.712 403.299C353.494 405.187 356.706 405.868 361.349 405.342C363.46 405.102 366.121 404.278 369.334 402.869C372.542 401.412 375.332 399.837 377.705 398.143C380.078 396.449 381.214 395.156 381.113 394.265C381.06 393.796 381.158 393.405 381.408 393.092C381.652 392.732 381.985 392.528 382.407 392.48C383.533 392.352 385.657 390.14 388.78 385.843C391.903 381.546 393.952 378.036 394.925 375.313C395.439 373.972 395.854 372.191 396.172 369.97C396.537 367.744 396.736 365.726 396.769 363.917C396.798 360.826 396.642 358.825 396.302 357.914C395.961 357.002 394.903 355.84 393.127 354.426ZM535.446 296.819C536.469 294.946 537.871 293.694 539.652 293.065C541.069 292.572 541.838 292.864 541.961 293.943C541.998 294.271 542.288 294.523 542.83 294.699C543.419 294.87 544.089 294.913 544.84 294.828C545.825 294.716 546.599 294.842 547.163 295.206C547.768 295.517 548.215 296.108 548.504 296.978C549.076 298.67 550.123 300.998 551.647 303.96C553.107 306.788 554.023 309.629 554.395 312.484C554.761 315.293 554.457 317.228 553.485 318.288C553.059 318.716 552.703 319.35 552.418 320.19C552.18 321.025 552.104 321.817 552.189 322.568C552.396 324.397 552.198 326.414 551.593 328.621C550.714 331.76 549.672 339.337 548.469 351.349C548.102 354.811 547.638 357.001 547.077 357.919C546.474 358.89 545.629 361.908 544.54 366.971C543.493 371.983 543.039 375.098 543.177 376.318C543.337 377.725 543.131 378.841 542.559 379.665C541.982 380.443 541.061 383.422 539.796 388.601C538.577 393.774 537.711 396.604 537.196 397.09C536.722 397.523 535.905 399.112 534.744 401.857C533.857 404.095 532.938 405.624 531.986 406.445C531.039 407.312 529.03 408.442 525.958 409.836C523.474 410.972 521.791 411.211 520.908 410.551C520.073 409.885 518.952 409.633 517.545 409.792C516.982 409.856 516.471 409.748 516.011 409.467C515.599 409.181 515.366 408.804 515.313 408.335C515.265 407.913 514.424 406.987 512.789 405.557C511.16 404.174 509.212 402.709 506.947 401.161C504.676 399.565 502.493 397.913 500.399 396.203C498.352 394.487 497.017 393.19 496.395 392.31L494.042 389.157L491.983 394.877C490.663 398.732 490.074 401.292 490.218 402.559C490.276 403.074 490.075 403.81 489.613 404.765C489.151 405.72 488.564 406.618 487.852 407.458C486.136 409.505 485.311 410.81 485.374 411.373C485.438 411.936 484.742 413.131 483.287 414.959C482.414 416.055 481.451 416.782 480.399 417.139C479.347 417.496 477.52 417.727 474.92 417.831C471.417 417.944 468.492 417.278 466.143 415.834C463.794 414.39 462.103 412.254 461.07 409.426C460.32 407.421 459.343 405.513 458.14 403.702C456.984 401.885 455.786 399.693 454.545 397.126C453.298 394.513 451.359 391.027 448.728 386.67C446.096 382.313 444.371 378.828 443.552 376.213C442.507 372.863 440.298 367.627 436.925 360.504C433.553 353.381 430.794 348.112 428.649 344.698C426.206 340.747 424.673 337.073 424.05 333.676C423.475 330.274 423.849 327.5 425.173 325.354C426.498 323.209 428.684 321.964 431.733 321.618C433.609 321.405 435.123 321.566 436.276 322.1C437.471 322.583 439.259 323.9 441.641 326.052C443.166 327.352 444.561 328.762 445.826 330.281C447.137 331.795 447.932 332.94 448.21 333.716C448.897 335.585 449.567 336.887 450.221 337.62C450.915 338.302 451.696 339.947 452.562 342.557C453.427 345.166 454.166 346.65 454.776 347.008C455.387 347.367 457.557 351.633 461.287 359.808C465.063 367.978 467.029 372.743 467.183 374.103C467.364 375.698 468.102 377.182 469.398 378.555C470.369 379.585 470.996 380.084 471.277 380.052C471.606 380.015 472.11 379.435 472.79 378.313C473.196 377.697 473.556 376.682 473.87 375.269C474.18 373.809 474.377 372.409 474.463 371.069C474.575 367.446 474.949 364.459 475.584 362.106C476.215 359.707 477.025 358.262 478.014 357.769C479.456 357.083 480.516 356.583 481.193 356.269C481.865 355.908 482.614 355.609 483.443 355.373C484.313 355.084 484.935 354.918 485.31 354.876C485.685 354.833 486.217 354.915 486.906 355.122C487.636 355.277 488.231 355.495 488.69 355.775C489.196 356.05 489.958 356.486 490.976 357.084C493.21 358.35 495.243 359.735 497.076 361.237C498.95 362.687 502.087 365.419 506.485 369.434C508.02 370.827 508.836 371.946 508.931 372.79C508.974 373.165 509.382 373.832 510.156 374.789C510.929 375.746 511.797 376.693 512.758 377.629L516.433 381.131L518.295 374.935C519.542 370.851 520.099 368.222 519.966 367.05C519.828 365.83 520.013 364.527 520.521 363.139C521.111 361.647 521.746 358.654 522.424 354.159C523.102 349.665 523.502 345.866 523.626 342.765C523.748 339.236 524.048 336.85 524.525 335.609C525.001 334.367 525.757 330.766 526.791 324.806C527.707 319.477 528.62 315.169 529.53 311.883C530.435 308.551 531.192 306.85 531.802 306.781C532.036 306.754 532.283 306.417 532.542 305.77C532.801 305.123 532.977 304.367 533.069 303.502C533.207 302.631 533.51 301.528 533.976 300.192C534.442 298.857 534.932 297.733 535.446 296.819ZM561.102 291.203C564.844 288.593 568.167 288.359 571.07 290.5C572.672 291.648 574.16 292.406 575.531 292.773C577.096 293.166 578.253 294.151 579.002 295.729C580.421 298.608 582.034 306.975 583.843 320.831C584.638 326.584 585.739 335.461 587.147 347.462C590.378 374.695 591.963 391.189 591.903 396.944C591.833 400.942 591.119 403.231 589.76 403.813C589.531 403.887 589.252 403.942 588.924 403.979C588.361 404.043 587.811 404.224 587.275 404.522C586.786 404.815 586.466 405.137 586.316 405.486C585.896 406.389 584.337 406.257 581.639 405.09C578.947 403.97 576.343 402.365 573.825 400.276L569.721 396.751L564.032 352.862C560.239 323.603 558.234 308.011 558.016 306.088C557.576 302.623 557.652 299.527 558.245 296.799C558.833 294.025 559.786 292.16 561.102 291.203ZM614.528 298.612C618.622 297.435 624.461 296.56 632.044 295.985C639.621 295.363 644 295.437 645.18 296.206C646.208 296.897 646.885 297.841 647.211 299.039C647.537 300.237 647.514 301.499 647.141 302.824C646.764 304.102 646.055 305.393 645.016 306.699C644.023 307.999 642.793 309.088 641.325 309.967C640.211 310.616 639.243 311.296 638.421 312.007C637.593 312.671 637.193 313.12 637.22 313.354C637.246 313.589 636.015 314.037 633.524 314.7C631.029 315.315 628.012 315.942 624.475 316.581C620.932 317.172 617.818 317.787 615.136 318.423C612.453 319.06 611.007 319.509 610.799 319.77C610.591 320.031 610.669 321.139 611.033 323.092C611.439 324.994 612.043 327.182 612.846 329.656C614.663 335.625 615.698 339.095 615.95 340.064C616.056 340.574 616.989 340.848 618.751 340.886C620.555 340.872 623.52 340.63 627.647 340.162C632.15 339.652 635.668 339.467 638.201 339.607C640.782 339.742 642.784 340.228 644.209 341.064C645.634 341.9 646.781 343.218 647.65 345.02C648.342 346.509 648.683 347.634 648.674 348.395C648.66 349.109 648.287 350.007 647.555 351.087C646.084 353.202 644.133 354.848 641.702 356.026C639.27 357.205 635.66 358.255 630.872 359.178C624.693 360.401 621.662 361.529 621.779 362.56C621.821 362.936 621.96 363.324 622.196 363.724C622.478 364.12 622.771 364.396 623.073 364.551C623.621 364.774 624.432 367.319 625.506 372.185C626.627 377.045 627.583 382.329 628.372 388.034C628.706 390.562 628.789 392.548 628.62 393.992C628.451 395.436 627.952 396.894 627.121 398.366C626.529 399.43 625.89 400.287 625.203 400.935C624.522 401.629 623.988 401.951 623.603 401.9C622.633 401.725 621.089 401.52 618.973 401.285C618.06 401.198 616.941 400.755 615.615 399.955C614.29 399.156 613.141 398.241 612.169 397.211C610.45 395.458 609.308 393.759 608.741 392.113C608.221 390.462 607.569 386.807 606.785 381.148C605.186 369.976 602.718 359.52 599.381 349.78C595.215 337.759 592.346 328.37 590.772 321.613C589.735 317.076 588.79 314.19 587.938 312.957C587.127 311.671 587.246 309.995 588.294 307.928C588.917 306.718 589.629 305.877 590.431 305.406C591.227 304.888 592.516 304.528 594.298 304.326C597.3 303.986 600.376 303.257 603.527 302.14C606.72 300.97 610.387 299.794 614.528 298.612ZM652.844 290.278C655.388 287.994 658.54 287.304 662.3 288.208C666.06 289.112 669.083 291.263 671.369 294.661C672.451 296.249 673.71 299.811 675.146 305.349C676.576 310.84 677.883 317.128 679.066 324.214L679.772 328.552L685.445 327.054C689.227 326.055 692.225 325.478 694.44 325.321C696.467 325.187 698.022 324.654 699.104 323.724C700.181 322.747 700.46 321.646 699.941 320.422C699.428 319.246 698.43 313.801 696.949 304.088C696.595 301.801 696.32 300.003 696.124 298.695C695.923 297.34 695.766 295.957 695.653 294.544C695.541 293.132 695.471 292.095 695.443 291.433C695.457 290.719 695.565 289.994 695.766 289.259C695.968 288.523 696.196 288.022 696.451 287.756C696.753 287.484 697.195 287.197 697.778 286.893C698.356 286.543 698.926 286.335 699.489 286.272C700.094 286.156 700.933 286.013 702.006 285.844C704.903 285.42 707.318 285.978 709.25 287.516C709.986 288.145 710.806 288.67 711.708 289.09C712.658 289.505 713.367 289.686 713.836 289.633C715.009 289.5 715.699 290.348 715.906 292.177C715.991 292.927 716.165 293.62 716.427 294.256C716.73 294.839 717.052 295.158 717.391 295.215C717.735 295.319 718.268 297.087 718.99 300.52C719.753 303.901 720.518 308.137 721.286 313.228C722.863 323.785 724.031 331.158 724.791 335.347C725.546 339.489 726.908 346.057 728.877 355.049C730.252 361.306 731.017 365.328 731.172 367.116C731.327 368.903 731.036 370.528 730.299 371.989C729.334 373.951 727.529 375.414 724.883 376.379C722.284 377.339 719.988 377.409 717.995 376.59C714.964 375.414 711.991 372.022 709.075 366.415C706.159 360.807 704.371 355.096 703.712 349.28L703.265 345.341L696.716 346.653C692.355 347.575 689.055 348.425 686.816 349.201L683.464 350.436L685.874 368.547C687.236 378.463 687.822 384.263 687.633 385.947C687.531 387.146 686.974 388.302 685.96 389.414C684.327 391.357 682.26 392.399 679.759 392.54C677.262 392.728 675.251 391.959 673.725 390.231C672.137 388.369 670.58 386.788 669.055 385.488C668.214 384.776 667.55 383.735 667.062 382.365C666.621 380.99 666.252 378.989 665.954 376.363C665.73 374.393 665.377 372.319 664.892 370.142C664.408 367.964 663.914 366.334 663.411 365.251C662.961 364.209 662.15 360.619 660.979 354.482C659.85 348.292 658.714 341.414 657.571 333.848C654.876 315.533 653.003 304.036 651.95 299.357C651.26 296.205 650.956 294.15 651.037 293.19C651.113 292.184 651.715 291.213 652.844 290.278ZM763.269 273.767C764.455 272.493 767.25 271.796 771.654 271.676C776.105 271.552 779.158 272.084 780.813 273.274C781.539 273.81 782.169 274.546 782.703 275.483C783.283 276.415 783.621 277.303 783.717 278.147C783.813 278.991 784.06 279.913 784.458 280.913C784.904 281.907 785.419 282.68 786.004 283.232C787.253 284.61 787.97 285.906 788.155 287.12C788.256 288.012 789.264 289.987 791.178 293.048C793.134 296.056 795.137 298.846 797.186 301.416C798.508 303.024 800.849 307.533 804.206 314.942C809.382 326.231 813.436 333.918 816.369 338.004C821.723 345.424 824.52 350.19 824.759 352.301C824.961 354.083 825.438 355.145 826.189 355.487C826.941 355.83 827.684 357.361 828.42 360.08C829.198 362.747 829.466 364.902 829.224 366.544C829.164 367.264 828.723 368.192 827.902 369.33C827.086 370.516 826.181 371.544 825.188 372.417C823.591 373.833 822.401 374.657 821.62 374.888C820.891 375.161 819.929 375.056 818.734 374.574C816.543 373.682 813.521 371.745 809.667 368.762C805.861 365.773 803.904 363.81 803.798 362.872C803.628 361.371 802.667 358.558 800.917 354.434C799.214 350.304 797.787 347.355 796.636 345.585C795.559 344.045 794.603 343.155 793.769 342.917C792.976 342.627 791.243 342.634 788.569 342.937C786.975 343.118 784.961 343.584 782.529 344.334C780.138 345.033 777.994 345.822 776.099 346.702C774.204 347.582 772.313 348.295 770.428 348.842C768.589 349.383 767.284 349.602 766.512 349.499C765.354 349.346 764.625 349.404 764.323 349.676C763.667 350.178 762.61 352.792 761.151 357.518C760.985 358.154 760.266 360.611 758.994 364.888C757.581 369.608 756.345 372.955 755.287 374.927C754.269 376.848 752.917 378.331 751.231 379.377L747.631 381.567L741.89 376.803C740.266 375.467 738.858 374.154 737.667 372.864C736.517 371.521 735.91 370.569 735.846 370.006C735.687 368.599 736.125 365.557 737.163 360.879C738.241 356.149 738.934 352.412 739.241 349.67C739.547 346.927 740.322 343.918 741.566 340.642C745.846 329.373 748.316 323.084 748.975 321.775C749.546 320.522 750.235 317.594 751.043 312.99C751.393 311.05 751.817 309.339 752.314 307.858C752.852 306.324 753.301 305.466 753.66 305.282C754.061 305.047 754.422 304.46 754.743 303.521C755.111 302.576 755.349 301.528 755.456 300.376C755.658 297.55 756.187 295.092 757.042 292.999C757.327 292.16 757.564 291.111 757.754 289.855C757.939 288.551 757.983 287.477 757.888 286.633C757.702 284.992 758.148 282.851 759.226 280.211C760.346 277.519 761.694 275.371 763.269 273.767ZM779.243 312.215C778.819 311.408 778.361 310.723 777.87 310.162C777.421 309.548 777.078 309.254 776.844 309.28C776.234 309.35 775.114 311.828 773.483 316.716C771.894 321.551 771.334 324.156 771.804 324.53C772.326 324.946 774.317 324.697 777.776 323.782C780.365 323.156 781.826 322.634 782.158 322.216C782.533 321.746 782.452 320.615 781.916 318.823C781.171 316.438 780.28 314.235 779.243 312.215ZM883.284 258.877C891.115 257.562 896.566 256.825 899.635 256.667C902.7 256.462 905.343 256.732 907.565 257.478C909.443 258.12 911.179 259.182 912.772 260.664C914.36 262.099 915.228 263.473 915.377 264.787C915.573 266.094 916.175 267.427 917.184 268.786C917.848 269.613 918.149 270.386 918.088 271.106C918.069 271.773 917.662 272.793 916.868 274.166C915.57 276.545 913.247 278.471 909.899 279.944C906.55 281.416 901.497 282.725 894.739 283.871L883.211 285.891L884.339 304.004C885.085 316.033 885.749 323.985 886.331 327.862C886.908 331.692 886.948 334.561 886.452 336.47C886.003 338.374 886.464 341.599 887.834 346.147C889.252 350.689 890.408 356.068 891.303 362.284L892.708 371.531L888.487 375.786L884.329 379.962L879.087 378.348C876.62 377.535 874.715 376.658 873.374 375.718C872.079 374.772 870.952 373.427 869.995 371.683C869.089 369.981 868.03 367.346 866.818 363.778C865.348 359.194 863.694 350.261 861.856 336.979C860.017 323.697 859.472 316.585 860.221 315.645C860.642 315.17 860.643 312.035 860.223 306.24C859.845 300.392 859.671 297.182 859.701 296.608C859.72 295.941 859.73 295.394 859.729 294.966C859.728 294.539 859.659 294.143 859.523 293.778C859.428 293.361 859.3 293.067 859.138 292.896C859.023 292.719 858.743 292.56 858.3 292.421C857.904 292.275 857.492 292.203 857.064 292.204C856.637 292.205 855.978 292.256 855.086 292.357C854.237 292.406 853.393 292.502 852.554 292.645C851.715 292.787 850.597 292.985 849.201 293.238C846.502 293.734 843.811 294.087 841.127 294.296C838.443 294.506 836.592 294.526 835.576 294.356C833.109 293.97 830.64 292.303 828.168 289.353C825.743 286.398 824.368 283.49 824.044 280.629C823.677 277.393 824.247 274.881 825.755 273.095C827.304 271.257 829.99 269.813 833.814 268.761C838.148 267.605 845.218 266.067 855.023 264.148C864.823 262.182 874.244 260.425 883.284 258.877Z" fill="white"/>
</svg>
